<svg xmlns="http://www.w3.org/2000/svg" xmlns:xlink="http://www.w3.org/1999/xlink" width="162.665" height="166.05" viewBox="0 0 162.665 166.05">
  <defs>
    <clipPath id="clip-path">
      <path id="Path_9534" data-name="Path 9534" d="M55.938,118.56a81.333,81.333,0,1,1,81.332,81.333A81.334,81.334,0,0,1,55.938,118.56" transform="translate(-55.938 -37.227)"/>
    </clipPath>
  </defs>
  <g id="avatar" transform="translate(-55.938 -37.227)">
    <path id="Path_9511" data-name="Path 9511" d="M55.938,118.56a81.333,81.333,0,1,1,81.332,81.333A81.334,81.334,0,0,1,55.938,118.56" transform="translate(0 3.385)" fill="#77b0e8"/>
    <g id="Group_2610" data-name="Group 2610" transform="translate(55.938 37.227)">
      <g id="Group_2609" data-name="Group 2609" clip-path="url(#clip-path)">
        <path id="Path_9512" data-name="Path 9512" d="M186.772,241.706H99.349l1.566-51.947c.424-14.613,8.906-26.242,23.636-26.242h39.438c14.731,0,20.793,10.438,21.218,25.051Z" transform="translate(-62.613 -56.645)" fill="#c4803d"/>
        <path id="Path_9513" data-name="Path 9513" d="M175.17,165.154a22.92,22.92,0,0,0-8.895-1.637H126.836a23.58,23.58,0,0,0-9.27,1.8,58.772,58.772,0,0,0-2.22,15.568l-1.14,60.821h63.651l-1.141-62.216a70.548,70.548,0,0,0-1.548-14.335" transform="translate(-64.897 -56.645)" fill="#dba54d"/>
        <path id="Path_9514" data-name="Path 9514" d="M166,163.516H135.87C136.506,173.3,143,181,150.935,181s14.429-7.7,15.064-17.484" transform="translate(-68.228 -56.645)" fill="#fff"/>
        <path id="Path_9515" data-name="Path 9515" d="M162.247,163.516H140.9c1.265,7.1,5.557,12.328,10.672,12.328s9.406-5.231,10.673-12.328" transform="translate(-69.002 -56.645)" fill="#f4cfa2"/>
        <path id="Path_9516" data-name="Path 9516" d="M173.8,193.127l1.654,5.551,5.792.142-4.769,3.29,1.655,5.551-4.6-3.518-4.769,3.288,1.924-5.463-4.6-3.519,5.79.141Z" transform="translate(-72.874 -61.198)" fill="#fff"/>
        <rect id="Rectangle_119" data-name="Rectangle 119" width="12.893" height="15.177" transform="translate(75.29 96.656)" fill="#f4cfa2"/>
        <path id="Path_9517" data-name="Path 9517" d="M153.5,161.3a25.355,25.355,0,0,0,4.3.479V151.444H144.908v6.665C147.351,160.163,150.294,160.817,153.5,161.3Z" transform="translate(-69.618 -54.789)" fill="#dda383"/>
        <path id="Path_9518" data-name="Path 9518" d="M159.5,76.693H137.3a14.734,14.734,0,0,0-14.734,14.734v27.406A25.833,25.833,0,0,0,148.4,144.667c14.269,0,25.835-6.852,25.835-21.12V91.427A14.734,14.734,0,0,0,159.5,76.693" transform="translate(-66.182 -43.295)" fill="#f4cfa2"/>
        <path id="Path_9519" data-name="Path 9519" d="M129.665,92.438a.573.573,0,0,1,.561-.56c4.148-.014,7.964,1.516,11.937,2.5a56,56,0,0,0,13.955,1.252c6.386-.043,12.829-.886,18.112-4.209A14.733,14.733,0,0,0,159.5,76.694H137.3a14.734,14.734,0,0,0-14.734,14.734v15.139C127.265,103.931,129.089,97.484,129.665,92.438Z" transform="translate(-66.182 -43.295)" fill="#dda383"/>
        <path id="Path_9520" data-name="Path 9520" d="M112.8,73.07s-1.62-18.859,22.986-14.734c0,0,3.388-5.893,2.5-9.872,0,0,8.545,3.979,7.662,11.935,0,0,4.126-5.3,3.095-14.292,0,0,12.082,4.42,11.786,15.177,0,0,3.242-8.693-.735-14,0,0,13.555,4.863,15.322,19.448s-12.376,18.86-27.847,16.8-21.218-4.567-22.544-4.421-3.684,2.653-3.094,3.831,6.336,24.753-6.04,29.764c0,0-2.8-1.473-5.157-9.578s-5.158-20.037-5.011-21.217A15.372,15.372,0,0,1,112.8,73.07" transform="translate(-63.593 -38.592)" fill="#723c1e"/>
        <path id="Path_9521" data-name="Path 9521" d="M175.424,68.636a22.772,22.772,0,0,0-3.762-10.162c.774,6.05-2.21,12.942-7.328,16-4.363,2.61-9.359,4.481-14.408,2.762-3.154-1.074-2.929-4.543-3.163-7.31-3.727.654-6.984,3.476-10.719,4.266-1,.212-2.437.513-3.364-.132-1.507-1.05-.986-2.958-1.172-4.576a36.575,36.575,0,0,1-6.106,1.973c-1.265.283-2.837.9-4.169.706-1.421-.207-1.654-1.878-2-3.132-2.592.854-5.886,2.876-6.381,5.617a.517.517,0,0,1-.061.152c.005.1.01.169.01.169a15.373,15.373,0,0,0-7.072,8.841c-.147,1.18,2.653,13.113,5.011,21.217s5.157,9.578,5.157,9.578c12.376-5.011,6.629-28.585,6.04-29.764s1.768-3.684,3.094-3.831,7.073,2.357,22.544,4.421S177.193,83.223,175.424,68.636Z" transform="translate(-63.593 -40.494)" fill="#633422"/>
        <path id="Path_9522" data-name="Path 9522" d="M122.527,118.318s.147-7.808-6.63-9.577-9.8,6.04-7.515,12.671,9.5,7.589,13.482,6.631Z" transform="translate(-63.886 -48.184)" fill="#f4cfa2"/>
        <path id="Path_9523" data-name="Path 9523" d="M135.5,104.211c-.078-.044.025-.364.258-.878a7.454,7.454,0,0,1,1.245-1.9,5.79,5.79,0,0,1,2.575-1.659,5.239,5.239,0,0,1,3.084.183,6.249,6.249,0,0,1,1.862,1.048,3.787,3.787,0,0,1,.791.814c.283.42.19.578.058.7s-.273.194-.677-.02a16.616,16.616,0,0,0-2.474-1.317,4.5,4.5,0,0,0-2.365-.241,5.471,5.471,0,0,0-2.218,1.159c-1.237,1.082-1.948,2.232-2.138,2.114" transform="translate(-68.168 -46.821)" fill="#351c17"/>
        <path id="Path_9524" data-name="Path 9524" d="M176.444,103.069c-.175.145-.891-.858-2.139-1.377a3.292,3.292,0,0,0-2.064-.107,7.2,7.2,0,0,0-1.964.935c-1.131.776-1.681,1.292-2.038,1.486s-.494.134-.635.019-.238-.254-.035-.645a6.092,6.092,0,0,1,1.993-1.942,6.848,6.848,0,0,1,2.43-1.021,3.985,3.985,0,0,1,2.712.45c1.467.928,1.841,2.159,1.739,2.2" transform="translate(-73.084 -46.932)" fill="#351c17"/>
        <path id="Path_9525" data-name="Path 9525" d="M113.3,116.428c-.049.01-.074-.461.344-1.159a1.833,1.833,0,0,1,1.236-.835,2.77,2.77,0,0,1,1.87.454,7.545,7.545,0,0,1,2.626,3.727,11.383,11.383,0,0,1,.679,2.474,3.581,3.581,0,0,1-.574,2.748,1.634,1.634,0,0,1-1.419.592,2.065,2.065,0,0,1-1.164-.539,3.79,3.79,0,0,1-1.061-1.567,2.593,2.593,0,0,1,.246-2.276c.574-.8.772-.666.828-.6.1.1.058.159-.285.883a2.2,2.2,0,0,0-.038,1.719,3.19,3.19,0,0,0,.856,1.188.914.914,0,0,0,1.38.035,2.827,2.827,0,0,0,.385-2.078,11.137,11.137,0,0,0-.587-2.281,7.4,7.4,0,0,0-2.194-3.459,2.354,2.354,0,0,0-1.431-.5,1.43,1.43,0,0,0-1.01.5c-.464.531-.59.983-.685.972" transform="translate(-64.754 -49.094)" fill="#351c17"/>
        <path id="Path_9526" data-name="Path 9526" d="M160.181,129.78c-.075-.1.367-.565,1.1-1.285.36-.361.8-.784,1.241-1.267a3.355,3.355,0,0,0,.534-.723v0c.006.016-.011-.023-.074-.113l-.323-.452c-1.891-2.473-3.413-4.543-3.214-4.705.183-.146,2,1.648,3.929,4.175.12.165.238.322.349.5a.959.959,0,0,1,.144.921,3.44,3.44,0,0,1-.754.969,12.778,12.778,0,0,1-1.427,1.18c-.85.608-1.432.9-1.5.8" transform="translate(-71.85 -50.142)" fill="#351c17"/>
        <path id="Path_9527" data-name="Path 9527" d="M162.379,140.769c.088.083-.474.78-1.721,1.421a9.529,9.529,0,0,1-5.311.911,10.166,10.166,0,0,1-5.024-1.937c-1.111-.834-1.593-1.572-1.5-1.648s.709.466,1.844,1.123a12,12,0,0,0,4.77,1.576,10.969,10.969,0,0,0,4.965-.6c1.224-.453,1.895-.938,1.975-.845" transform="translate(-70.218 -52.953)" fill="#351c17"/>
        <path id="Path_9528" data-name="Path 9528" d="M136.873,121.665c.14.113-.251.785-.735,1.34s-.6.473-.739.355-.234-.226.249-.781,1.022-1.078,1.225-.913" transform="translate(-68.139 -50.205)" fill="#dda383"/>
        <path id="Path_9529" data-name="Path 9529" d="M139.658,122.014c.14.113-.25.785-.734,1.34s-.6.473-.739.355-.234-.226.249-.782,1.022-1.077,1.224-.912" transform="translate(-68.567 -50.259)" fill="#dda383"/>
        <path id="Path_9530" data-name="Path 9530" d="M177.354,120.621c.14.114-.25.785-.734,1.34s-.6.473-.74.355-.234-.226.249-.781,1.023-1.078,1.225-.913" transform="translate(-74.363 -50.045)" fill="#dda383"/>
        <path id="Path_9531" data-name="Path 9531" d="M180.14,120.969c.139.113-.251.785-.734,1.34s-.6.474-.74.354-.233-.226.249-.781,1.022-1.077,1.225-.912" transform="translate(-74.791 -50.098)" fill="#dda383"/>
        <path id="Path_9532" data-name="Path 9532" d="M140.208,113.227c0-2.645,1.023-4.788,2.283-4.788s2.285,2.144,2.285,4.788-1.024,4.788-2.285,4.788-2.283-2.143-2.283-4.788" transform="translate(-68.895 -48.176)" fill="#351c17"/>
        <path id="Path_9533" data-name="Path 9533" d="M170.938,112.27c0-2.645,1.024-4.788,2.284-4.788s2.284,2.144,2.284,4.788-1.024,4.788-2.284,4.788-2.284-2.144-2.284-4.788" transform="translate(-73.62 -48.029)" fill="#351c17"/>
      </g>
    </g>
  </g>
</svg>
