<svg fill="none" height="20" viewBox="0 0 13 20" width="13" xmlns="http://www.w3.org/2000/svg">
    <path
        d="M0 3.25C0 1.45795 1.45795 0 3.25 0C5.04205 0 6.5 1.45795 6.5 3.25C6.5 4.30755 5.98455 5.23965 5.2 5.8331V3.25C5.2 2.1749 4.3251 1.3 3.25 1.3C2.1749 1.3 1.3 2.1749 1.3 3.25V5.8331C0.51545 5.23965 0 4.30755 0 3.25ZM11.05 7.8C10.3324 7.8 9.75 8.3824 9.75 9.1V8.45C9.75 7.7324 9.1676 7.15 8.45 7.15C7.7324 7.15 7.15 7.7324 7.15 8.45V7.8C7.15 7.0824 6.5676 6.5 5.85 6.5C5.1324 6.5 4.55 7.0824 4.55 7.8V3.25C4.55 2.5324 3.9676 1.95 3.25 1.95C2.5324 1.95 1.95 2.5324 1.95 3.25V9.93005C1.75825 9.8189 1.5379 9.75 1.3 9.75C0.5824 9.75 0 10.3324 0 11.05V13C0 13.2951 0.10075 13.5817 0.2847 13.8118L2.6 17.55H10.4L11.8905 15.4095C12.1433 15.1567 12.35 14.6575 12.35 14.3V9.1C12.35 8.3824 11.7676 7.8 11.05 7.8ZM2.6 18.2V18.85C2.6 19.2088 2.89055 19.5 3.25 19.5H9.75C10.1095 19.5 10.4 19.2088 10.4 18.85V18.2H2.6Z"
        fill="#A2A2A7" />
</svg>
