<svg fill="none" height="27" viewBox="0 0 27 27" width="27" xmlns="http://www.w3.org/2000/svg">
    <path
        d="M18.2138 2.25H8.78625C4.69125 2.25 2.25 4.69125 2.25 8.78625V18.2025C2.25 22.3088 4.69125 24.75 8.78625 24.75H18.2025C22.2975 24.75 24.7388 22.3088 24.7388 18.2138V8.78625C24.75 4.69125 22.3088 2.25 18.2138 2.25ZM12.3187 19.6987C11.9925 20.025 11.3737 20.34 10.9237 20.4075L8.15625 20.8013C8.055 20.8125 7.95375 20.8237 7.8525 20.8237C7.39125 20.8237 6.96375 20.6663 6.66 20.3625C6.28875 19.9913 6.13125 19.4513 6.22125 18.855L6.615 16.0875C6.6825 15.6263 6.98625 15.0188 7.32375 14.6925L12.3413 9.675C12.4313 9.91125 12.5212 10.1475 12.645 10.4175C12.7575 10.6538 12.8812 10.9013 13.0162 11.1263C13.1287 11.3175 13.2525 11.4975 13.3538 11.6325C13.4775 11.8238 13.6237 12.0037 13.7137 12.105C13.77 12.1838 13.815 12.24 13.8375 12.2625C14.1188 12.6 14.445 12.915 14.7262 13.1512C14.805 13.23 14.85 13.275 14.8725 13.2863C15.0413 13.4213 15.21 13.5563 15.3562 13.6575C15.5362 13.7925 15.7163 13.9163 15.9075 14.0175C16.1325 14.1525 16.38 14.2762 16.6275 14.4C16.8862 14.5125 17.1225 14.6138 17.3588 14.6925L12.3187 19.6987ZM19.5413 12.4762L18.5063 13.5225C18.4388 13.59 18.3487 13.6237 18.2587 13.6237C18.225 13.6237 18.18 13.6238 18.1575 13.6125C15.8737 12.96 14.0512 11.1375 13.3988 8.85375C13.365 8.73 13.3987 8.595 13.4887 8.51625L14.535 7.47C16.245 5.76 17.8762 5.79375 19.5525 7.47C20.4075 8.325 20.8237 9.14625 20.8237 10.0013C20.8125 10.8113 20.3963 11.6213 19.5413 12.4762Z"
        fill="#0066FF" />
</svg>
