<svg fill="none" height="14" viewBox="0 0 14 14" width="14" xmlns="http://www.w3.org/2000/svg">
    <path
        d="M13.125 12.8333H12.8333V7.58333C12.8333 7.50598 12.8026 7.43179 12.7479 7.37709C12.6932 7.3224 12.619 7.29167 12.5417 7.29167C12.4643 7.29167 12.3901 7.3224 12.3354 7.37709C12.2807 7.43179 12.25 7.50598 12.25 7.58333V12.8333H10.5V2.625C10.5 2.47029 10.5615 2.32192 10.6709 2.21252C10.7803 2.10312 10.9286 2.04167 11.0833 2.04167H11.6667C11.8214 2.04167 11.9697 2.10312 12.0791 2.21252C12.1885 2.32192 12.25 2.47029 12.25 2.625V2.91667C12.25 2.99402 12.2807 3.06821 12.3354 3.12291C12.3901 3.1776 12.4643 3.20833 12.5417 3.20833C12.619 3.20833 12.6932 3.1776 12.7479 3.12291C12.8026 3.06821 12.8333 2.99402 12.8333 2.91667V2.625C12.8333 2.31558 12.7104 2.01883 12.4916 1.80004C12.2728 1.58125 11.9761 1.45833 11.6667 1.45833H11.0833C10.7739 1.45833 10.4772 1.58125 10.2584 1.80004C10.0396 2.01883 9.91667 2.31558 9.91667 2.625V12.8333H8.75V5.54167C8.75 5.38846 8.71982 5.23675 8.66119 5.0952C8.60256 4.95366 8.51663 4.82504 8.40829 4.71671C8.29996 4.60837 8.17134 4.52244 8.0298 4.46381C7.88825 4.40518 7.73654 4.375 7.58333 4.375H7C6.84679 4.375 6.69508 4.40518 6.55354 4.46381C6.41199 4.52244 6.28338 4.60837 6.17504 4.71671C6.06671 4.82504 5.98077 4.95366 5.92214 5.0952C5.86351 5.23675 5.83333 5.38846 5.83333 5.54167V12.8333H4.66667V8.45833C4.66667 8.30513 4.63649 8.15342 4.57786 8.01187C4.51923 7.87032 4.43329 7.74171 4.32496 7.63338C4.21662 7.52504 4.08801 7.43911 3.94646 7.38047C3.80492 7.32184 3.65321 7.29167 3.5 7.29167H2.91667C2.76346 7.29167 2.61175 7.32184 2.4702 7.38047C2.32866 7.43911 2.20004 7.52504 2.09171 7.63338C1.98337 7.74171 1.89744 7.87032 1.83881 8.01187C1.78018 8.15342 1.75 8.30513 1.75 8.45833V12.8333H0.583333V0.291667C0.583333 0.214312 0.552604 0.140125 0.497906 0.0854272C0.443208 0.0307291 0.369022 0 0.291667 0C0.214312 0 0.140125 0.0307291 0.0854272 0.0854272C0.0307291 0.140125 0 0.214312 0 0.291667V13.125C-1.79542e-09 13.1633 0.00754418 13.2012 0.0222018 13.2366C0.0368594 13.272 0.0583435 13.3042 0.0854272 13.3312C0.112511 13.3583 0.144664 13.3798 0.180051 13.3945C0.215437 13.4091 0.253364 13.4167 0.291667 13.4167H13.125C13.2024 13.4167 13.2765 13.3859 13.3312 13.3312C13.3859 13.2765 13.4167 13.2024 13.4167 13.125C13.4167 13.0476 13.3859 12.9735 13.3312 12.9188C13.2765 12.8641 13.2024 12.8333 13.125 12.8333ZM4.08333 12.8333H2.33333V8.45833C2.33333 8.30362 2.39479 8.15525 2.50419 8.04585C2.61358 7.93646 2.76196 7.875 2.91667 7.875H3.5C3.5766 7.875 3.65246 7.89009 3.72323 7.9194C3.79401 7.94872 3.85831 7.99169 3.91248 8.04585C3.96665 8.10002 4.00961 8.16433 4.03893 8.2351C4.06824 8.30587 4.08333 8.38173 4.08333 8.45833V12.8333ZM8.16667 12.8333H6.41667V5.54167C6.41667 5.38696 6.47812 5.23858 6.58752 5.12919C6.69692 5.01979 6.84529 4.95833 7 4.95833H7.58333C7.65994 4.95833 7.73579 4.97342 7.80657 5.00274C7.87734 5.03205 7.94164 5.07502 7.99581 5.12919C8.04998 5.18335 8.09295 5.24766 8.12226 5.31843C8.15158 5.38921 8.16667 5.46506 8.16667 5.54167V12.8333Z"
        fill="#0066FF" />
    <path
        d="M12.5417 4.95832C12.5034 4.95832 12.4654 4.96587 12.4301 4.98053C12.3947 4.99518 12.3625 5.01667 12.3354 5.04375C12.3084 5.07083 12.2869 5.10299 12.2722 5.13837C12.2576 5.17376 12.25 5.21169 12.25 5.24999V6.41666C12.25 6.49401 12.2807 6.5682 12.3354 6.6229C12.3901 6.67759 12.4643 6.70832 12.5417 6.70832C12.619 6.70832 12.6932 6.67759 12.7479 6.6229C12.8026 6.5682 12.8333 6.49401 12.8333 6.41666V5.24999C12.8333 5.17264 12.8026 5.09845 12.7479 5.04375C12.6932 4.98905 12.619 4.95832 12.5417 4.95832ZM12.81 3.97249C12.7952 3.93715 12.7745 3.90459 12.7488 3.87624L12.705 3.84124C12.6888 3.8302 12.6711 3.82137 12.6525 3.81499L12.6 3.79166C12.5431 3.78056 12.4842 3.78665 12.4308 3.80916C12.3946 3.82226 12.3618 3.84316 12.3346 3.87037C12.3073 3.89759 12.2864 3.93046 12.2733 3.96666C12.2576 4.00353 12.2497 4.04324 12.25 4.08332C12.2498 4.12171 12.2571 4.15976 12.2717 4.1953C12.2862 4.23083 12.3076 4.26315 12.3346 4.29041C12.3623 4.31696 12.395 4.33778 12.4308 4.35166C12.4659 4.3666 12.5036 4.37453 12.5417 4.37499C12.5801 4.37521 12.6181 4.36786 12.6536 4.35334C12.6892 4.33883 12.7215 4.31744 12.7488 4.29041C12.8021 4.23451 12.8323 4.16055 12.8333 4.08332C12.8329 4.04521 12.825 4.00756 12.81 3.97249Z"
        fill="#0066FF" />
</svg>
