<svg xmlns="http://www.w3.org/2000/svg" xmlns:xlink="http://www.w3.org/1999/xlink" width="252" height="251.948" viewBox="0 0 252 251.948">
  <defs>
    <filter id="Subtraction_2" x="0" y="47.948" width="252" height="204" filterUnits="userSpaceOnUse">
      <feOffset dy="3" input="SourceAlpha"/>
      <feGaussianBlur stdDeviation="3" result="blur"/>
      <feFlood flood-opacity="0.161"/>
      <feComposite operator="in" in2="blur"/>
      <feComposite in="SourceGraphic"/>
    </filter>
  </defs>
  <g id="instructor_intro" transform="translate(-80 -316.052)">
    <g transform="matrix(1, 0, 0, 1, 80, 316.05)" filter="url(#Subtraction_2)">
      <path id="Subtraction_2-2" data-name="Subtraction 2" d="M410.639-577H219.361a20.913,20.913,0,0,1-15.1-6.444A22.193,22.193,0,0,1,198-599V-741a22.193,22.193,0,0,1,6.256-15.557,20.913,20.913,0,0,1,15.1-6.444H410.639a20.913,20.913,0,0,1,15.1,6.444A22.193,22.193,0,0,1,432-741v142a22.193,22.193,0,0,1-6.256,15.557A20.913,20.913,0,0,1,410.639-577ZM229-634a24.338,24.338,0,0,0-9.536,1.925,24.435,24.435,0,0,0-7.788,5.251,24.415,24.415,0,0,0-5.251,7.788A24.353,24.353,0,0,0,204.5-609.5v2a24.354,24.354,0,0,0,1.925,9.536,24.421,24.421,0,0,0,5.251,7.788,24.436,24.436,0,0,0,7.788,5.251A24.339,24.339,0,0,0,229-583H401a24.339,24.339,0,0,0,9.536-1.925,24.436,24.436,0,0,0,7.788-5.251,24.42,24.42,0,0,0,5.251-7.788A24.353,24.353,0,0,0,425.5-607.5v-2a24.353,24.353,0,0,0-1.925-9.536,24.414,24.414,0,0,0-5.251-7.788,24.436,24.436,0,0,0-7.788-5.251A24.338,24.338,0,0,0,401-634Z" transform="translate(-189 816.95)" fill="rgba(112,120,194,0.3)"/>
    </g>
    <text id="Instructor" transform="translate(128 534)" fill="#fff" stroke="#000" stroke-width="0.5" font-size="33" font-family="SegoeUI, Segoe UI" letter-spacing="0.05em"><tspan x="0" y="0">Instructor</tspan></text>
    <g id="Professor-pana" transform="translate(104.234 301.042)">
      <g id="freepik--background-complete--inject-2" transform="translate(19.77 127.012)">
        <path id="Path_8892" data-name="Path 8892" d="M452.83,376.417a12.649,12.649,0,0,1,9.311-6.337,10.372,10.372,0,0,1-9.311,6.337" transform="translate(-289.391 -339.758)" fill="#40b148"/>
        <g id="Group_2563" data-name="Group 2563">
          <path id="Path_8881" data-name="Path 8881" d="M386.61,388.04a11.522,11.522,0,0,0-4.937-1.694,3.3,3.3,0,0,0-2.332.427.487.487,0,0,0-.242.427.514.514,0,0,0,.231.29,7.054,7.054,0,0,0,7.283.551" transform="translate(-243.487 -349.861)" fill="#40b148"/>
          <path id="Path_8882" data-name="Path 8882" d="M389.995,377.777a24.233,24.233,0,0,1-3.185-2.8,8.024,8.024,0,0,1-1.994-3.694,1.51,1.51,0,0,1,.154-1.238A12.443,12.443,0,0,1,390,377.778" transform="translate(-247.004 -339.733)" fill="#40b148"/>
          <path id="Path_8883" data-name="Path 8883" d="M398.66,378.255a11.531,11.531,0,0,1,.056-4.182,5.662,5.662,0,0,1,2.231-3.453,4.942,4.942,0,0,1-.061,3.28,15.931,15.931,0,0,1-2.2,4.653" transform="translate(-255.563 -340.095)" fill="#40b148"/>
          <path id="Path_8884" data-name="Path 8884" d="M395.235,402.68a7.264,7.264,0,0,0-3.97,2.011A7.518,7.518,0,0,0,389,408.575a5.324,5.324,0,0,0,3.654-2.31c.909-1.177,1.543-2.461,2.547-3.555" transform="translate(-249.651 -360.055)" fill="#40b148"/>
          <path id="Path_8885" data-name="Path 8885" d="M405.882,389.341a9.756,9.756,0,0,1,1.132-9.231,11.724,11.724,0,0,1-1.132,9.231" transform="translate(-259.74 -346.003)" fill="#40b148"/>
          <path id="Path_8886" data-name="Path 8886" d="M404.375,414.977a7.043,7.043,0,0,0-6.744,3.883.394.394,0,0,0,.4.66,5.865,5.865,0,0,0,3.48-1.8,33.163,33.163,0,0,1,2.895-2.751" transform="translate(-254.96 -367.702)" fill="#40b148"/>
          <path id="Path_8887" data-name="Path 8887" d="M414.464,398.967a12.549,12.549,0,0,1-.128-7.023,3.357,3.357,0,0,1,1.509-2.265.231.231,0,0,1,.377.125,4.236,4.236,0,0,1,.355,2.016,12.47,12.47,0,0,1-.317,2.038,10.72,10.72,0,0,1-1.087,3.661,8.2,8.2,0,0,0-.434.8c-.128.271-.128.377-.249.585" transform="translate(-265.152 -351.927)" fill="#40b148"/>
          <path id="Path_8888" data-name="Path 8888" d="M438.073,405.062a9.062,9.062,0,0,1,1.585-7.442c.117-.147.26-.306.453-.29.283.026.358.407.347.694a13.433,13.433,0,0,1-2.382,7.038" transform="translate(-280.054 -356.723)" fill="#40b148"/>
          <path id="Path_8889" data-name="Path 8889" d="M440.55,415a10.817,10.817,0,0,0,8.884-1.808,7.208,7.208,0,0,0-4.808-.589,6.914,6.914,0,0,0-4.075,2.4" transform="translate(-281.745 -366.123)" fill="#40b148"/>
          <path id="Path_8890" data-name="Path 8890" d="M442.3,407.221a10.261,10.261,0,0,1,8.058-4.661,4.969,4.969,0,0,1-2.642,2.913,14.575,14.575,0,0,1-3.868,1.132,2.735,2.735,0,0,0-1.555.615" transform="translate(-282.829 -359.98)" fill="#40b148"/>
          <path id="Path_8891" data-name="Path 8891" d="M437,378.4a23.34,23.34,0,0,0,1.03-4.722,7.86,7.86,0,0,0-.939-4.676,10.278,10.278,0,0,0-.136,9.552" transform="translate(-278.816 -339.086)" fill="#40b148"/>
          <path id="Path_8893" data-name="Path 8893" d="M449.78,387.691c2.721.415,5.038,2.151,7.582,3.208a3.4,3.4,0,0,0,1.713.329,1.344,1.344,0,0,0,.842-2.374,3.751,3.751,0,0,0-1.246-.755,13.862,13.862,0,0,0-8.658-.483" transform="translate(-287.492 -350.384)" fill="#40b148"/>
          <path id="Path_8894" data-name="Path 8894" d="M445.61,393.428a3.194,3.194,0,0,1,1.317.91,14.184,14.184,0,0,0,5.748,2.948c.219.056.505.075.616-.121s-.027-.377-.147-.539a7.945,7.945,0,0,0-3.468-2.355,8.853,8.853,0,0,0-4.061-.962" transform="translate(-284.896 -354.21)" fill="#40b148"/>
          <path id="Path_8895" data-name="Path 8895" d="M440.91,362.66a10.877,10.877,0,0,0,8.341,2.838.577.577,0,0,0,.377-.136c.212-.23-.042-.581-.287-.754a9.613,9.613,0,0,0-8.432-1.928" transform="translate(-281.97 -334.968)" fill="#40b148"/>
          <path id="Path_8896" data-name="Path 8896" d="M446.49,357.338a11.618,11.618,0,0,1,10.4-1.718,8.277,8.277,0,0,1-4.959,2.178,15.78,15.78,0,0,1-5.446-.46" transform="translate(-285.444 -330.417)" fill="#40b148"/>
          <path id="Path_8897" data-name="Path 8897" d="M441.956,334.854c-.242-2.449-.087-4.382-.26-6.839,0-.2-.053-.434-.238-.505-.26-.1-.468.215-.555.479a7.835,7.835,0,0,0,1.046,6.793" transform="translate(-281.748 -313.243)" fill="#40b148"/>
          <path id="Path_8898" data-name="Path 8898" d="M443.769,335.061a14.4,14.4,0,0,0,4.057-3.941,5.37,5.37,0,0,0,1.291-3.751,3.876,3.876,0,0,0-2.925,1.453,8.192,8.192,0,0,0-1.509,3c-.324,1.079-.551,2.185-.932,3.242" transform="translate(-283.738 -313.167)" fill="#40b148"/>
          <path id="Path_8899" data-name="Path 8899" d="M454.273,334.71a32.685,32.685,0,0,0,9.975-5.883,5.088,5.088,0,0,0-3.748.29,11.813,11.813,0,0,0-6.28,5.567" transform="translate(-290.256 -313.921)" fill="#40b148"/>
          <path id="Path_8900" data-name="Path 8900" d="M446.77,346.541a20.337,20.337,0,0,0,5.54.026,23.362,23.362,0,0,0,5.171-1.718.627.627,0,0,0,.355-.268.407.407,0,0,0-.128-.441,1.083,1.083,0,0,0-.441-.207,9.568,9.568,0,0,0-5.59.336,26.045,26.045,0,0,0-4.906,2.265" transform="translate(-285.618 -323.307)" fill="#40b148"/>
          <path id="Path_8901" data-name="Path 8901" d="M417.378,349.951a9.8,9.8,0,0,1-.087-8.111,6.253,6.253,0,0,1,.717,4.034c-.14,1.392-.563,2.82-.592,4.2" transform="translate(-266.745 -322.176)" fill="#40b148"/>
          <path id="Path_8902" data-name="Path 8902" d="M391.735,356.619a11.322,11.322,0,0,0-8.4,3.582,7.858,7.858,0,0,0,4.6-.853,23.312,23.312,0,0,0,3.947-2.642" transform="translate(-246.12 -331.377)" fill="#40b148"/>
          <path id="Path_8903" data-name="Path 8903" d="M383.611,353.387a11.705,11.705,0,0,0-4.488.14,5.4,5.4,0,0,0-3.423,2.9,8.1,8.1,0,0,0,4.208-.792,24.07,24.07,0,0,0,3.7-2.246" transform="translate(-241.371 -329.273)" fill="#40b148"/>
          <path id="Path_8904" data-name="Path 8904" d="M395.058,349.881a14.125,14.125,0,0,0-4.408-2.2,4.8,4.8,0,0,0-4.589,1.113,8.676,8.676,0,0,0,4.39.853,15.823,15.823,0,0,1,4.782.483" transform="translate(-247.82 -325.715)" fill="#40b148"/>
          <path id="Path_8905" data-name="Path 8905" d="M405.5,338.081a10.243,10.243,0,0,1-2.306-9.651,14.7,14.7,0,0,1,2.306,9.651" transform="translate(-258.255 -313.827)" fill="#40b148"/>
          <path id="Path_8906" data-name="Path 8906" d="M427.12,324c.446-1.034.755-2.121,1.158-3.174a9.161,9.161,0,0,1,1.647-2.929,4.363,4.363,0,0,1,2.925-1.509,11.771,11.771,0,0,1-5.661,7.63" transform="translate(-273.384 -306.331)" fill="#40b148"/>
          <path id="Path_8907" data-name="Path 8907" d="M413.926,333.33a15.06,15.06,0,0,0-2.589-3.147,4.335,4.335,0,0,0-3.517-.924,8.2,8.2,0,0,0,6.106,4.075" transform="translate(-261.368 -314.289)" fill="#40b148"/>
          <path id="Path_8908" data-name="Path 8908" d="M422.545,324.233a17.514,17.514,0,0,1-1.166-3.774,5.9,5.9,0,0,1,.592-3.835,8.71,8.71,0,0,1,.642,7.635" transform="translate(-269.749 -306.475)" fill="#40b148"/>
          <path id="Path_8909" data-name="Path 8909" d="M427.15,308.074a8.271,8.271,0,0,1,5.359-5.035,1.972,1.972,0,0,1,.94-.143.811.811,0,0,1,.694.577c.087.415-.253.785-.574,1.06a18.235,18.235,0,0,1-6.416,3.54" transform="translate(-273.403 -297.924)" fill="#40b148"/>
          <path id="Path_8910" data-name="Path 8910" d="M427.157,297.9a17.426,17.426,0,0,1,.7-4.638,5.867,5.867,0,0,1,2.917-3.525,6.958,6.958,0,0,1-1.294,4.529,21.436,21.436,0,0,0-2.363,4.151" transform="translate(-273.384 -289.739)" fill="#40b148"/>
          <path id="Path_8911" data-name="Path 8911" d="M419.616,300.181c-.607-1.766-.668-4.016-1.729-5.559-.755-1.076-1.928-1.811-2.566-2.948a4.487,4.487,0,0,0,.151,3.351,9.624,9.624,0,0,0,1.959,2.808c.785.837,1.457,1.468,2.185,2.351" transform="translate(-265.88 -290.941)" fill="#40b148"/>
        </g>
        <path id="Path_8912" data-name="Path 8912" d="M427,365.321c-.045,0-.087-11.805-.087-26.365s.03-26.365.079-26.365.087,11.8.087,26.365S427.05,365.321,427,365.321Z" transform="translate(-273.254 -303.965)" fill="#e0e0e0"/>
        <path id="Path_8913" data-name="Path 8913" d="M437.438,358.61a2.458,2.458,0,0,1-.446.166l-1.222.415c-1.03.347-2.441.857-3.978,1.487a15.184,15.184,0,0,0-3.774,1.887,2.715,2.715,0,0,0-.755,1c-.117.279-.14.449-.154.446s0-.045,0-.125a1.966,1.966,0,0,1,.087-.347,2.7,2.7,0,0,1,.755-1.068,6.52,6.52,0,0,1,1.638-1.019c.653-.306,1.378-.622,2.151-.94,1.54-.63,2.963-1.132,4-1.445.52-.162.948-.283,1.242-.359a2.455,2.455,0,0,1,.453-.1Z" transform="translate(-273.373 -332.617)" fill="#e0e0e0"/>
        <path id="Path_8914" data-name="Path 8914" d="M442.163,336.6a1.716,1.716,0,0,1-.125.136l-.377.355-1.411,1.283-4.71,4.193c-1.835,1.634-3.423,3.2-4.529,4.374-.551.589-.985,1.076-1.28,1.415l-.347.377c-.079.087-.12.132-.128.128a.868.868,0,0,1,.1-.151c.072-.095.173-.234.317-.411.283-.347.7-.853,1.245-1.453a59.209,59.209,0,0,1,4.5-4.422c1.846-1.63,3.521-3.1,4.74-4.151l1.453-1.242c.159-.136.29-.245.4-.332A.755.755,0,0,1,442.163,336.6Z" transform="translate(-274.716 -318.914)" fill="#e0e0e0"/>
        <path id="Path_8915" data-name="Path 8915" d="M440.633,350.08c-.049-.019.336-.906.717-2.027s.551-2.053.616-2.053a6.9,6.9,0,0,1-.453,2.114,12.662,12.662,0,0,1-.574,1.419A2.21,2.21,0,0,1,440.633,350.08Z" transform="translate(-281.795 -324.766)" fill="#e0e0e0"/>
        <path id="Path_8916" data-name="Path 8916" d="M415.867,361.542a2.44,2.44,0,0,1-.283-.329l-.725-.932c-.611-.789-1.453-1.887-2.4-3.065s-1.811-2.265-2.441-3.019l-.755-.921a2.155,2.155,0,0,1-.26-.347,2.269,2.269,0,0,1,.306.306c.189.2.457.505.785.883.653.755,1.536,1.808,2.48,3s1.774,2.291,2.359,3.1c.295.4.528.733.683.962a2.113,2.113,0,0,1,.248.362Z" transform="translate(-262.109 -329.081)" fill="#e0e0e0"/>
        <path id="Path_8917" data-name="Path 8917" d="M419.257,362.152a4.1,4.1,0,0,1-.948-1.774,5.017,5.017,0,0,1-.215-1.789h.075c-.034.136-.061.207-.072.207a1.091,1.091,0,0,1,0-.219h.075a8.047,8.047,0,0,0,.3,1.74,12.83,12.83,0,0,0,.782,1.834Z" transform="translate(-267.759 -332.598)" fill="#e0e0e0"/>
        <path id="Path_8918" data-name="Path 8918" d="M405.032,357.118a2.949,2.949,0,0,0-.661-.377,4.493,4.493,0,0,0-1.838-.147,11.754,11.754,0,0,0-1.849.3,5.966,5.966,0,0,1-.755.185,2.58,2.58,0,0,1,.728-.3,8.472,8.472,0,0,1,1.887-.355,4.017,4.017,0,0,1,1.887.2,1.193,1.193,0,0,1,.6.491Z" transform="translate(-256.455 -331.235)" fill="#e0e0e0"/>
        <path id="Path_8919" data-name="Path 8919" d="M399.768,354.205c0,.027-.377-.154-1.012-.377a10.19,10.19,0,0,0-5.11-.377c-.653.117-1.049.238-1.057.212a.866.866,0,0,1,.268-.114,5.566,5.566,0,0,1,.755-.215,9,9,0,0,1,5.174.377,6.91,6.91,0,0,1,.725.329C399.685,354.126,399.776,354.179,399.768,354.205Z" transform="translate(-251.885 -329.197)" fill="#e0e0e0"/>
        <path id="Path_8920" data-name="Path 8920" d="M424.928,337.464a20.605,20.605,0,0,1-.755-2.566,21.134,21.134,0,0,1-.574-2.608,20.571,20.571,0,0,1,.755,2.566,21.131,21.131,0,0,1,.574,2.608Z" transform="translate(-271.193 -316.231)" fill="#e0e0e0"/>
        <path id="Path_8921" data-name="Path 8921" d="M423.9,341.411a11.806,11.806,0,0,0-.819-1.536,6.975,6.975,0,0,0-1.2-1.245,1.168,1.168,0,0,1,.465.242,3.672,3.672,0,0,1,.879.906A3.4,3.4,0,0,1,423.9,341.411Z" transform="translate(-270.121 -320.178)" fill="#e0e0e0"/>
        <path id="Path_8922" data-name="Path 8922" d="M409.312,407.214s-.053-.287-.185-.785a11.32,11.32,0,0,0-.789-2.045,28.352,28.352,0,0,0-4.185-5.9c-.935-1.064-1.841-2.072-2.611-3.034a21.621,21.621,0,0,1-1.868-2.688,12.487,12.487,0,0,1-.94-2c-.087-.245-.151-.434-.185-.57a.844.844,0,0,1-.049-.2s.1.271.295.755a14.7,14.7,0,0,0,.985,1.963,22.447,22.447,0,0,0,1.887,2.642c.773.954,1.683,1.955,2.619,3.019a26.847,26.847,0,0,1,4.151,5.955,10.416,10.416,0,0,1,.755,2.081c.053.26.087.457.106.592a.887.887,0,0,1,.015.214Z" transform="translate(-255.566 -352.149)" fill="#e0e0e0"/>
        <path id="Path_8923" data-name="Path 8923" d="M436.5,407.737a4.478,4.478,0,0,1-.486.271,11.085,11.085,0,0,0-1.268.838,14.832,14.832,0,0,0-1.665,1.509c-.585.619-1.185,1.336-1.8,2.1-1.227,1.54-2.377,2.906-3.065,3.993a12.67,12.67,0,0,0-.755,1.314,4.353,4.353,0,0,1-.268.494.547.547,0,0,1,.045-.14c.037-.087.087-.219.166-.377a11.951,11.951,0,0,1,.725-1.347,44.336,44.336,0,0,1,3.019-4.034c.616-.755,1.222-1.487,1.821-2.1a13.445,13.445,0,0,1,1.706-1.509,8.482,8.482,0,0,1,1.309-.8q.185-.095.377-.173C436.448,407.745,436.5,407.729,436.5,407.737Z" transform="translate(-273.427 -363.202)" fill="#e0e0e0"/>
        <path id="Path_8924" data-name="Path 8924" d="M441.731,416.764a7.674,7.674,0,0,1-1.034.147,13.637,13.637,0,0,0-2.449.483,7.369,7.369,0,0,0-2.193,1.151,5.412,5.412,0,0,0-.755.694.842.842,0,0,1,.151-.238,3.93,3.93,0,0,1,.539-.551,6.665,6.665,0,0,1,2.215-1.23,11.033,11.033,0,0,1,2.491-.434,5.416,5.416,0,0,1,1.035-.023Z" transform="translate(-278.477 -368.813)" fill="#e0e0e0"/>
        <path id="Path_8925" data-name="Path 8925" d="M436.053,416.588c-.053-.03.415-.755.773-1.7s.419-1.811.479-1.8a1.6,1.6,0,0,1,0,.555,6.118,6.118,0,0,1-.3,1.3,6.409,6.409,0,0,1-.6,1.2C436.2,416.452,436.076,416.6,436.053,416.588Z" transform="translate(-278.944 -366.536)" fill="#e0e0e0"/>
        <path id="Path_8926" data-name="Path 8926" d="M439.522,383.44a.816.816,0,0,1-.166.087l-.483.219a6.362,6.362,0,0,0-.755.377c-.283.173-.63.306-.985.52l-.566.321c-.192.114-.377.245-.592.377-.415.253-.831.563-1.275.879a22.127,22.127,0,0,0-4.906,5.084c-.3.453-.6.879-.834,1.306-.121.207-.249.408-.355.607l-.3.577c-.2.359-.347.706-.486,1s-.249.555-.332.755-.151.377-.2.494-.075.173-.087.166a.953.953,0,0,1,.049-.173c.049-.136.106-.3.173-.505a7.932,7.932,0,0,1,.306-.789c.132-.3.271-.653.464-1.019l.295-.581c.1-.2.226-.4.347-.616.234-.434.529-.867.826-1.325a21.06,21.06,0,0,1,4.948-5.115c.449-.317.871-.627,1.294-.872.208-.128.4-.26.607-.377l.57-.313c.377-.207.706-.355,1-.5s.558-.253.78-.336l.5-.189a.551.551,0,0,1,.163-.065Z" transform="translate(-273.434 -348.076)" fill="#e0e0e0"/>
        <path id="Path_8927" data-name="Path 8927" d="M440.3,394.5a1.214,1.214,0,0,1,.408-.607,2.571,2.571,0,0,1,1.634-.627,4.483,4.483,0,0,1,1.721.336,2.59,2.59,0,0,1,.653.317,3.851,3.851,0,0,1-.694-.2,5.282,5.282,0,0,0-1.676-.279,2.642,2.642,0,0,0-1.561.551,5.13,5.13,0,0,0-.485.513Z" transform="translate(-281.59 -354.195)" fill="#e0e0e0"/>
        <path id="Path_8928" data-name="Path 8928" d="M437.38,394.458a6.082,6.082,0,0,0,.465-1.509,5.972,5.972,0,0,0-.106-1.577,1,1,0,0,1,.192.441,3.1,3.1,0,0,1-.26,2.265C437.523,394.333,437.4,394.469,437.38,394.458Z" transform="translate(-279.772 -353.013)" fill="#e0e0e0"/>
        <path id="Path_8929" data-name="Path 8929" d="M405.55,440.12a39.037,39.037,0,0,0,3.7,13.738h9.1a39.485,39.485,0,0,0,3.484-13.738Z" transform="translate(-259.955 -383.365)" fill="#727884"/>
        <path id="Path_8930" data-name="Path 8930" d="M422.725,459.317c0,.049-3,.087-6.688.087s-6.688-.038-6.688-.087,2.993-.087,6.688-.087S422.725,459.272,422.725,459.317Z" transform="translate(-262.321 -395.263)" fill="#fafafa"/>
        <path id="Path_8931" data-name="Path 8931" d="M423.568,463.653c0,.049-2.808.087-6.268.087s-6.268-.038-6.268-.087,2.8-.087,6.268-.087S423.568,463.607,423.568,463.653Z" transform="translate(-263.367 -397.964)" fill="#fafafa"/>
        <path id="Path_8932" data-name="Path 8932" d="M415.613,448a25.33,25.33,0,0,1,0,4.189,26.461,26.461,0,0,1,0-4.189Z" transform="translate(-266.169 -388.271)" fill="#fafafa"/>
        <path id="Path_8933" data-name="Path 8933" d="M428.523,448a27.087,27.087,0,0,1,0,4.335,28.365,28.365,0,0,1,0-4.335Z" transform="translate(-274.206 -388.271)" fill="#fafafa"/>
        <path id="Path_8934" data-name="Path 8934" d="M440.643,447.87a28.2,28.2,0,0,1,0,4.422,29.51,29.51,0,0,1,0-4.422Z" transform="translate(-281.752 -388.19)" fill="#fafafa"/>
        <path id="Path_8935" data-name="Path 8935" d="M422.055,447.857c0,.045-3.514.087-7.843.087s-7.843-.038-7.843-.087,3.51-.087,7.843-.087S422.055,447.8,422.055,447.857Z" transform="translate(-260.465 -388.128)" fill="#fafafa"/>
        <path id="Path_8936" data-name="Path 8936" d="M39.165,443.858a3.52,3.52,0,0,1-.966-4.313,3.757,3.757,0,0,1,2.038-1.434,8.342,8.342,0,0,0,2.238-1.158c1.214-1.03,1.543-2.743,2.348-4.121a5.143,5.143,0,0,1,4.469-2.676,5.641,5.641,0,0,1,4.616,3.74,16.687,16.687,0,0,1,.831,6.193c0,1.163-.042,2.468-.895,3.249a4.153,4.153,0,0,1-3.019.7l-11.405-.355" transform="translate(-30.994 -377.158)" fill="#f5f5f5"/>
        <path id="Path_8937" data-name="Path 8937" d="M49.74,383.43H19.77l5.4,32.193a3.6,3.6,0,0,0,2.559,2.868l.106.03a2.684,2.684,0,0,0,.268.068,3.57,3.57,0,0,0,.607.068v.034l.147-.026h13.36a3.819,3.819,0,0,0,3.774-3.219l2.6-22.18.121-.883h0l1.03-8.782Zm-5.661,20.538H41.011l.31-9.345h3.563Zm1.1-9.345h2.948l-1.091,9.345H44.388Zm-8.791,19.7-.185-8.118h4.435l-.268,8.118Zm-4.782-8.119h4.306l.173,8.118H32.239Zm.329,8.118h-3.6c-.34-2.193-.789-5.038-1.272-8.118h4.248Zm-.51-10.356-.725-9.345h4.942l.215,9.345Zm4.725,0-.215-9.345h5.088l-.31,9.345Zm-.268-11.587-.173-8.65h5.661l-.287,8.65Zm-.3,0H30.534l-.672-8.65h5.532Zm-5.355,0H24.88c-.189-1.193-.377-2.324-.532-3.344-.558-3.5-.755-4.812-.883-5.306h6.1Zm.173,2.242.725,9.345H26.7c-.147-.954-.3-1.907-.449-2.868-.347-2.2-.694-4.412-1.023-6.476Zm-4,9.345H23.514l-1.566-9.345h2.985c.457,2.888.962,6.1,1.472,9.345Zm.355,2.238c.434,2.808.872,5.578,1.272,8.118H25.25l-1.359-8.117Zm13.908,8.118.268-8.118h2.959l-.694,8.118Zm.728-21.942.287-8.65h4.151l-.755,8.65Zm-18.214-8.65c.117.622.664,4.031,1.4,8.65H21.559l-1.437-8.65Zm22.644,30.593H43.5l.694-8.118h2.578ZM48.4,392.382H45.38l.755-8.65H49.43Z" transform="translate(-19.77 -348.07)" fill="#e0e0e0"/>
      </g>
      <g id="freepik--Blackboard--inject-2" transform="translate(24.246 15.01)">
        <rect id="Rectangle_96" data-name="Rectangle 96" width="151.26" height="86.833" transform="translate(3.163 0.298)" fill="#263238"/>
        <path id="Path_8938" data-name="Path 8938" d="M200.812,119.414H49V32H200.812Zm-151.256-.57H200.24V32.581H49.558Z" transform="translate(-46.105 -32)" fill="#263238"/>
        <rect id="Rectangle_97" data-name="Rectangle 97" width="145.422" height="81.429" transform="translate(6.525 2.722)" fill="#546066"/>
        <path id="Path_8939" data-name="Path 8939" d="M203.861,120.449H57.87v-82H203.861Zm-145.422-.57H203.292V39.035H58.44Z" transform="translate(-51.628 -36.015)" fill="#263238"/>
        <rect id="Rectangle_98" data-name="Rectangle 98" width="156.932" height="3.902" transform="translate(0.287 83.225)" fill="#263238"/>
        <path id="Path_8940" data-name="Path 8940" d="M198.838,256.242H41.33V251.77H198.838ZM41.9,255.672H198.266V252.34H41.9Z" transform="translate(-41.33 -168.828)" fill="#263238"/>
        <path id="Path_8941" data-name="Path 8941" d="M116.781,79.6c0,.087-5.054.151-11.281.151S94.22,79.681,94.22,79.6s5.049-.147,11.281-.147S116.781,79.518,116.781,79.6Z" transform="translate(-74.259 -61.542)" fill="#fff"/>
        <path id="Path_8942" data-name="Path 8942" d="M116.781,85.847c0,.087-5.054.147-11.281.147s-11.281-.064-11.281-.147S99.269,85.7,105.5,85.7,116.781,85.764,116.781,85.847Z" transform="translate(-74.259 -65.433)" fill="#fff"/>
        <path id="Path_8943" data-name="Path 8943" d="M101.642,68.488a24.518,24.518,0,0,1-3.774.147,24.519,24.519,0,0,1-3.774-.147,24.248,24.248,0,0,1,3.774-.151,23.7,23.7,0,0,1,3.774.151Z" transform="translate(-74.179 -54.622)" fill="#fff"/>
        <path id="Path_8944" data-name="Path 8944" d="M141.214,178.418c0,.053-11.919.1-26.611.1s-26.6-.045-26.6-.1,11.914-.1,26.617-.1S141.214,178.362,141.214,178.418Z" transform="translate(-70.387 -123.098)" fill="#fff"/>
        <path id="Path_8945" data-name="Path 8945" d="M144.708,155.717c-.053,0-.1-11.322-.1-25.305s.045-25.316.1-25.316.1,11.322.1,25.316S144.757,155.717,144.708,155.717Z" transform="translate(-105.631 -77.511)" fill="#fff"/>
        <path id="Path_8946" data-name="Path 8946" d="M134.039,105.367a3.246,3.246,0,0,1-.238.7c-.192.449-.483,1.1-.883,1.928-.8,1.66-2,4.038-3.525,6.952s-3.367,6.374-5.484,10.19q-.792,1.426-1.647,2.906c-.29.491-.577.993-.887,1.49l-.472.755-.276.377-.14.192-.159.166a7.023,7.023,0,0,1-3.174,1.936,5.077,5.077,0,0,1-1.939.154,4.834,4.834,0,0,1-1.887-.634,10.447,10.447,0,0,1-2.762-2.611,31.555,31.555,0,0,1-2.109-2.966,46.539,46.539,0,0,1-3.182-6.076c-.883-1.994-1.631-3.925-2.321-5.733s-1.309-3.5-1.857-5.054c-1.1-3.1-1.887-5.661-2.4-7.416-.249-.887-.434-1.578-.547-2.05A3.468,3.468,0,0,1,98,99.83a3.175,3.175,0,0,1,.26.694c.151.468.377,1.132.656,2.011.574,1.744,1.426,4.261,2.57,7.341.574,1.543,1.214,3.223,1.925,5.019s1.474,3.713,2.363,5.688a47.13,47.13,0,0,0,3.171,5.989,31.519,31.519,0,0,0,2.081,2.906,9.937,9.937,0,0,0,2.6,2.472,4.268,4.268,0,0,0,3.359.423,6.416,6.416,0,0,0,2.914-1.77l.147-.154.121-.166.245-.332.464-.733c.3-.491.592-.985.883-1.474q.86-1.474,1.665-2.891c2.14-3.774,4.016-7.216,5.59-10.1s2.826-5.231,3.684-6.857c.423-.808.755-1.437.981-1.887a3.933,3.933,0,0,1,.36-.638Z" transform="translate(-76.613 -74.231)" fill="#fff"/>
        <path id="Path_8947" data-name="Path 8947" d="M141,165.418a5.761,5.761,0,0,1-2.117,0A5.759,5.759,0,0,1,141,165.418Z" transform="translate(-102.064 -115.005)" fill="#fff"/>
        <path id="Path_8948" data-name="Path 8948" d="M141,150.985a5.76,5.76,0,0,1-2.117,0,5.76,5.76,0,0,1,2.117,0Z" transform="translate(-102.064 -106.02)" fill="#fff"/>
        <path id="Path_8949" data-name="Path 8949" d="M141,136.562a5.761,5.761,0,0,1-2.117,0,5.549,5.549,0,0,1,2.117,0Z" transform="translate(-102.064 -97.037)" fill="#fff"/>
        <path id="Path_8950" data-name="Path 8950" d="M141,122.119a5.76,5.76,0,0,1-2.117,0A5.759,5.759,0,0,1,141,122.119Z" transform="translate(-102.064 -88.04)" fill="#fff"/>
        <path id="Path_8951" data-name="Path 8951" d="M141,216.6a5.76,5.76,0,0,1-2.117,0,5.757,5.757,0,0,1,2.117,0Z" transform="translate(-102.064 -146.863)" fill="#fff"/>
        <path id="Path_8952" data-name="Path 8952" d="M141,202.169a5.76,5.76,0,0,1-2.117,0A5.759,5.759,0,0,1,141,202.169Z" transform="translate(-102.064 -137.878)" fill="#fff"/>
        <path id="Path_8953" data-name="Path 8953" d="M141,187.739a5.762,5.762,0,0,1-2.117,0A5.757,5.757,0,0,1,141,187.739Z" transform="translate(-102.064 -128.894)" fill="#fff"/>
        <path id="Path_8954" data-name="Path 8954" d="M134.618,179.85a5.758,5.758,0,0,1,0,2.117,5.759,5.759,0,0,1,0-2.117Z" transform="translate(-99.349 -124.051)" fill="#fff"/>
        <path id="Path_8955" data-name="Path 8955" d="M120.185,179.85a5.759,5.759,0,0,1,0,2.117A5.76,5.76,0,0,1,120.185,179.85Z" transform="translate(-90.365 -124.051)" fill="#fff"/>
        <path id="Path_8956" data-name="Path 8956" d="M105.758,179.85a5.76,5.76,0,0,1,0,2.117,5.76,5.76,0,0,1,0-2.117Z" transform="translate(-81.381 -124.051)" fill="#fff"/>
        <path id="Path_8957" data-name="Path 8957" d="M91.328,179.85a5.759,5.759,0,0,1,0,2.117,5.759,5.759,0,0,1,0-2.117Z" transform="translate(-72.398 -124.051)" fill="#fff"/>
        <path id="Path_8958" data-name="Path 8958" d="M200.238,179.85a5.758,5.758,0,0,1,0,2.117,5.76,5.76,0,0,1,0-2.117Z" transform="translate(-140.204 -124.051)" fill="#fff"/>
        <path id="Path_8959" data-name="Path 8959" d="M215.128,179.85a5.757,5.757,0,0,1,0,2.117,5.759,5.759,0,0,1,0-2.117Z" transform="translate(-149.474 -124.051)" fill="#fff"/>
        <path id="Path_8960" data-name="Path 8960" d="M185.838,179.85a5.761,5.761,0,0,1,0,2.117,5.758,5.758,0,0,1,0-2.117Z" transform="translate(-131.239 -124.051)" fill="#fff"/>
        <path id="Path_8961" data-name="Path 8961" d="M171.378,179.85a5.759,5.759,0,0,1,0,2.117,5.76,5.76,0,0,1,0-2.117Z" transform="translate(-122.236 -124.051)" fill="#fff"/>
        <path id="Path_8962" data-name="Path 8962" d="M156.948,179.85a5.762,5.762,0,0,1,0,2.117A5.757,5.757,0,0,1,156.948,179.85Z" transform="translate(-113.252 -124.051)" fill="#fff"/>
        <path id="Path_8963" data-name="Path 8963" d="M144.129,106.282a4.3,4.3,0,0,1-.536-.709c-.31-.453-.728-1.083-1.181-1.785h.166c-.4.732-.755,1.387-1.04,1.857a4.184,4.184,0,0,1-.479.755,3.623,3.623,0,0,1,.377-.808c.242-.487.592-1.155.988-1.887l.079-.147.087.14h0c.453.706.853,1.347,1.132,1.821a4.064,4.064,0,0,1,.407.764Z" transform="translate(-103.422 -76.553)" fill="#fff"/>
        <path id="Path_8964" data-name="Path 8964" d="M224.138,177.6a4.026,4.026,0,0,1,.709-.54c.453-.309,1.083-.728,1.785-1.177h.019v.173c-.728-.4-1.387-.755-1.857-1.04a4.234,4.234,0,0,1-.755-.479,3.859,3.859,0,0,1,.808.359c.486.242,1.151.592,1.887.988l.147.079-.14.087h-.019c-.7.453-1.344.853-1.815,1.132a3.977,3.977,0,0,1-.769.419Z" transform="translate(-155.084 -120.739)" fill="#fff"/>
        <path id="Path_8965" data-name="Path 8965" d="M366.772,119.239v-1.347c0-.876,0-2.148-.019-3.774,0-3.235-.023-7.846-.037-13.372l.075.075H348.3l.087-.087v18.493l-.075-.079,13.375.042h3.8l-3.759.1-13.425.042h-.075V100.67h18.659v.075c0,5.549-.03,10.19-.038,13.42v4.978A.662.662,0,0,1,366.772,119.239Z" transform="translate(-232.404 -74.754)" fill="#4640f0"/>
        <path id="Path_8966" data-name="Path 8966" d="M366.872,111.314s.045-.038.14-.1l.427-.271,1.634-1.03,6.02-3.748-.034.056c0-4.823,0-11.213-.019-18.207l.087.087h-.053l-18.214-.02h.03l-6.2,3.495-1.7.943-.446.242-.154.079a1.476,1.476,0,0,1,.147-.095l.434-.26,1.682-.973,6.175-3.548h.019l18.213-.023h.14v18.331l-.03.019-6.039,3.7-1.672,1-.434.26Z" transform="translate(-232.504 -66.828)" fill="#fff"/>
        <path id="Path_8967" data-name="Path 8967" d="M405.614,88.128c.023.042-1.8,1.155-4.084,2.487s-4.151,2.374-4.17,2.332,1.8-1.155,4.084-2.487S405.587,88.078,405.614,88.128Z" transform="translate(-262.992 -66.943)" fill="#fff"/>
        <path id="Path_8968" data-name="Path 8968" d="M349.288,147.831c.026.045-.151.189-.377.329s-.46.218-.483.173.151-.189.4-.329S349.264,147.791,349.288,147.831Z" transform="translate(-232.525 -104.109)" fill="#fff"/>
        <path id="Path_8969" data-name="Path 8969" d="M353.912,145.171c.023.042-.151.189-.4.329s-.457.215-.479.173.151-.189.377-.329S353.89,145.13,353.912,145.171Z" transform="translate(-235.396 -102.452)" fill="#fff"/>
        <path id="Path_8970" data-name="Path 8970" d="M358.545,142.5c.023.042-.154.189-.4.329s-.457.218-.483.173.154-.189.4-.324S358.522,142.46,358.545,142.5Z" transform="translate(-238.277 -100.792)" fill="#fff"/>
        <path id="Path_8971" data-name="Path 8971" d="M363.227,139.831c.026.042-.151.189-.377.329s-.46.218-.483.173.151-.189.4-.329S363.2,139.791,363.227,139.831Z" transform="translate(-241.204 -99.128)" fill="#fff"/>
        <path id="Path_8972" data-name="Path 8972" d="M367.852,137.169c.023.042-.151.189-.4.324s-.457.218-.479.173.151-.189.377-.329S367.83,137.124,367.852,137.169Z" transform="translate(-244.075 -97.47)" fill="#fff"/>
        <path id="Path_8973" data-name="Path 8973" d="M370.326,132.49c.049,0,.087.226.087.505s-.045.505-.087.505-.087-.226-.087-.505S370.276,132.49,370.326,132.49Z" transform="translate(-246.103 -94.565)" fill="#fff"/>
        <path id="Path_8974" data-name="Path 8974" d="M370.371,127.13c.049,0,.087.231.087.51s-.042.5-.087.5-.087-.226-.087-.505S370.321,127.13,370.371,127.13Z" transform="translate(-246.133 -91.228)" fill="#fff"/>
        <path id="Path_8975" data-name="Path 8975" d="M370.411,121.78c.049,0,.087.226.087.505s-.042.505-.087.505-.087-.231-.087-.51S370.361,121.78,370.411,121.78Z" transform="translate(-246.158 -87.897)" fill="#fff"/>
        <path id="Path_8976" data-name="Path 8976" d="M370.451,116.42c.049,0,.087.226.087.505s-.042.505-.087.505-.087-.226-.087-.505S370.4,116.42,370.451,116.42Z" transform="translate(-246.183 -84.559)" fill="#fff"/>
        <path id="Path_8977" data-name="Path 8977" d="M370.486,111.06c.049,0,.087.226.087.505s-.045.505-.095.505-.087-.226-.087-.505S370.444,111.06,370.486,111.06Z" transform="translate(-246.206 -81.222)" fill="#fff"/>
        <path id="Path_8978" data-name="Path 8978" d="M370.536,105.7c.049,0,.087.231.087.51s-.045.5-.087.5-.087-.226-.087-.505S370.486,105.7,370.536,105.7Z" transform="translate(-246.233 -77.885)" fill="#fff"/>
        <path id="Path_8979" data-name="Path 8979" d="M370.581,100.35c.049,0,.087.226.087.505s-.042.505-.087.505-.087-.231-.087-.51S370.531,100.35,370.581,100.35Z" transform="translate(-246.263 -74.554)" fill="#fff"/>
        <path id="Path_8980" data-name="Path 8980" d="M370.621,95c.049,0,.087.226.087.505s-.042.505-.087.505-.087-.226-.087-.505S370.571,95,370.621,95Z" transform="translate(-246.289 -71.223)" fill="#fff"/>
        <path id="Path_8981" data-name="Path 8981" d="M370.66,89.63c.049,0,.087.226.087.505s-.045.505-.095.505-.087-.226-.087-.505S370.61,89.63,370.66,89.63Z" transform="translate(-246.312 -67.88)" fill="#fff"/>
        <path id="Path_8982" data-name="Path 8982" d="M416.55,136.227c0-.049.226-.087.505-.087s.505.038.505.087-.226.087-.505.087S416.55,136.279,416.55,136.227Z" transform="translate(-274.94 -96.837)" fill="#fff"/>
        <path id="Path_8983" data-name="Path 8983" d="M411.19,136.227c0-.049.226-.087.505-.087s.505.038.505.087-.226.087-.505.087S411.19,136.279,411.19,136.227Z" transform="translate(-271.603 -96.837)" fill="#fff"/>
        <path id="Path_8984" data-name="Path 8984" d="M405.84,136.227c0-.049.226-.087.505-.087s.5.038.5.087-.226.087-.5.087S405.84,136.279,405.84,136.227Z" transform="translate(-268.272 -96.837)" fill="#fff"/>
        <path id="Path_8985" data-name="Path 8985" d="M400.48,136.227c0-.049.226-.087.505-.087s.505.038.505.087-.226.087-.505.087S400.48,136.279,400.48,136.227Z" transform="translate(-264.935 -96.837)" fill="#fff"/>
        <path id="Path_8986" data-name="Path 8986" d="M395.12,136.227c0-.049.226-.087.505-.087s.505.038.505.087-.226.087-.505.087S395.12,136.279,395.12,136.227Z" transform="translate(-261.598 -96.837)" fill="#fff"/>
        <path id="Path_8987" data-name="Path 8987" d="M389.76,136.227c0-.049.226-.087.505-.087s.505.038.505.087-.226.087-.505.087S389.76,136.279,389.76,136.227Z" transform="translate(-258.26 -96.837)" fill="#fff"/>
        <path id="Path_8988" data-name="Path 8988" d="M384.41,136.227c0-.049.226-.087.5-.087s.505.038.505.087-.226.087-.505.087S384.41,136.279,384.41,136.227Z" transform="translate(-254.93 -96.837)" fill="#fff"/>
        <path id="Path_8989" data-name="Path 8989" d="M379.05,136.227c0-.049.226-.087.505-.087s.505.038.505.087-.226.087-.505.087S379.05,136.279,379.05,136.227Z" transform="translate(-251.592 -96.837)" fill="#fff"/>
        <path id="Path_8990" data-name="Path 8990" d="M373.69,136.227c0-.049.226-.087.505-.087s.505.038.505.087-.226.087-.505.087S373.69,136.279,373.69,136.227Z" transform="translate(-248.256 -96.837)" fill="#fff"/>
        <path id="Path_8991" data-name="Path 8991" d="M370.44,136.226a.1.1,0,0,1,.109-.087.087.087,0,1,1,0,.173.1.1,0,0,1-.109-.087Z" transform="translate(-246.232 -96.836)" fill="#fff"/>
        <path id="Path_8992" data-name="Path 8992" d="M424.28,111.63a2.346,2.346,0,0,0,.46-.023,1.423,1.423,0,0,0,.959-.72,1.936,1.936,0,0,0-.053-1.758.544.544,0,0,0-.377-.29.627.627,0,0,0-.472.125,2.22,2.22,0,0,0-.585.981,4.565,4.565,0,0,0-.26,1.253h-.173c-.019-1.336-.03-2.506-.03-3.34v-.981a1.635,1.635,0,0,1,.027-.355,1.787,1.787,0,0,1,.034.355c0,.26.026.589.045.977.026.834.061,2,.087,3.344h-.173a4.534,4.534,0,0,1,.268-1.306,4.089,4.089,0,0,1,.253-.57,1.411,1.411,0,0,1,.4-.487.8.8,0,0,1,.607-.154.706.706,0,0,1,.468.377,2.05,2.05,0,0,1,.023,1.887,1.48,1.48,0,0,1-1.057.728,1.049,1.049,0,0,1-.355,0,.336.336,0,0,1-.091-.043Z" transform="translate(-279.421 -78.396)" fill="#fff"/>
        <path id="Path_8993" data-name="Path 8993" d="M395.36,78.135s0,.023-.042.064a.657.657,0,0,1-.181.132.754.754,0,0,1-.355.075.683.683,0,0,1-.453-.189,1.353,1.353,0,0,1-.306-.52c-.075-.2-.151-.415-.215-.645a7.516,7.516,0,0,1-.26-1.6h.166a6.144,6.144,0,0,1-.061,2.106A1.932,1.932,0,0,1,393,78.638a.808.808,0,0,1-.616.136.754.754,0,0,1-.483-.377,2.076,2.076,0,0,1,1-2.812,1.81,1.81,0,0,1,.336-.117.45.45,0,0,1,.125,0,2.658,2.658,0,0,0-.433.192,2.068,2.068,0,0,0-.879.887,2.04,2.04,0,0,0-.219.831,1.725,1.725,0,0,0,.207.948.6.6,0,0,0,.377.29.661.661,0,0,0,.487-.117,1.77,1.77,0,0,0,.581-.977,6.074,6.074,0,0,0,.064-2.05h.166a7.33,7.33,0,0,0,.226,1.561c.056.231.125.446.192.642a1.354,1.354,0,0,0,.26.487.664.664,0,0,0,.717.136,1.58,1.58,0,0,0,.253-.163Z" transform="translate(-259.46 -59.058)" fill="#fff"/>
      </g>
      <g id="freepik--Desk--inject-2" transform="translate(31.466 130.843)">
        <rect id="Rectangle_99" data-name="Rectangle 99" width="2.8" height="58.683" transform="translate(108.859 8.103)" fill="#263238"/>
        <rect id="Rectangle_100" data-name="Rectangle 100" width="2.8" height="58.683" transform="translate(68.175 8.103)" fill="#263238"/>
        <rect id="Rectangle_101" data-name="Rectangle 101" width="84.18" height="37.291" transform="translate(30.34 1.589)" fill="#455a64"/>
        <rect id="Rectangle_102" data-name="Rectangle 102" width="117.512" height="6.223" transform="translate(0.283)" fill="#455a64"/>
        <rect id="Rectangle_103" data-name="Rectangle 103" width="25.509" height="35.771" transform="translate(2.027 3.11)" fill="#455a64"/>
        <path id="Path_8994" data-name="Path 8994" d="M167.175,315.063c0,.079-26.064.143-58.2.143s-58.211-.064-58.211-.143,26.041-.143,58.211-.143S167.175,314.984,167.175,315.063Z" transform="translate(-50.76 -309.247)" fill="#263238"/>
        <rect id="Rectangle_104" data-name="Rectangle 104" width="2.8" height="60.973" transform="translate(27.535 5.816)" fill="#263238"/>
        <rect id="Rectangle_105" data-name="Rectangle 105" width="2.8" height="60.973" transform="translate(1.887 5.816)" fill="#263238"/>
      </g>
      <g id="freepik--Character--inject-2" transform="translate(85.273 39.321)">
        <path id="Path_8995" data-name="Path 8995" d="M278.129,431.355l1.691,9.058s-8.62,4.751-8.472,6.454l17.643-2.642L286.937,430Z" transform="translate(-241.903 -289.373)" fill="#9ed5e0"/>
        <g id="Group_2570" data-name="Group 2570" transform="translate(29.443 140.627)" opacity="0.3">
          <path id="Path_8996" data-name="Path 8996" d="M278.129,431.355l1.691,9.058s-8.62,4.751-8.472,6.454l17.643-2.642L286.937,430Z" transform="translate(-271.346 -430)"/>
        </g>
        <path id="Path_8997" data-name="Path 8997" d="M306.7,453.35a.728.728,0,0,1,.622.755.706.706,0,0,1-.755.623.755.755,0,0,1-.653-.8.72.72,0,0,1,.834-.563" transform="translate(-263.426 -303.911)" fill="#e0e0e0"/>
        <path id="Path_8998" data-name="Path 8998" d="M288.952,465.282l-.26-1.423-16.82,3.072s-.732.46-.562,1Z" transform="translate(-241.864 -310.454)" fill="#263238"/>
        <path id="Path_8999" data-name="Path 8999" d="M293,457.192c0,.087.449.061.917.276s.755.539.819.494-.128-.525-.7-.773S292.968,457.116,293,457.192Z" transform="translate(-255.383 -306.221)" fill="#263238"/>
        <path id="Path_9000" data-name="Path 9000" d="M288.41,460.1c0,.087.377.173.732.5s.491.694.577.675.064-.513-.377-.9S288.4,460.035,288.41,460.1Z" transform="translate(-252.527 -308.086)" fill="#263238"/>
        <path id="Path_9001" data-name="Path 9001" d="M285,464.167c.087,0,.136-.441-.154-.879s-.725-.566-.755-.491.26.295.494.656S284.909,464.17,285,464.167Z" transform="translate(-249.833 -309.78)" fill="#263238"/>
        <path id="Path_9002" data-name="Path 9002" d="M292.581,451.092c.049.075.427-.106.917-.143s.895.056.929-.026-.377-.332-.954-.276S292.528,451.032,292.581,451.092Z" transform="translate(-255.121 -302.222)" fill="#263238"/>
        <path id="Path_9003" data-name="Path 9003" d="M289.292,439.32l.162,9.19s-9.292,3.253-9.436,4.956l17.84.324.332-14.341Z" transform="translate(-247.303 -295.176)" fill="#9ed5e0"/>
        <path id="Path_9004" data-name="Path 9004" d="M318.23,461.867a.728.728,0,0,1,.491.838.706.706,0,0,1-.831.494.755.755,0,0,1-.513-.895.728.728,0,0,1,.921-.415" transform="translate(-270.549 -309.201)" fill="#e0e0e0"/>
        <path id="Path_9005" data-name="Path 9005" d="M297.871,475.285l-.023-1.445-17.1.226s-.8.332-.72.895Z" transform="translate(-247.306 -316.668)" fill="#263238"/>
        <path id="Path_9006" data-name="Path 9006" d="M304.259,463.3c0,.087.434.136.857.422s.645.661.728.627-.042-.539-.558-.879S304.241,463.219,304.259,463.3Z" transform="translate(-262.394 -310.059)" fill="#263238"/>
        <path id="Path_9007" data-name="Path 9007" d="M299.259,465.324c-.019.087.355.242.642.616s.377.755.457.755.151-.494-.219-.954S299.262,465.241,299.259,465.324Z" transform="translate(-259.281 -311.345)" fill="#263238"/>
        <path id="Path_9008" data-name="Path 9008" d="M295.251,468.768c.079.023.207-.411,0-.89s-.619-.68-.656-.607.207.332.377.728S295.163,468.758,295.251,468.768Z" transform="translate(-256.375 -312.567)" fill="#263238"/>
        <path id="Path_9009" data-name="Path 9009" d="M304.766,457.344c.038.079.434-.034.929,0s.876.2.921.128-.317-.377-.895-.434S304.724,457.276,304.766,457.344Z" transform="translate(-262.708 -306.202)" fill="#263238"/>
        <path id="Path_9010" data-name="Path 9010" d="M300.929,250.17l-.238,9.1L298.008,287.5s.857,13.757,1.4,21.512c.472,6.763-.89,18.458-.89,18.458l-11.352-.3L284.12,288l-1.887-24.433L278.5,251.11Z" transform="translate(-246.357 -177.412)" fill="#263238"/>
        <path id="Path_9011" data-name="Path 9011" d="M262.364,252.849l-.68,37.408a15.5,15.5,0,0,0,.906,5.529l9.756,27.173.479,1.793,6.823-1.474-4.722-71.358-12.586.52Z" transform="translate(-235.886 -178.501)" fill="#263238"/>
        <path id="Path_9012" data-name="Path 9012" d="M288.792,272.94a.925.925,0,0,0,0,.173v2.521c0,1.734.049,4.248.132,7.352.181,6.209.6,14.783,1.347,24.222s1.6,17.976,2.231,24.154c.321,3.076.581,5.567.755,7.306.087.849.166,1.509.215,1.985.026.215.049.377.064.513a1.076,1.076,0,0,0,.026.173.788.788,0,0,0,0-.173c0-.125-.023-.3-.038-.52-.045-.468-.1-1.132-.181-1.989-.166-1.74-.4-4.234-.7-7.314-.592-6.174-1.431-14.719-2.168-24.154s-1.189-18-1.408-24.207c-.1-3.1-.173-5.616-.2-7.352-.019-.857-.034-1.529-.045-2a4.051,4.051,0,0,0-.019-.52A1.07,1.07,0,0,0,288.792,272.94Z" transform="translate(-252.763 -191.588)" fill="#455a64"/>
        <path id="Path_9013" data-name="Path 9013" d="M287.22,259.246a.585.585,0,1,0,.6-.566A.585.585,0,0,0,287.22,259.246Z" transform="translate(-251.786 -182.71)" fill="#455a64"/>
        <path id="Path_9014" data-name="Path 9014" d="M262.818,260.936a3.727,3.727,0,0,0,.819-.728,9.088,9.088,0,0,0,1.487-2.2,8.981,8.981,0,0,0,.78-2.536,3.588,3.588,0,0,0,.053-1.094c-.034,0-.068.415-.2,1.068a10.917,10.917,0,0,1-.826,2.472,10.741,10.741,0,0,1-1.408,2.189C263.1,260.623,262.791,260.91,262.818,260.936Z" transform="translate(-236.592 -180.034)" fill="#455a64"/>
        <path id="Path_9015" data-name="Path 9015" d="M315.046,256.35a1.406,1.406,0,0,0,.038.419,6.291,6.291,0,0,0,.29,1.105,7.242,7.242,0,0,0,5.537,4.687,6.484,6.484,0,0,0,1.132.109,1.542,1.542,0,0,0,.419-.034c0-.042-.6-.019-1.529-.223a7.5,7.5,0,0,1-5.423-4.6C315.163,256.935,315.084,256.342,315.046,256.35Z" transform="translate(-269.109 -181.26)" fill="#455a64"/>
        <path id="Path_9016" data-name="Path 9016" d="M262.946,253.29c.053,0,.038,3.593-.034,8.023s-.173,8.02-.226,8.02-.042-3.593.03-8.023S262.89,253.287,262.946,253.29Z" transform="translate(-236.491 -179.355)" fill="#455a64"/>
        <path id="Path_9017" data-name="Path 9017" d="M337.143,257.923a9.262,9.262,0,0,1,.026-1.246c.038-.755.087-1.834.109-3.019s.027-2.234.027-3.019a8.4,8.4,0,0,1,.03-1.249,7.855,7.855,0,0,1,.109,1.245c.034.755.056,1.838.03,3.019s-.095,2.242-.166,3.019a6.626,6.626,0,0,1-.166,1.25Z" transform="translate(-282.863 -176.927)" fill="#455a64"/>
        <path id="Path_9018" data-name="Path 9018" d="M194.34,116.317l-.755-.993s-.377-.812-.207-1.177.755-.151.755-.151l2.948,3.325-1.03.849-1.6-1.734" transform="translate(-193.333 -92.592)" fill="#fff"/>
        <path id="Path_9019" data-name="Path 9019" d="M212.545,129.725l-5.956-4.855s-.347-.906-.913-1.132a2.219,2.219,0,0,1-1.132-1.619l-.913-3.155a6.9,6.9,0,0,0-1.132-2.3l-.812-.151s-.268-1.355-.887-1.509a15.407,15.407,0,0,0-2.533-.087l-1.835.89a1.585,1.585,0,0,0,1.272.78,8.163,8.163,0,0,0,1.647-.212l.483,1.474a4.462,4.462,0,0,1-.045,1.548,1.51,1.51,0,0,1-.446.642,21.794,21.794,0,0,1-1.3-1.887c-.377-.687-1.438-1.54-1.846-1.132s.423,1.23.536,1.994l.128.981s.7,1.214.755,1.423a5.462,5.462,0,0,0,1.083,1.951l2.353,2.023,2.223,2.642c.664.773,6.873,7.7,6.873,7.7l3.1-4.416Z" transform="translate(-195.046 -93.197)" fill="#ffbe9d"/>
        <path id="Path_9020" data-name="Path 9020" d="M217.214,136.947a17.7,17.7,0,0,0,1.835,1.785,60.829,60.829,0,0,1,5.45,4.608c.988,1.193,5.008,3.344,5.008,3.344l3.849-7.733,5.944-3.793c1.328-1.333,5.1,1.132,5.1,1.132l-11.04,25.856L225.2,159.1,214.54,143.842l-1.729-4.151Z" transform="translate(-205.459 -105.56)" fill="#28389f"/>
        <path id="Path_9021" data-name="Path 9021" d="M279.576,117.27l1.57,2.223s9.964,5.029,10.386,5.7-2.619,24.46-2.619,24.46l1.219,14.451-1.453,3.888-28.249,1.582a3.3,3.3,0,0,1-1.6-2.774c-.061-1.261.948-2.566.94-3.4-.068-5.857.563-19.308,1.509-24.271a69.639,69.639,0,0,1,4.151-13.092l2.533-1.774.505-2.823Z" transform="translate(-234.107 -94.669)"/>
        <g id="Group_2571" data-name="Group 2571" transform="translate(31.703 59.215)" opacity="0.3">
          <path id="Path_9022" data-name="Path 9022" d="M301.012,221.081a3.02,3.02,0,0,0-1.347-.441c-5.25-.913-9.6-4.658-14.753-6.039a6.552,6.552,0,0,0-3.269-.192,5.475,5.475,0,0,0-3.585,3.691,17.854,17.854,0,0,0-.709,5.45,4.985,4.985,0,0,0,3.6-2.642,3.621,3.621,0,0,1,.948-1.479,2.439,2.439,0,0,1,1.729-.2l3.993.487a15.518,15.518,0,0,1,2.948.555c1.03.336,1.974.883,2.97,1.313a13.733,13.733,0,0,0,6.914,1.04,1.219,1.219,0,0,0,.792-.295.89.89,0,0,0-.236-1.245Z" transform="translate(-277.344 -214.286)"/>
        </g>
        <g id="Group_2572" data-name="Group 2572" transform="translate(34.388 29.503)" opacity="0.3">
          <path id="Path_9023" data-name="Path 9023" d="M286.083,139.308a19.422,19.422,0,0,0-.717,4.722c-.377,5.329-.532,10.209-.9,15.538.068-.147-.068.151,0,0l1.77-.231A101.605,101.605,0,0,1,288.9,135.56a6.589,6.589,0,0,0-2.819,3.748Z" transform="translate(-284.448 -135.56)"/>
        </g>
        <path id="Path_9024" data-name="Path 9024" d="M276.191,143.8s-2.728,5.877-3.529,8.363-1.351,12.077-1.351,12.077l-.5,12.311,2.468,3.106,2.393-2.057,2.9-33.525Z" transform="translate(-241.57 -111.187)" fill="#9ed5e0"/>
        <path id="Path_9025" data-name="Path 9025" d="M283.682,178.148c-.053,0,.377-7.5.988-16.753s1.132-16.745,1.185-16.745-.377,7.506-.988,16.757S283.735,178.153,283.682,178.148Z" transform="translate(-249.581 -111.716)" fill="#263238"/>
        <path id="Path_9026" data-name="Path 9026" d="M328.375,138.27a8.578,8.578,0,0,1,3.672,5.216c.97,3.732,4.174,18.278,4.476,20.512s-.226,5.283-1.2,6.118-6.861,4.574-9.473,4.574-7.853-1.7-7.853-1.7l1.132-5.854,4.412-1.04,3.431-3.359-3.88-8.51S324.631,139.021,328.375,138.27Z" transform="translate(-270.95 -107.744)" fill="#28389f"/>
        <path id="Path_9027" data-name="Path 9027" d="M348.158,203.522c-.026.023-.26-.31-.755-.733a5.376,5.376,0,0,0-2.2-1.132,4.624,4.624,0,0,0-2.461.079c-.616.181-.974.377-.989.347s.075-.072.234-.162a4.972,4.972,0,0,1,.714-.313,4.438,4.438,0,0,1,2.552-.14A5,5,0,0,1,347.5,202.7a4.215,4.215,0,0,1,.513.585C348.123,203.424,348.169,203.515,348.158,203.522Z" transform="translate(-285.739 -147.011)" fill="#263238"/>
        <path id="Path_9028" data-name="Path 9028" d="M331.617,220.4c-.03-.023.279-.377.622-1.015a5.933,5.933,0,0,0,.042-5.492c-.332-.653-.638-1-.607-1.023s.095.068.226.226a5.033,5.033,0,0,1,.5.733,5.661,5.661,0,0,1-.042,5.623,4.556,4.556,0,0,1-.513.72C331.711,220.337,331.624,220.412,331.617,220.4Z" transform="translate(-279.426 -154.191)" fill="#263238"/>
        <path id="Path_9029" data-name="Path 9029" d="M285.354,131.553l-2.2,2.868.675,1.766,2.359.279,2.087-3.321-2.019-1.766Z" transform="translate(-249.252 -103.454)" fill="#9ed5e0"/>
        <path id="Path_9030" data-name="Path 9030" d="M346.935,195.383c0,.038-.355,0-.913.038a4.732,4.732,0,0,0-.959.181,5.735,5.735,0,0,0-1.094.472,6,6,0,0,0-1.638,1.419,8.453,8.453,0,0,1-.551.725,2.6,2.6,0,0,1,.441-.811,5.327,5.327,0,0,1,1.647-1.509,5.083,5.083,0,0,1,1.132-.475,4.385,4.385,0,0,1,1-.147,3.086,3.086,0,0,1,.679.042.717.717,0,0,1,.254.067Z" transform="translate(-285.755 -143.232)" fill="#263238"/>
        <path id="Path_9031" data-name="Path 9031" d="M336.186,139.61c0,.034-.355.162-.89.475a6.363,6.363,0,0,0-2.872,3.744c-.166.6-.192.988-.231.985a.823.823,0,0,1,0-.276,3.769,3.769,0,0,1,.1-.755,5.816,5.816,0,0,1,2.94-3.83,4.028,4.028,0,0,1,.694-.295A.868.868,0,0,1,336.186,139.61Z" transform="translate(-279.778 -108.578)" fill="#263238"/>
        <path id="Path_9032" data-name="Path 9032" d="M300.148,124.3a3.624,3.624,0,0,1-.321.5l-.94,1.314c-.8,1.105-1.907,2.642-3.152,4.291l-.4.544-.061.087-.087-.068c-1.479-1.227-2.789-2.329-3.728-3.129l-1.083-.948a2.85,2.85,0,0,1-.377-.377,2.7,2.7,0,0,1,.433.31l1.132.9c.959.773,2.287,1.857,3.774,3.083h-.143l.4-.544c1.242-1.668,2.374-3.174,3.2-4.257l.989-1.275a3.392,3.392,0,0,1,.362-.43Z" transform="translate(-253.516 -99.046)" fill="#263238"/>
        <path id="Path_9033" data-name="Path 9033" d="M326.23,168.86a1.287,1.287,0,0,1,.1.173l.245.494.867,1.838c.728,1.555,1.717,3.71,2.8,6.1.706,1.566,1.37,3.019,1.933,4.284l.026.053-.042.042c-.985,1.053-1.887,1.838-2.491,2.419l-.7.675a1.672,1.672,0,0,1-.26.234,2.168,2.168,0,0,1,.215-.268c.151-.173.377-.411.668-.714.581-.607,1.474-1.408,2.438-2.464v.094l-1.955-4.273c-1.083-2.385-2.057-4.552-2.747-6.122l-.812-1.864-.212-.51A.649.649,0,0,1,326.23,168.86Z" transform="translate(-276.073 -126.789)" fill="#263238"/>
        <path id="Path_9034" data-name="Path 9034" d="M335.315,218.185a.922.922,0,0,1-.154.2,1.4,1.4,0,0,1-.212.219,3.586,3.586,0,0,1-.313.271,17.411,17.411,0,0,1-2.213,1.454c-.97.555-2.148,1.17-3.476,1.811a8.853,8.853,0,0,1-4.676.988,6.237,6.237,0,0,1-1.959-.457h.019l-4.672-1.28-.075-.019v-.075c.324-1.6.6-2.948.792-3.906.1-.453.173-.815.234-1.087a2.729,2.729,0,0,1,.1-.377,2.274,2.274,0,0,1-.049.377c-.049.276-.114.642-.189,1.1-.181.966-.434,2.306-.725,3.917l-.061-.094,4.682,1.253h0a6.04,6.04,0,0,0,1.887.433,8.786,8.786,0,0,0,4.616-.921c1.333-.63,2.514-1.234,3.487-1.774a19.716,19.716,0,0,0,2.234-1.387A8.313,8.313,0,0,0,335.315,218.185Z" transform="translate(-270.688 -156.088)" fill="#263238"/>
        <path id="Path_9035" data-name="Path 9035" d="M265.783,152.48a.52.52,0,0,1-.023.173c-.027.136-.061.3-.1.491-.1.46-.226,1.072-.377,1.811-.317,1.509-.755,3.641-1.091,6s-.577,4.5-.694,6.058c-.061.78-.106,1.408-.128,1.842a4.9,4.9,0,0,1-.038.5.608.608,0,0,1-.026.173.539.539,0,0,1,0-.173v-.5c0-.434.023-1.072.068-1.853.087-1.561.279-3.713.638-6.076s.78-4.476,1.127-5.982c.173-.755.332-1.374.446-1.8l.136-.487A.645.645,0,0,1,265.783,152.48Z" transform="translate(-236.894 -116.591)" fill="#263238"/>
        <path id="Path_9036" data-name="Path 9036" d="M284.747,130.18a5.9,5.9,0,0,1-.558.9c-.377.544-.879,1.283-1.457,2.095l-.895,1.234-.238.324.079-.377c.117-.607.223-1.132.3-1.474a2.263,2.263,0,0,1,.154-.558,2.131,2.131,0,0,1-.049.577c-.049.377-.132.879-.234,1.487l-.159-.068c.268-.377.566-.8.876-1.246.581-.808,1.113-1.536,1.509-2.057a5.487,5.487,0,0,1,.668-.836Z" transform="translate(-248.288 -102.707)" fill="#263238"/>
        <path id="Path_9037" data-name="Path 9037" d="M287.843,133.41c.027.042-.826.694-1.734,1.665a11.312,11.312,0,0,1-1.751,1.665,2.929,2.929,0,0,1,.449-.547c.295-.321.694-.755,1.158-1.253a10.942,10.942,0,0,1,1.272-1.151,2.062,2.062,0,0,1,.607-.377Z" transform="translate(-250.005 -104.718)" fill="#263238"/>
        <path id="Path_9038" data-name="Path 9038" d="M254.32,172.843a4.248,4.248,0,0,1-.061-.985,17.7,17.7,0,0,1,.672-4.706,3.855,3.855,0,0,1,.336-.932,6.873,6.873,0,0,1-.2.966c-.136.589-.306,1.408-.434,2.324s-.2,1.747-.231,2.351a5.655,5.655,0,0,1-.079.981Z" transform="translate(-231.261 -125.146)" fill="#263238"/>
        <path id="Path_9039" data-name="Path 9039" d="M256.761,171.5a12.168,12.168,0,0,1-.125-2.581,11.978,11.978,0,0,1,.23-2.574,25.572,25.572,0,0,1-.034,2.578A23.757,23.757,0,0,1,256.761,171.5Z" transform="translate(-232.732 -125.22)" fill="#263238"/>
        <path id="Path_9040" data-name="Path 9040" d="M222.642,146.729a5.776,5.776,0,0,1-.732.714c-.52.468-1.132,1.027-1.83,1.647s-1.381,1.2-1.887,1.6a4.693,4.693,0,0,1-.823.607,5.741,5.741,0,0,1,.732-.714l1.83-1.647c.72-.642,1.381-1.208,1.887-1.607a5.053,5.053,0,0,1,.823-.607Z" transform="translate(-208.298 -113.011)" fill="#263238"/>
        <path id="Path_9041" data-name="Path 9041" d="M253.633,192.788c-.223.132-1.853,1.046-1.933,1.887h0l16.56,2.9,15.606-5.306-3.14-2.642s-13.308,1.11-13.08,4.823c0,0-.528-1.193-2.959-1.679S253.633,192.788,253.633,192.788Z" transform="translate(-229.672 -139.72)" fill="#fff"/>
        <path id="Path_9042" data-name="Path 9042" d="M250.85,198.362l.038.226,2.423,5.872h20.24l8.171-2.68,2.14-6.182L269.4,198.422s-.377,1.8-2.023,1.887c-1.419.087-1.8-1.679-1.8-1.679Z" transform="translate(-229.142 -143.437)" fill="#9ed5e0"/>
        <path id="Path_9043" data-name="Path 9043" d="M250.85,198.151h1.007l2.94.038,10.759.162h.068v.061a2.708,2.708,0,0,0,.581,1.132,1.4,1.4,0,0,0,1.177.472,1.887,1.887,0,0,0,1.222-.574,2.791,2.791,0,0,0,.675-1.257v-.056h.053l14.492-2.838.166-.03-.053.159c-.359,1.03-.736,2.121-1.132,3.227-.347,1-.687,1.981-1.027,2.955v.049h-.045l-8.171,2.672h0l-20.256-.042h-.038v-.034c-1.411-3.457-2.265-5.544-2.374-5.888h0c-.03-.212-.03-.231-.03-.231a1.9,1.9,0,0,0,.045.226h0c.159.329,1.03,2.4,2.468,5.85l-.049-.034,20.256-.037h-.038l8.167-2.688-.061.061c.336-.974.679-1.959,1.023-2.955l1.132-3.227.109.128L269.4,198.294l.068-.068a2.948,2.948,0,0,1-.725,1.339,2.056,2.056,0,0,1-1.333.619,1.51,1.51,0,0,1-.725-.109,1.663,1.663,0,0,1-.585-.419,2.861,2.861,0,0,1-.611-1.214l.075.061-10.707-.249-2.959-.075-.78-.023Z" transform="translate(-229.142 -143.225)" fill="#263238"/>
        <path id="Path_9044" data-name="Path 9044" d="M289.982,207.718a10.143,10.143,0,0,1-.433-2.223,10.252,10.252,0,0,1-.125-2.265,17.9,17.9,0,0,1,.321,2.238,18.358,18.358,0,0,1,.238,2.249Z" transform="translate(-253.149 -148.187)" fill="#263238"/>
        <path id="Path_9045" data-name="Path 9045" d="M300,207.789c-.056,0-.056-1.019-.114-2.265a22.4,22.4,0,0,1-.087-2.265,14.341,14.341,0,0,1,.2,4.529Z" transform="translate(-259.621 -148.206)" fill="#263238"/>
        <g id="Group_2573" data-name="Group 2573" transform="translate(33.226 56.953)" opacity="0.3">
          <path id="Path_9046" data-name="Path 9046" d="M282.6,211.75a3.427,3.427,0,0,1-1.132-.988.661.661,0,0,1,.279-.943.932.932,0,0,1,.607.1c.525.212,1.04.446,1.551.694-.268-.377-.536-.895-.253-1.261s.842-.238,1.264-.072c.966.377,1.907.812,2.9,1.11a6.634,6.634,0,0,0,3.068.276,2.189,2.189,0,0,0,1.076-.453,6,6,0,0,0,.645-.826,2.974,2.974,0,0,1,1.647-1.06.616.616,0,0,1,.5.034c.242.173.173.536.125.826a2.989,2.989,0,0,0,.815,2.6l-2.428.627Z" transform="translate(-281.37 -208.286)"/>
        </g>
        <path id="Path_9047" data-name="Path 9047" d="M296.054,211.145a2.264,2.264,0,0,0-.513-1.113c-.407-.408-.656-.513-.709-.834s.336-.619.336-.954-.581-.694-1.291-.336a2.216,2.216,0,0,0-1.027,1.548c-.053.329.249.913,0,1.23s-1.551.143-1.551.143l-4.221-.292s-2.619-2.419-4.248-1.551l1.06,1.291s-1.887-1.132-2.706-.547l-.125.26,4.775,3.238,2.906,1.049,6.752.8a2.369,2.369,0,0,0,1.185-1.821,4.2,4.2,0,0,0-.544-2.019" transform="translate(-247.951 -151.008)" fill="#ffbe9d"/>
        <path id="Path_9048" data-name="Path 9048" d="M292.392,214.9a5.993,5.993,0,0,1-1.174-.079,10.686,10.686,0,0,1-1.261-.223,3.442,3.442,0,0,1-.725-.249,4.913,4.913,0,0,1-.7-.434,13.742,13.742,0,0,1-2.053-1.962,4.877,4.877,0,0,1-.7-.943,11.572,11.572,0,0,1,.8.849,17.082,17.082,0,0,0,2.068,1.887,5.462,5.462,0,0,0,.664.427,4.055,4.055,0,0,0,.687.245c.457.125.883.2,1.238.26A8.59,8.59,0,0,1,292.392,214.9Z" transform="translate(-250.889 -153.031)" fill="#263238"/>
        <path id="Path_9049" data-name="Path 9049" d="M287.666,144.158a7.9,7.9,0,0,1-2.476-.218A7.89,7.89,0,0,1,287.666,144.158Z" transform="translate(-250.522 -111.261)" fill="#263238"/>
        <path id="Path_9051" data-name="Path 9051" d="M312.291,90.9a6.037,6.037,0,0,1,.276-1.474,2.963,2.963,0,0,0,.087-1.483A1.223,1.223,0,0,0,311.623,87L308.83,97.107c1.261-.26,4.031-2.5,3.947-3.774C312.725,92.492,312.291,91.722,312.291,90.9Z" transform="translate(-265.24 -75.823)" fill="#e0e0e0"/>
        <path id="Path_9052" data-name="Path 9052" d="M288,82.957l-.087-12.39c.215-4.529-2.246-8.446-6.793-8.536H280.7a8.126,8.126,0,0,0-7.809,7.777c-.166,3.936-.3,8.3-.192,10.39.223,4.355,4.608,4.865,4.608,4.865v1.912l1.861.675Z" transform="translate(-242.721 -60.277)" fill="#ffbe9d"/>
        <path id="Path_9053" data-name="Path 9053" d="M285,120.065a10.144,10.144,0,0,0,5.62-1.835s-1.223,3.189-5.585,2.963Z" transform="translate(-250.404 -95.267)" fill="#eb996e"/>
        <path id="Path_9054" data-name="Path 9054" d="M276.2,90.544a.619.619,0,0,0,.622.607.593.593,0,0,0,.619-.585.619.619,0,0,0-.622-.607.592.592,0,0,0-.619.585Z" transform="translate(-244.925 -77.665)" fill="#263238"/>
        <path id="Path_9055" data-name="Path 9055" d="M275.573,85.529c.079.075.539-.29,1.208-.313s1.174.29,1.246.207-.053-.181-.271-.329a1.7,1.7,0,0,0-1-.268,1.622,1.622,0,0,0-.954.347C275.6,85.343,275.535,85.491,275.573,85.529Z" transform="translate(-244.528 -74.469)" fill="#263238"/>
        <path id="Path_9056" data-name="Path 9056" d="M292.41,91a.622.622,0,0,0,.622.607.592.592,0,0,0,.619-.607.623.623,0,0,0-.622-.607.592.592,0,0,0-.619.607Z" transform="translate(-255.017 -77.933)" fill="#263238"/>
        <path id="Path_9057" data-name="Path 9057" d="M293.436,85.5c.068.087.566-.226,1.234-.173s1.132.415,1.214.34-.03-.185-.23-.355a1.713,1.713,0,0,0-.966-.377,1.664,1.664,0,0,0-.988.242C293.481,85.338,293.4,85.465,293.436,85.5Z" transform="translate(-255.65 -74.534)" fill="#263238"/>
        <path id="Path_9058" data-name="Path 9058" d="M284.655,92.073a4.49,4.49,0,0,0-1.094-.154c-.173,0-.336-.042-.377-.154a.876.876,0,0,1,.095-.513c.147-.419.3-.857.457-1.321a22.645,22.645,0,0,0,1-3.45,22.307,22.307,0,0,0-1.28,3.363q-.226.7-.434,1.328a1,1,0,0,0-.064.672.433.433,0,0,0,.29.242,1.233,1.233,0,0,0,.294.03,4.529,4.529,0,0,0,1.109-.042Z" transform="translate(-249.115 -75.499)" fill="#263238"/>
        <path id="Path_9059" data-name="Path 9059" d="M292.823,79c.075.173.755.064,1.529.132s1.434.253,1.532.087c.042-.087-.075-.249-.336-.415a2.573,2.573,0,0,0-1.132-.347,2.532,2.532,0,0,0-1.185.185C292.933,78.769,292.793,78.917,292.823,79Z" transform="translate(-255.272 -70.499)" fill="#e0e0e0"/>
        <path id="Path_9060" data-name="Path 9060" d="M275.809,81.654c.125.147.581-.026,1.132-.056s1.027.064,1.132-.1c.045-.079-.034-.226-.245-.377a1.638,1.638,0,0,0-1.821.125C275.813,81.42,275.756,81.582,275.809,81.654Z" transform="translate(-244.67 -72.025)" fill="#e0e0e0"/>
        <path id="Path_9061" data-name="Path 9061" d="M289.358,102.32c-.109,0-.087.725-.687,1.264s-1.378.491-1.381.592.181.136.505.132a1.821,1.821,0,0,0,1.155-.453,1.577,1.577,0,0,0,.528-1.06C289.494,102.493,289.407,102.317,289.358,102.32Z" transform="translate(-251.83 -85.361)" fill="#263238"/>
        <path id="Path_9062" data-name="Path 9062" d="M290.877,68.128a.675.675,0,0,1-.173-.4.868.868,0,0,1,.154-.313.72.72,0,0,0-.377-.985,1.921,1.921,0,0,0-.268-2.329.7.7,0,0,1-.253-.347.756.756,0,0,1,.087-.377c.306-.819-.295-1.672-.861-2.336a5.714,5.714,0,0,0-2.4-1.939,4.265,4.265,0,0,1-.72-.245,3.173,3.173,0,0,1-.544-.434,4.385,4.385,0,0,0-4.442-.755,3.12,3.12,0,0,1-.52.185,2.642,2.642,0,0,1-.547.042,6.3,6.3,0,0,0-3.216.966,6.042,6.042,0,0,1-.943.574c-.223.087-.649.068-.842.215a.867.867,0,0,0-.3,1.023,2.187,2.187,0,0,0-1.333,2.642c.045.457.306.966.755,1.019a1.132,1.132,0,0,0,.755-.253,4.908,4.908,0,0,0,.913-.785,2.041,2.041,0,0,1,.52-.483,2.147,2.147,0,0,1,.592-.173,4.241,4.241,0,0,0,2.351-1.453c.117-.147.26-.313.449-.3a.634.634,0,0,1,.212.087,2.748,2.748,0,0,0,2.974-.317,3.83,3.83,0,0,0,3.325,2.7.541.541,0,0,1,.479.185.506.506,0,0,1,.019.377,23.831,23.831,0,0,0,.056,6.635c.215,1.887,1.04,3.11,1.8,3.238l1.453-2.552.709-1.253a1.567,1.567,0,0,0,.133-1.862Z" transform="translate(-243.155 -57.37)" fill="#e0e0e0"/>
        <path id="Path_9063" data-name="Path 9063" d="M288.354,58.748c0-.019-.181-.042-.433.121a.528.528,0,0,0-.234.5.377.377,0,0,0,.645.26l-.166-.173a1.4,1.4,0,0,0-.295.347,1.306,1.306,0,0,0,.023,1.411.867.867,0,0,0,.457.377,2.767,2.767,0,0,1-.306-.457,1.246,1.246,0,0,1,.279-1.509l-.166-.173a.136.136,0,0,1-.154,0,.173.173,0,0,1-.109-.136.377.377,0,0,1,.125-.347C288.2,58.835,288.369,58.783,288.354,58.748Z" transform="translate(-252.067 -58.226)" fill="#fff"/>
        <path id="Path_9064" data-name="Path 9064" d="M276.234,66.032c0-.023-.128.034-.125.218a.4.4,0,0,0,.125.287.287.287,0,0,0,.449-.045l-.2-.042a.78.78,0,0,0,.536.7.823.823,0,0,0,.427.019l-.147-.114a1.365,1.365,0,0,0,.114.528.648.648,0,0,0,.313.321c.249.109.4,0,.377-.023a.66.66,0,0,1-.57-.838V66.9l-.147.03a.577.577,0,0,1-.3,0,.593.593,0,0,1-.377-.483l-.075-.63-.128.592c0,.03-.087.053-.14,0a.29.29,0,0,1-.117-.166C276.2,66.115,276.249,66.046,276.234,66.032Z" transform="translate(-244.869 -62.637)" fill="#fff"/>
        <path id="Path_9065" data-name="Path 9065" d="M312.442,92.95c.075-.034,2.963-1,2.982,1.981a2.243,2.243,0,0,1-2.985,2.3C312.435,97.146,312.442,92.95,312.442,92.95Z" transform="translate(-267.486 -79.418)" fill="#ffbe9d"/>
        <path id="Path_9066" data-name="Path 9066" d="M314.827,97.646a.8.8,0,0,0,.143.075.52.52,0,0,0,.377,0,1.289,1.289,0,0,0,.589-1.158,1.691,1.691,0,0,0-.151-.755.593.593,0,0,0-.377-.4.268.268,0,0,0-.306.143c-.038.087-.019.143-.034.151s-.064-.053-.042-.173a.329.329,0,0,1,.114-.189.377.377,0,0,1,.287-.079.732.732,0,0,1,.547.46,1.734,1.734,0,0,1,.185.831,1.322,1.322,0,0,1-.755,1.294.574.574,0,0,1-.476-.075C314.835,97.717,314.82,97.653,314.827,97.646Z" transform="translate(-268.973 -80.966)" fill="#eb996e"/>
        <path id="Path_9068" data-name="Path 9068" d="M294.924,101.7c-.056,0-.128-.29-.359-.558s-.505-.377-.487-.449.377,0,.638.321S294.977,101.7,294.924,101.7Z" transform="translate(-256.056 -84.329)" fill="#eb996e"/>
        <path id="Path_9069" data-name="Path 9069" d="M301.807,88.994c.038.034-.181.321-.6.434s-.755,0-.732-.064.324-.023.68-.128S301.78,88.964,301.807,88.994Z" transform="translate(-260.04 -77.062)" fill="#eb996e"/>
        <path id="Path_9070" data-name="Path 9070" d="M302.581,90.917c-.034.045-.276-.072-.592-.147s-.585-.087-.589-.143.283-.136.638-.049S302.614,90.875,302.581,90.917Z" transform="translate(-260.615 -78.027)" fill="#eb996e"/>
        <path id="Path_9071" data-name="Path 9071" d="M274.06,91.2s.026,0,0,.049a.108.108,0,0,1-.087.064.475.475,0,0,1-.249-.023c-.173-.053-.287-.151-.268-.2s.166-.038.324,0a1.9,1.9,0,0,1,.189.068l.034.026A.477.477,0,0,0,274.06,91.2Z" transform="translate(-243.216 -78.347)" fill="#eb996e"/>
        <path id="Path_9072" data-name="Path 9072" d="M305.076,66.529a2.461,2.461,0,0,1-.792.544,4.668,4.668,0,0,1-4.529-.245A2.4,2.4,0,0,1,299,66.2c.019-.026.295.223.808.51a5.048,5.048,0,0,0,4.4.26C304.755,66.72,305.057,66.5,305.076,66.529Z" transform="translate(-259.12 -62.87)" fill="#263238"/>
        <path id="Path_9073" data-name="Path 9073" d="M306.919,70.266a3.512,3.512,0,0,1-.883.6,3.685,3.685,0,0,1-1.094.415,3.951,3.951,0,0,1-1.442,0,6.077,6.077,0,0,1-2.348-1.072,3.911,3.911,0,0,1-.823-.68,9.753,9.753,0,0,1,.9.566,6.88,6.88,0,0,0,2.31.993,3.912,3.912,0,0,0,1.37.026,3.815,3.815,0,0,0,1.068-.377C306.561,70.462,306.9,70.239,306.919,70.266Z" transform="translate(-259.948 -64.947)" fill="#263238"/>
        <g id="Group_2574" data-name="Group 2574" transform="translate(25.717 38.493)" opacity="0.3">
          <path id="Path_9075" data-name="Path 9075" d="M261.937,173.955l2-14.575A21.928,21.928,0,0,0,261.937,173.955Z" transform="translate(-261.475 -159.38)"/>
        </g>
        <g id="Group_2575" data-name="Group 2575" transform="translate(56.059 53.525)" opacity="0.3">
          <path id="Path_9076" data-name="Path 9076" d="M347.851,199.634a4.638,4.638,0,0,0-2.642-.377c-1.28.14-2.725.525-3.34,1.509a4.671,4.671,0,0,1,3.427-.607,7.4,7.4,0,0,1,2.861,1.887c.268.26.679.532.97.3a.672.672,0,0,0,.192-.563,2.619,2.619,0,0,0-1.47-2.151Z" transform="translate(-341.87 -199.205)"/>
        </g>
      </g>
      <g id="freepik--Triangle--inject-2" transform="translate(153.564 63.409)">
        <path id="Path_9077" data-name="Path 9077" d="M391.76,196.118h19.161V163.172Zm7.716-5.057,8.111-13.693v13.693Z" transform="translate(-391.76 -163.172)" fill="rgba(156,155,198,0.96)"/>
        <path id="Path_9078" data-name="Path 9078" d="M396.627,242.08a7.508,7.508,0,0,1,2.226,1.381,3.86,3.86,0,0,1-1.174-.592,3.753,3.753,0,0,1-1.053-.789Z" transform="translate(-394.789 -212.3)" fill="#263238"/>
        <path id="Path_9079" data-name="Path 9079" d="M404.061,229.13a3.715,3.715,0,0,1,1.132.589,3.623,3.623,0,0,1,1.019.78,7.1,7.1,0,0,1-2.162-1.366Z" transform="translate(-399.412 -204.238)" fill="#263238"/>
        <path id="Path_9080" data-name="Path 9080" d="M411.53,216.18a3.642,3.642,0,0,1,1.076.7c.551.433.97.834.929.883A7.2,7.2,0,0,1,411.53,216.18Z" transform="translate(-404.069 -196.176)" fill="#263238"/>
        <path id="Path_9081" data-name="Path 9081" d="M419.276,203.46a7.2,7.2,0,0,1,2,1.585,3.641,3.641,0,0,1-1.076-.7C419.653,203.906,419.234,203.509,419.276,203.46Z" transform="translate(-408.889 -188.256)" fill="#263238"/>
        <path id="Path_9082" data-name="Path 9082" d="M426.887,190.16a3.988,3.988,0,0,1,1.132.649,3.845,3.845,0,0,1,1.015.834A3.918,3.918,0,0,1,427.9,191,3.814,3.814,0,0,1,426.887,190.16Z" transform="translate(-413.629 -179.975)" fill="#263238"/>
        <path id="Path_9083" data-name="Path 9083" d="M434.907,176.35a3.443,3.443,0,0,1,1.091.581,3.923,3.923,0,0,1,.962.755,3.441,3.441,0,0,1-1.091-.581,3.369,3.369,0,0,1-.962-.755Z" transform="translate(-418.621 -171.378)" fill="#263238"/>
        <path id="Path_9084" data-name="Path 9084" d="M398.992,237.978c.034-.053.31.056.616.249s.528.377.494.434-.31-.053-.616-.245S398.951,238.05,398.992,237.978Z" transform="translate(-396.259 -209.739)" fill="#263238"/>
        <path id="Path_9085" data-name="Path 9085" d="M401.344,233.778c.034-.053.31.056.616.245s.52.377.491.441-.306-.056-.611-.245S401.311,233.831,401.344,233.778Z" transform="translate(-397.725 -207.124)" fill="#263238"/>
        <path id="Path_9086" data-name="Path 9086" d="M406.894,224.328c.034-.053.31.056.616.249s.525.377.494.441-.31-.056-.616-.249S406.861,224.389,406.894,224.328Z" transform="translate(-401.18 -201.24)" fill="#263238"/>
        <path id="Path_9087" data-name="Path 9087" d="M409.264,220.088c.034-.053.31.056.615.245s.525.377.491.441-.306-.056-.611-.245S409.231,220.141,409.264,220.088Z" transform="translate(-402.656 -198.6)" fill="#263238"/>
        <path id="Path_9088" data-name="Path 9088" d="M414.554,211.548c.034-.053.31.056.616.249s.525.377.491.441-.306-.056-.615-.249S414.521,211.6,414.554,211.548Z" transform="translate(-405.949 -193.284)" fill="#263238"/>
        <path id="Path_9089" data-name="Path 9089" d="M416.924,207.5c.034-.053.306.056.611.249s.528.377.494.433-.31-.056-.616-.245S416.891,207.554,416.924,207.5Z" transform="translate(-407.425 -190.762)" fill="#263238"/>
        <path id="Path_9090" data-name="Path 9090" d="M421.991,198.758c.034-.053.31.056.616.249s.528.377.494.434-.31-.056-.616-.245S421.945,198.814,421.991,198.758Z" transform="translate(-410.578 -185.32)" fill="#263238"/>
        <path id="Path_9091" data-name="Path 9091" d="M424.735,194.068c.034-.053.31.056.616.245s.525.377.491.441-.305-.056-.611-.245S424.7,194.121,424.735,194.068Z" transform="translate(-412.288 -182.401)" fill="#263238"/>
        <path id="Path_9092" data-name="Path 9092" d="M429.676,185.626c.034-.056.31.056.616.245s.528.377.494.441-.31-.056-.616-.245S429.645,185.679,429.676,185.626Z" transform="translate(-415.364 -177.144)" fill="#263238"/>
        <path id="Path_9093" data-name="Path 9093" d="M432.474,180.748c.034-.053.306.056.611.245s.528.377.494.441-.31-.056-.616-.245S432.441,180.8,432.474,180.748Z" transform="translate(-417.106 -174.108)" fill="#263238"/>
      </g>
      <g id="freepik--Globe--inject-2" transform="translate(41.865 92.756)">
        <path id="Path_9094" data-name="Path 9094" d="M161.046,232.325a3.6,3.6,0,0,0-.056-.494c-.023-.162-.049-.347-.079-.52q.045.26.079.52C161.012,231.978,161.031,232.144,161.046,232.325Z" transform="translate(-129.738 -219.105)" fill="#9ed5e0"/>
        <path id="Path_9095" data-name="Path 9095" d="M111.149,214.3a7.927,7.927,0,0,1-.276-1.027.672.672,0,0,0-.31-.46,3.141,3.141,0,0,0-.377-.087c-.434-.128-.558-.736-.974-.924a1.45,1.45,0,0,0-.419-.087,2.2,2.2,0,0,1-1.479-.694,3.04,3.04,0,0,0-.347-.415.419.419,0,0,0-.5-.049c.117.234.234.464.347.694a1.887,1.887,0,0,0,.377.581.634.634,0,0,0,.656.136.461.461,0,0,1,.218-.075.238.238,0,0,1,.143.087.954.954,0,0,1-.087,1.222,2.831,2.831,0,0,1-1.151.675.857.857,0,0,1-.468.087c-.29-.053-.446-.377-.532-.645a5.629,5.629,0,0,0-.672-1.821,2.192,2.192,0,0,1-.347-.51c-.087-.207-.064-.453-.189-.634s-.411-.306-.434-.539a.419.419,0,0,1,.276-.377c.151-.072.317-.094.472-.154.064-.027.132-.072.132-.136s-.136-.136-.173-.226.068-.2.114-.3c.094-.226-.143-.457-.377-.551s-.51-.159-.616-.377a1.249,1.249,0,0,1-.075-.332.732.732,0,0,0-.551-.6.479.479,0,0,0-.558.491,1.888,1.888,0,0,0,.207.419c.064.143.045.359-.1.4-.249.075-.487-.377-.694-.218l.249.86c-.321.162-.709-.132-.849-.468s-.143-.714-.306-1.03-.607-.563-.89-.336c0,.411.536.581.78.913a.558.558,0,0,1-.109.789c-.26.151-.668-.114-.57-.377.034-.1.117-.173.125-.283a.465.465,0,0,0-.2-.317l-.472-.377a1,1,0,0,0-.336-.207.789.789,0,0,0-.819.453,4,4,0,0,1-.505.86.924.924,0,0,1-1.3,0,.755.755,0,0,1,.313-1.182c.173-.049.4-.042.5-.2.162-.276-.306-.627-.143-.906.125-.215.453-.117.694-.189s.377-.31.513-.513.355-.408.6-.347a.728.728,0,0,1,.026-.423.26.26,0,0,1,.377-.132.427.427,0,0,0,.234.566,1.332,1.332,0,0,0,.68.049c.231-.03.52-.114.539-.34a.734.734,0,0,1,0-.223c.1-.271.607.1.8-.117.114-.114,0-.317-.166-.355a1.72,1.72,0,0,0-.479.027c-.159,0-.347-.079-.377-.238s.166-.26.185-.419c.03-.26-.415-.329-.57-.117a1,1,0,0,0-.056.755.792.792,0,0,1-.117.755c-.087.125-.3.061-.377-.072a.982.982,0,0,1-.068-.434.377.377,0,0,0-.223-.355.891.891,0,0,0-.313.034c-.407.049-.694-.472-.563-.857a1.627,1.627,0,0,1,.857-.834.909.909,0,0,1,.849-.132c.121.068.2.181.324.253a1.4,1.4,0,0,0,.7.079,1.653,1.653,0,0,1,1.023.377c.106.1.2.253.121.377s-.347.143-.3.287a.51.51,0,0,0,.638-.408.427.427,0,0,1,.245.347.755.755,0,0,1,1.132.087,1.023,1.023,0,0,0,.207.26c.095.061.26.03.271-.079a.234.234,0,0,0,0-.1c-.056-.159-.117-.313-.173-.468.218-.117.475.064.627.26.547.728.94.29,1.713.411.525.079.755.412,1.049.812.906,1.234,2.1,2.246,2.925,3.536.087.136.173.271.245.411l-.042-.1a14.174,14.174,0,0,0-1.2-2.408c-.1-.162-.2-.324-.31-.483l-.2-.29c-.087-.125-.173-.245-.268-.377s-.147-.192-.223-.287l-.159-.2q-.087-.106-.181-.215l-.2-.226-.061-.072-.215-.231-.023-.023-.061-.064c-.056-.064-.121-.128-.181-.189s-.2-.2-.31-.3-.173-.166-.268-.249l-.242-.215-.242-.2c-.1-.087-.2-.162-.306-.245h0c-.283-.226-.577-.434-.879-.638-.075-.053-.147-.1-.223-.147s-.151-.1-.226-.147l-.231-.136-.234-.14c-.061-.038-.125-.072-.185-.1l-.1-.056-.4-.212c-.068-.034-.136-.072-.207-.1s-.173-.087-.26-.125l-.042-.019-.242-.109-.347-.143c-.132-.056-.26-.109-.4-.159s-.295-.109-.446-.154-.3-.1-.453-.147-.306-.087-.46-.132q-.46-.117-.929-.215h0l-.354-.048h-.023l-.162-.023c-.223-.038-.449-.068-.675-.094h-.087a.593.593,0,0,1-.2-.023l-.453-.034a3.419,3.419,0,0,1-.479-.023h-.5c-.441,0-.879.019-1.309.061a1.2,1.2,0,0,0-.306.026l-.317.038a1.733,1.733,0,0,0-.313.045l-.317.049-.268.049c-.218.042-.434.087-.653.14l-.306.075-.3.087c-.166.045-.329.1-.491.147h0l-.377.132h0l-.377.147h-.018l-.355.143c-.151.061-.295.125-.434.192l-.377.166-.377.192h0c-.121.061-.238.128-.377.192l-.377.212h0l-.332.2-.125.087-.347.231c-.14.094-.276.2-.412.295s-.238.173-.347.268a14.853,14.853,0,0,0-1.872,1.71c-.2.215-.377.434-.57.668a5.732,5.732,0,0,0-.449.6c-.143.218-.253.359-.377.544q.181-.279.377-.544h.114a1.8,1.8,0,0,0,.623-.1,3.456,3.456,0,0,0,.46-.347c.407-.287,1.079-.347,1.189-.826a3.6,3.6,0,0,1,.053-.494c.117-.287.505-.332.823-.324.132,0,.29.019.347.132a.329.329,0,0,1,0,.271,2.532,2.532,0,0,1-1.076,1.31c-.407.245-.94.434-1.053.895.056.154.347.143.377.306s-.154.2-.215.313.117.377.31.377a.857.857,0,0,0,.5-.276,3.159,3.159,0,0,0,1.03-1.373,1.189,1.189,0,0,1,.276-.653.464.464,0,0,1,.7.223c.185-.1.472-.181.57,0a.857.857,0,0,1,.038.219c.064.295.472.434.52.728s-.4.525-.755.581l-.954.147a.891.891,0,0,0-.377.125.3.3,0,0,0-.117.377A.96.96,0,0,0,89.2,207a.5.5,0,0,1-.321.808c-.128,0-.253-.042-.377-.045a1.023,1.023,0,0,0-.849.638,2.616,2.616,0,0,1-.616.924c-.483.377-1.313.276-1.551.826a1.344,1.344,0,0,0,0,.714.943.943,0,0,1-.087.7c-.14.2-.5.238-.607.019a.539.539,0,0,1,0-.31c.056-.347.109-.687.166-1.03a1.015,1.015,0,0,0-.079-.755.687.687,0,0,0-.97-.03,1.687,1.687,0,0,0-.528.924,4.023,4.023,0,0,1-.26.925h0c-.049.287-.087.577-.121.872s-.053.607-.064.909a1.086,1.086,0,0,0,.121-.114c.147-.151.446-.789.714-.476a.234.234,0,0,1,0,.29c-.087.106-.245.128-.31.242s.03.3.159.377a1.4,1.4,0,0,1,.377.271c.173.245,0,.611.173.86s.449.231.709.26h.087a1.181,1.181,0,0,1,1.019-1.087,3.259,3.259,0,0,1,2.8,1.3c.607.812.9,1.959,1.83,2.366.672.29,1.619.185,1.947.831.29.581-.215,1.234-.295,1.887a6.573,6.573,0,0,0,.125,1.272,1.091,1.091,0,0,1-.487,1.105c-.218.094-.494.087-.668.245-.313.295-.056.9-.377,1.189a1.647,1.647,0,0,1-.4.207c-.7.347-.683,1.374-.359,2.081,0,.026.026.049.038.075a14.718,14.718,0,0,0,3.333,1.457,15.013,15.013,0,0,0,11.232-1.094h0a14.331,14.331,0,0,0,1.314-.78,14.535,14.535,0,0,0,1.841-1.45,13.638,13.638,0,0,0,1.132-1.163c.249-.284.483-.577.709-.879.117-.154.226-.31.332-.472a13.733,13.733,0,0,0,.887-1.464,14.008,14.008,0,0,0,.959-2.287,14.414,14.414,0,0,0,.566-2.487c.045-.329.079-.664.1-1a.849.849,0,0,1-.6.26.954.954,0,0,1-.8-.6Z" transform="translate(-81.189 -199.032)" fill="#40e99a"/>
        <path id="Path_9096" data-name="Path 9096" d="M109.842,203.293a3.341,3.341,0,0,0-.68.755c-.226.26-.63.434-.9.226a.623.623,0,0,1-.2-.434,1.132,1.132,0,0,1,.162-.672c.128-.2.321-.377.434-.585a.468.468,0,0,0-.136-.634c-.121-.056-.271-.034-.377-.109-.192-.14-.053-.472.173-.555a1.691,1.691,0,0,1,.7,0,3.349,3.349,0,0,0,2.14-.962c.5-.377,1.574-.785,2.155-.419a.446.446,0,0,1,.1.694c-.1.072-.231.087-.321.173a1.616,1.616,0,0,0-.189.377c-.162.347-.63.468-.78.815-.094.212-.053.472-.192.656a.831.831,0,0,1-.5.253l-1.132.26A1.761,1.761,0,0,0,109.842,203.293Z" transform="translate(-96.827 -199.462)" fill="#9ed5e0"/>
        <path id="Path_9097" data-name="Path 9097" d="M124.021,236.514a4.582,4.582,0,0,0-.544,1.907,2.823,2.823,0,0,1-.792,1.789,1.151,1.151,0,0,1-1.729-.2,5.524,5.524,0,0,1-.159-1.068,9.588,9.588,0,0,0-.649-1.249,3.4,3.4,0,0,1-.162-1.185,9.2,9.2,0,0,0-2.117-6.087,1.464,1.464,0,0,0-.656-.457.845.845,0,0,0-.867.295,3.143,3.143,0,0,1-.332.494.766.766,0,0,1-1.1-.295,2.174,2.174,0,0,1-.151-1.264l.136-1.6a1.333,1.333,0,0,1,.238-.789c.26-.3.755-.317,1.06-.555.423-.313.475-.909.755-1.359s1.1-.642,1.222-.136c.883-1.887,2.831.906,3.988.7a3.364,3.364,0,0,1,1-.173c.6.087.909.736,1.113,1.3l1.012,2.8a1.34,1.34,0,0,0,.653.887c.271.106.589.026.867.125.728.26.491,1.4-.094,1.887s-1.408.819-1.683,1.532c-.212.539-.045,1.17-.268,1.7a6.623,6.623,0,0,1-.746,1Z" transform="translate(-100.985 -214.614)" fill="#9ed5e0"/>
        <path id="Path_9098" data-name="Path 9098" d="M143.513,255.369c-.238.034-.52-.087-.7.072a.755.755,0,0,0-.173.377.8.8,0,0,1-.34.457.51.51,0,0,1-.551,0,.377.377,0,0,1-.079-.51c.061-.068.143-.109.207-.173.317-.295.1-.845.34-1.2.143-.207.377-.419.525-.63s.162-.29.377-.332C144.095,253.236,144.532,255.223,143.513,255.369Z" transform="translate(-117.719 -232.871)" fill="#9ed5e0"/>
        <path id="Path_9099" data-name="Path 9099" d="M84.816,242.346a10.248,10.248,0,0,1,.1-1.264c0-.295,0-.607-.019-.9a4.184,4.184,0,0,1-.755-.1.226.226,0,0,1-.14-.072.3.3,0,0,1-.03-.154c-.019-.329-.34-.547-.63-.714a2.323,2.323,0,0,0-.457-.223.922.922,0,0,0,0,.1,14.342,14.342,0,0,0,.943,4.653,13.772,13.772,0,0,0,.906,1.925c.143.26.306.528.472.785.207.321.423.63.653.929s.446.57.687.838a14.753,14.753,0,0,0,1.049,1.068,13.316,13.316,0,0,0,1.023.86A23.944,23.944,0,0,0,85.66,243.9,3.452,3.452,0,0,1,84.816,242.346Z" transform="translate(-81.161 -223.843)" fill="#9ed5e0"/>
        <path id="Path_9100" data-name="Path 9100" d="M82.907,237.11v.26C82.907,237.3,82.9,237.2,82.907,237.11Z" transform="translate(-81.172 -222.716)" fill="#9ed5e0"/>
        <path id="Path_9101" data-name="Path 9101" d="M100.31,270.09c.125.087.249.166.377.245l.271.162-.271-.162C100.57,270.256,100.435,270.173,100.31,270.09Z" transform="translate(-92.009 -243.249)" fill="#9ed5e0"/>
        <path id="Path_9102" data-name="Path 9102" d="M82.928,236.2h0a.557.557,0,0,0,0,.079h0a.557.557,0,0,1,0-.079Z" transform="translate(-81.185 -222.149)" fill="#9ed5e0"/>
        <path id="Path_9103" data-name="Path 9103" d="M82.9,238.38v.215h0a2.042,2.042,0,0,0,0-.215Z" transform="translate(-81.169 -223.507)" fill="#9ed5e0"/>
        <path id="Path_9104" data-name="Path 9104" d="M84.948,236.867h-.087c-.26-.027-.566-.042-.709-.26s0-.616-.173-.861a1.4,1.4,0,0,0-.377-.271c-.128-.087-.238-.26-.159-.377s.226-.136.31-.242a.234.234,0,0,0,0-.29c-.268-.313-.566.324-.714.475a1.083,1.083,0,0,1-.121.114h0a.557.557,0,0,0,0,.079v.959a2.325,2.325,0,0,1,.457.223c.29.166.611.377.63.714a.3.3,0,0,0,.03.154.226.226,0,0,0,.14.072,4.184,4.184,0,0,0,.755.1" transform="translate(-81.18 -221.08)" fill="#9ed5e0"/>
        <path id="Path_9105" data-name="Path 9105" d="M88.087,239.485c0,.295.023.607.019.9A10.253,10.253,0,0,0,88,241.636a3.4,3.4,0,0,0,.849,1.561,23.944,23.944,0,0,1,2.959,6.175h0c.147.117.3.23.457.34s.245.173.377.253.249.166.377.245l.271.162c0-.026-.026-.049-.038-.075-.324-.706-.347-1.729.359-2.081a1.648,1.648,0,0,0,.4-.207c.313-.29.056-.895.377-1.189.173-.162.449-.151.668-.245a1.091,1.091,0,0,0,.487-1.105,6.577,6.577,0,0,1-.125-1.272c.079-.642.585-1.294.295-1.887-.329-.645-1.275-.539-1.947-.831-.932-.407-1.222-1.555-1.83-2.366a3.3,3.3,0,0,0-2.8-1.3,1.181,1.181,0,0,0-1.019,1.087" transform="translate(-84.344 -223.132)" fill="#9ed5e0"/>
        <path id="Path_9106" data-name="Path 9106" d="M84.081,216.059a.687.687,0,0,1,.97.03,1.015,1.015,0,0,1,.079.755c-.056.347-.109.687-.166,1.03a.54.54,0,0,0,0,.31c.1.218.464.173.607-.019a.943.943,0,0,0,.087-.7,1.344,1.344,0,0,1,0-.714c.238-.551,1.068-.468,1.551-.826a2.616,2.616,0,0,0,.616-.925,1.023,1.023,0,0,1,.867-.642c.128,0,.253.049.377.045a.5.5,0,0,0,.321-.807.964.964,0,0,1-.166-.166.3.3,0,0,1,.117-.377.891.891,0,0,1,.377-.125l.954-.147c.347-.056.8-.234.755-.581s-.453-.433-.52-.728a.857.857,0,0,0-.038-.218c-.1-.192-.377-.114-.57,0a.464.464,0,0,0-.7-.223,1.189,1.189,0,0,0-.276.653,3.159,3.159,0,0,1-1.03,1.374.857.857,0,0,1-.5.276c-.192,0-.377-.2-.31-.377s.231-.181.215-.313-.31-.151-.377-.306c.114-.46.645-.649,1.053-.895a2.533,2.533,0,0,0,1.076-1.309.329.329,0,0,0,0-.271c-.061-.114-.218-.132-.347-.132-.317,0-.706.038-.823.324a3.6,3.6,0,0,0-.053.494c-.109.483-.78.539-1.189.826a3.444,3.444,0,0,1-.46.347,1.8,1.8,0,0,1-.622.1h-.114q-.192.268-.377.544c-.121.181-.234.377-.347.558a14.479,14.479,0,0,0-1.283,2.838c-.117.347-.218.7-.306,1.057s-.162.72-.223,1.091a4.024,4.024,0,0,0,.26-.924,1.687,1.687,0,0,1,.515-.929Z" transform="translate(-81.419 -205.669)" fill="#9ed5e0"/>
        <path id="Path_9107" data-name="Path 9107" d="M161.4,236.337v.2c0,.324,0,.645-.03.966.019-.321.03-.642.03-.966a1.75,1.75,0,0,0,0-.2Z" transform="translate(-130.023 -221.879)" fill="#9ed5e0"/>
        <path id="Path_9108" data-name="Path 9108" d="M159,224.24c.068.185.136.377.2.558C159.135,224.614,159.068,224.421,159,224.24Z" transform="translate(-128.548 -214.703)" fill="#9ed5e0"/>
        <path id="Path_9109" data-name="Path 9109" d="M135.824,218.475v-.627a5.769,5.769,0,0,0-.049-.622c-.023-.207-.034-.332-.056-.494s-.049-.347-.079-.52a13.739,13.739,0,0,0-.347-1.509c-.056-.189-.114-.377-.173-.57s-.128-.377-.2-.558h0c-.075-.14-.154-.276-.245-.412-.823-1.291-2.019-2.3-2.925-3.536-.295-.4-.525-.732-1.049-.812-.755-.121-1.166.317-1.713-.411-.151-.192-.407-.377-.627-.26.056.154.117.31.173.468a.233.233,0,0,1,0,.1c0,.109-.173.14-.271.079a1.024,1.024,0,0,1-.207-.26.755.755,0,0,0-1.132-.087.427.427,0,0,0-.245-.347.51.51,0,0,1-.638.407c-.045-.143.212-.166.3-.287s0-.271-.121-.377a1.653,1.653,0,0,0-1.023-.377,1.4,1.4,0,0,1-.7-.079c-.121-.072-.2-.185-.324-.253a.909.909,0,0,0-.849.132,1.626,1.626,0,0,0-.857.834c-.132.377.154.906.563.857a.891.891,0,0,1,.313-.034.377.377,0,0,1,.223.355.981.981,0,0,0,.068.434c.068.132.283.2.377.072a.792.792,0,0,0,.117-.755,1,1,0,0,1,.056-.755c.154-.212.6-.143.57.117,0,.154-.192.26-.185.419s.2.242.377.238a1.721,1.721,0,0,1,.479-.026c.154.038.279.242.166.355-.192.218-.7-.154-.8.117-.03.068,0,.147,0,.223,0,.226-.31.31-.539.34a1.332,1.332,0,0,1-.68-.049.427.427,0,0,1-.234-.566.26.26,0,0,0-.377.132.728.728,0,0,0-.026.423c-.245-.056-.46.151-.6.347s-.276.441-.513.513-.566-.026-.694.189c-.162.279.306.63.143.906-.095.159-.321.151-.5.2a.755.755,0,0,0-.313,1.182.924.924,0,0,0,1.3,0,3.994,3.994,0,0,0,.505-.86.789.789,0,0,1,.819-.453,1,1,0,0,1,.336.207l.472.377c.1.087.212.189.2.317s-.087.185-.125.283c-.1.283.313.547.57.377a.558.558,0,0,0,.109-.789c-.245-.332-.8-.5-.78-.913.283-.226.725,0,.89.336s.173.7.306,1.03.528.63.849.468l-.249-.86c.2-.151.441.295.694.218.147-.045.166-.26.1-.4a1.886,1.886,0,0,1-.207-.419.479.479,0,0,1,.558-.491.732.732,0,0,1,.551.6,1.25,1.25,0,0,0,.075.332c.106.223.377.29.616.377s.472.324.377.551c-.045.1-.151.2-.114.3s.173.128.173.226-.068.109-.132.136c-.154.061-.321.087-.472.154a.419.419,0,0,0-.276.377c.019.234.3.347.434.539s.106.427.189.634a2.193,2.193,0,0,0,.347.51,6,6,0,0,1,.672,1.821c.087.279.242.592.532.645a.858.858,0,0,0,.468-.087,2.831,2.831,0,0,0,1.151-.675.954.954,0,0,0,.087-1.222.238.238,0,0,0-.143-.087.461.461,0,0,0-.218.075.634.634,0,0,1-.656-.136,1.888,1.888,0,0,1-.377-.581c-.114-.231-.231-.46-.347-.694a.419.419,0,0,1,.5.049,3.045,3.045,0,0,1,.347.415,2.2,2.2,0,0,0,1.479.694,1.45,1.45,0,0,1,.419.087c.415.189.536.8.974.924a3.135,3.135,0,0,1,.377.087.672.672,0,0,1,.31.46,7.928,7.928,0,0,0,.276,1.027.954.954,0,0,0,.792.623.85.85,0,0,0,.6-.26h0c.019-.321.03-.642.03-.966A1.118,1.118,0,0,1,135.824,218.475Z" transform="translate(-104.448 -204.016)" fill="#9ed5e0"/>
        <path id="Path_9110" data-name="Path 9110" d="M143.125,253.409c-.223.042-.26.173-.377.332s-.377.422-.525.63c-.238.347-.023.9-.34,1.2a2.263,2.263,0,0,0-.207.173.377.377,0,0,0,.075.528.51.51,0,0,0,.551,0,.8.8,0,0,0,.34-.457.755.755,0,0,1,.173-.377c.181-.154.464-.038.7-.072C144.529,255.21,144.091,253.22,143.125,253.409Z" transform="translate(-117.715 -232.856)" fill="#9ed5e0"/>
        <g id="Group_2576" data-name="Group 2576" transform="translate(31.173 12.206)" opacity="0.3">
          <path id="Path_9111" data-name="Path 9111" d="M161.046,232.325a3.6,3.6,0,0,0-.056-.494c-.023-.162-.049-.347-.079-.52q.045.26.079.52C161.012,231.978,161.031,232.144,161.046,232.325Z" transform="translate(-160.911 -231.311)"/>
        </g>
        <g id="Group_2577" data-name="Group 2577" transform="translate(11.225 0.299)" opacity="0.3">
          <path id="Path_9112" data-name="Path 9112" d="M109.842,203.293a3.341,3.341,0,0,0-.68.755c-.226.26-.63.434-.9.226a.623.623,0,0,1-.2-.434,1.132,1.132,0,0,1,.162-.672c.128-.2.321-.377.434-.585a.468.468,0,0,0-.136-.634c-.121-.056-.271-.034-.377-.109-.192-.14-.053-.472.173-.555a1.691,1.691,0,0,1,.7,0,3.349,3.349,0,0,0,2.14-.962c.5-.377,1.574-.785,2.155-.419a.446.446,0,0,1,.1.694c-.1.072-.231.087-.321.173a1.616,1.616,0,0,0-.189.377c-.162.347-.63.468-.78.815-.094.212-.053.472-.192.656a.831.831,0,0,1-.5.253l-1.132.26A1.761,1.761,0,0,0,109.842,203.293Z" transform="translate(-108.052 -199.762)"/>
        </g>
        <g id="Group_2578" data-name="Group 2578" transform="translate(13.744 9.484)" opacity="0.3">
          <path id="Path_9113" data-name="Path 9113" d="M124.021,236.514a4.582,4.582,0,0,0-.544,1.907,2.823,2.823,0,0,1-.792,1.789,1.151,1.151,0,0,1-1.729-.2,5.524,5.524,0,0,1-.159-1.068,9.588,9.588,0,0,0-.649-1.249,3.4,3.4,0,0,1-.162-1.185,9.2,9.2,0,0,0-2.117-6.087,1.464,1.464,0,0,0-.656-.457.845.845,0,0,0-.867.295,3.143,3.143,0,0,1-.332.494.766.766,0,0,1-1.1-.295,2.174,2.174,0,0,1-.151-1.264l.136-1.6a1.333,1.333,0,0,1,.238-.789c.26-.3.755-.317,1.06-.555.423-.313.475-.909.755-1.359s1.1-.642,1.222-.136c.883-1.887,2.831.906,3.988.7a3.364,3.364,0,0,1,1-.173c.6.087.909.736,1.113,1.3l1.012,2.8a1.34,1.34,0,0,0,.653.887c.271.106.589.026.867.125.728.26.491,1.4-.094,1.887s-1.408.819-1.683,1.532c-.212.539-.045,1.17-.268,1.7a6.623,6.623,0,0,1-.746,1Z" transform="translate(-114.729 -224.097)"/>
        </g>
        <g id="Group_2579" data-name="Group 2579" transform="translate(1.731 14.394)" opacity="0.3">
          <path id="Path_9114" data-name="Path 9114" d="M82.907,237.11v.26C82.907,237.3,82.9,237.2,82.907,237.11Z" transform="translate(-82.904 -237.11)"/>
        </g>
        <g id="Group_2580" data-name="Group 2580" transform="translate(8.301 26.841)" opacity="0.3">
          <path id="Path_9115" data-name="Path 9115" d="M100.31,270.09c.125.087.249.166.377.245l.271.162-.271-.162C100.57,270.256,100.435,270.173,100.31,270.09Z" transform="translate(-100.31 -270.09)"/>
        </g>
        <g id="Group_2581" data-name="Group 2581" transform="translate(1.741 14.051)" opacity="0.3">
          <path id="Path_9116" data-name="Path 9116" d="M82.928,236.2h0a.557.557,0,0,0,0,.079h0a.557.557,0,0,1,0-.079Z" transform="translate(-82.926 -236.2)"/>
        </g>
        <g id="Group_2582" data-name="Group 2582" transform="translate(1.731 14.873)" opacity="0.3">
          <path id="Path_9117" data-name="Path 9117" d="M82.9,238.38v.215h0a2.042,2.042,0,0,0,0-.215Z" transform="translate(-82.9 -238.38)"/>
        </g>
        <g id="Group_2583" data-name="Group 2583" transform="translate(1.739 13.386)" opacity="0.3">
          <path id="Path_9118" data-name="Path 9118" d="M92.247,242.136c.079-.642.585-1.294.295-1.887-.329-.645-1.275-.539-1.947-.831-.932-.407-1.222-1.555-1.83-2.366a3.3,3.3,0,0,0-2.8-1.3,1.182,1.182,0,0,0-1.019,1.082h-.087c-.26-.026-.566-.042-.709-.26s0-.616-.173-.86a1.321,1.321,0,0,0-.377-.271c-.128-.087-.238-.26-.159-.377s.226-.136.31-.242a.234.234,0,0,0,0-.29c-.268-.313-.566.324-.714.475a1.078,1.078,0,0,1-.121.114h0a.558.558,0,0,0,0,.079v.959a.914.914,0,0,0,0,.1,14.341,14.341,0,0,0,.943,4.653,13.777,13.777,0,0,0,.906,1.925c.143.26.306.528.472.785.207.317.423.63.653.929s.446.57.687.838a14.745,14.745,0,0,0,1.049,1.068,13.321,13.321,0,0,0,1.023.86h0c.147.117.3.231.457.34s.245.173.377.253.249.166.377.245l.271.162c0-.026-.026-.049-.038-.075-.324-.706-.347-1.729.359-2.081a1.646,1.646,0,0,0,.4-.207c.313-.29.056-.895.377-1.189.173-.162.449-.151.668-.245a1.091,1.091,0,0,0,.487-1.105,6.574,6.574,0,0,1-.136-1.28ZM84,237.086a.3.3,0,0,0,.03.154.3.3,0,0,1-.03-.155Z" transform="translate(-82.917 -234.448)"/>
        </g>
        <g id="Group_2584" data-name="Group 2584" transform="translate(1.887 4.063)" opacity="0.3">
          <path id="Path_9119" data-name="Path 9119" d="M84.081,216.059a.687.687,0,0,1,.97.03,1.015,1.015,0,0,1,.079.755c-.056.347-.109.687-.166,1.03a.54.54,0,0,0,0,.31c.1.218.464.173.607-.019a.943.943,0,0,0,.087-.7,1.344,1.344,0,0,1,0-.714c.238-.551,1.068-.468,1.551-.826a2.616,2.616,0,0,0,.616-.925,1.023,1.023,0,0,1,.867-.642c.128,0,.253.049.377.045a.5.5,0,0,0,.321-.807.964.964,0,0,1-.166-.166.3.3,0,0,1,.117-.377.891.891,0,0,1,.377-.125l.954-.147c.347-.056.8-.234.755-.581s-.453-.433-.52-.728a.857.857,0,0,0-.038-.218c-.1-.192-.377-.114-.57,0a.464.464,0,0,0-.7-.223,1.189,1.189,0,0,0-.276.653,3.159,3.159,0,0,1-1.03,1.374.857.857,0,0,1-.5.276c-.192,0-.377-.2-.31-.377s.231-.181.215-.313-.31-.151-.377-.306c.114-.46.645-.649,1.053-.895a2.533,2.533,0,0,0,1.076-1.309.329.329,0,0,0,0-.271c-.061-.114-.218-.132-.347-.132-.317,0-.706.038-.823.324a3.6,3.6,0,0,0-.053.494c-.109.483-.78.539-1.189.826a3.444,3.444,0,0,1-.46.347,1.8,1.8,0,0,1-.622.1h-.114q-.192.268-.377.544c-.121.181-.234.377-.347.558a14.479,14.479,0,0,0-1.283,2.838c-.117.347-.218.7-.306,1.057s-.162.72-.223,1.091a4.024,4.024,0,0,0,.26-.924,1.687,1.687,0,0,1,.515-.929Z" transform="translate(-83.306 -209.732)"/>
        </g>
        <g id="Group_2585" data-name="Group 2585" transform="translate(31.342 14.458)" opacity="0.3">
          <path id="Path_9120" data-name="Path 9120" d="M161.4,236.337v.2c0,.324,0,.645-.03.966.019-.321.03-.642.03-.966a1.75,1.75,0,0,0,0-.2Z" transform="translate(-161.365 -236.337)"/>
        </g>
        <g id="Group_2586" data-name="Group 2586" transform="translate(30.452 9.537)" opacity="0.3">
          <path id="Path_9121" data-name="Path 9121" d="M159,224.24c.068.185.136.377.2.558C159.135,224.614,159.068,224.421,159,224.24Z" transform="translate(-159 -224.24)"/>
        </g>
        <g id="Group_2587" data-name="Group 2587" transform="translate(15.844 3.065)" opacity="0.3">
          <path id="Path_9122" data-name="Path 9122" d="M135.824,218.475v-.627a5.769,5.769,0,0,0-.049-.622c-.023-.207-.034-.332-.056-.494s-.049-.347-.079-.52a13.739,13.739,0,0,0-.347-1.509c-.056-.189-.114-.377-.173-.57s-.128-.377-.2-.558h0c-.075-.14-.154-.276-.245-.412-.823-1.291-2.019-2.3-2.925-3.536-.295-.4-.525-.732-1.049-.812-.755-.121-1.166.317-1.713-.411-.151-.192-.407-.377-.627-.26.056.154.117.31.173.468a.233.233,0,0,1,0,.1c0,.109-.173.14-.271.079a1.024,1.024,0,0,1-.207-.26.755.755,0,0,0-1.132-.087.427.427,0,0,0-.245-.347.51.51,0,0,1-.638.407c-.045-.143.212-.166.3-.287s0-.271-.121-.377a1.653,1.653,0,0,0-1.023-.377,1.4,1.4,0,0,1-.7-.079c-.121-.072-.2-.185-.324-.253a.909.909,0,0,0-.849.132,1.626,1.626,0,0,0-.857.834c-.132.377.154.906.563.857a.891.891,0,0,1,.313-.034.377.377,0,0,1,.223.355.981.981,0,0,0,.068.434c.068.132.283.2.377.072a.792.792,0,0,0,.117-.755,1,1,0,0,1,.056-.755c.154-.212.6-.143.57.117,0,.154-.192.26-.185.419s.2.242.377.238a1.721,1.721,0,0,1,.479-.026c.154.038.279.242.166.355-.192.218-.7-.154-.8.117-.03.068,0,.147,0,.223,0,.226-.31.31-.539.34a1.332,1.332,0,0,1-.68-.049.427.427,0,0,1-.234-.566.26.26,0,0,0-.377.132.728.728,0,0,0-.026.423c-.245-.056-.46.151-.6.347s-.276.441-.513.513-.566-.026-.694.189c-.162.279.306.63.143.906-.095.159-.321.151-.5.2a.755.755,0,0,0-.313,1.182.924.924,0,0,0,1.3,0,3.994,3.994,0,0,0,.505-.86.789.789,0,0,1,.819-.453,1,1,0,0,1,.336.207l.472.377c.1.087.212.189.2.317s-.087.185-.125.283c-.1.283.313.547.57.377a.558.558,0,0,0,.109-.789c-.245-.332-.8-.5-.78-.913.283-.226.725,0,.89.336s.173.7.306,1.03.528.63.849.468l-.249-.86c.2-.151.441.295.694.218.147-.045.166-.26.1-.4a1.886,1.886,0,0,1-.207-.419.479.479,0,0,1,.558-.491.732.732,0,0,1,.551.6,1.25,1.25,0,0,0,.075.332c.106.223.377.29.616.377s.472.324.377.551c-.045.1-.151.2-.114.3s.173.128.173.226-.068.109-.132.136c-.154.061-.321.087-.472.154a.419.419,0,0,0-.276.377c.019.234.3.347.434.539s.106.427.189.634a2.193,2.193,0,0,0,.347.51,6,6,0,0,1,.672,1.821c.087.279.242.592.532.645a.858.858,0,0,0,.468-.087,2.831,2.831,0,0,0,1.151-.675.954.954,0,0,0,.087-1.222.238.238,0,0,0-.143-.087.461.461,0,0,0-.218.075.634.634,0,0,1-.656-.136,1.888,1.888,0,0,1-.377-.581c-.114-.231-.231-.46-.347-.694a.419.419,0,0,1,.5.049,3.045,3.045,0,0,1,.347.415,2.2,2.2,0,0,0,1.479.694,1.45,1.45,0,0,1,.419.087c.415.189.536.8.974.924a3.135,3.135,0,0,1,.377.087.672.672,0,0,1,.31.46,7.928,7.928,0,0,0,.276,1.027.954.954,0,0,0,.792.623.85.85,0,0,0,.6-.26h0c.019-.321.03-.642.03-.966A1.118,1.118,0,0,1,135.824,218.475Z" transform="translate(-120.293 -207.082)"/>
        </g>
        <rect id="Rectangle_106" data-name="Rectangle 106" width="1.906" height="6.703" transform="translate(15.604 30.396)" fill="#263238"/>
        <path id="Path_9123" data-name="Path 9123" d="M94.872,229.793a16.359,16.359,0,0,1-8.028-30.72l.185-.1,1.105,1.532-.377.279-.879-1.174a15.873,15.873,0,0,0,7.983,29.709,16.225,16.225,0,0,0,10.089-3.519l-.665-.663.332-.34,1.046,1.034-.2.166A16.674,16.674,0,0,1,94.872,229.793Z" transform="translate(-78.317 -198.97)" fill="#263238"/>
        <rect id="Rectangle_107" data-name="Rectangle 107" width="14.662" height="1.132" transform="translate(8.951 37.099)" fill="#263238"/>
      </g>
      <g id="freepik--Floor--inject-2" transform="translate(24.246 197.528)">
        <path id="Path_9124" data-name="Path 9124" d="M196.458,476.685c0,.056-36.9.1-82.41.1s-82.418-.045-82.418-.1,36.892-.1,82.418-.1S196.458,476.635,196.458,476.685Z" transform="translate(-31.63 -476.587)" fill="#263238"/>
      </g>
      <g id="freepik--speech-bubble--inject-2" transform="translate(86.143 35.295)">
        <path id="Path_9125" data-name="Path 9125" d="M219.862,68.967,217.4,64.612a11.654,11.654,0,1,0-2.793,3.11h0Z" transform="translate(-195.749 -46.801)" fill="#fafafa"/>
        <path id="Path_9126" data-name="Path 9126" d="M219.747,68.882l-5.283-1.208h-.056l.034-.045h0l.053.049a11.924,11.924,0,0,1-2.4,1.445,11.77,11.77,0,0,1-3.2.913,10.589,10.589,0,0,1-1.846.094c-.317,0-.642-.026-.966-.053l-.985-.151a11.749,11.749,0,0,1-7.283-4.676,11.618,11.618,0,0,1-1.966-4.5,11.878,11.878,0,0,1,.136-5.186,11.488,11.488,0,0,1,2.5-4.793l.487-.555c.155-.173.347-.321.513-.483a4.708,4.708,0,0,1,.528-.46l.558-.419a5.263,5.263,0,0,1,.577-.377l.592-.377.619-.3a6.208,6.208,0,0,1,.627-.279,11.9,11.9,0,0,1,5.235-.77,11.511,11.511,0,0,1,4.793,1.415,11.824,11.824,0,0,1,5.533,6.793,12.669,12.669,0,0,1,.505,3.774,11.59,11.59,0,0,1-.57,3.272,11.85,11.85,0,0,1-1.17,2.51v-.041l2.441,4.374-2.514-4.291h0a11.828,11.828,0,0,0,1.132-2.5,11.461,11.461,0,0,0,.555-3.25,12.455,12.455,0,0,0-.52-3.8,11.7,11.7,0,0,0-5.472-6.725,11.382,11.382,0,0,0-4.74-1.4,11.726,11.726,0,0,0-5.16.8,5.605,5.605,0,0,0-.619.271l-.615.3-.581.355a4.856,4.856,0,0,0-.574.377l-.551.415c-.189.132-.347.3-.525.453a5.066,5.066,0,0,0-.505.479l-.468.52a11.322,11.322,0,0,0-2.457,4.733,11.7,11.7,0,0,0-.14,5.121,11.455,11.455,0,0,0,1.939,4.454,11.651,11.651,0,0,0,7.2,4.642l.974.147c.324.03.642.038.959.056a10.016,10.016,0,0,0,1.827-.087,11.6,11.6,0,0,0,3.174-.89,11.824,11.824,0,0,0,2.389-1.423l.215-.166-.166.218h0V67.6Z" transform="translate(-195.632 -46.716)" fill="#263238"/>
        <path id="Path_9127" data-name="Path 9127" d="M214.09,75.781a1.185,1.185,0,1,1-1.185-1.181,1.185,1.185,0,0,1,1.185,1.181Z" transform="translate(-205.65 -64.077)" fill="#263238"/>
        <path id="Path_9128" data-name="Path 9128" d="M226.63,75.781a1.185,1.185,0,1,1-1.185-1.181,1.185,1.185,0,0,1,1.185,1.181Z" transform="translate(-213.457 -64.077)" fill="#263238"/>
        <path id="Path_9129" data-name="Path 9129" d="M239.406,75.183a1.182,1.182,0,1,1-.716-.557A1.182,1.182,0,0,1,239.406,75.183Z" transform="translate(-221.511 -64.067)" fill="#263238"/>
      </g>
    </g>
  </g>
</svg>
