<svg fill="none" height="17" viewBox="0 0 17 17" width="17" xmlns="http://www.w3.org/2000/svg">
    <g clip-path="url(#clip0_476_2846)">
        <path clip-rule="evenodd" d="M9.91667 4.95833H14.875C16.0486 4.95833 17 5.90973 17 7.08333V14.875C17 16.0486 16.0486 17 14.875 17H9.20833C8.0347 17 7.08333 16.0486 7.08333 14.875V12.0417H2.125C0.951398 12.0417 0 11.0903 0 9.91667V2.125C0 0.951398 0.951398 0 2.125 0H7.79167C8.9653 0 9.91667 0.951398 9.91667 2.125V4.95833ZM9.91667 6.375V7.79167H11.3333C11.3333 7.40045 11.6505 7.08333 12.0417 7.08333C12.4329 7.08333 12.75 7.40045 12.75 7.79167H13.4437C13.453 7.79145 13.4622 7.79145 13.4714 7.79167H14.1667C14.5579 7.79167 14.875 8.10879 14.875 8.5C14.875 8.89121 14.5579 9.20833 14.1667 9.20833H14.0239C13.7587 10.2536 13.3543 11.2099 12.812 12.0747C13.3083 12.6305 13.8903 13.1311 14.5596 13.5773C14.8851 13.7943 14.9731 14.2341 14.7561 14.5596C14.5391 14.8851 14.0993 14.973 13.7738 14.7561C13.0923 14.3017 12.4857 13.7944 11.9548 13.2349C11.4843 13.7801 10.9464 14.2798 10.3417 14.7333C10.0287 14.9681 9.58474 14.9046 9.35 14.5917C9.11526 14.2787 9.17872 13.8347 9.49167 13.6C10.085 13.155 10.602 12.6611 11.0432 12.1171C10.7834 11.7438 10.5508 11.352 10.3457 10.9418C10.1707 10.5918 10.3126 10.1664 10.6625 9.99147C11.0124 9.81651 11.4379 9.95832 11.6128 10.3082C11.7016 10.4858 11.7964 10.6594 11.8973 10.8289C12.1669 10.323 12.3861 9.783 12.5554 9.20833H9.91667V9.91667C9.91667 10.8419 9.32535 11.6291 8.5 11.9208V14.875C8.5 15.2662 8.81712 15.5833 9.20833 15.5833H14.875C15.2662 15.5833 15.5833 15.2662 15.5833 14.875V7.08333C15.5833 6.69213 15.2662 6.375 14.875 6.375H9.91667ZM4.40637 6.72917L4.95833 5.07328L5.51029 6.72917H4.40637ZM3.93415 8.14583H5.98252L6.41135 9.43231C6.53506 9.80347 6.9362 10.004 7.30731 9.88033C7.67847 9.75658 7.879 9.35545 7.75533 8.98436L5.63031 2.60934C5.41505 1.96356 4.50161 1.96356 4.28635 2.60934L2.16135 8.98436C2.03764 9.35545 2.23821 9.75658 2.60934 9.88033C2.98047 10.004 3.38161 9.80347 3.50531 9.43231L3.93415 8.14583Z"
            fill="#656566"
            fill-rule="evenodd" />
    </g>
    <defs>
        <clipPath id="clip0_476_2846">
            <rect fill="white" height="17" width="17" />
        </clipPath>
    </defs>
</svg>
