<svg width="23" height="27" viewBox="0 0 23 27" fill="none" xmlns="http://www.w3.org/2000/svg">
<path fill-rule="evenodd" clip-rule="evenodd" d="M3.21932 10.3588C3.21932 6.20767 6.88743 2.43746 11.75 2.43746C16.6126 2.43746 20.2807 6.20767 20.2807 10.3588C20.2807 12.9727 18.6814 15.8923 16.5767 18.5983C14.9133 20.737 13.0629 22.5856 11.75 23.8792C10.4371 22.5856 8.58667 20.737 6.92328 18.5983C4.81857 15.8923 3.21932 12.9727 3.21932 10.3588ZM11.75 0.00012207C5.64455 0.00012207 0.781982 4.76059 0.781982 10.3588C0.781982 13.8382 2.83874 17.3167 4.99937 20.0946C6.86907 22.4986 8.9707 24.5653 10.2843 25.857C10.5107 26.0798 10.7139 26.2795 10.8883 26.4539C11.1168 26.6824 11.4268 26.8108 11.75 26.8108C12.0732 26.8108 12.3832 26.6824 12.6117 26.4539C12.7861 26.2795 12.9893 26.0798 13.2157 25.8571C14.5292 24.5653 16.6309 22.4986 18.5007 20.0946C20.6613 17.3167 22.718 13.8382 22.718 10.3588C22.718 4.76059 17.8554 0.00012207 11.75 0.00012207ZM11.75 14.0148C13.4326 14.0148 14.7967 12.6508 14.7967 10.9681C14.7967 9.28551 13.4326 7.92147 11.75 7.92147C10.0674 7.92147 8.70333 9.28551 8.70333 10.9681C8.70333 12.6508 10.0674 14.0148 11.75 14.0148Z" fill="black"/>
</svg>
