<svg fill="none" height="17" viewBox="0 0 17 17" width="17" xmlns="http://www.w3.org/2000/svg">
    <path clip-rule="evenodd" d="M8.0747 0C6.75678 0 5.49283 0.511733 4.56092 1.42262C3.62901 2.33351 3.10547 3.56895 3.10547 4.85714C3.10547 6.14534 3.62901 7.38077 4.56092 8.29166C5.49283 9.20255 6.75678 9.71428 8.0747 9.71428C9.39262 9.71428 10.6566 9.20255 11.5885 8.29166C12.5204 7.38077 13.0439 6.14534 13.0439 4.85714C13.0439 3.56895 12.5204 2.33351 11.5885 1.42262C10.6566 0.511733 9.39262 0 8.0747 0ZM4.96893 4.85714C4.96893 4.05202 5.29614 3.27988 5.87859 2.71057C6.46103 2.14126 7.251 1.82143 8.0747 1.82143C8.8984 1.82143 9.68836 2.14126 10.2708 2.71057C10.8533 3.27988 11.1805 4.05202 11.1805 4.85714C11.1805 5.66226 10.8533 6.43441 10.2708 7.00372C9.68836 7.57302 8.8984 7.89286 8.0747 7.89286C7.251 7.89286 6.46103 7.57302 5.87859 7.00372C5.29614 6.43441 4.96893 5.66226 4.96893 4.85714Z"
        fill="#A2A2A7"
        fill-rule="evenodd" />
    <path
        d="M4.65841 10.9285C3.42286 10.9285 2.23791 11.4083 1.36424 12.2622C0.490577 13.1162 -0.000244141 14.2744 -0.000244141 15.4821V16.0892C-0.000244141 16.3308 0.0979201 16.5624 0.272654 16.7332C0.447387 16.904 0.684376 17 0.931487 17C1.1786 17 1.41559 16.904 1.59032 16.7332C1.76505 16.5624 1.86322 16.3308 1.86322 16.0892V15.4821C1.86322 14.7575 2.15771 14.0626 2.68191 13.5502C3.20611 13.0378 3.91708 12.75 4.65841 12.75H11.4911C12.2324 12.75 12.9434 13.0378 13.4676 13.5502C13.9918 14.0626 14.2863 14.7575 14.2863 15.4821V16.0892C14.2863 16.3308 14.3845 16.5624 14.5592 16.7332C14.7339 16.904 14.9709 17 15.218 17C15.4651 17 15.7021 16.904 15.8769 16.7332C16.0516 16.5624 16.1498 16.3308 16.1498 16.0892V15.4821C16.1498 14.2744 15.6589 13.1162 14.7853 12.2622C13.9116 11.4083 12.7267 10.9285 11.4911 10.9285H4.65841Z"
        fill="#A2A2A7" />
</svg>
