<svg fill="none" height="15" viewBox="0 0 21 15" width="21" xmlns="http://www.w3.org/2000/svg">
    <path
        d="M18.7267 1.07135H2.58029C1.70745 1.07135 0.999878 1.74701 0.999878 2.58049V12.663C0.999878 13.4965 1.70745 14.1721 2.58029 14.1721H18.7267C19.5995 14.1721 20.3071 13.4965 20.3071 12.663V2.58049C20.3071 1.74701 19.5995 1.07135 18.7267 1.07135Z"
        stroke="#A2A2A7" stroke-linecap="round" stroke-linejoin="round" stroke-width="1.33333" />
    <path
        d="M5.4429 8.14985C6.4796 8.14985 7.32001 7.34734 7.32001 6.35739C7.32001 5.36745 6.4796 4.56494 5.4429 4.56494C4.4062 4.56494 3.5658 5.36745 3.5658 6.35739C3.5658 7.34734 4.4062 8.14985 5.4429 8.14985Z"
        stroke="#A2A2A7" stroke-linecap="round" stroke-linejoin="round" stroke-width="1.33333" />
    <path
        d="M3.067 11.1906H8.22098C8.31376 11.1907 8.40462 11.1654 8.48278 11.1177C8.56094 11.0699 8.62311 11.0018 8.66191 10.9213C8.7007 10.8408 8.7145 10.7514 8.70165 10.6637C8.6888 10.5759 8.64985 10.4936 8.58943 10.4263C8.23538 10.0055 7.78695 9.66589 7.27718 9.43255C6.76741 9.1992 6.2093 9.07806 5.64399 9.07806C5.07868 9.07806 4.52057 9.1992 4.01081 9.43255C3.50104 9.66589 3.05261 10.0055 2.69856 10.4263C2.63813 10.4936 2.59918 10.5759 2.58634 10.6637C2.57349 10.7514 2.58728 10.8408 2.62608 10.9213C2.66488 11.0018 2.72705 11.0699 2.80521 11.1177C2.88337 11.1654 2.97423 11.1907 3.067 11.1906Z"
        stroke="#A2A2A7" stroke-linecap="round" stroke-linejoin="round" stroke-width="1.33333" />
    <path d="M12.7501 6.03729H16.4373" stroke="#A2A2A7" stroke-linecap="round"
        stroke-linejoin="round" stroke-width="1.33333" />
    <path d="M12.7501 9.49414H16.4373" stroke="#A2A2A7" stroke-linecap="round"
        stroke-linejoin="round" stroke-width="1.33333" />
    <path d="M12.9999 8H18.0949" stroke="#A2A2A7" stroke-linecap="round" stroke-linejoin="round"
        stroke-width="1.33333" />
</svg>
