<svg width="349" height="341" viewBox="0 0 349 341" fill="none" xmlns="http://www.w3.org/2000/svg">
<g opacity="0.7">
<path d="M150.08 42.0894C202.807 47.9869 225.947 2.27569 278.203 8.2609C324.835 13.5994 356.997 46.8249 346.112 91.5715C336.444 131.297 290.415 143.761 274.048 180.977C256.696 220.44 243.245 262.961 190.847 276.696C87.9698 303.663 37.9944 177.074 30.9898 104.364C28.3041 76.455 23.6124 9.72978 60.0498 1.0918C96.7174 -7.61196 117.775 38.472 150.08 42.0894Z" fill="#2200FF"/>
<path opacity="0.9" d="M150.08 75.9179C202.807 81.8154 225.947 36.1042 278.203 42.0894C324.835 47.4279 356.997 46.8249 346.112 91.5715C336.444 131.297 290.415 143.761 274.048 180.977C256.696 220.44 243.245 262.961 190.847 276.696C87.9698 303.663 37.9944 177.074 30.9898 104.364C28.3041 76.455 23.6124 9.72977 60.0498 1.09179C96.7174 -7.61197 117.775 72.3005 150.08 75.9179Z" fill="#0B0054"/>
</g>
<path d="M256.674 248.239H21.9133C16.5011 248.142 12.0356 243.974 11.5653 238.582L0.0333053 78.3953C-0.183578 75.8971 0.665967 73.4237 2.37207 71.586C4.0782 69.7483 6.48181 68.7177 8.98921 68.7488H243.75C249.158 68.8455 253.622 73.007 254.098 78.3953L265.63 238.582C265.846 241.081 264.997 243.555 263.291 245.395C261.586 247.234 259.182 248.267 256.674 248.239Z" fill="#3746CC"/>
<path d="M257.573 248.239H22.8122C17.4 248.142 12.9345 243.974 12.4642 238.582L0.932235 78.3953C0.715338 75.8971 1.56488 73.4237 3.27099 71.586C4.97712 69.7483 7.38074 68.7177 9.88812 68.7488H244.649C250.057 68.8455 254.521 73.007 254.997 78.3953L266.529 238.582C266.749 241.082 265.901 243.558 264.194 245.398C262.488 247.239 260.082 248.271 257.573 248.239Z" fill="#3746CC"/>
<path opacity="0.5" d="M257.573 248.239H22.8122C17.4 248.142 12.9345 243.974 12.4642 238.582L0.932235 78.3953C0.715338 75.8971 1.56488 73.4237 3.27099 71.586C4.97712 69.7483 7.38074 68.7177 9.88812 68.7488H244.649C250.057 68.8455 254.521 73.007 254.997 78.3953L266.529 238.582C266.749 241.082 265.901 243.558 264.194 245.398C262.488 247.239 260.082 248.271 257.573 248.239Z" fill="white"/>
<path d="M244.999 73.572H10.2389H9.44965C3.45349 74.0653 4.6812 83.1966 10.7322 83.1966H245.887C251.949 83.1966 251.862 74.0653 245.789 73.572H244.999Z" fill="#3746CC"/>
<path d="M16.3556 78.3952C16.4022 78.9667 16.2047 79.5312 15.812 79.949C15.4193 80.3668 14.868 80.5988 14.2948 80.5876C13.0608 80.5702 12.0391 79.6242 11.927 78.3952C11.8806 77.8256 12.0767 77.263 12.467 76.8456C12.8572 76.4282 13.4055 76.1948 13.9769 76.2028C15.215 76.2146 16.2431 77.1621 16.3556 78.3952Z" fill="#FAFAFA"/>
<path d="M23.8865 78.3952C23.9331 78.9667 23.7356 79.5312 23.3429 79.949C22.9502 80.3668 22.3989 80.5988 21.8257 80.5876C20.5917 80.5703 19.5699 79.6242 19.4579 78.3952C19.4115 77.8256 19.6075 77.263 19.9978 76.8456C20.3881 76.4282 20.9364 76.1948 21.5078 76.2028C22.7459 76.2146 23.774 77.1621 23.8865 78.3952Z" fill="#FAFAFA"/>
<path d="M31.4064 78.3952C31.4528 78.9648 31.2568 79.5275 30.8665 79.9449C30.4762 80.3623 29.9279 80.5957 29.3565 80.5877C28.1205 80.5754 27.0959 79.6266 26.9888 78.3952C26.9389 77.8249 27.1337 77.2602 27.5248 76.8419C27.9158 76.4237 28.4662 76.1914 29.0386 76.2029C30.2726 76.2202 31.2943 77.1663 31.4064 78.3952Z" fill="#FAFAFA"/>
<path d="M251.346 232.257H26.7914C24.8262 232.224 23.2055 230.708 23.0424 228.749L13.5604 97.0196C13.475 96.1052 13.7865 95.1982 14.4157 94.5292C15.0448 93.8602 15.931 93.4936 16.849 93.5227H241.459C243.422 93.5498 245.044 95.0628 245.208 97.0196L254.701 228.749C254.784 229.675 254.463 230.592 253.82 231.265C253.177 231.937 252.275 232.298 251.346 232.257Z" fill="white"/>
<path d="M156.723 182.073L153.062 131.297L141.99 124.633H111.505L115.649 182.073H156.723Z" fill="white"/>
<path d="M156.723 182.599H115.649C115.366 182.606 115.129 182.388 115.112 182.106L110.979 124.666C110.968 124.52 111.02 124.376 111.121 124.271C111.219 124.162 111.358 124.098 111.505 124.096H141.99C142.086 124.099 142.18 124.125 142.264 124.172L153.336 130.837C153.487 130.924 153.586 131.08 153.599 131.254L157.238 182.029C157.254 182.179 157.201 182.328 157.096 182.435C156.999 182.539 156.865 182.598 156.723 182.599ZM116.164 181.503H156.142L152.547 131.572L141.892 125.159H112.075L116.164 181.503Z" fill="#3746CC"/>
<path d="M153.062 131.297L141.99 124.633L146.057 133.468L153.062 131.297Z" fill="#EBEBEB"/>
<path d="M146.057 133.994C145.851 133.993 145.663 133.874 145.575 133.687L141.508 124.852C141.411 124.639 141.459 124.388 141.628 124.227C141.807 124.075 142.062 124.053 142.264 124.172L153.336 130.837C153.518 130.947 153.621 131.152 153.599 131.363C153.57 131.569 153.425 131.74 153.226 131.802L146.211 133.994L146.057 133.994ZM143.196 125.97L146.342 132.821L151.823 131.144L143.196 125.97Z" fill="#3746CC"/>
<path d="M128.737 150.503C128.77 151.105 128.554 151.694 128.139 152.132C127.725 152.569 127.148 152.817 126.545 152.816C125.249 152.793 124.179 151.794 124.067 150.503C124.01 149.894 124.218 149.29 124.638 148.845C125.058 148.4 125.649 148.157 126.26 148.179C127.558 148.208 128.626 149.209 128.737 150.503Z" fill="#3746CC"/>
<path d="M143.755 150.503C143.809 151.11 143.599 151.711 143.18 152.153C142.761 152.596 142.172 152.837 141.563 152.816C140.264 152.793 139.192 151.796 139.074 150.503C139.038 149.899 139.253 149.307 139.668 148.867C140.083 148.427 140.662 148.178 141.267 148.179C142.571 148.197 143.648 149.203 143.755 150.503Z" fill="#3746CC"/>
<path d="M148.008 165.564C147.732 165.56 147.505 165.346 147.482 165.071C147.208 161.333 141.354 158.297 134.437 158.297C129.844 158.297 125.723 159.667 123.684 161.859C122.836 162.676 122.381 163.818 122.434 164.994C122.455 165.297 122.227 165.56 121.924 165.581C121.622 165.602 121.359 165.374 121.338 165.071C121.272 163.602 121.829 162.173 122.873 161.136C125.065 158.735 129.526 157.233 134.405 157.233C142.001 157.233 148.195 160.643 148.502 164.994C148.511 165.134 148.464 165.272 148.371 165.376C148.278 165.481 148.148 165.545 148.008 165.554L148.008 165.564Z" fill="#3746CC"/>
<path d="M120.154 145.811C120.02 145.808 119.892 145.758 119.792 145.669C119.585 145.459 119.585 145.122 119.792 144.912L122.127 142.402C122.335 142.201 122.665 142.201 122.873 142.402C122.972 142.501 123.027 142.635 123.027 142.775C123.027 142.915 122.972 143.049 122.873 143.147L120.538 145.658C120.436 145.759 120.298 145.814 120.154 145.811Z" fill="#3746CC"/>
<path d="M146.912 145.811C146.779 145.805 146.652 145.755 146.55 145.669L143.865 143.158C143.762 143.059 143.704 142.923 143.704 142.78C143.704 142.638 143.762 142.501 143.865 142.402C144.073 142.202 144.402 142.202 144.61 142.402L147.296 144.912C147.395 145.011 147.451 145.145 147.451 145.285C147.451 145.425 147.395 145.559 147.296 145.658C147.192 145.755 147.055 145.81 146.912 145.811Z" fill="#3746CC"/>
<g filter="url(#filter0_d_252_18)">
<path d="M76.3379 192.805V212H71.7236L64.9341 200.056V212H60.3066V192.805H64.9341L71.7236 204.749V192.805H76.3379ZM78.5 205.013V204.736C78.5 203.69 78.6494 202.728 78.9482 201.849C79.2471 200.961 79.6865 200.192 80.2666 199.542C80.8467 198.891 81.563 198.386 82.4155 198.025C83.2681 197.656 84.2524 197.472 85.3687 197.472C86.4937 197.472 87.4824 197.656 88.335 198.025C89.1963 198.386 89.917 198.891 90.4971 199.542C91.0771 200.192 91.5166 200.961 91.8154 201.849C92.1143 202.728 92.2637 203.69 92.2637 204.736V205.013C92.2637 206.05 92.1143 207.012 91.8154 207.9C91.5166 208.779 91.0771 209.548 90.4971 210.207C89.917 210.857 89.2007 211.363 88.3481 211.723C87.4956 212.083 86.5112 212.264 85.395 212.264C84.2788 212.264 83.29 212.083 82.4287 211.723C81.5674 211.363 80.8467 210.857 80.2666 210.207C79.6865 209.548 79.2471 208.779 78.9482 207.9C78.6494 207.012 78.5 206.05 78.5 205.013ZM82.9429 204.736V205.013C82.9429 205.549 82.9824 206.05 83.0615 206.516C83.1406 206.981 83.2725 207.39 83.457 207.742C83.6416 208.084 83.8921 208.353 84.2085 208.546C84.5249 208.739 84.9204 208.836 85.395 208.836C85.8608 208.836 86.2476 208.739 86.5552 208.546C86.8716 208.353 87.1221 208.084 87.3066 207.742C87.4912 207.39 87.623 206.981 87.7021 206.516C87.7812 206.05 87.8208 205.549 87.8208 205.013V204.736C87.8208 204.217 87.7812 203.729 87.7021 203.272C87.623 202.807 87.4912 202.398 87.3066 202.046C87.1221 201.686 86.8716 201.405 86.5552 201.203C86.2388 201 85.8433 200.899 85.3687 200.899C84.9028 200.899 84.5117 201 84.1953 201.203C83.8877 201.405 83.6416 201.686 83.457 202.046C83.2725 202.398 83.1406 202.807 83.0615 203.272C82.9824 203.729 82.9429 204.217 82.9429 204.736ZM113.858 208.44V212H104.155V208.44H113.858ZM105.803 192.805V212H101.176V192.805H105.803ZM122.507 212.264C121.347 212.264 120.31 212.083 119.396 211.723C118.481 211.354 117.708 210.849 117.075 210.207C116.451 209.565 115.972 208.827 115.638 207.992C115.313 207.157 115.15 206.274 115.15 205.342V204.841C115.15 203.795 115.295 202.829 115.585 201.941C115.875 201.044 116.306 200.262 116.877 199.594C117.449 198.926 118.165 198.408 119.026 198.039C119.888 197.661 120.89 197.472 122.032 197.472C123.043 197.472 123.948 197.634 124.748 197.959C125.548 198.285 126.225 198.75 126.778 199.357C127.341 199.963 127.767 200.697 128.057 201.559C128.356 202.42 128.505 203.387 128.505 204.459V206.265H116.851V203.483H124.168V203.141C124.177 202.666 124.093 202.262 123.917 201.928C123.75 201.594 123.504 201.339 123.179 201.163C122.854 200.987 122.458 200.899 121.993 200.899C121.509 200.899 121.109 201.005 120.793 201.216C120.485 201.427 120.244 201.717 120.068 202.086C119.901 202.446 119.782 202.864 119.712 203.338C119.642 203.813 119.606 204.314 119.606 204.841V205.342C119.606 205.87 119.677 206.349 119.817 206.779C119.967 207.21 120.178 207.579 120.45 207.887C120.731 208.186 121.065 208.418 121.452 208.585C121.848 208.752 122.296 208.836 122.797 208.836C123.403 208.836 124.001 208.722 124.59 208.493C125.179 208.265 125.684 207.887 126.106 207.359L128.123 209.759C127.833 210.172 127.42 210.572 126.884 210.958C126.356 211.345 125.724 211.662 124.985 211.908C124.247 212.145 123.421 212.264 122.507 212.264ZM136.336 208.836C136.75 208.836 137.101 208.761 137.391 208.612C137.69 208.454 137.914 208.234 138.063 207.953C138.222 207.663 138.296 207.315 138.288 206.911H142.467C142.476 207.983 142.212 208.924 141.676 209.732C141.148 210.532 140.428 211.156 139.514 211.604C138.608 212.044 137.584 212.264 136.442 212.264C135.326 212.264 134.35 212.083 133.515 211.723C132.68 211.354 131.981 210.844 131.419 210.194C130.865 209.535 130.448 208.766 130.167 207.887C129.894 207.008 129.758 206.054 129.758 205.026V204.723C129.758 203.694 129.894 202.741 130.167 201.862C130.448 200.974 130.865 200.205 131.419 199.555C131.981 198.896 132.676 198.386 133.502 198.025C134.337 197.656 135.308 197.472 136.416 197.472C137.602 197.472 138.648 197.696 139.553 198.144C140.467 198.592 141.184 199.243 141.702 200.095C142.221 200.948 142.476 201.98 142.467 203.193H138.288C138.296 202.763 138.23 202.376 138.09 202.033C137.949 201.69 137.729 201.418 137.431 201.216C137.141 201.005 136.767 200.899 136.31 200.899C135.853 200.899 135.484 201 135.203 201.203C134.921 201.405 134.706 201.686 134.557 202.046C134.416 202.398 134.319 202.802 134.267 203.259C134.223 203.716 134.201 204.204 134.201 204.723V205.026C134.201 205.553 134.223 206.05 134.267 206.516C134.319 206.973 134.42 207.377 134.57 207.729C134.719 208.071 134.935 208.344 135.216 208.546C135.497 208.739 135.871 208.836 136.336 208.836ZM151.88 197.735V200.82H143.284V197.735H151.88ZM145.09 194.189H149.533V207.346C149.533 207.724 149.577 208.019 149.665 208.229C149.753 208.432 149.902 208.577 150.113 208.665C150.333 208.744 150.623 208.783 150.983 208.783C151.238 208.783 151.449 208.779 151.616 208.77C151.783 208.752 151.941 208.73 152.091 208.704V211.881C151.713 212.004 151.317 212.097 150.904 212.158C150.491 212.229 150.052 212.264 149.586 212.264C148.637 212.264 147.824 212.114 147.147 211.815C146.479 211.517 145.969 211.046 145.618 210.405C145.266 209.763 145.09 208.928 145.09 207.9V194.189ZM161.979 208.533V197.735H166.435V212H162.269L161.979 208.533ZM162.4 205.632L163.561 205.606C163.561 206.564 163.446 207.452 163.218 208.269C162.989 209.078 162.651 209.781 162.203 210.378C161.763 210.976 161.218 211.442 160.568 211.776C159.926 212.101 159.184 212.264 158.34 212.264C157.637 212.264 156.991 212.167 156.402 211.974C155.822 211.771 155.321 211.459 154.899 211.038C154.477 210.607 154.147 210.058 153.91 209.39C153.682 208.713 153.567 207.904 153.567 206.964V197.735H158.01V206.99C158.01 207.307 158.05 207.579 158.129 207.808C158.208 208.036 158.322 208.229 158.472 208.388C158.621 208.537 158.806 208.651 159.025 208.73C159.254 208.801 159.513 208.836 159.803 208.836C160.471 208.836 160.994 208.695 161.372 208.414C161.75 208.133 162.014 207.75 162.163 207.267C162.321 206.784 162.4 206.239 162.4 205.632ZM173.369 201.269V212H168.926V197.735H173.079L173.369 201.269ZM177.588 197.63L177.509 201.756C177.333 201.739 177.096 201.717 176.797 201.69C176.498 201.664 176.248 201.651 176.045 201.651C175.527 201.651 175.079 201.712 174.701 201.835C174.332 201.95 174.024 202.125 173.778 202.363C173.541 202.591 173.365 202.881 173.25 203.233C173.145 203.584 173.097 203.993 173.105 204.459L172.301 203.932C172.301 202.974 172.394 202.104 172.578 201.321C172.771 200.53 173.044 199.849 173.396 199.278C173.747 198.698 174.173 198.254 174.674 197.946C175.175 197.63 175.738 197.472 176.362 197.472C176.582 197.472 176.797 197.485 177.008 197.511C177.228 197.538 177.421 197.577 177.588 197.63ZM185.762 212.264C184.602 212.264 183.564 212.083 182.65 211.723C181.736 211.354 180.963 210.849 180.33 210.207C179.706 209.565 179.227 208.827 178.893 207.992C178.568 207.157 178.405 206.274 178.405 205.342V204.841C178.405 203.795 178.55 202.829 178.84 201.941C179.13 201.044 179.561 200.262 180.132 199.594C180.704 198.926 181.42 198.408 182.281 198.039C183.143 197.661 184.145 197.472 185.287 197.472C186.298 197.472 187.203 197.634 188.003 197.959C188.803 198.285 189.479 198.75 190.033 199.357C190.596 199.963 191.022 200.697 191.312 201.559C191.611 202.42 191.76 203.387 191.76 204.459V206.265H180.106V203.483H187.423V203.141C187.432 202.666 187.348 202.262 187.172 201.928C187.005 201.594 186.759 201.339 186.434 201.163C186.109 200.987 185.713 200.899 185.248 200.899C184.764 200.899 184.364 201.005 184.048 201.216C183.74 201.427 183.499 201.717 183.323 202.086C183.156 202.446 183.037 202.864 182.967 203.338C182.896 203.813 182.861 204.314 182.861 204.841V205.342C182.861 205.87 182.932 206.349 183.072 206.779C183.222 207.21 183.433 207.579 183.705 207.887C183.986 208.186 184.32 208.418 184.707 208.585C185.103 208.752 185.551 208.836 186.052 208.836C186.658 208.836 187.256 208.722 187.845 208.493C188.434 208.265 188.939 207.887 189.361 207.359L191.378 209.759C191.088 210.172 190.675 210.572 190.139 210.958C189.611 211.345 188.979 211.662 188.24 211.908C187.502 212.145 186.676 212.264 185.762 212.264ZM201.042 207.992C201.042 207.746 200.958 207.535 200.791 207.359C200.633 207.175 200.352 207.008 199.947 206.858C199.543 206.7 198.976 206.542 198.247 206.384C197.552 206.234 196.897 206.037 196.282 205.791C195.676 205.544 195.144 205.246 194.687 204.894C194.23 204.542 193.87 204.125 193.606 203.642C193.351 203.158 193.224 202.604 193.224 201.98C193.224 201.374 193.351 200.803 193.606 200.267C193.87 199.722 194.252 199.243 194.753 198.83C195.263 198.408 195.882 198.078 196.612 197.841C197.341 197.595 198.172 197.472 199.104 197.472C200.387 197.472 201.494 197.669 202.426 198.065C203.357 198.452 204.074 198.997 204.575 199.7C205.084 200.394 205.339 201.198 205.339 202.112H200.896C200.896 201.752 200.835 201.444 200.712 201.189C200.598 200.935 200.409 200.741 200.145 200.609C199.881 200.469 199.53 200.398 199.09 200.398C198.783 200.398 198.501 200.456 198.247 200.57C198 200.684 197.803 200.842 197.653 201.044C197.504 201.247 197.429 201.484 197.429 201.756C197.429 201.95 197.473 202.125 197.561 202.284C197.658 202.433 197.803 202.574 197.996 202.706C198.189 202.829 198.436 202.943 198.734 203.048C199.033 203.145 199.394 203.233 199.815 203.312C200.773 203.488 201.67 203.738 202.505 204.063C203.34 204.389 204.017 204.85 204.535 205.448C205.062 206.045 205.326 206.85 205.326 207.86C205.326 208.493 205.181 209.078 204.891 209.614C204.601 210.141 204.184 210.607 203.639 211.011C203.094 211.407 202.439 211.714 201.674 211.934C200.91 212.154 200.048 212.264 199.09 212.264C197.728 212.264 196.577 212.022 195.636 211.539C194.696 211.046 193.984 210.431 193.5 209.693C193.026 208.946 192.789 208.19 192.789 207.425H196.928C196.946 207.865 197.051 208.225 197.245 208.506C197.447 208.788 197.715 208.994 198.049 209.126C198.383 209.258 198.77 209.324 199.209 209.324C199.613 209.324 199.947 209.267 200.211 209.152C200.483 209.038 200.69 208.884 200.831 208.691C200.971 208.489 201.042 208.256 201.042 207.992Z" fill="#000F94"/>
</g>
<path d="M316.331 183.948C317.956 150.99 315.496 143.025 306.844 136.789L303.022 155.819C303.022 155.819 306.512 178.421 305.906 185.916C305.391 192.496 304.556 200.724 302.885 206.011C302.574 206.944 301.936 207.733 301.088 208.231C298.799 209.582 297.884 210.989 296.156 212.717C294.806 214.068 293.684 214.388 293.867 214.834C294.112 215.323 294.532 215.701 295.043 215.894C295.554 216.087 296.119 216.08 296.625 215.876C297.756 215.457 298.831 214.904 299.829 214.228C299.01 216.231 297.874 218.09 296.465 219.732C293.238 223.509 293.032 225.866 299.372 226.06C303.343 226.186 306.558 223.772 309.74 215.143C310.977 211.97 311.983 208.712 312.749 205.393C314.431 196.776 316.068 189.246 316.331 183.948Z" fill="#A35B5A"/>
<path d="M299.52 134.122C303.72 133.607 309.396 134.614 312.932 141.275C316.468 147.935 317.109 159.275 317.269 170.547C317.269 170.547 309.831 176.487 301.122 173.282L299.52 134.122Z" fill="#7368C8"/>
<path opacity="0.5" d="M299.52 134.122C303.72 133.607 309.396 134.614 312.932 141.275C316.468 147.935 317.109 159.275 317.269 170.547C317.269 170.547 309.831 176.487 301.122 173.282L299.52 134.122Z" fill="black"/>
<path d="M307.611 306.75C308.229 307.001 308.366 308.214 308.412 310.606C308.412 312.426 308.755 315.595 306.615 316.179C304.475 316.763 301.374 316.374 300.058 314.634C298.463 312.307 296.752 310.061 294.931 307.905C292.883 305.617 290.652 303.442 289.873 300.25C289.175 297.377 289.873 296.153 291.807 295.363C294.519 294.276 298.673 298.11 300.745 298.796C302.541 299.288 306.982 306.486 307.611 306.75Z" fill="#263238"/>
<path d="M307.657 304.529L307.588 307.47C306.465 308.145 305.179 308.502 303.869 308.502C302.558 308.502 301.273 308.145 300.15 307.47C300.035 307.184 299.474 303.248 299.474 303.248L307.657 304.529Z" fill="#A35B5A"/>
<path d="M283.408 323.16C283.408 323.16 284.186 325.735 284.552 327.989C284.872 329.774 285.319 332.761 284.666 334.077C284.014 335.393 281.565 336.217 277.8 336.103C275.363 336.022 271.529 337.602 268.886 338.986C266.242 340.371 260.566 340.897 257.728 340.508C254.387 340.039 250.953 338.014 250.45 336.617C249.946 335.221 250.69 333.791 258.666 330.598C258.735 330.598 269.721 327.268 273.635 323.137L283.408 323.16Z" fill="#263238"/>
<path d="M283.476 319.978C283.476 319.978 283.419 322.164 283.396 323.412C283.373 324.659 281.863 326.49 278.052 326.261C275.374 326.112 273.475 325.345 273.681 323.137L273.749 319.967L283.476 319.978Z" fill="#A35B5A"/>
<path d="M310.449 265.541C309.913 260.317 308.866 255.158 307.325 250.138C307.325 250.138 308.664 236.943 309.453 224.424C310.3 210.898 310.117 193.87 310.449 190.505C310.449 190.505 266.963 180.686 265.819 196.307C264.675 211.928 266.288 251.832 266.654 258.721C267.02 265.61 268.062 271.709 269.229 282.878C270.396 294.047 273.726 319.967 273.726 319.967C275.222 320.768 276.893 321.188 278.59 321.188C280.287 321.188 281.958 320.768 283.454 319.967C283.454 319.967 287.23 288.749 287.093 280.818C286.973 274.935 286.093 269.092 284.472 263.435C284.472 263.435 285.616 250.55 286.566 239.347C287.516 228.143 288.454 222.765 288.729 217.89L289.679 217.443C289.679 217.443 290.205 236.829 290.56 243.707C290.915 250.584 291.876 257.21 293.57 270.027C295.046 281.139 299.658 304.69 299.658 304.69C304.59 307.505 307.668 304.518 307.668 304.518C307.668 304.518 311.582 275.177 310.449 265.541Z" fill="#7368C8"/>
<path opacity="0.7" d="M310.449 265.541C309.913 260.317 308.866 255.158 307.325 250.138C307.325 250.138 308.664 236.943 309.453 224.424C310.3 210.898 310.117 193.87 310.449 190.505C310.449 190.505 266.963 180.686 265.819 196.307C264.675 211.928 266.288 251.832 266.654 258.721C267.02 265.61 268.062 271.709 269.229 282.878C270.396 294.047 273.726 319.967 273.726 319.967C275.222 320.768 276.893 321.188 278.59 321.188C280.287 321.188 281.958 320.768 283.454 319.967C283.454 319.967 287.23 288.749 287.093 280.818C286.973 274.935 286.093 269.092 284.472 263.435C284.472 263.435 285.616 250.55 286.566 239.347C287.516 228.143 288.454 222.765 288.729 217.89L289.679 217.443C289.679 217.443 290.205 236.829 290.56 243.707C290.915 250.584 291.876 257.21 293.57 270.027C295.046 281.139 299.658 304.69 299.658 304.69C304.59 307.505 307.668 304.518 307.668 304.518C307.668 304.518 311.582 275.177 310.449 265.541Z" fill="black"/>
<path opacity="0.4" d="M288.752 217.901C288.752 217.901 299.463 212.912 304.876 208.323C304.876 208.323 299.795 215.189 293.261 218.084C293.261 218.084 290.423 242.116 290.446 241.612L289.656 217.878L288.752 217.901Z" fill="black"/>
<path d="M281.325 128.698L283.591 142.98L296.465 142.327L294.966 125.62L281.325 128.698Z" fill="#A35B5A"/>
<path d="M310.06 141.595C308.916 137.704 304.063 133.378 299.131 134.179C297.987 134.363 296.843 134.557 295.778 134.752C295.195 137.155 289.038 139.009 282.732 137.532C280.833 138.025 279.082 138.54 277.503 139.066C272.925 140.565 268.794 144.364 268.085 159.138C268.085 159.138 265.796 193.583 265.624 200.244C276.816 204.97 288.512 205.096 295.08 203.825C308.652 201.182 310.415 195.609 310.415 195.609C310.415 195.609 311.147 170.822 310.975 160.134C310.838 151.002 310.872 144.273 310.06 141.595Z" fill="#263238"/>
<path d="M271.804 111.166C271.804 111.166 268.428 116.293 268.817 116.797C269.206 117.3 271.678 117.746 271.678 117.746L271.804 111.166Z" fill="#8C3F3E"/>
<path d="M273.383 114.462C272.586 114.464 271.806 114.23 271.142 113.789C270.478 113.348 269.96 112.719 269.653 111.983C269.347 111.248 269.265 110.437 269.42 109.655C269.574 108.873 269.956 108.154 270.519 107.59C271.082 107.025 271.8 106.64 272.582 106.484C273.363 106.328 274.174 106.407 274.911 106.711C275.647 107.016 276.277 107.532 276.72 108.195C277.163 108.858 277.4 109.637 277.4 110.434C277.4 111.5 276.977 112.523 276.224 113.278C275.471 114.033 274.449 114.459 273.383 114.462ZM273.383 107.31C272.762 107.308 272.154 107.49 271.637 107.834C271.119 108.177 270.716 108.667 270.477 109.24C270.238 109.814 270.175 110.445 270.296 111.054C270.416 111.664 270.715 112.223 271.155 112.663C271.594 113.102 272.153 113.401 272.763 113.521C273.372 113.642 274.003 113.579 274.577 113.34C275.15 113.101 275.64 112.698 275.984 112.18C276.327 111.663 276.509 111.055 276.507 110.434C276.492 109.615 276.156 108.835 275.572 108.262C274.988 107.688 274.202 107.367 273.383 107.367V107.31Z" fill="#263238"/>
<path d="M281.176 96.9991C274.31 98.441 272.376 101.439 271.735 112.299C271.06 123.628 272.216 127.176 273.703 128.721C274.71 129.751 280.295 129.934 283.122 129.167C286.646 128.194 294.622 125.368 298.353 119.658C302.747 112.952 303.903 103.854 299.2 100.123C292.574 94.882 283.957 96.4155 281.176 96.9991Z" fill="#A35B5A"/>
<path d="M274.974 129.282C277.128 129.694 279.334 129.756 281.508 129.465C282.485 128.881 283.254 128.004 283.705 126.959C283.705 126.959 282.412 128.767 274.974 129.282Z" fill="#8C3F3E"/>
<path d="M269.733 109.599L281.886 111.166L281.394 112.025L269.733 110.514V109.599Z" fill="#263238"/>
<path d="M268.531 102.343C269.472 103.904 270.811 105.188 272.41 106.062C274.115 106.955 275.843 107.001 277.72 108.832C278.411 109.527 278.976 110.336 279.391 111.224C279.471 111.418 280.913 113.364 280.993 113.066C280.993 113.066 282.069 108.878 285.571 109.404C289.072 109.93 289.61 114.462 287.367 117.22C285.124 119.978 283.03 118.914 283.03 118.914C283.03 118.914 283.145 124.91 285.799 128.297C285.799 128.297 288.821 129.282 294.371 128.091C297.804 127.359 302.622 123.091 304.67 118.582C308.961 109.015 309.247 100.409 303.159 97.8345C302.496 93.4287 299.028 91.4489 295.08 90.5449C292.974 90.1692 290.821 90.1421 288.706 90.4648C286.321 90.7264 283.907 90.5006 281.611 89.8011C280.408 89.2909 279.118 89.0189 277.812 89C276.519 89.1259 275.191 90.213 275.374 91.4947C274.349 90.824 273.145 90.4783 271.92 90.5028C270.695 90.5273 269.506 90.9209 268.508 91.632C266.082 93.4401 266.036 96.1523 266.929 98.853C267.324 100.075 267.862 101.247 268.531 102.343Z" fill="#263238"/>
<path d="M303.274 99.3565L307.371 96.9419C307.036 96.4295 306.516 96.0658 305.92 95.9264C305.324 95.787 304.697 95.8827 304.17 96.1936C303.642 96.5044 303.255 97.0065 303.088 97.5956C302.921 98.1846 302.988 98.8153 303.274 99.3565Z" fill="#263238"/>
<path d="M280.924 115.458L281.05 110.709C280.726 110.679 280.399 110.717 280.09 110.818C279.781 110.92 279.496 111.084 279.253 111.3C279.01 111.517 278.814 111.78 278.676 112.076C278.539 112.371 278.464 112.691 278.455 113.016C278.447 113.341 278.505 113.665 278.626 113.967C278.748 114.269 278.93 114.543 279.161 114.772C279.393 115 279.668 115.179 279.972 115.297C280.275 115.415 280.599 115.47 280.924 115.458Z" fill="#263238"/>
<path d="M276.816 141.858C268.199 136.045 251.205 123.548 249.145 122.244C246.285 120.493 241.902 120.092 239.212 121.523C236.718 122.862 238.125 126.203 242.954 131.902C247.635 137.418 267.97 158.223 267.97 158.223L276.816 141.858Z" fill="#A35B5A"/>
<path d="M277.285 139.821C271.289 136.022 258.976 128.378 258.976 128.378C258.976 128.378 250.484 134.477 252.453 144.719C252.453 144.719 264.789 156.54 268.474 159.596C270.968 161.61 278.167 158.452 279.185 151.219C280.524 142.282 277.285 139.821 277.285 139.821Z" fill="#7368C8"/>
<path opacity="0.5" d="M277.285 139.821C271.289 136.022 258.976 128.378 258.976 128.378C258.976 128.378 250.484 134.477 252.453 144.719C252.453 144.719 264.789 156.54 268.474 159.596C270.968 161.61 278.167 158.452 279.185 151.219C280.524 142.282 277.285 139.821 277.285 139.821Z" fill="black"/>
<path d="M238.182 123.445C238.835 118.719 253.357 108.717 258.323 105.639C260.565 104.274 262.656 102.674 264.56 100.867C265.315 100.135 265.979 99.3222 266.723 98.5784C267.467 97.8346 268.108 96.8161 269.012 96.0379C270.085 94.992 271.303 94.1056 272.628 93.4059C275.159 92.3253 277.979 92.1238 280.638 92.8337C281.256 92.971 281.874 93.1427 282.515 93.2228C283.854 93.3944 285.376 93.2228 286.417 94.0467C286.532 94.1237 286.629 94.2252 286.7 94.3439C286.772 94.4626 286.816 94.5956 286.829 94.7333C286.829 95.1682 286.406 95.4428 286.017 95.6374C282.961 97.125 279.357 97.6286 276.805 99.883C276.61 100.055 275.42 101.622 276.072 101.794C276.725 101.966 278.945 101.05 281.348 101.119C284.243 101.199 282.332 102.87 281.348 103.408C279.787 104.306 278.096 104.959 276.336 105.342C273.635 105.994 271.277 106.291 269.469 107.493C267.661 108.695 251.572 124.967 251.572 124.967L238.182 123.445Z" fill="#A35B5A"/>
<defs>
<filter id="filter0_d_252_18" x="57.3066" y="192.805" width="151.033" height="25.459" filterUnits="userSpaceOnUse" color-interpolation-filters="sRGB">
<feFlood flood-opacity="0" result="BackgroundImageFix"/>
<feColorMatrix in="SourceAlpha" type="matrix" values="0 0 0 0 0 0 0 0 0 0 0 0 0 0 0 0 0 0 127 0" result="hardAlpha"/>
<feOffset dy="3"/>
<feGaussianBlur stdDeviation="1.5"/>
<feComposite in2="hardAlpha" operator="out"/>
<feColorMatrix type="matrix" values="0 0 0 0 0.505882 0 0 0 0 0.458824 0 0 0 0 0.458824 0 0 0 0.160784 0"/>
<feBlend mode="normal" in2="BackgroundImageFix" result="effect1_dropShadow_252_18"/>
<feBlend mode="normal" in="SourceGraphic" in2="effect1_dropShadow_252_18" result="shape"/>
</filter>
</defs>
</svg>
