<svg fill="none" height="22" viewBox="0 0 22 22" width="22" xmlns="http://www.w3.org/2000/svg">
    <g clip-path="url(#clip0_457_1316)">
        <path
            d="M7.33337 9.16667V6.41667C7.33337 4.39175 8.97512 2.75 11 2.75C13.025 2.75 14.6667 4.39175 14.6667 6.41667V9.16667"
            stroke="#A2A2A7" stroke-linecap="round" stroke-linejoin="round" stroke-width="1.3" />
        <path
            d="M15.5834 19.25H6.41671C5.40379 19.25 4.58337 18.4296 4.58337 17.4167V11C4.58337 9.98707 5.40379 9.16666 6.41671 9.16666H15.5834C16.5963 9.16666 17.4167 9.98707 17.4167 11V17.4167C17.4167 18.4296 16.5963 19.25 15.5834 19.25Z"
            stroke="#A2A2A7" stroke-linecap="round" stroke-linejoin="round" stroke-width="1.3" />
        <path
            d="M8.24994 14.2459C8.24719 14.2459 8.24536 14.2477 8.24536 14.2505C8.24536 14.2532 8.24719 14.2551 8.24994 14.2551C8.25269 14.2551 8.25453 14.2532 8.25453 14.2505C8.25453 14.2477 8.25269 14.2459 8.24994 14.2459Z"
            stroke="#A2A2A7" stroke-linecap="round" stroke-linejoin="round" stroke-width="1.5" />
        <path
            d="M11.0046 14.2459C11.0018 14.2459 11 14.2477 11 14.2505C11 14.2532 11.0046 14.2551 11.0046 14.2551C11.0073 14.2551 11.0092 14.2532 11.0092 14.2505C11.0092 14.2477 11.0073 14.2459 11.0046 14.2459Z"
            stroke="#A2A2A7" stroke-linecap="round" stroke-linejoin="round" stroke-width="1.5" />
        <path
            d="M13.7499 14.2459C13.7472 14.2459 13.7454 14.2477 13.7454 14.2505C13.7454 14.2532 13.7472 14.2551 13.7499 14.2551C13.7527 14.2551 13.7545 14.2532 13.7545 14.2505C13.7545 14.2477 13.7527 14.2459 13.7499 14.2459Z"
            stroke="#A2A2A7" stroke-linecap="round" stroke-linejoin="round" stroke-width="1.5" />
    </g>
    <defs>
        <clipPath id="clip0_457_1316">
            <rect fill="white" height="22" width="22" />
        </clipPath>
    </defs>
</svg>
