<svg fill="none" height="25" viewBox="0 0 25 25" width="25" xmlns="http://www.w3.org/2000/svg">
    <path
        d="M21.0033 15.9092C20.5782 15.9092 20.153 16.2288 20.153 16.7615V18.8921C20.153 19.6378 19.5152 20.1705 18.8775 20.1705H16.7517C16.3265 20.1705 15.9014 20.4901 15.9014 21.0228C15.9014 21.5554 16.2202 21.8751 16.7517 21.8751H18.8775C20.4719 21.8751 21.8537 20.5967 21.8537 18.8921V16.7615C21.8537 16.3353 21.4285 15.9092 21.0033 15.9092Z"
        fill="white" />
    <path
        d="M16.7517 4.82961H18.8775C19.6216 4.82961 20.153 5.46881 20.153 6.10802V8.2387C20.153 8.66483 20.472 9.09097 21.0034 9.09097C21.5349 9.09097 21.8538 8.77137 21.8538 8.2387V6.10802C21.8538 4.51001 20.5782 3.12506 18.8775 3.12506H16.7517C16.3266 3.12506 15.9014 3.44467 15.9014 3.97733C15.9014 4.51001 16.3266 4.82961 16.7517 4.82961Z"
        fill="white" />
    <path
        d="M8.24827 20.1705H6.12243C5.37838 20.1705 4.84692 19.5314 4.84692 18.8921V16.7615C4.84692 16.3353 4.52804 15.9092 3.99657 15.9092C3.46512 15.9092 3.14624 16.3353 3.14624 16.7615V18.8921C3.14624 20.4901 4.42175 21.8751 6.12243 21.8751H8.24827C8.67345 21.8751 9.09861 21.5554 9.09861 21.0228C9.09861 20.4901 8.67345 20.1705 8.24827 20.1705Z"
        fill="white" />
    <path
        d="M3.9966 9.09097C4.42177 9.09097 4.84694 8.77137 4.84694 8.2387V6.10802C4.84694 5.36228 5.4847 4.82961 6.12245 4.82961H8.2483C8.67347 4.82961 9.09864 4.51001 9.09864 3.97733C9.09864 3.44467 8.67347 3.12506 8.2483 3.12506H6.12245C4.52807 3.12506 3.14626 4.51001 3.14626 6.10802V8.2387C3.14626 8.66483 3.57143 9.09097 3.9966 9.09097Z"
        fill="white" />
    <path
        d="M16.7517 18.8921C17.9209 18.8921 18.8776 17.9333 18.8776 16.7614V14.8438H6.12246V16.7614C6.12246 17.9333 7.07909 18.8921 8.24831 18.8921H16.7517Z"
        fill="white" />
    <path
        d="M22.0664 11.6478H18.8776V8.23874C18.8776 7.06687 17.9209 6.10806 16.7517 6.10806H8.2483C7.07909 6.10806 6.12245 7.06687 6.12245 8.23874V11.8609H2.93368C2.5085 11.8609 2.08334 12.1805 2.08334 12.7132C2.08334 13.2458 2.40221 13.5654 2.93368 13.5654H22.0664C22.4915 13.5654 22.9167 13.2458 22.9167 12.7132C22.9167 12.1805 22.4915 11.6478 22.0664 11.6478Z"
        fill="white" />
</svg>
