<svg xmlns="http://www.w3.org/2000/svg" xmlns:xlink="http://www.w3.org/1999/xlink" width="50.859" height="47.573" viewBox="0 0 50.859 47.573">
  <defs>
    <filter id="scan_qr" x="0" y="0" width="50.859" height="47.573" filterUnits="userSpaceOnUse">
      <feOffset dx="-3" dy="3" input="SourceAlpha"/>
      <feGaussianBlur stdDeviation="3" result="blur"/>
      <feFlood flood-opacity="0.161"/>
      <feComposite operator="in" in2="blur"/>
      <feComposite in="SourceGraphic"/>
    </filter>
  </defs>
  <g transform="matrix(1, 0, 0, 1, 0, 0)" filter="url(#scan_qr)">
    <path id="scan_qr-2" data-name="scan_qr" d="M6.929,11.215a1.643,1.643,0,1,1-3.286,0V7.8a5.143,5.143,0,0,1,.524-2.673A3.857,3.857,0,0,1,5.772,3.524,5.14,5.14,0,0,1,8.445,3h3.412a1.643,1.643,0,1,1,0,3.286H8.445c-.754,0-.936.036-1.124.135a.6.6,0,0,0-.258.258c-.1.186-.135.37-.135,1.124Zm4.929,18.072a1.643,1.643,0,0,1,0,3.286H8.445a5.143,5.143,0,0,1-2.673-.524,3.882,3.882,0,0,1-1.605-1.605,5.14,5.14,0,0,1-.524-2.673V24.358a1.643,1.643,0,1,1,3.286,0v3.412c0,.754.036.936.135,1.124a.6.6,0,0,0,.258.258c.186.1.37.135,1.124.135Zm11.5-24.644A1.643,1.643,0,0,0,25,6.286h3.412c.754,0,.936.036,1.124.135a.6.6,0,0,1,.258.258c.1.186.135.37.135,1.124v3.412a1.643,1.643,0,0,0,3.286,0V7.8a5.143,5.143,0,0,0-.524-2.673,3.882,3.882,0,0,0-1.605-1.605A5.14,5.14,0,0,0,28.414,3H25A1.643,1.643,0,0,0,23.358,4.643ZM29.93,24.358a1.643,1.643,0,1,1,3.286,0v3.412a5.143,5.143,0,0,1-.524,2.673,3.884,3.884,0,0,1-1.605,1.605,5.14,5.14,0,0,1-2.673.524H25a1.643,1.643,0,0,1,0-3.286h3.412c.754,0,.936-.036,1.124-.135a.6.6,0,0,0,.258-.258c.1-.186.135-.37.135-1.124ZM3.643,16.144a1.643,1.643,0,1,0,0,3.286H33.216a1.643,1.643,0,0,0,0-3.286Z" transform="translate(10 3)" fill-rule="evenodd"/>
  </g>
</svg>
