<svg xmlns="http://www.w3.org/2000/svg" width="63" height="63" viewBox="0 0 63 63">
  <g id="Group_2565" data-name="Group 2565" transform="translate(-295 -780)">
    <path id="Ellipse_157" data-name="Ellipse 157" d="M31.5,0A31.5,31.5,0,1,1,0,31.5,31.5,31.5,0,0,1,31.5,0Z" transform="translate(295 780)" fill="#001076"/>
    <g id="Group_2488" data-name="Group 2488" transform="translate(-6.842 244)">
      <g id="Group_2490" data-name="Group 2490" transform="translate(22 17)">
        <path id="Path_5602" data-name="Path 5602" d="M20.325,10.187H19a7.875,7.875,0,0,0-.574-2.157l1.148-.663a.95.95,0,1,0-.95-1.645l-1.157.668a7.961,7.961,0,0,0-1.575-1.575l.668-1.158a.95.95,0,1,0-1.645-.95l-.663,1.148A7.83,7.83,0,0,0,12.1,3.281V1.95a.95.95,0,1,0-1.9,0V3.28a7.875,7.875,0,0,0-2.157.574L7.37,2.706a.95.95,0,1,0-1.645.95l.668,1.158A7.928,7.928,0,0,0,4.818,6.389L3.661,5.722a.95.95,0,1,0-.95,1.645l1.148.663a7.875,7.875,0,0,0-.574,2.157H1.95a.95.95,0,1,0,0,1.9H3.28a7.875,7.875,0,0,0,.574,2.157l-1.148.663a.95.95,0,0,0,.952,1.645l1.157-.668A7.961,7.961,0,0,0,6.39,17.459l-.668,1.158a.95.95,0,0,0,1.646.95l.663-1.148a7.83,7.83,0,0,0,2.157.574v1.329a.95.95,0,1,0,1.9,0V18.993a7.875,7.875,0,0,0,2.157-.574l.663,1.148a.95.95,0,0,0,1.646-.95l-.668-1.158a7.928,7.928,0,0,0,1.575-1.575l1.157.668a.95.95,0,0,0,.952-1.645l-1.148-.663A7.875,7.875,0,0,0,19,12.087h1.329a.95.95,0,1,0,0-1.9Zm-9.187,6.97a6.019,6.019,0,1,1,6.019-6.019A6.019,6.019,0,0,1,11.138,17.157Z" transform="translate(300.203 539.364)" fill="#fff"/>
        <path id="Path_5601" data-name="Path 5601" d="M16.9,9.523H10.484L7.273,3.962a.95.95,0,1,0-1.645.95l3.211,5.56L5.628,16.035a.95.95,0,1,0,1.646.95l3.211-5.562h6.421a.95.95,0,1,0,0-1.9Z" transform="translate(301 540.026)" fill="#fff"/>
      </g>
    </g>
  </g>
</svg>
