<svg xmlns="http://www.w3.org/2000/svg" width="61.325" height="60.704" viewBox="0 0 61.325 60.704">
  <g id="Group_2564" data-name="Group 2564" transform="translate(-68)">
    <ellipse id="Ellipse_156" data-name="Ellipse 156" cx="30.663" cy="30.352" rx="30.663" ry="30.352" transform="translate(68)" fill="#001076"/>
    <path id="Path_54" data-name="Path 54" d="M594.74,1003.083l-9.412,7.453a.635.635,0,0,0-.241.5v11.879a.64.64,0,0,0,.644.637h5.726a.641.641,0,0,0,.644-.637v-5.049a.64.64,0,0,1,.644-.637h4.8a.64.64,0,0,1,.644.637v5.049a.64.64,0,0,0,.644.637h5.726a.64.64,0,0,0,.643-.637v-11.878a.635.635,0,0,0-.241-.5l-9.412-7.453a.649.649,0,0,0-.8,0Z" transform="translate(-495.705 -983.037)" fill="#fff" stroke="#fff" stroke-width="1"/>
  </g>
</svg>
