<svg xmlns="http://www.w3.org/2000/svg" width="20.275" height="20.272" viewBox="0 0 20.275 20.272">
  <g id="Group_2459" data-name="Group 2459" transform="translate(-1 -1)">
    <g id="Group_2462" data-name="Group 2462">
      <path id="Path_5601" data-name="Path 5601" d="M16.9,9.523H10.484L7.273,3.962a.95.95,0,0,0-1.645.95l3.211,5.56L5.628,16.035a.95.95,0,1,0,1.646.95l3.211-5.562h6.421a.95.95,0,0,0,0-1.9Z" transform="translate(1.202 0.665)"/>
    </g>
    <g id="Group_2461" data-name="Group 2461">
      <path id="Path_5602" data-name="Path 5602" d="M20.325,10.187H19a7.875,7.875,0,0,0-.574-2.157l1.148-.663a.95.95,0,0,0-.95-1.645l-1.157.668a7.961,7.961,0,0,0-1.575-1.575l.668-1.158a.95.95,0,1,0-1.645-.95l-.663,1.148a7.83,7.83,0,0,0-2.157-.574V1.95a.95.95,0,1,0-1.9,0V3.28a7.875,7.875,0,0,0-2.157.574L7.37,2.706a.95.95,0,0,0-1.645.95l.668,1.158A7.928,7.928,0,0,0,4.818,6.389L3.661,5.722a.95.95,0,0,0-.95,1.645l1.148.663a7.875,7.875,0,0,0-.574,2.157H1.95a.95.95,0,1,0,0,1.9H3.28a7.875,7.875,0,0,0,.574,2.157l-1.148.663a.95.95,0,1,0,.952,1.645l1.157-.668a7.961,7.961,0,0,0,1.575,1.575l-.668,1.158a.95.95,0,1,0,1.646.95l.663-1.148a7.83,7.83,0,0,0,2.157.574v1.329a.95.95,0,0,0,1.9,0V18.993a7.875,7.875,0,0,0,2.157-.574l.663,1.148a.95.95,0,0,0,1.646-.95l-.668-1.158a7.928,7.928,0,0,0,1.575-1.575l1.157.668a.95.95,0,1,0,.952-1.645l-1.148-.663A7.875,7.875,0,0,0,19,12.087h1.329a.95.95,0,0,0,0-1.9Zm-9.187,6.97a6.019,6.019,0,1,1,6.019-6.019A6.026,6.026,0,0,1,11.138,17.157Z"/>
    </g>
  </g>
</svg>
