<svg fill="none" height="21" viewBox="0 0 20 21" width="20" xmlns="http://www.w3.org/2000/svg">
    <path clip-rule="evenodd" d="M10.3479 6.99998C8.36313 6.99998 6.75415 8.60896 6.75415 10.5937C6.75415 12.5785 8.36313 14.1875 10.3479 14.1875C12.3327 14.1875 13.9417 12.5785 13.9417 10.5937C13.9417 8.60896 12.3327 6.99998 10.3479 6.99998ZM8.19165 10.5937C8.19165 9.40291 9.15708 8.43748 10.3479 8.43748C11.5387 8.43748 12.5042 9.40291 12.5042 10.5937C12.5042 11.7846 11.5387 12.75 10.3479 12.75C9.15708 12.75 8.19165 11.7846 8.19165 10.5937Z"
        fill="#9DB2CE"
        fill-rule="evenodd" />
    <path clip-rule="evenodd" d="M10.2299 0.197922C9.804 0.197913 9.44836 0.197913 9.15646 0.217827C8.85257 0.238565 8.56555 0.283262 8.28726 0.39853C7.64151 0.66601 7.12846 1.17905 6.86098 1.82481C6.72173 2.16099 6.68402 2.51529 6.66962 2.90038C6.65804 3.20995 6.50182 3.46824 6.27125 3.60136C6.04069 3.73447 5.7389 3.74062 5.46501 3.59587C5.12431 3.41579 4.79862 3.27129 4.43784 3.22379C3.74487 3.13256 3.04403 3.32035 2.48951 3.74585C2.25054 3.92922 2.06831 4.15546 1.89841 4.40826C1.7352 4.65112 1.55742 4.95907 1.34445 5.32795L1.32025 5.36986C1.10727 5.73874 0.929481 6.04667 0.800767 6.30943C0.666783 6.58298 0.56197 6.85392 0.522649 7.15256C0.431416 7.84554 0.619211 8.54637 1.0447 9.10093C1.26619 9.38949 1.55412 9.59936 1.88038 9.80435C2.14275 9.96918 2.28835 10.2337 2.28833 10.5C2.28832 10.7662 2.14272 11.0307 1.88038 11.1956C1.55408 11.4005 1.26612 11.6104 1.04462 11.8991C0.619115 12.4536 0.43133 13.1544 0.522553 13.8474C0.561874 14.146 0.666687 14.417 0.800671 14.6905C0.929385 14.9533 1.10718 15.2612 1.32015 15.6301L1.34435 15.672C1.55732 16.0409 1.7351 16.3488 1.89832 16.5917C2.06821 16.8445 2.25045 17.0707 2.48942 17.2541C3.04394 17.6796 3.74478 17.8674 4.43775 17.7762C4.7985 17.7286 5.12417 17.5842 5.46486 17.4041C5.73878 17.2593 6.04062 17.2655 6.2712 17.3987C6.5018 17.5318 6.65804 17.79 6.66962 18.0997C6.68402 18.4847 6.72174 18.839 6.86098 19.1752C7.12846 19.8209 7.64151 20.334 8.28726 20.6015C8.56555 20.7168 8.85257 20.7615 9.15646 20.7822C9.44836 20.8021 9.804 20.8021 10.2299 20.8021H10.2783C10.7043 20.8021 11.0598 20.8021 11.3518 20.7822C11.6557 20.7615 11.9427 20.7168 12.221 20.6015C12.8667 20.334 13.3798 19.8209 13.6473 19.1752C13.7865 18.839 13.8242 18.4847 13.8386 18.0996C13.8502 17.79 14.0064 17.5318 14.237 17.3986C14.4675 17.2655 14.7694 17.2593 15.0433 17.404C15.384 17.5841 15.7096 17.7286 16.0704 17.7761C16.7634 17.8673 17.4642 17.6796 18.0187 17.2541C18.2577 17.0706 18.4399 16.8445 18.6098 16.5917C18.773 16.3488 18.9508 16.0409 19.1638 15.672L19.188 15.6301C19.4009 15.2612 19.5788 14.9532 19.7075 14.6904C19.8415 14.4169 19.9462 14.146 19.9856 13.8474C20.0769 13.1543 19.889 12.4535 19.4635 11.899C19.2421 11.6103 18.9541 11.4005 18.6279 11.1956C18.3655 11.0307 18.2199 10.7662 18.2199 10.4999C18.2199 10.2337 18.3655 9.96928 18.6278 9.80445C18.9542 9.59946 19.2421 9.38968 19.4636 9.10093C19.8891 8.54643 20.077 7.8456 19.9857 7.15262C19.9463 6.85399 19.8416 6.58305 19.7076 6.3095C19.5789 6.04675 19.4011 5.73884 19.1881 5.37L19.1639 5.32805C18.9509 4.95916 18.7731 4.65118 18.6099 4.40833C18.44 4.15552 18.2578 3.92929 18.0188 3.74591C17.4643 3.32042 16.7635 3.13263 16.0704 3.22386C15.7097 3.27135 15.3841 3.41583 15.0434 3.5959C14.7695 3.74068 14.4676 3.73452 14.2371 3.60139C14.0065 3.46826 13.8502 3.20994 13.8386 2.90034C13.8242 2.51525 13.7865 2.16097 13.6473 1.82481C13.3798 1.17905 12.8667 0.66601 12.221 0.39853C11.9427 0.283262 11.6557 0.238565 11.3518 0.217827C11.0598 0.197913 10.7043 0.197913 10.2783 0.197922H10.2299ZM8.83733 1.72661C8.91131 1.69598 9.02363 1.66774 9.2543 1.65199C9.49149 1.63582 9.79777 1.63542 10.2541 1.63542C10.7105 1.63542 11.0168 1.63582 11.2539 1.65199C11.4846 1.66774 11.5969 1.69598 11.6708 1.72661C11.9644 1.84819 12.1976 2.08139 12.3191 2.37492C12.3576 2.4675 12.3893 2.61184 12.4021 2.95406C12.4305 3.71342 12.8225 4.44458 13.5183 4.8463C14.2141 5.24803 15.0433 5.22189 15.7151 4.86681C16.0178 4.70678 16.1588 4.66215 16.2581 4.64906C16.5731 4.6076 16.8916 4.69296 17.1437 4.88636C17.2072 4.93508 17.2878 5.01823 17.4168 5.21016C17.5494 5.40745 17.7029 5.6725 17.9311 6.06771C18.1592 6.46294 18.3121 6.72837 18.4166 6.94184C18.5183 7.1495 18.55 7.26091 18.5605 7.34026C18.602 7.65524 18.5166 7.97381 18.3232 8.22586C18.2622 8.30537 18.1531 8.40508 17.863 8.58727C17.2197 8.99159 16.7825 9.69654 16.7824 10.4999C16.7824 11.3034 17.2196 12.0084 17.863 12.4127C18.153 12.5949 18.2621 12.6946 18.3231 12.7741C18.5165 13.0262 18.6019 13.3447 18.5604 13.6597C18.5499 13.7391 18.5182 13.8504 18.4165 14.0581C18.312 14.2715 18.1591 14.537 17.931 14.9322C17.7028 15.3274 17.5494 15.5925 17.4167 15.7898C17.2877 15.9817 17.2071 16.0649 17.1436 16.1135C16.8915 16.307 16.573 16.3923 16.258 16.3509C16.1587 16.3378 16.0177 16.2931 15.715 16.1332C15.0432 15.778 14.214 15.752 13.5181 16.1537C12.8225 16.5554 12.4305 17.2865 12.4021 18.0459C12.3893 18.3881 12.3576 18.5325 12.3191 18.6251C12.1976 18.9186 11.9644 19.1518 11.6708 19.2735C11.5969 19.304 11.4846 19.3323 11.2539 19.348C11.0168 19.3642 10.7105 19.3646 10.2541 19.3646C9.79777 19.3646 9.49149 19.3642 9.2543 19.348C9.02363 19.3323 8.91131 19.304 8.83733 19.2735C8.54389 19.1518 8.31064 18.9186 8.18906 18.6251C8.1507 18.5325 8.11892 18.3881 8.10611 18.0459C8.07772 17.2866 7.68577 16.5554 6.98995 16.1537C6.29414 15.752 5.46498 15.7781 4.79315 16.1332C4.49038 16.2932 4.34949 16.3379 4.25013 16.3509C3.93513 16.3924 3.61657 16.307 3.36452 16.1136C3.30102 16.065 3.2204 15.9818 3.09141 15.7898C2.95883 15.5926 2.80535 15.3275 2.57717 14.9323C2.34898 14.5371 2.19619 14.2716 2.09162 14.0582C1.98991 13.8505 1.9582 13.7391 1.94776 13.6597C1.90629 13.3447 1.99165 13.0262 2.18506 12.7741C2.24607 12.6947 2.35517 12.5949 2.64516 12.4127C3.28856 12.0085 3.72579 11.3035 3.72583 10.5001C3.72588 9.69654 3.28863 8.99149 2.64517 8.58717C2.35525 8.40498 2.24615 8.3053 2.18515 8.22579C1.99175 7.97374 1.90639 7.65518 1.94785 7.34019C1.9583 7.26085 1.99 7.14943 2.09172 6.94178C2.19628 6.7283 2.34908 6.46287 2.57726 6.06765C2.80545 5.67243 2.95891 5.40738 3.09151 5.21009C3.22049 5.01818 3.30112 4.93501 3.36461 4.8863C3.61667 4.69289 3.93523 4.60753 4.25021 4.649C4.34958 4.66208 4.49048 4.70672 4.79329 4.86677C5.46508 5.22184 6.29421 5.24797 6.98999 4.84627C7.68578 4.44457 8.07772 3.71344 8.10611 2.95411C8.11892 2.61186 8.1507 2.46751 8.18906 2.37492C8.31064 2.08139 8.54389 1.84819 8.83733 1.72661Z"
        fill="#9DB2CE"
        fill-rule="evenodd" />
</svg>
