<svg xmlns="http://www.w3.org/2000/svg" width="234" height="206.372" viewBox="0 0 234 206.372">
  <g id="student_intro" transform="translate(-89 -79.628)">
    <path id="Subtraction_1" data-name="Subtraction 1" d="M410-578H220a21.856,21.856,0,0,1-15.556-6.444A21.857,21.857,0,0,1,198-600V-742a21.857,21.857,0,0,1,6.444-15.557A21.855,21.855,0,0,1,220-764H410a21.855,21.855,0,0,1,15.556,6.444A21.857,21.857,0,0,1,432-742v142a21.857,21.857,0,0,1-6.444,15.557A21.855,21.855,0,0,1,410-578ZM229-638a25.028,25.028,0,0,0-25,25v5a25.028,25.028,0,0,0,25,25H401a25.028,25.028,0,0,0,25-25v-5a25.028,25.028,0,0,0-25-25Z" transform="translate(-109 864)" fill="#2d3459"/>
    <g id="Group_2540" data-name="Group 2540" transform="translate(156 -31.519)">
      <g id="Group_2541" data-name="Group 2541" transform="translate(-61 256.806)">
        <text id="Student" transform="translate(49 38.712)" fill="#fff" font-size="33" font-family="SegoeUI, Segoe UI" letter-spacing="0.05em"><tspan x="0" y="0">Student</tspan></text>
      </g>
    </g>
    <g id="_7416570_4807" data-name="7416570_4807" transform="translate(69.938 0.603)">
      <g id="Group_2569" data-name="Group 2569" transform="translate(42.038 79.026)">
        <path id="Path_8723" data-name="Path 8723" d="M1538.75,1256.54a9.858,9.858,0,0,1,.176,1.438h-2.169l.026-.051.239-.6.937-2.333A3.98,3.98,0,0,1,1538.75,1256.54Z" transform="translate(-1379.845 -1151.44)" fill="#4b3584"/>
        <path id="Path_8724" data-name="Path 8724" d="M696.294,1178.84a25.829,25.829,0,0,0-.664,3.005,3.6,3.6,0,0,0-.595.523,7.148,7.148,0,0,0-1.507,3.609c-.026.155-.077.578-.077.578l-1.053,3.54-.06.205a.581.581,0,0,0,.043.445H582.172a.632.632,0,0,1-.634-.634v-10.638a.632.632,0,0,1,.634-.634H696.294Z" transform="translate(-536.528 -1084.204)" fill="#4b3584"/>
        <path id="Path_8725" data-name="Path 8725" d="M1600.254,1181.268l.057,8.768a.527.527,0,0,1-.094.3,1.786,1.786,0,0,1-1.5.6h-1.152c-.274-.214-.574-.411-.835-.651a2.3,2.3,0,0,1-.244-.252c-.989-1.19-.535-3.121-.376-4.8a.385.385,0,0,0,.155-.017.448.448,0,0,0,.3-.286,36.93,36.93,0,0,1,2.513-5.869,2.4,2.4,0,0,1,.625.167A19.56,19.56,0,0,1,1600.254,1181.268Z" transform="translate(-1432.028 -1084.401)" fill="#4b3584"/>
        <g id="Group_2563" data-name="Group 2563" transform="translate(37.043 0)">
          <path id="Path_8726" data-name="Path 8726" d="M1536.828,1216.86a1.252,1.252,0,0,1-.458.465.935.935,0,0,1-.582,0,14,14,0,0,1-3.934-1.516,2.894,2.894,0,0,1-1.032-.856c-.548-.818-.364-2-.608-3a3.957,3.957,0,0,0-.788-1.549l-.938,2.333a2.938,2.938,0,0,1-.364.784.581.581,0,0,1-.619.155l-.013,0a.579.579,0,0,1-.368-.377.828.828,0,0,1,.056-.557l1.053-3.54s.056-.42.081-.578a7.149,7.149,0,0,1,1.507-3.609,3.612,3.612,0,0,1,.595-.522c.31.232.659.476,1.028.71a9.747,9.747,0,0,0,.737,2.8c2.667,5.989,2.979,2.169,3.078-.047,0,0-.479,3.339.51,4.529.6.723,1.661,1.036,1.888,2A3.209,3.209,0,0,1,1536.828,1216.86Z" transform="translate(-1408.356 -1106.851)" fill="#e6325c"/>
          <path id="Path_8727" data-name="Path 8727" d="M628.107,471.327a8.969,8.969,0,0,0-2.237,4.761.816.816,0,0,1-.806.7h-7.3a.816.816,0,0,1-.805-.706,8.8,8.8,0,0,0-2.265-4.773,9.062,9.062,0,1,1,13.409.015Z" transform="translate(-600.772 -446.189)" fill="#f7af4d"/>
          <path id="Path_8728" data-name="Path 8728" d="M660.25,648.9h-.077a3.634,3.634,0,0,1-3.873-3.334v-2.5a.232.232,0,0,1,.232-.232h7.358a.232.232,0,0,1,.232.232v2.5A3.634,3.634,0,0,1,660.25,648.9Z" transform="translate(-639.571 -610.998)" fill="#c2def5"/>
          <path id="Path_8729" data-name="Path 8729" d="M657.828,646.808h-.078a3.958,3.958,0,0,1-4.195-3.656v-2.5a.552.552,0,0,1,.551-.551h7.363a.552.552,0,0,1,.552.551v2.5A3.958,3.958,0,0,1,657.828,646.808Zm-3.63-6.062v2.406a3.32,3.32,0,0,0,3.552,3.014h.077a3.32,3.32,0,0,0,3.553-3.014v-2.406Z" transform="translate(-637.152 -608.58)" fill="#2a2150"/>
          <path id="Path_8730" data-name="Path 8730" d="M521.107,545.784h-7.369a.214.214,0,1,1,0-.428h7.37a.214.214,0,1,1,0,.428Z" transform="translate(-513.523 -524.932)" fill="#2b2150"/>
          <path id="Path_8731" data-name="Path 8731" d="M806.886,545.784h-7.37a.214.214,0,0,1,0-.428h7.37a.214.214,0,0,1,0,.428Z" transform="translate(-765.824 -524.932)" fill="#2b2150"/>
          <path id="Path_8732" data-name="Path 8732" d="M688.081,378.809a.214.214,0,0,1-.214-.214v-7.37a.214.214,0,1,1,.428,0v7.367a.214.214,0,0,1-.215.216Z" transform="translate(-667.443 -371.012)" fill="#2b2150"/>
          <path id="Path_8733" data-name="Path 8733" d="M570.011,427.716a.214.214,0,0,1-.155-.063l-5.211-5.211a.214.214,0,1,1,.3-.3l5.211,5.211a.214.214,0,0,1-.155.366Z" transform="translate(-558.604 -416.096)" fill="#2b2150"/>
          <path id="Path_8734" data-name="Path 8734" d="M766.879,427.716a.214.214,0,0,1-.155-.366l5.211-5.211a.214.214,0,0,1,.3.3l-5.211,5.211a.214.214,0,0,1-.148.063Z" transform="translate(-737.009 -416.096)" fill="#2b2150"/>
        </g>
        <path id="Path_8735" data-name="Path 8735" d="M746.247,1459.221v5.013c0,4.213-3.849,7.5-8.6,7.5H623.967a.943.943,0,0,1-.989-.933v-.022a.991.991,0,0,1,.989-.993h.557l-.077.09v.056h48.342a5.161,5.161,0,0,0,5.223-5.1v-6.113a5.161,5.161,0,0,0-5.223-5.1H641.845v-.026H623.967a.992.992,0,0,1-.989-.989v-.017a.99.99,0,0,1,.989-.993h90.514v3.069c0,.24.18.372.31.227l2.834-3.3h.7l2.834,3.3c.129.146.31.013.31-.227V1451.6h16.188C742.4,1451.6,746.247,1455.016,746.247,1459.221Z" transform="translate(-573.113 -1325.013)" fill="#2bb19e"/>
        <path id="Path_8736" data-name="Path 8736" d="M635.519,1485.148v.055H683.86a5.162,5.162,0,0,0,5.223-5.1v-6.113a5.162,5.162,0,0,0-5.223-5.1H635.519v.055C637.493,1471.338,637.586,1482.94,635.519,1485.148Z" transform="translate(-584.185 -1340.277)" fill="#c2def5"/>
        <path id="Path_8737" data-name="Path 8737" d="M1613.689,1276.266a1.092,1.092,0,0,1-.012.177,1.04,1.04,0,0,1-1.1.852s-1.379-.069-1.379-.069a1.423,1.423,0,0,0-.034-.232,1.988,1.988,0,0,0-.809-1.1h1.152a1.781,1.781,0,0,0,1.5-.6c.017-.028.271.141.3.159a1.041,1.041,0,0,1,.39.812Z" transform="translate(-1444.821 -1169.36)" fill="#f7af4d"/>
        <path id="Path_8738" data-name="Path 8738" d="M709.849,1299.446v.022a1.055,1.055,0,0,1-.984,1.079H595.176c-4.743,0-8.6-3.485-8.6-7.8v-5.127a7.828,7.828,0,0,1,5.158-7.149h108.32a4.684,4.684,0,0,0,.205,1.1,1.9,1.9,0,0,0,.1.232h-56.4a5.243,5.243,0,0,0-5.321,5.163v6.186a5.053,5.053,0,0,0,1.383,3.468,5.37,5.37,0,0,0,3.938,1.691l64.906.124a1,1,0,0,1,.984,1.016Z" transform="translate(-540.979 -1173.928)" fill="#f7af4d"/>
        <path id="Path_8739" data-name="Path 8739" d="M1098.92,1290.062c-1.884,2.761-1.926,14.033.132,16.216v.056h-19.183V1297.2h-6.979v9.132h-38.623a5.4,5.4,0,0,1-3.7-1.455,5.064,5.064,0,0,1-1.618-3.7v-6.186a5.244,5.244,0,0,1,5.321-5.159h56.541a1.825,1.825,0,0,0,.1.233,1.216,1.216,0,0,0,.129.232,2.894,2.894,0,0,0,1.032.856,14.015,14.015,0,0,0,3.934,1.516.933.933,0,0,0,.582,0,1.248,1.248,0,0,0,.458-.465,3.607,3.607,0,0,0,.86-2.141,1.462,1.462,0,0,0-.034-.232h1.186S1098.959,1289.992,1098.92,1290.062Z" transform="translate(-931.521 -1182.19)" fill="#c2def5"/>
        <path id="Path_8740" data-name="Path 8740" d="M708.55,1300.536l-8.1.009a9.711,9.711,0,0,1-2.273-6.76v-6.618a8.061,8.061,0,0,1,3.69-6.7h6.439a6.632,6.632,0,0,0-5.056,6.7v6.618C703.254,1297.252,705.57,1300.118,708.55,1300.536Z" transform="translate(-639.506 -1173.924)" fill="#5970b4"/>
        <path id="Path_8741" data-name="Path 8741" d="M825.746,1300.536l-8.1.009a9.791,9.791,0,0,1-2.273-6.79v-6.649a8.133,8.133,0,0,1,3.536-6.644h6.2a6.724,6.724,0,0,0-4.658,6.644v6.649C820.45,1297.237,822.766,1300.118,825.746,1300.536Z" transform="translate(-742.973 -1173.925)" fill="#5970b4"/>
        <path id="Path_8742" data-name="Path 8742" d="M774.68,897.532v.022a1.026,1.026,0,0,1-1.027,1.019h-.137s0-.009.009-.012V898.5H706a5.394,5.394,0,0,0-5.544,5.227V910A5.394,5.394,0,0,0,706,915.227h3.288v2.2l-.321,0h-1.823a10.083,10.083,0,0,1-2.324-.27c-3.823-.9-6.635-3.964-6.635-7.608v-5.176c0-4.337,4.011-7.873,8.961-7.873h66.5A1.028,1.028,0,0,1,774.68,897.532Z" transform="translate(-639.51 -834.943)" fill="#4a5da6"/>
        <path id="Path_8743" data-name="Path 8743" d="M926.314,1057.4v.022a1.02,1.02,0,0,1-1.028,1.018l-55.346.06v-2.192l55.346.064a1.028,1.028,0,0,1,1.028,1.028Z" transform="translate(-791.146 -976.029)" fill="#4a5da6"/>
        <path id="Path_8744" data-name="Path 8744" d="M790.647,913.639c-2.091,2.479-2.183,14.333.009,16.6v.056H735.438v-9.914h-9.016v9.914h-3.288a5.394,5.394,0,0,1-5.544-5.227V918.8a5.394,5.394,0,0,1,5.544-5.227h67.521v.056S790.647,913.635,790.647,913.639Z" transform="translate(-656.642 -850.011)" fill="#c2def5"/>
        <path id="Path_8745" data-name="Path 8745" d="M737.9,1070.523c-.218,1.644-1.421,4.358-2.169,8-.27,1.317-.737,2.825-1.13,4.306h0l-108.687-.047c-.548,0-.989-.278-.989-.62v-.012c0-.342.441-.625.989-.625h17.878v-.073h47.025c2.937,0,5.321-1.426,5.321-3.185v-3.823c0-1.764-2.385-3.189-5.321-3.189H653.619v6.952c0,.31-.232.479-.4.291l-4.11-4.773L645,1078.5c-.163.188-.4.017-.4-.291v-6.952H626.022v.034c.026.017.047.039.073.056H625.9c-.548,0-.989-.278-.989-.62v-.013c0-.347.441-.625.989-.625h92.891c.18.078.364.155.548.222,2.187.8,11.837.668,14.821.552a23.553,23.553,0,0,0,3.733-.339Z" transform="translate(-574.822 -988.193)" fill="#e6325c"/>
        <path id="Path_8746" data-name="Path 8746" d="M704.487,1083.212v3.823c0,1.76-2.385,3.185-5.321,3.185H634.38v-.034c2.106-1.383,2.014-8.635,0-10.129v-.034h18.579v6.954c0,.31.232.479.4.291l4.11-4.773,4.11,4.773c.163.188.4.017.4-.291v-6.952h37.19C702.1,1080.028,704.487,1081.453,704.487,1083.212Z" transform="translate(-583.18 -996.965)" fill="#c2def5"/>
        <path id="Path_8747" data-name="Path 8747" d="M893.231,611.546c-.05-.141-.1-.282-.149-.424,0,0-4.752-13.509-4.928-13.969a4.774,4.774,0,0,0-3.331-2.98l-3.476-.783c-.689-.155-1.379-.3-2.066-.465.285.07-.057.582-.057.7a2.5,2.5,0,0,1-1.084,1.83A9.113,9.113,0,0,1,876,596.8c-.043.019-.27-.132-.31-.155a9.773,9.773,0,0,1-1.418-.888,4.883,4.883,0,0,1-.993-.976,2.385,2.385,0,0,1-.253-.418,3.756,3.756,0,0,1-.184-1.572c-.171.056-.347.112-.518.176-.376.132-.792.077-1.169.228-.976.387-2.031.561-3.016.929a11.6,11.6,0,0,0-2.442,1.636,4.205,4.205,0,0,0-1.194,1.394c-.641,1.121-5.908,12.269-6.027,12.578a3.242,3.242,0,0,0-.31.942,6.192,6.192,0,0,0,.094,1.85,4.293,4.293,0,0,0,1.125,1.819c1.5,1.188,6.172-.9,6.172-.9-.043.184-.686,1.535-.811,1.878-.043.1-.077.21-.115.317a.373.373,0,0,0-.022.064l11.473,4.208s9.367-3.052,9.354-3.112C888.78,615.891,894.4,613.953,893.231,611.546Zm-7.548.163.085-3.849,1.113,1.859.253.424.222.373Z" transform="translate(-780.729 -566.81)" fill="#e6325c"/>
        <path id="Path_8748" data-name="Path 8748" d="M871.822,853.842c-1.5.112-4.773.218-6.267.33a2.478,2.478,0,0,1-.984-.06,2.117,2.117,0,0,1-1.211-1.379,7.291,7.291,0,0,1,.774-6.7l6.439,2.111Z" transform="translate(-784.921 -790.39)" fill="#f7af4d"/>
        <path id="Path_8749" data-name="Path 8749" d="M899.354,868.926a.214.214,0,0,1-.2-.288,6.2,6.2,0,0,0,.321-2.9.214.214,0,1,1,.424-.05,6.626,6.626,0,0,1-.344,3.094A.215.215,0,0,1,899.354,868.926Z" transform="translate(-816.923 -807.574)" fill="#2b2150"/>
        <path id="Path_8750" data-name="Path 8750" d="M912.283,870.539a.217.217,0,0,1-.077-.013.215.215,0,0,1-.127-.275,6.291,6.291,0,0,0,.321-2.9.214.214,0,1,1,.424-.05,6.719,6.719,0,0,1-.344,3.094.215.215,0,0,1-.2.14Z" transform="translate(-828.337 -808.999)" fill="#2b2150"/>
        <g id="Group_2564" data-name="Group 2564" transform="translate(75.086 26.155)">
          <path id="Path_8751" data-name="Path 8751" d="M1074.213,836.191a9.9,9.9,0,0,1,1.7,7.849c-.129.582-.4,1.228-.969,1.4a1.884,1.884,0,0,1-.893-.029c-1.383-.27-4.392-.7-5.774-.971l.044-6.251C1069.791,837.637,1073.981,835.916,1074.213,836.191Z" transform="translate(-1041.335 -807.826)" fill="#f7af4d"/>
          <path id="Path_8752" data-name="Path 8752" d="M1094.99,862.331a.215.215,0,0,1-.2-.137,9.264,9.264,0,0,1-.624-3.4.214.214,0,0,1,.214-.213h0a.214.214,0,0,1,.213.215,8.948,8.948,0,0,0,.6,3.247.214.214,0,0,1-.2.291Z" transform="translate(-1064.19 -827.616)" fill="#2b2150"/>
          <path id="Path_8753" data-name="Path 8753" d="M1083.32,862.858a.215.215,0,0,1-.2-.137,9.269,9.269,0,0,1-.623-3.4.214.214,0,0,1,.214-.213h0a.214.214,0,0,1,.213.215,8.937,8.937,0,0,0,.6,3.247.215.215,0,0,1-.122.277A.22.22,0,0,1,1083.32,862.858Z" transform="translate(-1053.888 -828.082)" fill="#2b2150"/>
          <path id="Path_8754" data-name="Path 8754" d="M1072.911,865.569a.215.215,0,0,1-.2-.137,9.259,9.259,0,0,1-.62-3.4.211.211,0,0,1,.215-.213.214.214,0,0,1,.213.215,8.945,8.945,0,0,0,.595,3.247.215.215,0,0,1-.123.276A.21.21,0,0,1,1072.911,865.569Z" transform="translate(-1044.693 -830.475)" fill="#2b2150"/>
          <path id="Path_8755" data-name="Path 8755" d="M875.217,784.7l-2.736.779a7.725,7.725,0,0,0-1.362-2.541c-.232-.278-4.42,1.444-5.886,2,.137,1.984-.139,4.352-.045,6.249.009,0,.03.364.03.364L858.69,789.4l-8.63,2.465-1.25-5.694-7.834-2.568a3.96,3.96,0,0,1-2.534-5l.022-.073a3.95,3.95,0,0,1,2.368-2.475c.06-.026.124-.047.188-.068a3.9,3.9,0,0,1,.586-.146,4.066,4.066,0,0,1,.771.411,2.312,2.312,0,0,0,1.648-.051l14.492,5.313,14.316-4.464a4.007,4.007,0,0,1,2.853,7.467A4.1,4.1,0,0,1,875.217,784.7Z" transform="translate(-838.242 -754.57)" fill="#2bb19e"/>
          <path id="Path_8756" data-name="Path 8756" d="M963.99,594.7h-2.523c.659-.139,1.317-.279,1.974-.423h.542a2,2,0,0,0,.007.423Z" transform="translate(-947.035 -594.282)" fill="#8396cc"/>
          <path id="Path_8757" data-name="Path 8757" d="M1041.059,594.7h-2.231a1.448,1.448,0,0,0-.072-.423h.021C1039.541,594.426,1040.3,594.565,1041.059,594.7Z" transform="translate(-1015.269 -594.282)" fill="#8396cc"/>
          <path id="Path_8758" data-name="Path 8758" d="M934.2,606.188a2.464,2.464,0,0,0,.3.423h-7.164a4.9,4.9,0,0,1,.524-.351,1.327,1.327,0,0,1,.135-.072Z" transform="translate(-916.902 -604.793)" fill="#8396cc"/>
          <path id="Path_8759" data-name="Path 8759" d="M1042.6,606.612h-7.35a2.836,2.836,0,0,0,.262-.423h6.315A5.315,5.315,0,0,1,1042.6,606.612Z" transform="translate(-1012.178 -604.794)" fill="#8396cc"/>
          <path id="Path_8760" data-name="Path 8760" d="M925.744,618.131c.22.144.444.284.668.423H916.149c.1-.144.207-.287.317-.423Z" transform="translate(-907.026 -615.337)" fill="#8396cc"/>
          <path id="Path_8761" data-name="Path 8761" d="M1030.58,618.554h-10.546l.105-.063c.191-.118.387-.237.571-.359h9.548C1030.371,618.267,1030.472,618.406,1030.58,618.554Z" transform="translate(-998.738 -615.337)" fill="#8396cc"/>
          <path id="Path_8762" data-name="Path 8762" d="M933.248,630.461h-24.32c.077-.144.155-.284.237-.423h23.89C933.126,630.177,933.189,630.318,933.248,630.461Z" transform="translate(-900.653 -625.849)" fill="#8396cc"/>
          <path id="Path_8763" data-name="Path 8763" d="M928.46,642.405H902.943c.055-.11.105-.215.16-.325a1,1,0,0,0,.047-.1h25.172C928.372,642.122,928.418,642.261,928.46,642.405Z" transform="translate(-895.367 -636.394)" fill="#8396cc"/>
          <path id="Path_8764" data-name="Path 8764" d="M897.335,653.891h2.014v.424h-2.217C897.2,654.174,897.27,654.028,897.335,653.891Z" transform="translate(-890.234 -646.908)" fill="#8396cc"/>
          <path id="Path_8765" data-name="Path 8765" d="M941.935,653.891l-1.653.424H924.4l-1.652-.424Z" transform="translate(-912.851 -646.908)" fill="#8396cc"/>
          <path id="Path_8766" data-name="Path 8766" d="M1096.83,654.315h-3.609v-.424h3.5C1096.76,654.028,1096.8,654.169,1096.83,654.315Z" transform="translate(-1063.356 -646.908)" fill="#8396cc"/>
          <path id="Path_8767" data-name="Path 8767" d="M891.529,665.841h2.688v.42h-2.9C891.387,666.119,891.459,665.978,891.529,665.841Z" transform="translate(-885.104 -657.458)" fill="#8396cc"/>
          <path id="Path_8768" data-name="Path 8768" d="M977.543,665.841l-1.636.42H970.9l-1.636-.42Z" transform="translate(-953.921 -657.458)" fill="#8396cc"/>
          <path id="Path_8769" data-name="Path 8769" d="M1097.195,666.26h-3.969v-.42h3.857c.012.051.026.1.039.15C1097.148,666.08,1097.164,666.174,1097.195,666.26Z" transform="translate(-1063.357 -657.457)" fill="#8396cc"/>
          <path id="Path_8770" data-name="Path 8770" d="M885.713,677.754h3.373v.42h-3.579C885.579,678.032,885.645,677.891,885.713,677.754Z" transform="translate(-879.974 -667.976)" fill="#8396cc"/>
          <path id="Path_8771" data-name="Path 8771" d="M1097.605,678.178h-4.379v-.42h4.251A4.289,4.289,0,0,0,1097.605,678.178Z" transform="translate(-1063.358 -667.976)" fill="#8396cc"/>
          <path id="Path_8772" data-name="Path 8772" d="M879.871,689.667h4.054v.424h-4.264C879.73,689.95,879.8,689.808,879.871,689.667Z" transform="translate(-874.813 -678.493)" fill="#8396cc"/>
          <path id="Path_8773" data-name="Path 8773" d="M1098.086,690.091h-4.859v-.424h4.709C1097.977,689.808,1098.031,689.954,1098.086,690.091Z" transform="translate(-1063.357 -678.493)" fill="#8396cc"/>
          <path id="Path_8774" data-name="Path 8774" d="M874.061,701.581H878.8V702h-4.945C873.919,701.859,873.992,701.722,874.061,701.581Z" transform="translate(-869.683 -689.011)" fill="#8396cc"/>
          <path id="Path_8775" data-name="Path 8775" d="M1098.636,702h-5.407v-.424h5.236C1098.52,701.727,1098.574,701.864,1098.636,702Z" transform="translate(-1063.359 -689.011)" fill="#8396cc"/>
          <path id="Path_8776" data-name="Path 8776" d="M868.213,713.531h5.422v.424H868C868.077,713.817,868.144,713.672,868.213,713.531Z" transform="translate(-864.52 -699.561)" fill="#8396cc"/>
          <path id="Path_8777" data-name="Path 8777" d="M1099.263,713.954h-6.036v-.424h5.839C1099.131,713.671,1099.186,713.813,1099.263,713.954Z" transform="translate(-1063.358 -699.561)" fill="#8396cc"/>
          <path id="Path_8778" data-name="Path 8778" d="M862.5,725.444h6.1v.424h-6.3C862.367,725.72,862.431,725.581,862.5,725.444Z" transform="translate(-859.487 -710.079)" fill="#8396cc"/>
          <path id="Path_8779" data-name="Path 8779" d="M1105.714,725.86h-5.7c-.077-.139-.146-.279-.225-.423h5.739C1105.59,725.576,1105.652,725.718,1105.714,725.86Z" transform="translate(-1069.148 -710.073)" fill="#8396cc"/>
          <path id="Path_8780" data-name="Path 8780" d="M866.45,737.814h-8.984a.2.2,0,0,1-.115-.039.2.2,0,0,1-.095-.171.206.206,0,0,1,.205-.21h8.682Z" transform="translate(-855.035 -720.628)" fill="#8396cc"/>
          <path id="Path_8781" data-name="Path 8781" d="M1109.19,737.728l-5.484-.022-.253-.424,5.608.022C1109.1,737.446,1109.151,737.583,1109.19,737.728Z" transform="translate(-1072.386 -720.531)" fill="#8396cc"/>
          <path id="Path_8782" data-name="Path 8782" d="M867.476,749.695h-10a.2.2,0,0,1-.1-.026.208.208,0,0,1,0-.368.167.167,0,0,1,.1-.03h9.692Z" transform="translate(-855.036 -731.114)" fill="#8396cc"/>
          <path id="Path_8783" data-name="Path 8783" d="M1101.921,749.709h-7.281c.177-.155.359-.292.542-.423h6.713a.791.791,0,0,1,.008.1C1101.913,749.489,1101.921,749.6,1101.921,749.709Z" transform="translate(-1064.606 -731.127)" fill="#8396cc"/>
          <path id="Path_8784" data-name="Path 8784" d="M867.852,761.22c-.022.039-.034.056-.047.06-.18.047-.591.218-.959.364h-9.372a.188.188,0,0,1-.107-.034.2.2,0,0,1-.1-.176.232.232,0,0,1,.034-.12v0a.223.223,0,0,1,.176-.09h10.379Z" transform="translate(-855.036 -741.663)" fill="#8396cc"/>
          <path id="Path_8785" data-name="Path 8785" d="M1082.543,761.219a1.748,1.748,0,0,1-.077.239c-.026.06-.056.124-.086.184h-9.132a2.227,2.227,0,0,0-.359-.407c-.009,0-.012-.013-.022-.017h9.682Z" transform="translate(-1045.383 -741.663)" fill="#8396cc"/>
          <path id="Path_8786" data-name="Path 8786" d="M867.209,773.136a6.3,6.3,0,0,0-.681.372.974.974,0,0,0,.119.05h-4.21a1.519,1.519,0,0,1-.229-.177,1.717,1.717,0,0,1-.22-.246Z" transform="translate(-859.21 -752.183)" fill="#8396cc"/>
          <path id="Path_8787" data-name="Path 8787" d="M923.885,773.558h-6.511c.034-.141.064-.278.086-.424h4.773Z" transform="translate(-908.107 -752.181)" fill="#8396cc"/>
          <path id="Path_8788" data-name="Path 8788" d="M1083.917,773.133a4.4,4.4,0,0,1-.506.424h-7.989l.077-.424Z" transform="translate(-1047.643 -752.181)" fill="#8396cc"/>
          <path id="Path_8789" data-name="Path 8789" d="M923.72,785.507H912.6c-.085-.039-.171-.073-.256-.107l-.155-.064c.034-.086.069-.167.1-.253h10.9a5.582,5.582,0,0,0,.527.424Z" transform="translate(-903.528 -762.731)" fill="#8396cc"/>
          <path id="Path_8790" data-name="Path 8790" d="M1079.582,785.083c-.239.094-.479.176-.715.257-.155.056-.317.112-.479.167h-5.12l.077-.424Z" transform="translate(-1045.738 -762.731)" fill="#8396cc"/>
          <path id="Path_8791" data-name="Path 8791" d="M954.117,797l-1.224.42h-16.2c-.334-.137-.672-.278-1.007-.42Z" transform="translate(-924.271 -773.25)" fill="#8396cc"/>
          <path id="Path_8792" data-name="Path 8792" d="M974.931,808.928s-1.1.292-1.455.423h-7.717c-.339-.136-.672-.279-1.007-.423Z" transform="translate(-949.935 -783.782)" fill="#8396cc"/>
        </g>
        <path id="Path_8793" data-name="Path 8793" d="M573.368,757.2l-6.1,14.127-4.962,1.293a6.618,6.618,0,0,0,.4-1.374,7.844,7.844,0,0,0-.454-3.348c-.2-.514-.664-.6-1.2-.475-.064.017-1.434.124-1.567.959-.5,3.138-1.764,3.425-2.393,3.96a1.013,1.013,0,0,0-.27.411l-8.138-.929,4.57-13.6,11.315.882,0-.017Z" transform="translate(-507.522 -711.959)" fill="#ea5e83"/>
        <path id="Path_8795" data-name="Path 8795" d="M315.646,1476.9c-.638,1.481-2.5,1.7-3.506-1.074-.4-1.1-.681-3.1-.073-4.058l.452-.465a18.228,18.228,0,0,0,2.459,2.337,10.458,10.458,0,0,0,1.49,1.032,3.594,3.594,0,0,0,.342.171,4.291,4.291,0,0,0-.257.5C316.605,1475.266,315.646,1476.9,315.646,1476.9Z" transform="translate(-298.313 -1342.404)" fill="#f5ae9e"/>
        <path id="Path_8796" data-name="Path 8796" d="M444.267,1528.341a1.394,1.394,0,0,1-.342.676,1.218,1.218,0,0,1-.676.232,18.882,18.882,0,0,1-5.223-.069,3.72,3.72,0,0,1-1.562-.51c-.98-.659-1.262-2-1.965-2.98a4.8,4.8,0,0,0-1.567-1.348l-.141,3.618a.713.713,0,0,1-.728.659h-.012a.7.7,0,0,1-.74-.634l-.278-4.461s-.107-.471-.141-.651a7.608,7.608,0,0,1,.232-4.474,3.528,3.528,0,0,1,1.653-1.8c-.012.03.043-.009,0,0a6.418,6.418,0,0,0,1.609,3.459,4.719,4.719,0,0,0,3.652.933,1.239,1.239,0,0,0,.869-.347.912.912,0,0,0,.149-.295c.582,1.708.775,3.138,2.136,3.718,1.045.442,2.372.454,3.035,1.394A3.439,3.439,0,0,1,444.267,1528.341Z" transform="translate(-403.332 -1382.399)" fill="#f7af4d"/>
        <path id="Path_8797" data-name="Path 8797" d="M454.55,1521.9c-.445.715-2.111.719-4.157-.373a4.5,4.5,0,0,1-1.875-3.232,3.653,3.653,0,0,1,.338-.185l5.043.527C454.045,1518.946,454.435,1521.548,454.55,1521.9Z" transform="translate(-419.091 -1383.728)" fill="#f5ae9e"/>
        <path id="Path_8799" data-name="Path 8799" d="M345.543,1170.85c-.936.692-1.458,6.089-1.458,6.089-.415,1.634,1.488,3.475,3.078,3.705,1.084.112,2.389-4.053,2.494-4.957a10.15,10.15,0,0,0,.884.988,1.963,1.963,0,0,0,1.191.3c.494-.305.5-.492.178-.787a5.594,5.594,0,0,1-1.007-2.374,9.288,9.288,0,0,0-1.029-2.732Z" transform="translate(-326.84 -1077.15)" fill="#f5ae9e"/>
        <path id="Path_8800" data-name="Path 8800" d="M366.145,884.734a10.534,10.534,0,0,0-2.577-3.818,72.349,72.349,0,0,0-5.283-5.094l-3.168.758c-.068.017-.132.034-.2.056-1.092.31-1.982.745-2.162,1.609l-2.372,15.716c-.445,1.755-.458,16.42-.458,16.42h5.505l.056-3.292a52.466,52.466,0,0,0,9.3.266c.732-.081,1.52-3.832,1.52-3.832.21-4.906-.086-9.928.129-14.871A11.341,11.341,0,0,0,366.145,884.734Zm-10.611,19.538L355.7,895l1.335-5.51.869,5.283Z" transform="translate(-332.047 -816.684)" fill="#2bb19e"/>
        <path id="Path_8801" data-name="Path 8801" d="M503.813,871.375,495.9,883.662a1.713,1.713,0,0,1-2.59.908l-2.316-1.558c.338,4.966.839,12.582.852,13.918-.2.03-1.8.634-1.764.227.043-.535,0-3.125,0-3.125s-.8-6.315-.886-7.162c-.149-1.571.18-10.57.188-11.212a4.359,4.359,0,0,0-.471-1.743q-1.549-3.6-3.253-7.132a1.882,1.882,0,0,0-.548-.758,1.272,1.272,0,0,0-.527-.2c-.008-.1-.022-.205-.03-.31l2.843.779c1.379.449,3.138,4.615,3.754,5.6a5.57,5.57,0,0,1,1.152,3.3l.775,1.224,5.694-7.3Z" transform="translate(-450.904 -807.584)" fill="#2bb19e"/>
        <g id="Group_2565" data-name="Group 2565" transform="translate(19.295 37.972)">
          <path id="Path_8802" data-name="Path 8802" d="M436.538,763.388a9.208,9.208,0,0,1-.711,3.027,7.917,7.917,0,0,1-1.956,2.881,5.883,5.883,0,0,1-1.062.771c.11,1.07.2,2.147.32,3.212a4.241,4.241,0,0,1,0,1.637c-.426,1.43-2.506.094-3.212-.332a12.061,12.061,0,0,1-2.943-2.616,14.529,14.529,0,0,1,.465-2.41,7.937,7.937,0,0,1-1.007-.9c-.112-.138.061-.465.053-.632a2.1,2.1,0,0,0-.3-.767,1.333,1.333,0,0,1,.222-1.233,2.945,2.945,0,0,0,.561-1.173c.081-.835-.788-1.618-.527-2.419a3.258,3.258,0,0,1,.274-.527,2.879,2.879,0,0,0-.253-2.8l9.367.261A8.565,8.565,0,0,1,436.538,763.388Z" transform="translate(-418.602 -751.61)" fill="#f5ae9e"/>
          <path id="Path_8803" data-name="Path 8803" d="M429.316,896.753c.21-4.906-.086-9.928.129-14.871a11.34,11.34,0,0,0-.291-3.917,10.534,10.534,0,0,0-2.577-3.819,72.405,72.405,0,0,0-5.283-5.094,6.587,6.587,0,0,1,1.549-.664,12.083,12.083,0,0,0,2.826,2.47c.706.424,2.788,1.76,3.21.334a4.227,4.227,0,0,0,0-1.64c-.056-.465-.1-.929-.146-1.4a1.273,1.273,0,0,1,.527.2,1.881,1.881,0,0,1,.548.758q1.709,3.532,3.253,7.132a4.356,4.356,0,0,1,.471,1.743c-.009.642-.339,9.641-.188,11.212.077.847.886,7.162.886,7.162A40.291,40.291,0,0,1,429.316,896.753Z" transform="translate(-414.35 -847.884)" fill="#a4c6e9"/>
          <path id="Path_8804" data-name="Path 8804" d="M382.457,713.393l-1.239-.073,0-.013c-.5-.03-.993-.056-1.494-.086a6.506,6.506,0,0,1-2.41-.393,7.962,7.962,0,0,0,1.96-2.885,9.681,9.681,0,0,0,.655-4.705,8.764,8.764,0,0,0-.654-2.341l-.188,0-9.179-.257c.226.006.445,1.039.471,1.2.145.892-.244,1.35-.493,2.129-.261.8.608,1.584.527,2.419-.077.809-1.2,1.543-.784,2.406a2.478,2.478,0,0,1-.6,2.943l-6.824-.347c-.493-.976.291-2.145.839-3.086a5.647,5.647,0,0,0,.612-.933c.424-1.2-1.22-2.688.608-4.118,2.539-1.978-3.035-3.873,3.873-8.648,3.767-2.607,8.922-1.2,9.662.244a6.578,6.578,0,0,1,2.788,1.558,6.085,6.085,0,0,1,1.494,4.57l-.471-.012a2.15,2.15,0,0,1,.261,1.2c-.107.886-.967,1.614-.869,2.5.086.775.882,1.349.9,2.124.013.591-.441,1.162-.274,1.734a2.416,2.416,0,0,0,.445.7,2.591,2.591,0,0,1,.393,2.175Z" transform="translate(-362.04 -695.144)" fill="#f7af4d"/>
          <path id="Path_8805" data-name="Path 8805" d="M449.823,784.765H449.8a.321.321,0,0,1-.3-.339l.029-.522a.321.321,0,0,1,.641.036l-.029.522A.321.321,0,0,1,449.823,784.765Z" transform="translate(-439.255 -773.242)" fill="#2b2150"/>
          <path id="Path_8806" data-name="Path 8806" d="M491.636,787.42h-.019a.321.321,0,0,1-.3-.339l.025-.438a.321.321,0,0,1,.641.036l-.025.438A.321.321,0,0,1,491.636,787.42Z" transform="translate(-476.17 -775.658)" fill="#2b2150"/>
          <path id="Path_8807" data-name="Path 8807" d="M463.948,780.744a1.312,1.312,0,0,1-.995-.355.321.321,0,0,1,.47-.438c.2.211.7.148.967.115,0-.016.029-.083.027-.1l-.362-3.7a.321.321,0,1,1,.639-.063l.361,3.681a.682.682,0,0,1-.585.821,4.174,4.174,0,0,1-.522.04Z" transform="translate(-451.054 -766.45)" fill="#2b2150"/>
          <path id="Path_8808" data-name="Path 8808" d="M454.281,821.4a2.774,2.774,0,0,1-.869.31,4.248,4.248,0,0,1-.758.064,4.806,4.806,0,0,1-1.46-.218c.321.518.847.672,1.644.51a.321.321,0,0,1,.129.63,3.545,3.545,0,0,1-.676.073,1.936,1.936,0,0,1-1.965-1.648.424.424,0,0,1,.056-.381.392.392,0,0,1,.291-.137.309.309,0,0,1,.232.111l.022.012c.06.034.1.06.146.085a3.936,3.936,0,0,0,2.222.266,2.084,2.084,0,0,0,.664-.232.321.321,0,1,1,.325.552Z" transform="translate(-439.962 -805.908)" fill="#2b2150"/>
          <path id="Path_8809" data-name="Path 8809" d="M487.422,803.452a1.414,1.414,0,0,0,2.537.937l0,0c.108-.257.2-.519.283-.789a1.414,1.414,0,1,0-2.825-.144Z" transform="translate(-472.731 -789.586)" fill="#ee7e94"/>
          <path id="Path_8810" data-name="Path 8810" d="M431.622,800.184a1.414,1.414,0,0,1-2.581.715,2.815,2.815,0,0,0,.518-1.1,1.753,1.753,0,0,0-.171-.847,1.4,1.4,0,0,1,.9-.261A1.413,1.413,0,0,1,431.622,800.184Z" transform="translate(-421.189 -786.561)" fill="#ee7e94"/>
          <path id="Path_8811" data-name="Path 8811" d="M488.933,772.918a.32.32,0,0,1-.124-.025,2.709,2.709,0,0,0-1.007-.208.322.322,0,0,1-.317-.325.31.31,0,0,1,.325-.317,3.356,3.356,0,0,1,1.243.258.321.321,0,0,1-.124.62Z" transform="translate(-472.791 -763.035)" fill="#2b2150"/>
          <path id="Path_8812" data-name="Path 8812" d="M443.324,769.967a.321.321,0,0,1-.09-.63,3.36,3.36,0,0,1,1.265-.115.321.321,0,0,1-.065.639,2.714,2.714,0,0,0-1.02.093A.317.317,0,0,1,443.324,769.967Z" transform="translate(-433.517 -760.53)" fill="#2b2150"/>
          <path id="Path_8813" data-name="Path 8813" d="M477.656,713.149a.214.214,0,0,1-.1-.027,4.105,4.105,0,0,0-1.394-.5.214.214,0,0,1,.063-.424,4.539,4.539,0,0,1,1.544.552.214.214,0,0,1-.1.4Z" transform="translate(-462.622 -710.197)" fill="#2b2150"/>
          <path id="Path_8814" data-name="Path 8814" d="M406.418,732.427a.21.21,0,0,1-.07-.012.214.214,0,0,1-.132-.273,3.386,3.386,0,0,1,1.379-1.88.214.214,0,1,1,.223.366,2.981,2.981,0,0,0-1.2,1.656A.214.214,0,0,1,406.418,732.427Z" transform="translate(-401.028 -726.121)" fill="#2b2150"/>
          <path id="Path_8815" data-name="Path 8815" d="M409.438,792.147a.214.214,0,0,1-.214-.212,4.8,4.8,0,0,0-.06-.62,2.583,2.583,0,0,1,.441-2.153,4.973,4.973,0,0,0,.318-.6,2.361,2.361,0,0,0-.182-2.131.215.215,0,0,1,.362-.232,2.8,2.8,0,0,1,.216,2.523,5.387,5.387,0,0,1-.343.654,2.184,2.184,0,0,0-.387,1.878,5.232,5.232,0,0,1,.063.677.214.214,0,0,1-.212.215Z" transform="translate(-403.587 -775.444)" fill="#2b2150"/>
        </g>
        <g id="Group_2567" data-name="Group 2567" transform="translate(14.56 86.695)">
          <g id="Group_2566" data-name="Group 2566">
            <path id="Path_8816" data-name="Path 8816" d="M321.718,1472.22v.387c-.077-.078-.115-.122-.115-.122C321.643,1472.39,321.683,1472.305,321.718,1472.22Z" transform="translate(-321.603 -1429.911)" fill="#ea5e83"/>
            <path id="Path_8817" data-name="Path 8817" d="M335.841,1433.98v6.723c-.174-.136-.338-.277-.5-.417v-5.212C335.514,1434.7,335.678,1434.336,335.841,1433.98Z" transform="translate(-333.735 -1396.15)" fill="#ea5e83"/>
            <path id="Path_8818" data-name="Path 8818" d="M352.806,1397.87v11.94c-.1.141-.155.214-.155.214a3.71,3.71,0,0,1-.343-.17V1398.9C352.478,1398.544,352.642,1398.2,352.806,1397.87Z" transform="translate(-348.712 -1364.27)" fill="#ea5e83"/>
            <path id="Path_8819" data-name="Path 8819" d="M369.771,1364.24v13.077c-.174.242-.343.476-.5.7V1365.19C369.444,1364.86,369.613,1364.55,369.771,1364.24Z" transform="translate(-363.69 -1334.58)" fill="#ea5e83"/>
            <path id="Path_8820" data-name="Path 8820" d="M386.735,1333.97v13.815c-.169.238-.333.471-.5.7v-13.674C386.413,1334.512,386.577,1334.233,386.735,1333.97Z" transform="translate(-378.667 -1307.857)" fill="#ea5e83"/>
            <path id="Path_8821" data-name="Path 8821" d="M403.7,1144.613v6.684a15.027,15.027,0,0,0-.5-2.025v-4.717C403.373,1144.574,403.537,1144.6,403.7,1144.613Z" transform="translate(-393.645 -1140.629)" fill="#ea5e83"/>
            <path id="Path_8822" data-name="Path 8822" d="M403.2,1311.661c.2-.268.368-.736.5-.891v13.759c-.164.225-.333.451-.5.676Z" transform="translate(-393.644 -1287.371)" fill="#ea5e83"/>
            <path id="Path_8823" data-name="Path 8823" d="M420.665,1146.281v30.171c-.164.232-.333.465-.5.7V1146.25C420.333,1146.266,420.5,1146.273,420.665,1146.281Z" transform="translate(-408.622 -1142.127)" fill="#ea5e83"/>
            <path id="Path_8824" data-name="Path 8824" d="M437.629,1147.313v27.263c-.164.229-.328.465-.5.7v-27.985A4.764,4.764,0,0,0,437.629,1147.313Z" transform="translate(-423.599 -1143.047)" fill="#ea5e83"/>
            <path id="Path_8825" data-name="Path 8825" d="M440.823,1507.127l.064-1.317v1.317Z" transform="translate(-426.857 -1459.566)" fill="#ea5e83"/>
            <path id="Path_8826" data-name="Path 8826" d="M454.606,1147.976v43.436l-.5-.051v-43.4Z" transform="translate(-438.587 -1143.639)" fill="#ea5e83"/>
            <path id="Path_8827" data-name="Path 8827" d="M471.563,1148.07v43.642l-.5-.051V1148.1A3.171,3.171,0,0,0,471.563,1148.07Z" transform="translate(-453.557 -1143.734)" fill="#ea5e83"/>
            <path id="Path_8828" data-name="Path 8828" d="M488.518,1116.75v47.417a.253.253,0,0,1-.017.1l-.475-.051a.156.156,0,0,1,0-.047v-46.1l.347-1.3A1.4,1.4,0,0,0,488.518,1116.75Z" transform="translate(-468.526 -1116.083)" fill="#ea5e83"/>
            <path id="Path_8829" data-name="Path 8829" d="M505.488,1112.77v35.987l-.5,3.985v-39.927Z" transform="translate(-483.508 -1112.569)" fill="#ea5e83"/>
            <path id="Path_8830" data-name="Path 8830" d="M522.455,1111.06v20.764c-.284,2.07-.487,3.4-.487,3.4l-.01.077v-24.19C522.121,1111.091,522.29,1111.075,522.455,1111.06Z" transform="translate(-498.486 -1111.06)" fill="#ea5e83"/>
          </g>
        </g>
        <path id="Path_8831" data-name="Path 8831" d="M801.6,991.66l-4.112-4.773-4.11,4.777c-.162.188-.4.016-.4-.29V971.728H802v19.641C802,991.675,801.761,991.849,801.6,991.66Z" transform="translate(-723.2 -901.355)" fill="#f7af4d"/>
        <path id="Path_8832" data-name="Path 8832" d="M1412.707,1368.475l-3.183-3.7-3.182,3.7c-.125.146-.31.012-.31-.225l.106-14.8h6.875v14.8C1413.017,1368.491,1412.831,1368.622,1412.707,1368.475Z" transform="translate(-1264.433 -1238.356)" fill="#313c85"/>
        <path id="Path_8833" data-name="Path 8833" d="M716.164,1504.205l-2.479-2.877-2.479,2.877c-.1.114-.24.009-.24-.175V1492.2H716.4v11.833C716.4,1504.221,716.259,1504.321,716.164,1504.205Z" transform="translate(-650.798 -1360.854)" fill="#e6325c"/>
        <path id="Path_8834" data-name="Path 8834" d="M721.114,1490.38H693.758a.214.214,0,1,0,0,.428h1.507v11.463a.579.579,0,0,0,.1.342.445.445,0,0,0,.7.039l2.231-2.594,2.234,2.595a.441.441,0,0,0,.334.162.506.506,0,0,0,.471-.542V1490.81h19.774a.214.214,0,0,0,0-.428ZM700.7,1501.859l-2.153-2.5a.326.326,0,0,0-.484,0l-2.153,2.5v-11.049h4.79v11.051Z" transform="translate(-635.412 -1359.248)" fill="#2b2150"/>
        <path id="Path_8835" data-name="Path 8835" d="M679.157,788.96l1.613-4,4.88-.886-1.761,4.1Z" transform="translate(-622.711 -735.681)" fill="#f7af4d"/>
        <path id="Path_8836" data-name="Path 8836" d="M691.31,801.768a.214.214,0,0,1-.043-.424l3.046-.62a.214.214,0,1,1,.086.419l-3.046.62A.216.216,0,0,1,691.31,801.768Z" transform="translate(-633.251 -750.379)" fill="#2b2150"/>
        <path id="Path_8837" data-name="Path 8837" d="M936.809,652.171v11.961c-.363.128-1.575,1.293-1.751,1.232-.223-.077-1.021-.747-1.276-.791a3.232,3.232,0,0,1-1.246-.6c-.2-.141-.387-.291-.569-.424-.479-.368-.882-.642-1.139-.465-.225.155-.077.685-.022.886.1.342.465,1.028.592,1.365l-1.358-.387c-1.443-.479-3.481-1.162-4.264-.565a1.687,1.687,0,0,0-.737.989,1.353,1.353,0,0,0,.3.972,7.665,7.665,0,0,0,1.239,1.387l-.039.012-.012,0-.017,0-3.8-.976-1.653-.424-2.932-.754a6,6,0,0,0,.62-.218c.368-.146.779-.317.959-.364.012,0,.026-.022.047-.06.026-.06.064-.171.112-.31a17.952,17.952,0,0,0,4.957-1.091,4.16,4.16,0,0,0,1.691-1.394,8.014,8.014,0,0,0,.861-1.4,2.516,2.516,0,0,0,.25-.965,1.651,1.651,0,0,0-.8-1.4,3.921,3.921,0,0,0-.445-.257,2.571,2.571,0,0,0-1.909.257,18.391,18.391,0,0,0-1.922.976c-.274.155-.531.3-.758.424a4.475,4.475,0,0,1-.749.355,5.819,5.819,0,0,0,.137-.779,3.154,3.154,0,0,0,.193-.976c-.024-.473-.261-.759-.7-.424a3.578,3.578,0,0,0-.428.424c-.278.3-.586.672-.925.976a2.463,2.463,0,0,1-.762.488,2.142,2.142,0,0,0-.737.908,2.547,2.547,0,0,0-.244.608l-1.524.068v-9.26l.784.2,1.653.424,3.8.976,1.636.42,2.5.642,2.5-.642,1.635-.42,3.81-.976,1.652-.424Z" transform="translate(-831.856 -619.234)" fill="#f7af4d"/>
        <path id="Path_8838" data-name="Path 8838" d="M1002.547,747.452a1.937,1.937,0,0,0-1.148-1.056c-1.228-.21-2.4-1.872-2.954-1.491-.18.125-.135.861.17,1.29a4.931,4.931,0,0,1,.4.96c-.871-.071-4.512-1.8-5.622-.952-1.268.967-.8,1.682.452,3,1.516,1.592,3.362,2.042,7.978,2.229Z" transform="translate(-899.471 -701.054)" fill="#f5ae9e"/>
        <path id="Path_8839" data-name="Path 8839" d="M931.3,707.025c5.45-.754,5.955-1.4,7.142-3.253.981-1.533.788-2.568-.641-3.273-1.252-.62-4.492,1.775-5.336,2.014a4.937,4.937,0,0,1,.211-1.019c.217-.479.119-1.21-.077-1.3-.612-.269-1.448,1.588-2.614,2.029a2.806,2.806,0,0,0-.991,1.647Z" transform="translate(-843.277 -661.604)" fill="#f5ae9e"/>
        <path id="Path_8840" data-name="Path 8840" d="M947.585,516.742l.531,3.718c-.723.1-1.19-1.592-1.19-1.592C946.314,517.436,946.892,516.793,947.585,516.742Z" transform="translate(-858.883 -499.67)" fill="#f5ae9e"/>
        <path id="Path_8841" data-name="Path 8841" d="M973.582,478.767c0,.012-.321,1.87-1.635,1.914a7.79,7.79,0,0,1-3.134,4.277V486.7c0,1.76-3.219,3.181-3.219,3.181s-3.155-1.421-3.155-3.181v-1.853a8.9,8.9,0,0,1-2.817-6.092v-.006c.21-2.014.813-5.612,2.021-6.833a.753.753,0,0,1,1.182.132,2.6,2.6,0,0,0,3.96.672c1.032.6,3.049.908,3.921-.493,1.394.989,1.246,5.732,1.426,7.621l.659-2.817.017-.188a.852.852,0,0,1,.364.043C973.869,477.123,973.787,477.838,973.582,478.767Z" transform="translate(-870.319 -459.888)" fill="#f5ae9e"/>
        <path id="Path_8842" data-name="Path 8842" d="M986.821,522.541a.321.321,0,0,1-.321-.321v-.72a.321.321,0,0,1,.642,0v.72A.322.322,0,0,1,986.821,522.541Z" transform="translate(-894.049 -503.588)" fill="#2b2150"/>
        <path id="Path_8843" data-name="Path 8843" d="M1037.846,522.532a.321.321,0,0,1-.321-.321v-.72a.321.321,0,1,1,.642,0v.72a.321.321,0,0,1-.321.321Z" transform="translate(-939.1 -503.579)" fill="#2b2150"/>
        <path id="Path_8844" data-name="Path 8844" d="M1028.95,538.357a1.46,1.46,0,1,0,1.46-1.46A1.46,1.46,0,0,0,1028.95,538.357Z" transform="translate(-931.526 -517.464)" fill="#ee7e94"/>
        <path id="Path_8845" data-name="Path 8845" d="M970.394,537.505a1.46,1.46,0,1,0,1.46-1.46,1.46,1.46,0,0,0-1.46,1.46Z" transform="translate(-879.83 -516.712)" fill="#ee7e94"/>
        <path id="Path_8846" data-name="Path 8846" d="M967.173,436.71l-.356,4.316-.659,2.817c-.18-1.888-.034-6.632-1.426-7.621-.873,1.4-2.89,1.091-3.921.493a2.6,2.6,0,0,1-3.96-.672.754.754,0,0,0-1.182-.132c-1.379,1.394-1.973,5.9-2.091,7.586l-.465-2.444-.257-4.448c0-1.956,1.926-4.812,3.994-4.812h.256c.749,0,1.764.214,2.286-.325a1.9,1.9,0,0,1,1.37-.561,1.807,1.807,0,0,1,1.682,1.036c.043-.009.1.024.129-.009.843-1.028,2.312.3,2.1.766C965.6,432.434,967.173,435.046,967.173,436.71Z" transform="translate(-864.347 -423.887)" fill="#4b3584"/>
        <path id="Path_8847" data-name="Path 8847" d="M1000.461,565.007a2.175,2.175,0,0,1-1.509-.582.321.321,0,1,1,.452-.457,1.542,1.542,0,0,0,1.084.4,1.479,1.479,0,0,0,1.062-.445.321.321,0,0,1,.465.442,2.115,2.115,0,0,1-1.517.644Z" transform="translate(-904.957 -541.233)" fill="#2b2150"/>
        <path id="Path_8848" data-name="Path 8848" d="M1249.58,1351.355h-8.031a.214.214,0,0,1,0-.428h8.031a.214.214,0,0,1,0,.428Z" transform="translate(-1119.031 -1236.13)" fill="#2b2150"/>
        <path id="Path_8849" data-name="Path 8849" d="M1324.833,1082.821h-3.491l.021-.064a19.891,19.891,0,0,0,.027-12.529l-.049-.148h3.491l.049.148a19.894,19.894,0,0,1-.027,12.529Z" transform="translate(-1189.666 -988.186)" fill="#2bb19e"/>
        <path id="Path_8850" data-name="Path 8850" d="M1378.854,1082.821h-3.491l.021-.064a19.891,19.891,0,0,0,.028-12.529l-.049-.148h3.491l.049.148a19.893,19.893,0,0,1-.027,12.529Z" transform="translate(-1237.358 -988.186)" fill="#2bb19e"/>
        <path id="Path_8851" data-name="Path 8851" d="M1433.354,1082.821h-3.491l.021-.064a19.891,19.891,0,0,0,.027-12.529l-.048-.148h3.491l.049.148a19.893,19.893,0,0,1-.028,12.529Z" transform="translate(-1285.473 -988.186)" fill="#2bb19e"/>
        <g id="Group_2568" data-name="Group 2568" transform="translate(160.133 98.353)">
          <path id="Path_8852" data-name="Path 8852" d="M1656.19,1238.739a1.1,1.1,0,0,1-.176.565.843.843,0,0,1-.476.249,12.9,12.9,0,0,1-3.84.441,2.664,2.664,0,0,1-1.2-.257c-.792-.428-1.147-1.46-1.768-2.162a3.315,3.315,0,0,0-.9-.71l.253,2.5a.549.549,0,0,1-1.084.155s-.62-3.176-.62-3.215a.889.889,0,0,1-.424-.227,1.045,1.045,0,0,1-.188-.387,6.628,6.628,0,0,1-.338-3.437c.542-.039,1.122-.115,1.7-.21a4.605,4.605,0,0,0,1.246,1.276c3.155,2.014,3.767,1.549,3.574.527a3.4,3.4,0,0,0,1.516,1.819c.8.325,1.789.133,2.385.813A2.907,2.907,0,0,1,1656.19,1238.739Z" transform="translate(-1635.83 -1229.529)" fill="#e6325c"/>
          <path id="Path_8853" data-name="Path 8853" d="M1661.987,1227.421a4.615,4.615,0,0,1-1.245-1.276c1.721-.282,3.4-.711,3.8-.784l.026.24a.394.394,0,0,0,.047.141c.094.163.193.347.3.548,0,0,0,.009.008.013v0a6.572,6.572,0,0,1,.637,1.614v0a.016.016,0,0,1,0,.013s0,0,0,.009C1665.759,1228.97,1665.148,1229.434,1661.987,1227.421Z" transform="translate(-1649.44 -1223.629)" fill="#f5ae9e"/>
          <path id="Path_8854" data-name="Path 8854" d="M1568.158,1213.047l-.107.274c-.1,2.214-.411,6.036-3.078.047a9.759,9.759,0,0,1-.737-2.8c1.162.758,2.509,1.52,3.51,2.269A.991.991,0,0,0,1568.158,1213.047Z" transform="translate(-1564.237 -1210.565)" fill="#f5ae9e"/>
        </g>
        <path id="Path_8855" data-name="Path 8855" d="M1425.641,972.649a38.02,38.02,0,0,1-6.2,1.036s-1.023-5.446-1.665-7.192c-1.122,2.47-2.526,5.056-2.856,6.606a.448.448,0,0,1-.3.287c-.2.073-.415-.064-.591-.2-1.317-.984-3.224-1.991-4.538-2.98.31-2.26,1.336-5.073,1.8-7.312.749-3.64,1.953-6.357,2.169-8a23.484,23.484,0,0,1-3.733.342c-2.984.115-12.634.244-14.821-.552a7.115,7.115,0,0,1-4.56-4.289c-.706-2.372.394-4.868,1.465-7.1.454-.942,1.109-3.339,1.511-4.174.012,0,.022,0,.034,0l.343.115c-.351.826-.737,1.687-1.169,2.581a.391.391,0,0,0,.039.022,28.936,28.936,0,0,0,10.3,3.207c3.588.3,4.57-1.225,4.821-2.316.021-.094.034-.184.047-.27v0a4.63,4.63,0,0,1,.022-.465c0-.022,0-.043,0-.064,0,0,0,0,0-.008.013-.133.025-.31.039-.518,2.577.505,9.5,2.722,13.224,3.981a6.487,6.487,0,0,1,2.534,1.729c.947,1.443.993,15.464,1.173,17.749C1424.944,967.51,1425.277,968.791,1425.641,972.649Z" transform="translate(-1250.395 -872.567)" fill="#f7af4d"/>
        <path id="Path_8856" data-name="Path 8856" d="M1413.626,776.876l-2.62.92a1.376,1.376,0,0,1-1.755-.839l-.227-.642a26.593,26.593,0,0,0-.542,3.628c-.078,1.358.144,3-.879,4.075s-2.754,1.154-4.145,1.039a28.943,28.943,0,0,1-10.3-3.207.375.375,0,0,1-.039-.022c.432-.895.818-1.755,1.169-2.582l-.642-.214c-.723-.244-1.426-.479-1.5-.513a2.474,2.474,0,0,1-1.323-2.727l1.936-11.431.394-2.6a2.042,2.042,0,0,1,.274-.95,3.241,3.241,0,0,1,1.477-1.211c.266-.124,3.536-1.394,3.96-1.575a2.654,2.654,0,0,1,.4-.124.3.3,0,0,1-.013.03,2.619,2.619,0,0,0,.8,1.9c2.273,1.674,4.667.869,4.868-1.032l.021-.03-.06-.723a7.01,7.01,0,0,1,.976.184c1.572.214,2.359.479,2.86,2.312a5.1,5.1,0,0,0,.4.942s-.882,5.775-.882,5.78l-1.635.655,1.248,2.763.053.589-.929,4.285Z" transform="translate(-1250.976 -712.572)" fill="#4b3584"/>
        <path id="Path_8857" data-name="Path 8857" d="M1393.314,605.177a3.254,3.254,0,0,1-1.451.878c-1.225.488-2.9-.291-4.2-.5a5.054,5.054,0,0,0-4.713,2.2,1.472,1.472,0,0,0-2.192-1.049,1.085,1.085,0,0,0-.342,1.284,6.145,6.145,0,0,0,.232.676,8.328,8.328,0,0,1,1.049,3.086,10.4,10.4,0,0,1-1.177-1.118,5.755,5.755,0,0,1-.542,2.072,4.994,4.994,0,0,1-3.755,2.475,9.223,9.223,0,0,1-4.606-.672c1.417-.62,2.839-1.614,3.168-3.1.287-1.284-.2-2.7-.369-3.986a17.677,17.677,0,0,1-.18-3.429c.141-2.209,1.028-4.375,3.335-5.124a4.879,4.879,0,0,1,4.02.483c.026.017.047.03.068.047a.511.511,0,0,1,.06.043.3.3,0,0,1,.06-.043,6.96,6.96,0,0,1,5.711-.595,7.385,7.385,0,0,1,3.892,2.53C1392.655,601.924,1394.22,603.777,1393.314,605.177Z" transform="translate(-1234.049 -571.825)" fill="#ea5e83"/>
        <path id="Path_8858" data-name="Path 8858" d="M1458.96,659.327a15.151,15.151,0,0,1-.387,1.909,12.43,12.43,0,0,1-.651,1.841c-.925,2.059-2.359,3.523-4.281,3.626l.129,1.88c-.2,1.9-2.595,2.705-4.868,1.032a2.619,2.619,0,0,1-.8-1.9,11.827,11.827,0,0,0,.874-3.292,9.954,9.954,0,0,1-1.589-2.2l.077.064c-.355-2.359-.775-2.038-1.28-3.763-.522-1.781,2.042-2.119,2.534-.232a5.054,5.054,0,0,1,4.713-2.2c1.3.21,2.975.989,4.2.5a3.253,3.253,0,0,0,1.451-.878,13.458,13.458,0,0,1-.121,3.605Z" transform="translate(-1299.817 -622.367)" fill="#f5ae9e"/>
        <path id="Path_8859" data-name="Path 8859" d="M1506.8,721.909a2.309,2.309,0,0,1-1.413-.444c-.036-.029-.069-.06-.1-.092a.348.348,0,0,1-.036-.474.3.3,0,0,1,.431-.036l.019.018c.05.047.078.07.1.091a1.756,1.756,0,0,0,1.4.246,1.145,1.145,0,0,0,.428-.214.321.321,0,1,1,.409.495,1.788,1.788,0,0,1-.669.339,2.156,2.156,0,0,1-.565.071Z" transform="translate(-1351.953 -679.811)" fill="#2b2150"/>
        <path id="Path_8860" data-name="Path 8860" d="M1477.988,634.271a.214.214,0,0,1-.132-.382,3.233,3.233,0,0,1,2.036-.654.2.2,0,0,1,.217.211.214.214,0,0,1-.211.217,2.823,2.823,0,0,0-1.776.562.212.212,0,0,1-.133.046Z" transform="translate(-1327.77 -602.516)" fill="#2b2150"/>
        <path id="Path_8861" data-name="Path 8861" d="M1402.585,713.979c-.088,0-.177,0-.269-.012a.214.214,0,0,1-.194-.232.217.217,0,0,1,.232-.194,3.363,3.363,0,0,0,2.943-1.74.214.214,0,1,1,.358.232,3.861,3.861,0,0,1-3.07,1.945Z" transform="translate(-1260.979 -671.793)" fill="#2b2150"/>
        <path id="Path_8862" data-name="Path 8862" d="M1485.541,696.881a1.444,1.444,0,1,1-1.317-1.561A1.444,1.444,0,0,1,1485.541,696.881Z" transform="translate(-1332.085 -657.322)" fill="#ee7e94"/>
        <path id="Path_8863" data-name="Path 8863" d="M1455.178,677.863a.213.213,0,0,1-.17-.084,2.221,2.221,0,0,1-.522-1.255.211.211,0,0,1,.232-.2.214.214,0,0,1,.195.232,1.9,1.9,0,0,0,.436.959.214.214,0,0,1-.17.344Z" transform="translate(-1307.207 -640.56)" fill="#2b2150"/>
        <path id="Path_8864" data-name="Path 8864" d="M1542.086,686.061h-.028a.321.321,0,0,1-.293-.347l.038-.446a.325.325,0,0,1,.347-.293.321.321,0,0,1,.293.347l-.038.446A.321.321,0,0,1,1542.086,686.061Z" transform="translate(-1384.266 -648.192)" fill="#2b2150"/>
        <path id="Path_8865" data-name="Path 8865" d="M1499.726,684.915h-.028a.321.321,0,0,1-.293-.347l.035-.411a.321.321,0,0,1,.64.055l-.035.411A.322.322,0,0,1,1499.726,684.915Z" transform="translate(-1346.868 -647.213)" fill="#2b2150"/>
        <path id="Path_8866" data-name="Path 8866" d="M1535.49,700.006c-.029.108-.062.217-.094.325a13.269,13.269,0,0,1-.687,1.818c-.084.18-.172.357-.262.524a1.419,1.419,0,0,1-.9-1.544,1.394,1.394,0,0,1,1.5-1.266,1.185,1.185,0,0,1,.438.142Z" transform="translate(-1377.001 -661.33)" fill="#ee7e94"/>
        <path id="Path_8867" data-name="Path 8867" d="M1549.171,760.233l-3.481,16.645-6.092,2.8-.078.039h0l-3.891-.775-6.649-1.328.651-4.255,6.935-1.374a1.322,1.322,0,0,0,.955-1.549v-.017c-.283-1.691-3.031-2.419-4.914-2.046l-2.363.946.882-5.775.342-2.246,10.54,2.1h0Z" transform="translate(-1372.973 -714.637)" fill="#8ecfd4"/>
        <path id="Path_8868" data-name="Path 8868" d="M1533.743,832.553l-6.5,1.283-1.462-3.289,4-1.609c1.884-.372,4.632.357,4.913,2.049V831A1.323,1.323,0,0,1,1533.743,832.553Z" transform="translate(-1370.157 -775.209)" fill="#f5ae9e"/>
        <path id="Path_8869" data-name="Path 8869" d="M1664.207,824.721c.068-.847-1.714-.612-2.2.083a4.485,4.485,0,0,0-.715,1.323c-.289,1.029-.3,4.165.417,4.224a7.494,7.494,0,0,0,1.572-.026.656.656,0,0,0,.3-.259,46.894,46.894,0,0,0,.632-5.346Z" transform="translate(-1489.625 -771.091)" fill="#f5ae9e"/>
        <path id="Path_8870" data-name="Path 8870" d="M1646.327,795.494a.214.214,0,0,1-.083-.411l4.069-1.7a.214.214,0,1,1,.165.4l-4.069,1.7A.216.216,0,0,1,1646.327,795.494Z" transform="translate(-1476.389 -743.889)" fill="#2b2150"/>
        <path id="Path_8871" data-name="Path 8871" d="M1643.967,804.114a.214.214,0,0,1-.082-.412l4.069-1.7a.214.214,0,1,1,.165.4l-4.068,1.7a.208.208,0,0,1-.083.017Z" transform="translate(-1474.305 -751.499)" fill="#2b2150"/>
        <path id="Path_8872" data-name="Path 8872" d="M1023.44,689.018v-3.925l6.521-1.781v3.963Z" transform="translate(-926.662 -646.727)" fill="#c2def5"/>
        <path id="Path_8873" data-name="Path 8873" d="M1050.747,695.2a.214.214,0,0,1-.057-.421l2.4-.661a.214.214,0,0,1,.114.413l-2.4.661A.215.215,0,0,1,1050.747,695.2Z" transform="translate(-950.578 -656.263)" fill="#2b2150"/>
        <path id="Path_8874" data-name="Path 8874" d="M1027.087,702.815a.214.214,0,0,1-.057-.421l1.873-.516a.214.214,0,0,1,.114.413l-1.873.516A.21.21,0,0,1,1027.087,702.815Z" transform="translate(-929.691 -663.112)" fill="#2b2150"/>
        <path id="Path_8875" data-name="Path 8875" d="M1027.577,707.477a.214.214,0,0,1-.057-.421l5.175-1.424a.214.214,0,0,1,.114.413l-5.175,1.424A.213.213,0,0,1,1027.577,707.477Z" transform="translate(-930.123 -666.425)" fill="#2b2150"/>
        <path id="Path_8876" data-name="Path 8876" d="M617.257,850.714l2.922,1.371c.5-.794,2.118-1.672,2.479-2.539a6,6,0,0,0,.049-5c-.2-.515-.664-.606-1.2-.475-.067.016-1.437.125-1.57.957-.5,3.139-1.764,3.425-2.39,3.96A1.723,1.723,0,0,0,617.257,850.714Z" transform="translate(-567.971 -788.609)" fill="#f5ae9e"/>
        <path id="Path_8877" data-name="Path 8877" d="M628.345,462.117a9.382,9.382,0,1,0-16.306,6.991,8.51,8.51,0,0,1,2.187,4.6,1.142,1.142,0,0,0,1.122.984h7.3a1.132,1.132,0,0,0,1.126-.981,8.59,8.59,0,0,1,2.153-4.589A9.319,9.319,0,0,0,628.345,462.117Zm-2.894,6.576a9.236,9.236,0,0,0-2.324,4.931.49.49,0,0,1-.488.428h-3.434v-5.317l2.92-3.481a.213.213,0,1,0-.325-.274l-2.808,3.348-2.808-3.348a.216.216,0,0,0-.3-.026.211.211,0,0,0-.025.3l2.924,3.481v5.317h-3.429a.49.49,0,0,1-.488-.432,9.127,9.127,0,0,0-2.346-4.945,8.741,8.741,0,0,1,6.477-14.612q.314,0,.63.026a8.739,8.739,0,0,1,5.831,14.6Z" transform="translate(-561.306 -443.77)" fill="#2b2150"/>
        <path id="Path_8878" data-name="Path 8878" d="M385.169,568.2H364.911a8.08,8.08,0,0,0,5.985-7.505v-5.012a8.015,8.015,0,0,0-5.634-7.38h.24a1.345,1.345,0,0,0,0-2.688.056.056,0,0,0-.026,0l-.039-.047c-1.936-2.059-1.965-13.207-.077-15.84a1.328,1.328,0,0,0,1.276-1.353,1.342,1.342,0,0,0-.6-1.121c.008-.047.013-5.338.013-5.338.085.437.137.715.141.732.09.3.359.257.608.27a7.853,7.853,0,0,0,.424,3.176,1.364,1.364,0,0,0,.253.5.907.907,0,0,0,.368.248s.595,3.035.595,3.039a.873.873,0,0,0,1.721-.253l-.18-1.8a4.239,4.239,0,0,1,.847,1.079,3.692,3.692,0,0,0,1.276,1.413,2.952,2.952,0,0,0,1.34.3,12.6,12.6,0,0,0,3.938-.449,1.182,1.182,0,0,0,.638-.356,1.379,1.379,0,0,0,.244-.728,3.131,3.131,0,0,0-.415-2.513,2.482,2.482,0,0,0-1.635-.7,3.757,3.757,0,0,1-.865-.2,3.114,3.114,0,0,1-1.331-1.626c-.244-.522-.865-2.059-.984-2.273a.543.543,0,0,1-.017-.291,25.089,25.089,0,0,0-.441-3.374c-.2-1.447-.364-2.6-.449-4.2,0-.051-.094-2.188-.146-3.994-.155-5.758-.334-11.084-.792-13.224a3.988,3.988,0,0,0-2.5-2.5,22.463,22.463,0,0,0-2.517-.882c-1.345-.441-5.7-1.806-6.5-2.046-.155-.047-4.516-1.225-4.516-1.225.069-1.062.287-2.693.449-3.718a1.686,1.686,0,0,0,1.987.676l2.539-.895s3.845.766,3.873.766c.051,0,6.3-2.86,6.3-2.86a.322.322,0,0,0,.18-.227l.578-2.749a.6.6,0,0,0,.085-.009.865.865,0,0,0,.565-.493,44.97,44.97,0,0,0,.647-5.4.852.852,0,0,0-.017-.232l1.627-7.758a.331.331,0,0,0-.115-.317.31.31,0,0,0-.329-.043l-7.072,3.121L356,467.816a.321.321,0,0,0-.249.051.31.31,0,0,0-.132.214l-.146.955q-.137-.3-.244-.62c-.51-1.584-2.839-1.665-3.3-1.665a1.807,1.807,0,0,0-.266.03l-.051-.689c1.747-.232,3.228-1.554,4.23-3.78a12.617,12.617,0,0,0,.6-1.674,2.076,2.076,0,0,0,1.22-1.712,2.044,2.044,0,0,0-.62-1.657,11.238,11.238,0,0,0,0-2.376,2.1,2.1,0,0,0,.155-1.648,4.453,4.453,0,0,0-2.256-2.53c-.039-.034-.09-.1-.163-.18a7.181,7.181,0,0,0-3.81-2.385,7.28,7.28,0,0,0-5.852.565,5.3,5.3,0,0,0-4.255-.5c-2.114.689-3.373,2.612-3.549,5.411a17.775,17.775,0,0,0,.176,3.493c.051.368.124.749.2,1.122a7.051,7.051,0,0,1,.18,2.753c-.321,1.434-1.8,2.355-2.984,2.873a.321.321,0,0,0,.012.591,10.425,10.425,0,0,0,3.712.766,7.135,7.135,0,0,0,1.057-.077,5.332,5.332,0,0,0,3.994-2.646,5.167,5.167,0,0,0,.479-1.516c.2.188.4.376.625.557a10.513,10.513,0,0,0,1.5,2.106,11.766,11.766,0,0,1-.775,2.92s-3.049,1.186-3.159,1.225c-.954.321-2.943.984-3.014,2.812,0,0-2.444,14.561-2.449,14.59-.2,1.152.967,2.192,1.884,2.671.1.051,1.135.51,1.173.415-.167.432-.364,1.007-.561,1.618a22.7,22.7,0,0,1-.779,2.162c-1.147,2.38-2.2,4.911-1.481,7.329a5.951,5.951,0,0,0,1.394,2.359,7.327,7.327,0,0,0,1.606,1.3h-7.175a1.536,1.536,0,0,0,.012-.2,1.348,1.348,0,0,0-1.22-1.34.088.088,0,0,0-.026-.034c-2.025-2.091-2.046-13.391-.086-16.05a1.355,1.355,0,1,0-.017-2.711H307.6a10.97,10.97,0,0,0-.428-3.96l2.423-.689a4.337,4.337,0,0,0-1.3-8.459q-.141,0-.283.013a5.2,5.2,0,0,0,2.205-1.926,1.713,1.713,0,0,0,.022-1.584L305.258,452a4.917,4.917,0,0,0-3.656-3.481l-5.344-1.208v-.351a7.524,7.524,0,0,0,3.091-4.409c1.28-.244,1.635-1.936,1.67-2.136.167-.754.424-1.9-.62-2.26a1.041,1.041,0,0,0-.124-.034l.317-3.832c0-1.743-1.228-4.028-2.59-4.306a1.078,1.078,0,0,0-.171-.522,1.634,1.634,0,0,0-1.447-.728,1.2,1.2,0,0,0-.749.3,2.177,2.177,0,0,0-1.772-.865,2.224,2.224,0,0,0-1.6.659c-.31.317-.925.283-1.52.249-.264-.018-.527-.022-.792-.022-2.183,0-4.316,2.943-4.316,5.155l.232,4.059a1.248,1.248,0,0,0-.762.552,2.106,2.106,0,0,0,.077,1.961c.1.356.565,1.806,1.426,1.811a7.43,7.43,0,0,0,2.633,4.174v.334c-.381.141-.959.291-1.618.465a20.028,20.028,0,0,0-4.264,1.46,8.12,8.12,0,0,0-2.175,2.162c-.013.017-5.577,11.37-6.323,12.78a6.092,6.092,0,0,0-.3,2.8,4.823,4.823,0,0,0,.672,1.96,5.163,5.163,0,0,0-.9.432,4.714,4.714,0,0,0-.822.63,4.364,4.364,0,0,0-.368,5.775,4.293,4.293,0,0,0,2.014,1.408l.981.321a7.49,7.49,0,0,0-.895,5.422H265.077c-5.116,0-9.281,3.677-9.281,8.194v5.176a8.042,8.042,0,0,0,4.4,6.965H248.521c-.737,0-1.31.415-1.31.959,0,.527.574.937,1.31.937h.069c.809.784,1.336,2.907,1.267,5.2-.06,2.091-.8,4.028-1.451,4.345-.681.039-1.194.441-1.194.954a.66.66,0,0,0,.094.347h-4.221a.956.956,0,0,0-.955.954v10.638a.956.956,0,0,0,.955.954h3.63a8,8,0,0,0-4.264,6.923v5.129a8.164,8.164,0,0,0,5.351,7.453,1.321,1.321,0,0,0,.493,2.543h.257c1.867,2.355,1.918,13.156.146,15.646h-.4a1.239,1.239,0,0,0-1.31,1.239,1.3,1.3,0,0,0,.394.933h-9.009a1.908,1.908,0,0,0,.31-.7,3.651,3.651,0,0,0-.086-3.147c-.737-1.04-2.1-1.049-3.176-1.507a2.138,2.138,0,0,1-.7-.488,3.866,3.866,0,0,1-.728-1.383c-.317-.916-.685-1.841-.942-2.778-.056-.2-.1-.407-.149-.608-.03-.129-.283-.895-.21-.967a.31.31,0,0,0,.09-.188l3.014-24.055.022-.155c.368-2.479,1.4-9.682,1.914-15.96.013-.155.026-.31.034-.465.124-1.575.244-4.5.232-4.538.06-.017.387-.12.424-.129a.315.315,0,0,0,.274-.317c-.009-1.262-.445-7.941-.809-13.284l1.772,1.19a2.066,2.066,0,0,0,1.867.214,2.516,2.516,0,0,0,1.2-1.246l7.895-12.254a.323.323,0,0,0-.137-.465l-.325-.146a10.6,10.6,0,0,1,.83-.74,4.858,4.858,0,0,0,1.434-1.549c.017-.039.034-.081.051-.132l4.8-1.25a.3.3,0,0,0,.214-.18l6.092-14.127a.323.323,0,0,0-.359-.441l-8.8,1.888-11.225-.874a.324.324,0,0,0-.33.218l-4.57,13.6a.321.321,0,0,0,.266.42l7.779.895a2.152,2.152,0,0,0-.03.552l-.878-.394a.319.319,0,0,0-.381.1l-5.415,6.94-.488-.767c-.107-.171-.039-.74-.086-.967a4.812,4.812,0,0,0-.3-.942,16.007,16.007,0,0,0-.955-1.691c-.33-.574-1.661-3.01-1.987-3.664a2.987,2.987,0,0,0-1.811-1.841l-2.624-.72-.112-1.084a5.627,5.627,0,0,0,.818-.6s2.3.376,2.316.376a.322.322,0,0,0,.051-.637l-1.781-.3c.184,0,.775-1.007.869-1.152a9.448,9.448,0,0,0,1.007-2.209,10.062,10.062,0,0,0,.437-2.3,8.859,8.859,0,0,0-.548-3.718l1.644.047a1.956,1.956,0,0,1-.253,1.85,2.354,2.354,0,0,0,.03,2.727,1.977,1.977,0,0,1,.355,1.289c-.06.5-.368.95-.214,1.472.124.424.484.715.676,1.1.051.1.376,1.348.21,1.34l-.964-.056a.322.322,0,0,0-.034.642l1.239.073h.017a.321.321,0,0,0,.31-.232,2.9,2.9,0,0,0-.039-1.631c-.171-.531-.651-.912-.8-1.421-.155-.535.227-1,.278-1.511a2.279,2.279,0,0,0-.493-1.4,1.72,1.72,0,0,1-.009-2.08,2.622,2.622,0,0,0,.381-2.136.33.33,0,0,0,.3-.3,6.351,6.351,0,0,0-1.58-4.812,6.8,6.8,0,0,0-2.812-1.614c-.647-.984-2.778-1.743-4.979-1.743a8.935,8.935,0,0,0-5.077,1.516c-4.47,3.091-3.9,5.129-3.485,6.618.248.886.4,1.421-.4,2.038a2.5,2.5,0,0,0-.818,3.039,2.2,2.2,0,0,1,.107,1.225,7.248,7.248,0,0,1-.72,1.1c-.557.942-1.254,2.114-.72,3.168a.315.315,0,0,0,.27.176l6.828.351h.013a.321.321,0,0,0,.222-.086,3.14,3.14,0,0,0,.775-1.173c.163.15.33.291.5.428-.051.227-.364,1.926-.428,2.278,0,.009-3.279.92-4.57,1.317-1.182.334-2.169.826-2.385,1.867l-2.367,15.686c-.449,1.772-.465,15.9-.465,16.5a.321.321,0,0,0,.321.321h.214a22.729,22.729,0,0,0-1.162,5.715,2.706,2.706,0,0,0,.488,2.162,4.72,4.72,0,0,0,1.3,1.293,3.281,3.281,0,0,0,1.648.629c1.208,0,2.252-3.108,2.629-4.57a3.752,3.752,0,0,0,.5.514c.064.051.542.244.548.27.1.745.261,2.573.261,2.573.218,2.359.351,4.6.4,6.841a.321.321,0,0,0,.642-.012c-.051-2.26-.18-4.512-.4-6.888,0,0-.163-1.781-.239-2.385a.633.633,0,0,0,.364-.064.985.985,0,0,0,.548-.659.794.794,0,0,0-.322-.638,5.277,5.277,0,0,1-.911-2.2,13.21,13.21,0,0,0-.9-2.6.31.31,0,0,0,.227-.3l.051-2.943c1.374.137,3.95.355,6.319.355a24.42,24.42,0,0,0,2.705-.129c.757-.085,1.357-2.072,1.743-3.832a40.2,40.2,0,0,0,4.337-.342c.013.946.026,2.372,0,2.731-.026.329.266.488.552.488a2.579,2.579,0,0,0,.527-.073c-.184,6.794-1.712,17.552-2.183,20.7-.017.112-.026.176-.026.176L232.2,556.051l-5.891-.62.822-16.807c.18-.256,3.1-4.337,3.168-4.492a34.842,34.842,0,0,0,1.52-6.058c.163-.8,1.13-5.964,1.43-7.629.193-1.057.865-4.725,1-5.446a.321.321,0,0,0-.63-.12c-.137.72-.809,4.392-1,5.45-.3,1.661-1.272,6.816-1.43,7.616a35.44,35.44,0,0,1-1.472,5.912c-.026.064-12.265,17.356-12.392,17.535,0,0-1.34,1.9-1.486,2.106a18.5,18.5,0,0,1-1.533-1.049c-.518-.42-1.991-1.888-2.312-2.085a.1.1,0,0,0-.022-.012c.009-.017,5.407-10.548,5.9-11.507.167-.317,2.316-4.234,2.475-4.492.514-.865,1.007-1.631,1.477-2.277a.321.321,0,0,0-.522-.373c-.475.659-.981,1.443-1.5,2.316-.163.266-2.333,4.217-2.5,4.538-.5.959-5.959,11.618-6.015,11.726q-.155-.012-.31-.013a4.425,4.425,0,0,0-2.169.586,8,8,0,0,0-2.993,3.63,1.6,1.6,0,0,0-.176.5c-.03.017-2.517,3.849-2.517,3.849a1.007,1.007,0,0,0,.321,1.387,1.071,1.071,0,0,0,.62.193,1,1,0,0,0,.8-.373l1.931-2.419a3.935,3.935,0,0,1,.232,1.362,8.1,8.1,0,0,1-.155,1.276,4.508,4.508,0,0,0-.008,2.385,3.927,3.927,0,0,0,1.036,1.43,18.791,18.791,0,0,0,4.264,3.117,1.651,1.651,0,0,0,.771.24.841.841,0,0,0,.1,0,1.741,1.741,0,0,0,.843-.415,3.714,3.714,0,0,0,1.811-2.6,3.169,3.169,0,0,0-.967-2.046,5.245,5.245,0,0,1-.689-.981c-.668-1.37.112-3.044.651-4.32a17.359,17.359,0,0,1,1.062-2.085c.655-1.113,1.365-2.162,2.111-3.215.124-.18,1.721-2.436,1.987-2.812l6.6-9.337-.788,16.092a.315.315,0,0,0,.227.317,4.122,4.122,0,0,0-.929,1.323,7.779,7.779,0,0,0-.261,4.667,1.822,1.822,0,0,0,.149.5c-.009.034.266,4.57.266,4.577a1.084,1.084,0,0,0,2.014.381,1.619,1.619,0,0,0,.115-.655c.039-.937.073-1.879.112-2.821a3.542,3.542,0,0,1,1.13,1.162c.291.458.522.954.775,1.434a3.339,3.339,0,0,0,1.464,1.609H197.779a.321.321,0,1,0,0,.642h187.39a.321.321,0,0,0,0-.642ZM252.306,480.738a7.861,7.861,0,0,1-.479,1.549,4.556,4.556,0,0,1-1.245,1.3,8.535,8.535,0,0,0-1.036.959l-2.551-1.194a1.384,1.384,0,0,1,.227-1.25,3.779,3.779,0,0,1,.334-.239c.689-.465,1.73-1.162,2.169-3.913.051-.334.51-.582,1.25-.685a.332.332,0,0,0,.077-.013c.445-.107.706-.034.826.278A7.492,7.492,0,0,1,252.306,480.738Zm2.427-11.863,8.009-1.721-5.783,13.413-4.225,1.1a4.531,4.531,0,0,0,.214-.886,8.193,8.193,0,0,0-.476-3.485,1.076,1.076,0,0,0-.33-.479Zm-15.7,12.184,4.367-12.984,10.737.83s-2.444,7.668-2.449,7.689a3.494,3.494,0,0,0-.8.03c-1.43.193-1.743.843-1.8,1.216-.394,2.475-1.259,3.057-1.892,3.485a3.27,3.27,0,0,0-.387.283,1.079,1.079,0,0,0-.252.31Zm-.013,8.9s.373.578.4.6c-.086,1.3-.2,2.612-.325,3.913a.321.321,0,0,0,.638.064c.146-1.434.266-2.894.355-4.324l5.317-6.816,4.037,1.806.33.149.107.047s-7.44,11.627-7.745,12.056c-.334.465-.449.749-.869.895a1.394,1.394,0,0,1-1.239-.155l-2.187-1.472c-.1-1.524-.278-4.067-.278-4.067a6.971,6.971,0,0,0,1.457-2.7ZM223.593,477.7l-4.337-.222a3.413,3.413,0,0,1,.676-1.781,5.312,5.312,0,0,0,.723-1.584,5,5,0,0,0,0-1.494,4.45,4.45,0,0,1,.013-1.413,9.284,9.284,0,0,1,.757-1.653,7.823,7.823,0,0,0,.428-1.828c.056-.359.12-.737.2-1.109.056-.261-.368-.364-.42-.086-.077.376-.141.762-.2,1.126a7.8,7.8,0,0,1-.393,1.721,9.974,9.974,0,0,0-.784,1.73,4.715,4.715,0,0,0-.022,1.549,4.591,4.591,0,0,1,0,1.37,5.052,5.052,0,0,1-.675,1.448,3.91,3.91,0,0,0-.74,1.982l-1.712-.09c-.222-.715.3-1.6.767-2.385a7.1,7.1,0,0,0,.771-1.216,2.767,2.767,0,0,0-.085-1.6c-.218-.852-.407-1.592.586-2.372,1.135-.882.874-1.815.62-2.711-.381-1.379-.86-3.086,3.237-5.921a8.28,8.28,0,0,1,4.709-1.4c2.214,0,4.105.788,4.487,1.524a.31.31,0,0,0,.205.163,6.318,6.318,0,0,1,2.641,1.472,5.614,5.614,0,0,1,1.408,4.02l-1.04-.03a7.3,7.3,0,0,0-2.556-4.234c-.193-.163-.5.141-.274.33a6.953,6.953,0,0,1,2.389,3.891s-10.318-.287-10.369-.287a.325.325,0,0,0-.266.513,2.524,2.524,0,0,1,.458,1.589,5.212,5.212,0,0,1-.527,1.451,2.1,2.1,0,0,0,.244,1.516,2.07,2.07,0,0,1,.266.972,2.647,2.647,0,0,1-.513,1.036,1.549,1.549,0,0,0-.232,1.541,1.489,1.489,0,0,1,.266.728,2.671,2.671,0,0,1-.7,1.742Zm1.317-1.34a2.508,2.508,0,0,0,.034-.4,1.545,1.545,0,0,0-.124-.659c-.222-.5-.347-.762,0-1.28a2.928,2.928,0,0,0,.608-1.306,2.626,2.626,0,0,0-.31-1.293,1.575,1.575,0,0,1-.227-1.062,5.483,5.483,0,0,0,.542-1.524c.012-.167-.039-1.558-.27-1.567l8.6.239a8.249,8.249,0,0,1,.6,3.686,9.284,9.284,0,0,1-.407,2.158c-.775,2.449-2.74,5.026-5.6,4.812a5.55,5.55,0,0,1-3.449-1.8Zm5.921,6.567c-.542.582-2.162-.527-2.612-.8a11.06,11.06,0,0,1-2.346-1.948c-.017-.017-.359-.407-.437-.5,0-.013.3-1.549.33-1.682a9.5,9.5,0,0,0,1.293.542,5,5,0,0,0,1.606.274,4.871,4.871,0,0,0,2.008-.437c.088.865.559,4.107.156,4.543Zm-15.185,30.79s4.859.013,4.885,0l-.022,1.126h-4.867c0-.357,0-.733,0-1.127Zm5.542,4.471a5.99,5.99,0,0,0,1.1,2.547.978.978,0,0,1,.1.107c.017.022-.21.155-.24.163a1.394,1.394,0,0,1-.809-.261,9.891,9.891,0,0,1-.839-.942.325.325,0,0,0-.569.163c-.146,1.263-1.477,4.743-2.128,4.675a3.882,3.882,0,0,1-2.423-1.64,2.346,2.346,0,0,1-.428-1.293,10.563,10.563,0,0,1,.132-1.216c.1-.839.222-1.674.387-2.5a15.208,15.208,0,0,1,.373-1.584,2.421,2.421,0,0,1,.42-.925h3.9c.155-.03.5.955.531,1.044A13.959,13.959,0,0,1,221.187,518.192Zm10.352-25.571a.232.232,0,0,0-.094.017,6.8,6.8,0,0,1-4.367.387c-.155-.026-.381-.09-.445.112-.077.253.218.287.381.31a12.17,12.17,0,0,0,1.88.193,6.529,6.529,0,0,0,2.629-.574l-.013.351c-.107,2.483-.086,5.021-.064,7.479.022,2.432.043,4.941-.064,7.377a9.611,9.611,0,0,1-1.233,3.54,24.137,24.137,0,0,1-2.633.124c-2.372,0-4.966-.222-6.306-.355l.043-2.483,2.359-9.474a.346.346,0,0,0,0-.133l-.86-5.214s2-8.228,2-8.254a.321.321,0,0,0-.625-.15l-2.024,8.386-1.317,5.446a.442.442,0,0,0-.013.073l-.163,9.242-.077,4.294c-.03-.012-4.889-.022-4.889-.022.026-5.309.137-13.267.449-14.5l2.372-15.7c.129-.62.762-.989,1.589-1.259.2-.069.62-.184.62-.184l2.8-.788s.642.565.937.83c1.494,1.345,2.943,2.761,4.311,4.225a10.288,10.288,0,0,1,2.509,3.7,9.078,9.078,0,0,1,.3,3ZM221.3,506.241l.112-6.422.955-3.939.6,3.66Zm10.733,1.747a.413.413,0,0,1,0-.073c.086-2.333.064-4.714.047-7.016-.022-2.449-.043-4.979.064-7.449a11.65,11.65,0,0,0-.31-4.028,10.733,10.733,0,0,0-2.646-3.943c-1.572-1.678-3.237-3.292-4.962-4.812.043-.022.664-.188.912-.27.227.227.394.376.62.6a11.168,11.168,0,0,0,2.119,1.682c.9.542,2.843,1.875,3.588.428a2.929,2.929,0,0,0,.155-1.571c-.022-.278-.056-1.032-.124-1.34.18.2,1.091,2.091,1.091,2.091.155.342-.141.942-.325,1.22a2.169,2.169,0,0,1-1.973.856,1.545,1.545,0,0,1-.822-.137.215.215,0,0,0-.222.368,1.96,1.96,0,0,0,1.023.2,2.9,2.9,0,0,0,1.76-.428,2.441,2.441,0,0,0,.925-1.331c.757,1.618,1.489,3.253,2.192,4.889a4.057,4.057,0,0,1,.445,1.609c0,.12-.249,10.611-.188,11.246.073.74.847,6.85.847,6.858a41.633,41.633,0,0,1-4.22.349Zm4.911,2.866c.017-.582.009-1.162,0-1.743a14.184,14.184,0,0,0-.077-1.708c-.06-.454-.115-.908-.171-1.357-.155-1.207-.595-4.752-.651-5.326-.056-.591.188-11.058.188-11.178a4.6,4.6,0,0,0-.5-1.87c-1.028-2.4-3.42-7.475-3.536-7.638l1.627.445c.8.261,1.074.813,1.417,1.511.176.351,2.235,4.071,2.235,4.071a7.733,7.733,0,0,1,.818,1.571,3.613,3.613,0,0,1,.2,1.516,5.745,5.745,0,0,1-1.533,3.2c-.073.094-.073.107-.047.445.056.813,1.074,15.994,1.13,17.779a.439.439,0,0,0-.073.022,7.086,7.086,0,0,1-1.035.263Zm-32.591,48.782c-.274.347-.946-.064-.7-.458l2.175-3.369a5.131,5.131,0,0,1,.668,1.13s-2.142,2.691-2.145,2.7Zm9.093-1.162a12,12,0,0,0-1.956-.141.446.446,0,0,0-.432.415c-.026.488.03,1.507.056,1.859a.4.4,0,0,0,.445.359,6.367,6.367,0,0,1,1.64-.03,3.112,3.112,0,0,0,.249.728,5.859,5.859,0,0,0,.771,1.1,2.658,2.658,0,0,1,.822,1.627c-.013.8-.757,1.482-1.562,2.1a.781.781,0,0,1-1.023.12,18.142,18.142,0,0,1-4.114-3.005,3.431,3.431,0,0,1-.882-1.19,2.587,2.587,0,0,1-.107-1.109,5.059,5.059,0,0,0,.655.758c.762.754,1.558,1.511,2.355,2.246a10.2,10.2,0,0,0,.835.706,5.251,5.251,0,0,0,1.2.655c.257.086.407-.31.155-.4a4.646,4.646,0,0,1-1.1-.6,9.177,9.177,0,0,1-.8-.676c-.8-.732-1.584-1.486-2.346-2.234a2.588,2.588,0,0,1-.839-1.25c.009-.047.017-.1.026-.149a8.263,8.263,0,0,0,.171-1.379,6.158,6.158,0,0,0-1.182-3.365.984.984,0,0,1-.218-.484,1.022,1.022,0,0,1,.129-.381,7.384,7.384,0,0,1,2.74-3.348,3.619,3.619,0,0,1,1.657-.493,4.687,4.687,0,0,0-.222,2.346c-.12.064-.334.149-.42.188a3.244,3.244,0,0,0-.595.359,7.674,7.674,0,0,0-1.841,1.953.214.214,0,0,0,.355.232,7.281,7.281,0,0,1,1.743-1.845,3.362,3.362,0,0,1,.822-.458,7.189,7.189,0,0,0,.334,1.306c.432,1.173,1.438,2.788,2.932,2.269-.164.4-.318.8-.451,1.208Zm-.31,2.025a7.031,7.031,0,0,0-1.6.034,14.988,14.988,0,0,1-.03-1.772c.514-.022,1.807.129,1.816.129a4.974,4.974,0,0,0-.194,1.609Zm1.345-4.658a1.294,1.294,0,0,1-1.143.878c-.672-.017-1.331-.745-1.768-1.936-.376-1.045-.625-2.911-.115-3.754l.146-.15c.137.077,1.118,1.049,1.8,1.644a11.968,11.968,0,0,0,1.284.993,5.783,5.783,0,0,0,.852.548Zm18.969,5.5a4.621,4.621,0,0,0,.642,1.255,7.059,7.059,0,0,0-1.147.86c-.3-.355-.737-.9-.967-1.233a14.925,14.925,0,0,1,1.447-.869Zm-1.394-4.663c.1.535.86,2.517.51,2.866-.437.441-1.87.393-3.673-.565a4.127,4.127,0,0,1-1.682-2.812Zm-5.48,10.343c-.017.441-.813.454-.839.022l-.249-3.981c.141.069,1.22.411,1.22.542,0,0-.132,3.407-.132,3.42Zm11.49.3a1.181,1.181,0,0,1-.249.527.981.981,0,0,1-.5.155,18.342,18.342,0,0,1-5.133-.064,3.464,3.464,0,0,1-1.43-.458,4.129,4.129,0,0,1-1.2-1.687,8.328,8.328,0,0,0-.685-1.216,5.012,5.012,0,0,0-1.5-1.335,9.41,9.41,0,0,0-1.472-.7,1.111,1.111,0,0,1-.465-.27,1.023,1.023,0,0,1-.124-.381,7.182,7.182,0,0,1,.218-4.286,3.589,3.589,0,0,1,1.04-1.357,5.431,5.431,0,0,0,1.062,2.461,4.153,4.153,0,0,0-.317.561,3.641,3.641,0,0,0-.176.476,7.447,7.447,0,0,0-.33,2.5c0,.141.009.3.176.33.4.077.249-.874.261-1.084a7.518,7.518,0,0,1,.3-1.626,3.1,3.1,0,0,1,.387-.826,2.827,2.827,0,0,0,.659.5,6.876,6.876,0,0,0,3.056.912,1.889,1.889,0,0,0,1.37-.454c.017.051.239.706.222.715-.043.022-.086.047-.124.068a13.169,13.169,0,0,0-1.6.976.542.542,0,0,0-.129.732c.274.42.929,1.216,1.162,1.486a.507.507,0,0,0,.728.039,6.485,6.485,0,0,1,1.28-.946,2.823,2.823,0,0,0,.62.364,8.6,8.6,0,0,0,1.084.347,3.02,3.02,0,0,1,1.815.938,3.179,3.179,0,0,1-.01,2.6ZM365.5,547.733H346.344v-1.575s18.875,0,18.931,0c.95-.065,1.254,1.578.227,1.578Zm-.882-2.213H346.341v-8.83h10.9a.214.214,0,0,0,.214-.214.212.212,0,0,0-.214-.214H330.154a.212.212,0,0,0-.214.214.214.214,0,0,0,.214.214h8.566v8.83h-38.3a4.927,4.927,0,0,1-5-4.838V534.5a4.927,4.927,0,0,1,5-4.841h56.206c.017.03.039.06.056.09a3.208,3.208,0,0,0,1.139.955,14.251,14.251,0,0,0,4.028,1.549,1.258,1.258,0,0,0,.784-.022,1.5,1.5,0,0,0,.595-.569,4.525,4.525,0,0,0,.9-1.936h.484c-1.685,3.2-1.678,12.852.009,15.8Zm-18.919-8.83v14.385l-2.928-3.395a.318.318,0,0,0-.484,0l-2.928,3.4V536.692h6.34Zm9.932-11a3.309,3.309,0,0,1,.4.95,6.549,6.549,0,0,1,.141,1.045h-1.345Zm-1.554,2.145a.278.278,0,0,1-.522-.184l.967-3.262c.012.017.484.476.664.685,0,0-1.087,2.712-1.108,2.764Zm.919-3.879a.834.834,0,0,1-.261-.325c-.017-.068.094-.608.073-.62a4.548,4.548,0,0,1,1.755,2.256.216.216,0,0,0,.4-.155,4.987,4.987,0,0,0-2.059-2.556,6.016,6.016,0,0,1,1.28-2.711,2.415,2.415,0,0,1,.356-.339c.227.167.471.334.723.5a10.021,10.021,0,0,0,.749,2.753c1.331,2.993,2,3.395,2.487,3.395a.67.67,0,0,0,.522-.24,3,3,0,0,0,.62,1.4,4.6,4.6,0,0,0,.847.74c.465.342.86.638.972,1.126a2.53,2.53,0,0,1-.574,1.828,16.538,16.538,0,0,1-3.253-1.162.214.214,0,1,0-.21.373,17.659,17.659,0,0,0,3.193,1.169.512.512,0,0,1-.642.24,13.812,13.812,0,0,1-3.845-1.482,2.653,2.653,0,0,1-.925-.754c-.552-.826-.334-1.97-.561-2.9A5.254,5.254,0,0,0,355,523.96Zm2.993-3.485v0c.017.013.449.283.651.407.788.488,2.423,1.589,2.441,1.6l0-.009s-.214,2.269-.33,2.65-.227.4-.253.4c-.056,0-.595-.081-1.9-3.014a9.511,9.511,0,0,1-.611-2.027Zm3.753,2.7a2.148,2.148,0,0,1,.155-.642.721.721,0,0,0,.381-.465,25.215,25.215,0,0,1,1.841-4.431c.12-.253.493-1.147.647-1.357.214.766.608,2.53.625,2.641v8.186c0,.232-.5.582-1.272.582h-1.041c-.064-.051-.133-.1-.2-.149a4.009,4.009,0,0,1-.737-.637c-.747-.892-.572-2.334-.4-3.729Zm3.648,5.9c-.022.008-1.3-.056-1.3-.06a1.893,1.893,0,0,0-.334-.685h.368a2.35,2.35,0,0,0,1.575-.522.721.721,0,0,1,.287.586.673.673,0,0,1-.593.678Zm2.885-2.774a.692.692,0,0,1-.334-.141.9.9,0,0,1-.12-.274,6.494,6.494,0,0,1-.376-3.039c.376-.039.813-.1,1.289-.163a5.391,5.391,0,0,0,.548.647,7.794,7.794,0,0,0-.411.9,3.029,3.029,0,0,0-.077.394,6.4,6.4,0,0,0,0,1.833c-.183-.063-.354-.115-.512-.158Zm1.032,3.618a.224.224,0,0,1-.253-.171l-.527-2.7a4.376,4.376,0,0,1,.74.31s.24,2.307.24,2.324a.213.213,0,0,1-.2.232Zm5.783-3.664c.351.056.676.188,1.007.244a1.911,1.911,0,0,1,1.25.484,1.788,1.788,0,0,1,.329,1.216,2.835,2.835,0,0,1-1.833.715,9.442,9.442,0,0,1-3.31.026.213.213,0,0,0-.077.42,8.737,8.737,0,0,0,1.6.146,7.686,7.686,0,0,0,3.574-.7c-.051.2,0,.476-.18.625a.5.5,0,0,1-.2.085,12.549,12.549,0,0,1-3.806.445,2.472,2.472,0,0,1-1.057-.214,3.346,3.346,0,0,1-1.04-1.194,6.531,6.531,0,0,0-.642-.9,4.1,4.1,0,0,0-1.455-1.018,5.839,5.839,0,0,1-.039-1.948,3.275,3.275,0,0,1,.064-.347,5.794,5.794,0,0,1,.31-.72,3.354,3.354,0,0,0,.355.266,7.4,7.4,0,0,0,3.241,1.447.939.939,0,0,0,.647-.24c.087.359,1.139,1.14,1.264,1.161Zm-1.7-2.014v.008c.056.31-.017.393-.034.407s-.437.373-3.061-1.31a3.663,3.663,0,0,1-.843-.784l0,0c.12-.022,3.021-.62,3.044-.625.109.256.85,2.011.9,2.3Zm-16.431-33.1c2.389.595,4.725,1.417,7.072,2.141.557.171,1.1.347,1.618.51a19.577,19.577,0,0,1,2.963,1.074,4.617,4.617,0,0,1,1.737,1.325c.723,1.032.942,10.668,1.036,14.783.026,1.293.051,2.312.077,2.808v.017c.1,1.317.232,2.286.387,3.408.149,1.084.317,2.3.488,4.084,0,0-5.244.946-5.39.959a.016.016,0,0,0,0-.013c-.15-.62-.317-1.267-.5-1.918a5.412,5.412,0,0,0,1.143.1,20.679,20.679,0,0,0,3.66-.437.214.214,0,0,0,.167-.252.219.219,0,0,0-.252-.167c-.039.008-3.549.749-4.846.27-.073-.266-.878-3.134-1.036-3.81-.056-.232-.1-.441-.129-.608a.077.077,0,0,0,.009-.03,103.523,103.523,0,0,0,3.609-13.571c.531-2.705-1.572-4.492-3.549-5.206L354,493.407a3.336,3.336,0,0,0,.334-.31,3.221,3.221,0,0,0,.792-2.41C355.134,490.7,356.7,491.077,356.962,491.145Zm.4-4.756a1.1,1.1,0,0,1-.351.06,1.057,1.057,0,0,1-.993-.706l-.176-.493,3.039.6Zm13.725-6.075a.507.507,0,0,1-.086.077,6.86,6.86,0,0,1-.8.047c-.222,0-.441-.012-.629-.022-.351-.239-.458-2.778-.163-3.827a4.182,4.182,0,0,1,.668-1.225,1.611,1.611,0,0,1,1.194-.488.594.594,0,0,1,.4.1c.008.009.026.03.022.095a48.188,48.188,0,0,1-.615,5.242ZM356.2,468.507l10.009,2s-.706,4.808-.711,4.833a.215.215,0,0,0,.424.064l.723-4.9,6.55-2.89-1.4,6.7a1.566,1.566,0,0,0-.518-.077,2.237,2.237,0,0,0-1.721.762,4.736,4.736,0,0,0-.762,1.421c-.261.937-.325,3.536.222,4.328a.62.62,0,0,0,.479.3c.24.022.826.034.882.03l-.505,2.41-5.522,2.539,1.355-9.2a.212.212,0,0,0-.18-.239.208.208,0,0,0-.244.18L363.89,486.2,353.8,484.185l.505-3.33c.227-.163.612-.449.612-.449l6.169-1.28a1.654,1.654,0,0,0,1.207-1.936c-.266-1.584-2.316-2.414-4.208-2.414a5.473,5.473,0,0,0-1.084.1l-1.9.757Zm-2.708,8.48,3.664-1.477c1.691-.321,4.26.317,4.508,1.806a1,1,0,0,1-.7,1.182l-6.319,1.25Zm2.772-18.6c-.09.638-.4,1.948-.415,1.987a1.475,1.475,0,0,1-.387.012,1.643,1.643,0,0,1,.137-3.279c.1,0,.8.086.792.21C356.361,457.651,356.319,458.006,356.265,458.383Zm.163-1.528a1.978,1.978,0,0,0-.655-.171,2.079,2.079,0,0,0-2.239,1.888,2.042,2.042,0,0,0,0,.278h-.208l-.095-.723a.322.322,0,0,0-.359-.278.316.316,0,0,0-.274.359l.077.63s-.3-.009-.3-.017a2.07,2.07,0,0,0-4.007-.881l-1.584-.6a4.752,4.752,0,0,1,3.563-1.875,7.232,7.232,0,0,1,1.833.329,8.735,8.735,0,0,0,2.158.387A2.691,2.691,0,0,0,355.37,456c.1-.043,1.07-.351,1.07-.51a12.593,12.593,0,0,1-.01,1.368Zm-4.478,1.931a1.641,1.641,0,1,1-1.493-1.778,1.641,1.641,0,0,1,1.493,1.778Zm5.031-.925a1.645,1.645,0,0,1-.381,2.188,15.488,15.488,0,0,0,.3-1.575c.032-.211.057-.416.083-.613Zm-13.9,4.345a4.673,4.673,0,0,1-3.515,2.3,6.415,6.415,0,0,1-.964.069,9.188,9.188,0,0,1-2.766-.471,4.822,4.822,0,0,0,2.65-2.98c.31-1.374-.184-2.744-.364-4.1a17.207,17.207,0,0,1-.176-3.365c.115-1.781.745-4.071,3.112-4.842a4.667,4.667,0,0,1,3.459.287,6.5,6.5,0,0,0-.685.595,5.455,5.455,0,0,0-.891-.291,3.287,3.287,0,0,0-3.146,1.575.215.215,0,0,0,.351.249,2.715,2.715,0,0,1,3.373-1.2,8.164,8.164,0,0,0-2,5.043,7.469,7.469,0,0,0,2.046,5.309,5.267,5.267,0,0,1-.485,1.819Zm-.917-7.094a7.174,7.174,0,0,1,3.176-5.793,5.819,5.819,0,0,1,3.176-.882,8.663,8.663,0,0,1,2.282.33,6.567,6.567,0,0,1,3.493,2.183c0,.051-.5,1.032-2.77,1.118-.163,0-.373.073-.31.291.047.167.21.149.351.137,1.028-.1,2.406-.239,3.1-1.211a3.873,3.873,0,0,1,1.922,2.136,1.48,1.48,0,0,1-.107,1.162,1.764,1.764,0,0,1-.92.664,3.309,3.309,0,0,1-1.211.291,8.157,8.157,0,0,1-1.991-.364,7.969,7.969,0,0,0-2-.351,5.291,5.291,0,0,0-3.925,1.936,1.841,1.841,0,0,0-1.58-.946,1.432,1.432,0,0,0-1.169.542,1.511,1.511,0,0,0-.18,1.366,7.437,7.437,0,0,0,.591,1.455,4.805,4.805,0,0,1,.513,1.362,7.126,7.126,0,0,1-2.439-5.426Zm3.253,6.285a8.769,8.769,0,0,0-.758-2.517,5.586,5.586,0,0,1-.542-1.335.775.775,0,0,1,.732-1.084,1.254,1.254,0,0,1,1.186,1.023.329.329,0,0,0,.458.205l1.777.672a2.12,2.12,0,0,0,.465,1.623,2.07,2.07,0,0,0,3.563-.723l.437.009.232,1.751v.017a1.517,1.517,0,0,1-.766-.129.321.321,0,1,0-.454.454,1.885,1.885,0,0,0,1.455.3c.407-.026.432-.493.393-.775l-.214-1.609.222,0a2.076,2.076,0,0,0,1.824,1.528,1.375,1.375,0,0,0,.3,0,11.685,11.685,0,0,1-.465,1.233c-.74,1.648-2.162,3.63-4.546,3.429-2.056-.18-4.15-2.048-5.3-4.084Zm1.413,2.812a6.635,6.635,0,0,0,3.823,1.905c.107.009.214.017.317.017l.1,1.52a1.9,1.9,0,0,1-2.046,1.657,3.931,3.931,0,0,1-2.282-.826,2.331,2.331,0,0,1-.7-1.584,12,12,0,0,0,.785-2.69ZM338.7,487.082c-.574-.387-1.323-1-1.2-1.789l2.453-14.629a2,2,0,0,1,1.177-1.682c.843-.376,1.712-.723,2.526-1.079a7.467,7.467,0,0,0,5.92,3.469,4.337,4.337,0,0,0,1.7-.334,2.617,2.617,0,0,0,1.486-1.708.215.215,0,0,0-.4-.15,2.209,2.209,0,0,1-1.25,1.464,5.071,5.071,0,0,1-4.093-.339,6.093,6.093,0,0,1-2.966-2.582l1.365-.522a3.1,3.1,0,0,0,.925,1.768,4.587,4.587,0,0,0,2.693.976,2.873,2.873,0,0,0,1.828-.6,2.633,2.633,0,0,0,.591-.728,5.357,5.357,0,0,0,.317-1.263c.232,0,2.47.069,2.856,1.254a8.4,8.4,0,0,0,.689,1.5l-.886,5.805-1.173.471-10.082,4.739s1.417-6.743,1.421-6.769a.321.321,0,1,0-.629-.132l-1.516,7.24a5.362,5.362,0,0,0-.664.232,4.4,4.4,0,0,0-1.589,1.362.322.322,0,1,0,.518.381,3.818,3.818,0,0,1,1.374-1.182c.257-.141.557-.176.809-.3,1.345-.638,6.85-3.232,8.271-3.9l.017-.009c.27.929.518,1.884.732,2.83a.216.216,0,0,0,.42-.1c-.222-.972-.479-1.956-.757-2.92l1.331-.625,1.233,2.954c-.111.077-9.7,6.94-13.074,7.466a3.351,3.351,0,0,1-2.375-.572Zm1.909,1.259a3.573,3.573,0,0,0,.556-.046c3.327-.527,9.795-5,12.42-6.906l-.458,3a.321.321,0,0,0,.253.364l1.781.368c-.051,0-.651,5.013-.681,5.519a2.923,2.923,0,0,1-1.379,2.577,5.92,5.92,0,0,1-3.155.407,28.687,28.687,0,0,1-10.091-3.125s.747-2.158.751-2.158Zm-1.337,2.355a.056.056,0,0,0,0,.026h0a.178.178,0,0,0,.006-.025Zm-1.558,8.511c-.655-2.2.31-4.508,1.447-6.871.073-.149.449-1.162.476-1.225A29.41,29.41,0,0,0,349.9,494.27q.465.038.895.039a5.989,5.989,0,0,0,2.466-.449l11.773,3.369c1.721.62,3.563,2.162,3.117,4.469a102.955,102.955,0,0,1-3.613,13.562c-.176.387-.839,1.789-.984,2.1a26.137,26.137,0,0,0-1.914,4.684c-.022,0-1.859-1.224-2.654-1.716-.723-.445-1.472-.908-2.091-1.357,0-.026.253-1.289.317-1.558.527.351,4.007,2.077,4.114,2.162.21.184.484-.155.27-.329-.137-.111-3.789-1.922-4.272-2.282.043-.18.09-.355.141-.535.132-.5,2.136-8.2,2.568-9.569.321-1.007.608-2.021.95-3.021a12.1,12.1,0,0,1,.711-1.867.322.322,0,1,0-.484-.424,12.331,12.331,0,0,0-.826,1.96s-.908.141-1.306.171c-2.5.205-5.017.222-7.521.222-5.017,0-8.383-.218-9.483-.62a6.765,6.765,0,0,1-4.362-4.073Zm-5.422,3.657a.493.493,0,0,1-.03.18h-55.7v-.972l55.024.064a.713.713,0,0,1,.707.728Zm-1.438-17.445c-1.76,3.228-1.751,13.027.012,16.011h-54.3v-9.393H292.12a.215.215,0,0,0,.214-.214.218.218,0,0,0-.214-.214H264.76a.218.218,0,0,0-.214.214.215.215,0,0,0,.214.214H266.9v9.393h-2.966a5.077,5.077,0,0,1-5.223-4.906v-6.268a5.077,5.077,0,0,1,5.222-4.9H276.67a1.847,1.847,0,0,0,.989.244c.149,0,.3-.009.437-.022.745-.056,3.956-.2,4.354-.222h21.757c.373.064.71.124.981.176a2.212,2.212,0,0,0,1.045.022,1.26,1.26,0,0,0,.4-.2h24.252A.31.31,0,0,0,330.851,485.418Zm-54.934,6.743v19.208s-3.926-4.564-3.943-4.581a.324.324,0,0,0-.488,0l-3.943,4.581V492.161Zm8.665-7.642-1.053-4.816,8.353,2.74Zm10.073-1.169,4.144,1.357H286.263l4.765-1.357Zm-10.235,1.884a.214.214,0,0,1-.051.009h-.026a.466.466,0,0,0,.077-.009Zm21.268-1.323a.2.2,0,0,0,.256-.141,8.448,8.448,0,0,0-.2-4.611,13.659,13.659,0,0,0-.513-1.394,11.173,11.173,0,0,0-.62-1.317,4.233,4.233,0,0,1,.625-.155,7.4,7.4,0,0,1,1.113,2.025c.073.2.141.4.205.612a9.973,9.973,0,0,1,.244,4.842,2.141,2.141,0,0,1-.415.938c-.3.325-.685.261-1.074.188-.287-.056-4.8-.792-5.484-.916l.012-5.775c1.135-.441,3.1-1.2,4.354-1.623a12.5,12.5,0,0,1,1.143,2.693,8.066,8.066,0,0,1,.2,4.388.2.2,0,0,0,.161.245Zm1.735,0c.043-.184.077-.368.1-.557h24.059a.712.712,0,0,1,.706.728.668.668,0,0,1-.647.659c-.051-.039-24.492,0-24.492,0a3.863,3.863,0,0,0,.27-.831Zm.878-13.665a3.75,3.75,0,0,1,3.652,4.067,3.681,3.681,0,0,1-2.539,3.134l-2.44.7a7.92,7.92,0,0,0-1.323-2.358.429.429,0,0,0-.342-.137,33.534,33.534,0,0,0-5.467,1.875v-.488a.323.323,0,0,0-.214-.3l-5.827-2.136,13.413-4.182a3.616,3.616,0,0,1,1.087-.169Zm-21.11-10.129a.6.6,0,0,0-.3-.351c-.527-.232-.981.274-1.5.86a4.116,4.116,0,0,1-1.357,1.162,2.987,2.987,0,0,0-1.139,1.589c-.214-.017-.542-.034-.929-.039v-8.518l9.637,2.479.2.051v2.624c-1.066-.218-2.705.71-4.05,1.472-.257.141-.5.283-.715.393a1.825,1.825,0,0,1,.1-.351,2,2,0,0,0,.051-1.372Zm-2.928,2.269a4.492,4.492,0,0,0,1.609-1.331,3.4,3.4,0,0,1,.723-.7,1.365,1.365,0,0,1-.047.865,5.049,5.049,0,0,0-.232,1.118.321.321,0,0,0,.407.342,8.293,8.293,0,0,0,1.345-.681c1.135-.638,3.035-1.708,3.763-1.353a1.777,1.777,0,0,1,1.032,1.015,2.342,2.342,0,0,1-.522,1.8c-1.091,1.716-1.507,2.358-6.879,3.091-.51-.822-1.528-2.277-1.974-2.915a3,3,0,0,1,.775-1.252Zm13.031,5.09a5.243,5.243,0,0,0-.445-1.049,1.367,1.367,0,0,1-.214-.839,3.538,3.538,0,0,1,.843.542,4.518,4.518,0,0,0,1.836,1,1.76,1.76,0,0,1,.86.749l-.847,3.63c-4.315-.2-5.917-.676-7.281-2.111-.728-.766-1.147-1.289-1.113-1.7.022-.253.222-.522.62-.826.647-.493,2.711.2,3.95.608a8.537,8.537,0,0,0,1.451.411.324.324,0,0,0,.338-.419Zm2.128-.976a4.139,4.139,0,0,1-1.554-.878c-.625-.479-1.162-.891-1.635-.561a.6.6,0,0,0-.227.4,1.987,1.987,0,0,0,.317,1.336,1.9,1.9,0,0,1,.163.325c-.227-.068-.5-.155-.775-.249a13.472,13.472,0,0,0-3.264-.807v-1.606q.212-.3.437-.655a2.906,2.906,0,0,0,.595-2.316,2.118,2.118,0,0,0-1.032-1.232v-2.966l9.632-2.47V466.14l-1.572,1.066a5.239,5.239,0,0,0-1.09-.71Zm-13.729.668c.013-.039,5.475-.8,6.109-1.931v.869a1.451,1.451,0,0,0-.634.261,1.859,1.859,0,0,0-.869,1.284,2.546,2.546,0,0,0,.886,1.76l-6.391-1.64c.149-.06.647-.232.647-.232.093-.038.157-.106.252-.372Zm6.351,3.13h.022l0,0c1.394,1.2,3.207,1.653,7.137,1.841a.246.246,0,0,0,.03.09l-6.417,2-11.041-4.152c.077-.244.193-.586.325-1,.069-.21.146-.454.193-.6l1.259-.373h0c.022.016,8.48,2.2,8.48,2.2Zm8.348-30a2.478,2.478,0,0,1-.874,1.511c.022-.1.039-.2.051-.3v0l.638-2.727c.366.14.408.5.18,1.523Zm-2.5-9.675c.954.21,2.063,2.132,2.063,3.64l-.351,4.294,0,.012-.171.086c-.137-2.246-.387-4.105-1.186-4.928.039-.077.073-.163.107-.249a2.719,2.719,0,0,0-.387-2.3,1.9,1.9,0,0,0-.249-.3,1.1,1.1,0,0,0,.174-.263Zm-1.559,6.816a2.318,2.318,0,0,0-2.307,2.106h-.259c-.013-1.023,0-1.943,0-1.961a.326.326,0,0,0-.317-.325h0a.32.32,0,0,0-.321.317c0,.069-.013.967,0,1.97H292.1a2.318,2.318,0,0,0-4.529-.454l-.321-.167c.317-2.055.9-4.354,1.743-5.2a.443.443,0,0,1,.356-.132.455.455,0,0,1,.325.21,3.311,3.311,0,0,0,.737.839,3.422,3.422,0,0,0,3.493.022,4.309,4.309,0,0,0,1.194.4,4.06,4.06,0,0,0,.737.068,2.6,2.6,0,0,0,2.033-.844c.642.83.835,2.971.929,4.688l-.249.124a2.316,2.316,0,0,0-2.223-1.657Zm1.893,2.324a1.892,1.892,0,1,1-1.892-1.892,1.892,1.892,0,0,1,1.892,1.892Zm-6.533,0a1.892,1.892,0,1,1-1.892-1.892,1.892,1.892,0,0,1,1.892,1.892Zm-5.886.83-.017-.043a1.626,1.626,0,0,1-.124-1.394.6.6,0,0,1,.278-.232l.42,2.192,0,.03c.022.249.056.5.1.737a3,3,0,0,1-.663-1.292Zm.8-1.623-.068-.407-.253-4.371c0-1.88,1.85-4.492,3.673-4.492.252,0,.5,0,.754.022a2.5,2.5,0,0,0,2.021-.445,1.573,1.573,0,0,1,1.139-.465,1.5,1.5,0,0,1,1.394.843.413.413,0,0,0,.71,0,.5.5,0,0,1,.454-.274c.6-.03,1.173.5.826,1.091a.279.279,0,0,0-.034.086,1.206,1.206,0,0,0-.441-.086.321.321,0,0,0,0,.642.894.894,0,0,1,.664.437,1.882,1.882,0,0,1,.026,2.226,2.314,2.314,0,0,1-2.246.651c-.325-.06-1.614-.364-1.614-.847a.321.321,0,0,0-.642,0,.929.929,0,0,0,.325.647,2.628,2.628,0,0,1-2.5-.112,2.929,2.929,0,0,1-.565-.655,1.084,1.084,0,0,0-1.682-.193c-1.007,1.032-1.584,3.476-1.888,5.351q-.035.18-.06.345ZM287,441.07c.034-.5.094-1.079.18-1.7l.3.155a2.1,2.1,0,0,0-.013.232,2.319,2.319,0,0,0,4.628.214h1.023c.012.659.039,1.317.077,1.777a.544.544,0,0,1,0,.149l-.813.034a.321.321,0,0,0,.013.642h.012l.964-.043a.269.269,0,0,0,.141-.039.829.829,0,0,0,.325-.8c-.043-.441-.064-1.074-.073-1.716h.248a2.319,2.319,0,0,0,4.628-.214,2.255,2.255,0,0,0-.012-.232l.188-.09c.009.167.012.33.022.484.026.586.051,1.1.086,1.494a7.185,7.185,0,0,1-2.671,4.773,6.419,6.419,0,0,1-.642.424,5.456,5.456,0,0,1-5.732-.18,5.92,5.92,0,0,1-.642-.505,7.378,7.378,0,0,1-2.241-4.86Zm8.614,6.267v.942c0,1.207-1.978,2.393-2.894,2.826-.9-.432-2.839-1.618-2.839-2.826v-1.1c.62.625,2.521.779,2.812.788a6.112,6.112,0,0,0,2.916-.637Zm-20.185,16.927c.749-1.417,5.591-11.54,6.246-12.664a.192.192,0,0,0,.012-.022,7.761,7.761,0,0,1,1.978-2,19.909,19.909,0,0,1,4.118-1.4c.561-.149,1.066-.278,1.455-.407v.5c0,1.943,3.211,3.412,3.344,3.476.232.09.535-.129.728-.232a9.606,9.606,0,0,0,1.19-.728,3.481,3.481,0,0,0,1.755-2.517v-.3l.454.1a6.428,6.428,0,0,1-.387,1.884,3.784,3.784,0,0,1-.387.792,5.634,5.634,0,0,1-1.678,1.46l-1.524,1.019-1.716-.942a3.983,3.983,0,0,1-1.909-1.653.213.213,0,0,0-.387.171,4.415,4.415,0,0,0,2.091,1.853l1.943,1.066,1.743-1.162a6.071,6.071,0,0,0,1.794-1.575,4.455,4.455,0,0,0,.437-.882,6.7,6.7,0,0,0,.407-1.936l4.333.981a4.282,4.282,0,0,1,3.185,3.044l5,14.153a1.131,1.131,0,0,1,0,1.053c-.839,1.7-5.267,3.159-8.28,3.935-.484.124-1.387.33-1.421.338,0,0,.891-3.815.895-3.823l1.661-1.177c.085-.03,1.755-1.336,1.755-1.336a.322.322,0,1,0-.387-.513l-1.186.874-.03-2.265.232.373a.32.32,0,0,0,.542-.338l-.72-1.387v-7.668a.326.326,0,0,0-.4-.31l-1.781.458a5.344,5.344,0,0,1-.193-1.579.321.321,0,0,0-.642-.022,5.694,5.694,0,0,0,.214,1.764l-7.89,2.025-7.226-1.859s.163-1.884.163-1.892a.322.322,0,0,0-.642-.056l-.149,1.789-2.441-.629a.325.325,0,0,0-.4.31v8.928c-1.584.06-3.776.411-4.94,1.781a.321.321,0,1,0,.493.411,4.538,4.538,0,0,1,2.8-1.374,24.608,24.608,0,0,1,3.3-.141c.809,1.156,1.657,2.4,2.014,2.976l-6.991,2.085a2.18,2.18,0,0,1-2.26-.775,5.219,5.219,0,0,1-.306-4.043Zm6.119,4.431c-.022.06-.039.12-.06.188-.112.351-.257.8-.351,1.066l-1.7-.625Zm-6.19,7.663a3.725,3.725,0,0,1-2.265-4.79,3.666,3.666,0,0,1,2.676-2.316,2.732,2.732,0,0,0,1.691.514,3.313,3.313,0,0,0,.942-.132l20.8,7.624-.017,6.9s-23.667-7.749-23.829-7.8Zm1.417,1.139.886.291a7.757,7.757,0,0,0-.843,4.923,6.639,6.639,0,0,0,.364,1.207.215.215,0,0,0,.4-.163,6.01,6.01,0,0,1-.321-1.045,7.232,7.232,0,0,1,.809-4.79l4.756,1.554.291,1.34a6.182,6.182,0,0,1-.359,2.324.214.214,0,1,0,.4.146,6.129,6.129,0,0,0,.278-1.007l.514,2.355c-.74.047-1.764.095-2.757.141-1.173.051-2.389.107-3.142.163a2.431,2.431,0,0,1-.861-.043,1.771,1.771,0,0,1-1.007-1.186,6.739,6.739,0,0,1-.283-.993,6.9,6.9,0,0,1,.868-5.221Zm-20.335,18.584v-5.176c0-4.162,3.873-7.552,8.639-7.552H275.4c.051.193.115.387.184.574a3.528,3.528,0,0,0,.4.784H263.934a5.722,5.722,0,0,0-5.865,5.548v6.268a5.722,5.722,0,0,0,5.865,5.548H266.9v.972h-5.163a7.634,7.634,0,0,1-5.3-6.969Zm-8.583,7.911c0-.107.252-.3.668-.3H266.9v.522H248.641c-.441.053-.788-.115-.788-.221Zm2.646,6.165a9.764,9.764,0,0,0-1.084-5.214q-.028-.046-.06-.09H266.9v6.632a.77.77,0,0,0,.137.454.521.521,0,0,0,.826.047l3.866-4.492,3.866,4.492a.523.523,0,0,0,.394.193.632.632,0,0,0,.569-.7v-6.632h36.868c2.757,0,5,1.284,5,2.866v3.823c0,1.579-2.246,2.866-5,2.866H249.391a7.746,7.746,0,0,0,1.108-4.251Zm-1.978,4.966,64.906-.073c3.164,0,5.642-1.541,5.642-3.506v-3.823c0-1.97-2.479-3.51-5.642-3.51H276.565v-.522h64.786c.167.068.338.132.505.2a14.355,14.355,0,0,0,4.675.565c1.674.073,9.242.047,10.27.009.445-.017,2.333-.1,3.322-.244-.141.659-.394,1.472-.7,2.444-.843,2.671-2.355,8.776-2.448,9.123l-108.443-.047c-.4,0-.668-.18-.668-.31-.009-.115.245-.311.66-.311Zm-5.437,12.569a.314.314,0,0,1-.31-.31V516.737a.314.314,0,0,1,.31-.31h113.7c-.1.387-.2.771-.287,1.147-.1.449-.188.9-.257,1.362a3.325,3.325,0,0,0-.535.479,7.4,7.4,0,0,0-1.584,3.776,1.722,1.722,0,0,0-.03.449c-.047.145-1.156,3.832-1.156,3.832a.775.775,0,0,0-.034.218H243.085Zm.008,12.693v-5.129a7.532,7.532,0,0,1,5.155-6.923H353.129a.918.918,0,0,0,1.394,0h1.712a4.607,4.607,0,0,0,.129.685H300.422a5.571,5.571,0,0,0-5.642,5.484v6.186a5.57,5.57,0,0,0,5.642,5.48h38.3v1.609c-.022-.017-88.892-.043-88.892-.043a7.743,7.743,0,0,1-6.735-7.355Zm7.15,22.759a29.4,29.4,0,0,0,.356-4.392c.039-3.31-.381-6.725-1.263-8.344h47.781a4.848,4.848,0,0,1,4.9,4.777V561.3a4.809,4.809,0,0,1-4.9,4.731H249.356a17.491,17.491,0,0,0,.887-2.89ZM248.3,568.2c-.368,0-.668-.569-.668-.955a.63.63,0,0,1,.668-.625h48.821a5.408,5.408,0,0,0,5.544-5.321v-6.113a5.5,5.5,0,0,0-5.544-5.432H248.3a.685.685,0,0,1-.668-.7.668.668,0,0,1,.668-.668h90.423v2.983a.7.7,0,0,0,.115.387.477.477,0,0,0,.757.043l2.937-3.412,2.943,3.412a.471.471,0,0,0,.359.176.563.563,0,0,0,.514-.608v-2.983H361.98c4.564,0,8.275,3.275,8.275,7.3v5.013c0,4.028-3.712,7.505-8.271,7.505H248.3Z" transform="translate(-197.441 -421.468)" fill="#2b2150"/>
        <path id="Path_8798" data-name="Path 8798" d="M344.649,1112.028c-.1,5.344-1.113,13.382-1.738,17.908v.008c-.2,1.435-.356,2.509-.432,3.039-.013.073-.022.137-.03.188a1.542,1.542,0,0,0-.022.155.116.116,0,0,0,0,.03l-.009.06-1.494,11.949-.5,3.973v.012l-1.007,8.061-.5-.051-.475-.051-1.494-.155-.5-.051-1.489-.155-.5-.051-1.489-.155-.068-.009.843-17.194c-.039.056-.321.465-.775,1.109-.146.214-.317.458-.5.723-.424.608-.933,1.335-1.49,2.136-.051.068-.1.141-.149.214-2.915,4.174-7.072,10.1-7.86,11.088-.022.026-.039.051-.056.068a.314.314,0,0,0-.039.043s-.009,0-.013.008c-.184.085-1.4-.869-1.819-1.207-.06-.047-.1-.085-.124-.1-.124-.107-.249-.214-.373-.325-.514-.465-1-.95-1.494-1.443-.017-.017-.06-.051-.107-.09l-.009-.009c-.149-.125-.376-.31-.351-.372.522-1.216,4.542-8.951,5.938-11.666.167-.329,1.541-2.907,1.987-3.673a26.287,26.287,0,0,1,1.618-2.629,9.047,9.047,0,0,1,.86-.835h0a0,0,0,0,0,0,0,2.668,2.668,0,0,0,.218-.214c.274-.325.18-.535.18-.535a88.123,88.123,0,0,0-.689-9.56,1.048,1.048,0,0,0,.565.043c.5-.3.5-.492.18-.788a5.608,5.608,0,0,1-1.007-2.372,12.567,12.567,0,0,0-.407-1.409s0,0,0-.008c-.112-.72-.205-1.327-.261-1.734a21.423,21.423,0,0,1-.188-2.963v-.171c.069.009.149.017.24.026a52.455,52.455,0,0,0,9.3.266c.732-.081,1.52-3.831,1.52-3.831a40.33,40.33,0,0,0,4.914-.393s.043,2.59,0,3.125C343.539,1112.306,344.14,1112.175,344.649,1112.028Z" transform="translate(-304.383 -1022.484)" fill="#4b3584"/>
        <path id="Path_8794" data-name="Path 8794" d="M259.3,1487.031c-.017.972-.891,1.734-1.687,2.346a1.426,1.426,0,0,1-.681.351,1.211,1.211,0,0,1-.689-.2,18.207,18.207,0,0,1-4.187-3.061,3.618,3.618,0,0,1-.963-1.31c-.4-1.1.176-2.355.188-3.545a4.657,4.657,0,0,0-.465-2l-2.273,2.847a.725.725,0,0,1-.981.115l-.012,0a.689.689,0,0,1-.218-.942l2.441-3.776s.193-.445.27-.608a7.78,7.78,0,0,1,2.866-3.485,3.925,3.925,0,0,1,2.436-.514l-.21.214c-.608.954-.33,2.959.073,4.058a4.684,4.684,0,0,0,.792,1.443,1.753,1.753,0,0,0,2.034.566,2.431,2.431,0,0,0,.381-.188c-.672,1.626-1.451,3.344-.737,4.812C258.162,1485.156,259.322,1485.877,259.3,1487.031Z" transform="translate(-241.377 -1344.093)" fill="#f7af4d"/>
      </g>
    </g>
  </g>
</svg>
