<svg xmlns="http://www.w3.org/2000/svg" xmlns:xlink="http://www.w3.org/1999/xlink" width="252.747" height="239.784" viewBox="0 0 252.747 239.784">
  <defs>
    <filter id="Path_8475" x="0" y="99.746" width="252.747" height="140.038" filterUnits="userSpaceOnUse">
      <feOffset dy="3" input="SourceAlpha"/>
      <feGaussianBlur stdDeviation="3" result="blur"/>
      <feFlood flood-opacity="0.161"/>
      <feComposite operator="in" in2="blur"/>
      <feComposite in="SourceGraphic"/>
    </filter>
  </defs>
  <g id="welcomePageStudent" transform="translate(9.001 0)">
    <g id="freepik--Floor--inject-1--inject-69" transform="translate(0 105.746)">
      <g transform="matrix(1, 0, 0, 1, -9, -105.75)" filter="url(#Path_8475)">
        <path id="Path_8475-2" data-name="Path 8475" d="M49.749,205.131c45.836,23.831,120.149,23.831,165.984,0s45.841-62.462,0-86.293-120.149-23.826-165.99,0S3.908,181.293,49.749,205.131Z" transform="translate(-6.37 4.78)" fill="#4a6273"/>
      </g>
    </g>
    <g id="freepik--Shadows--inject-1--inject-69" transform="translate(83.035 141.352)">
      <path id="Path_8476" data-name="Path 8476" d="M92.1,173.821c12.353,5.859,32.376,5.859,44.7,0s12.353-15.353,0-21.212-32.37-5.859-44.7,0S79.729,167.968,92.1,173.821Z" transform="translate(-82.839 -125.958)" fill="#ebebeb"/>
      <path id="Path_8477" data-name="Path 8477" d="M196.415,163.4l-44.157,25.362a2.622,2.622,0,0,1-2.36,0L94.7,157.039a.714.714,0,0,1,0-1.356l44.157-25.362a2.622,2.622,0,0,1,2.36,0l55.211,31.725a.714.714,0,0,1-.016,1.356Z" transform="translate(-80.216 -130.041)" fill="#ebebeb"/>
    </g>
    <g id="freepik--Pencil--inject-1--inject-69" transform="translate(184.236 0)">
      <path id="Path_8478" data-name="Path 8478" d="M192.353,48.177V59.824s-4.808,2.241-13.629,2.241S165.1,59.819,165.1,59.819V48.427l9.2-25.914c-.125.813.354,1.628,1.434,2.268a5.672,5.672,0,0,0,5.309.331,5.019,5.019,0,0,0,.687-.331c1.144-.657,1.635-1.556,1.412-2.414Z" transform="translate(-165.067 -12.877)" fill="#f5f5f5"/>
      <path id="Path_8479" data-name="Path 8479" d="M192.353,48.177V59.824s-4.808,2.241-13.629,2.241S165.1,59.819,165.1,59.819V48.427l9.2-25.914c-.125.813.354,1.628,1.434,2.268a5.672,5.672,0,0,0,5.309.331,5.019,5.019,0,0,0,.687-.331c1.144-.657,1.635-1.556,1.412-2.414Z" transform="translate(-165.067 -12.877)" fill="#fff" opacity="0.5"/>
      <path id="Path_8480" data-name="Path 8480" d="M191.3,110.667a9.253,9.253,0,0,1-2.938,2.517,21.4,21.4,0,0,1-19.3,0,9.256,9.256,0,0,1-2.944-2.517,5.23,5.23,0,0,1-1.047-2.805v6.044c.1,1.931,1.423,3.846,3.984,5.322a21.43,21.43,0,0,0,19.3,0c2.661-1.53,4-3.537,4-5.544v-6.044a5.121,5.121,0,0,1-1.058,3.022Z" transform="translate(-165.074 6.279)" fill="#5e3636"/>
      <path id="Path_8481" data-name="Path 8481" d="M191.3,105.721a9.254,9.254,0,0,1-2.938,2.517c-.316.179-.637.348-.97.5a21.931,21.931,0,0,1-17.357,0c-.332-.158-.659-.326-.97-.5a9.255,9.255,0,0,1-2.944-2.517,5.22,5.22,0,0,1-1.047-2.8v6.044a5.23,5.23,0,0,0,1.047,2.805,9.255,9.255,0,0,0,2.944,2.517,21.4,21.4,0,0,0,19.3,0,9.255,9.255,0,0,0,2.938-2.517,5.121,5.121,0,0,0,1.058-3.022V102.7a5.116,5.116,0,0,1-1.058,3.022Z" transform="translate(-165.074 5.171)" fill="#ff9200"/>
      <path id="Path_8482" data-name="Path 8482" d="M191.3,100.786a9.319,9.319,0,0,1-2.938,2.522c-.316.179-.637.342-.97.5a21.931,21.931,0,0,1-17.357,0c-.332-.162-.659-.326-.97-.5a9.342,9.342,0,0,1-2.944-2.522,5.22,5.22,0,0,1-1.047-2.8v6.044a5.22,5.22,0,0,0,1.047,2.8,9.255,9.255,0,0,0,2.944,2.517c.31.179.637.348.97.5a21.932,21.932,0,0,0,17.357,0c.332-.158.654-.326.97-.5a9.254,9.254,0,0,0,2.938-2.517,5.116,5.116,0,0,0,1.058-3.022V97.764a5.1,5.1,0,0,1-1.058,3.022Z" transform="translate(-165.074 4.061)" fill="#862e2e"/>
      <path id="Path_8483" data-name="Path 8483" d="M165.075,43.629v66.52a5.22,5.22,0,0,0,1.047,2.8,9.341,9.341,0,0,0,2.944,2.522c.31.179.637.342.97.5a18.051,18.051,0,0,0,4.132,1.339l-2.473-70.105Z" transform="translate(-165.074 -8.1)" fill="#f5f5f5"/>
      <path id="Path_8484" data-name="Path 8484" d="M182.323,47.251l-2.473,70.105a18.051,18.051,0,0,0,4.132-1.339c.332-.162.654-.326.97-.5a9.321,9.321,0,0,0,2.938-2.522,5.1,5.1,0,0,0,1.058-3.022V43.443Z" transform="translate(-161.666 -8.142)" fill="#f5f5f5"/>
      <path id="Path_8485" data-name="Path 8485" d="M165.075,43.629v66.52a5.22,5.22,0,0,0,1.047,2.8,9.341,9.341,0,0,0,2.944,2.522c.31.179.637.342.97.5a18.051,18.051,0,0,0,4.132,1.339l-2.473-70.105Z" transform="translate(-165.074 -8.1)" fill="#653232"/>
      <path id="Path_8486" data-name="Path 8486" d="M182.323,47.251l-2.473,70.105a18.051,18.051,0,0,0,4.132-1.339c.332-.162.654-.326.97-.5a9.321,9.321,0,0,0,2.938-2.522,5.1,5.1,0,0,0,1.058-3.022V43.443Z" transform="translate(-161.666 -8.142)" fill="#653232"/>
      <path id="Path_8487" data-name="Path 8487" d="M170.457,46.552v69.439a19.621,19.621,0,0,0,2.473.673,22.95,22.95,0,0,0,4.547.451h0a23.366,23.366,0,0,0,4.547-.451,19.62,19.62,0,0,0,2.473-.673V46.552Z" transform="translate(-163.833 -7.445)" fill="#ebebeb"/>
      <path id="Path_8488" data-name="Path 8488" d="M179.987,26.494a5.021,5.021,0,0,1-.687.331,5.672,5.672,0,0,1-5.309-.331,2.3,2.3,0,0,1-1.434-2.268l3.14-8.751a1.374,1.374,0,0,1,1.291-.857h0a1.374,1.374,0,0,1,1.3.857l3.107,8.593h0C181.6,24.925,181.135,25.837,179.987,26.494Z" transform="translate(-163.348 -14.618)"/>
      <path id="Path_8489" data-name="Path 8489" d="M188.362,118.122a21.664,21.664,0,0,1-16.867,1.085q-.441-.152-.867-.342l-.393-.162c-.412-.184-.8-.385-1.172-.6-2.567-1.475-3.892-3.39-3.984-5.322V129.27c-.1,2.083,1.227,4.183,3.984,5.77.327.19.67.37,1.025.543.137.065.275.114.4.173.229.1.452.2.687.287s.365.131.549.19.387.137.589.2.446.125.67.184.343.1.518.137.518.114.779.162a3.17,3.17,0,0,1,.441.087c.294.054.595.092.894.137l.354.049c.332.038.665.065,1,.087h.261c.365.027.731.038,1.091.044h1.44c.412,0,.824-.049,1.236-.087h0a18.81,18.81,0,0,0,6.962-1.985h0c.12-.065.246-.12.365-.19,2.661-1.53,4-3.537,4-5.544V112.578C192.358,114.585,191.023,116.592,188.362,118.122Z" transform="translate(-165.073 7.388)"/>
    </g>
    <g id="freepik--Backpack--inject-1--inject-69" transform="translate(29.565 77.576)">
      <path id="Path_8490" data-name="Path 8490" d="M52.778,134.872a100.387,100.387,0,0,1-10.843-5.739,4.846,4.846,0,0,1-2.546-3.846c0-1.828.191-19.069,1.7-27.4a19.332,19.332,0,0,1,8.639-12.7c5.234-3.228,10.494-5.566,14.926-3.732A18.977,18.977,0,0,1,74.872,90.73c1.745,4.069,2.938,12.217,3.063,15.369s0,13.958,0,14.919-.174,2.208-5.37,5.425S60.2,133.5,57.978,134.487a8.517,8.517,0,0,1-5.2.379Z" transform="translate(-39.39 -77.324)" fill="#37474f"/>
      <path id="Path_8491" data-name="Path 8491" d="M49.622,88.076c-.479.275-1.864-.412-2.072-.749a7.9,7.9,0,0,1,.775-4.932c1.036-1.633,7.5-4.643,9.093-4.421a4.456,4.456,0,0,1,2.971,1.888,7.713,7.713,0,0,1,0,3.732c-.412.565-1.892-.3-2.022-.543s.485-2.252-.549-2.669c-.948-.379-5.451,1.525-7.281,3.054-.8.668-.758,2.322-.72,3.14S49.857,87.935,49.622,88.076Z" transform="translate(-37.532 -77.963)" fill="#455a64"/>
      <path id="Path_8492" data-name="Path 8492" d="M48.272,105.713c.927-8.957,2.595-14.186,11.4-18.086s12.226-.581,13.471,2.408A60.624,60.624,0,0,1,76.03,104.97c.125,3.151,0,13.958,0,14.919s-.174,2.208-5.37,5.425-12.364,7.053-14.588,8.045a8.517,8.517,0,0,1-5.2.4,6.945,6.945,0,0,1-1.014-.4C47.112,129.855,47.422,113.9,48.272,105.713Z" transform="translate(-37.48 -76.191)" fill="#455a64"/>
      <path id="Path_8493" data-name="Path 8493" d="M69.786,84.819c-2.3-1.339-6.073-2.224-11.612.234-9.9,4.389-12.413,9.891-13.41,19.529-.18,1.768-.446,3.874-.549,6.135l-.824-.493c.114-2.441.354-4.533.549-6.418,1.091-9.716,4.018-15.086,13.476-19.28,5.239-2.322,8.679-2.018,10.957-.874a17.133,17.133,0,0,1,1.407,1.166Z" transform="translate(-38.469 -76.882)" fill="#263238"/>
      <path id="Path_8494" data-name="Path 8494" d="M70.065,85.013c-2.3-1.339-6.073-2.224-11.607.234-9.9,4.389-12.418,9.891-13.416,19.53-.18,1.768-.446,3.874-.549,6.135l-.824-.493c.114-2.441.354-4.533.549-6.418,1.091-9.716,4.018-15.092,13.476-19.28,5.239-2.322,8.771-1.937,11.05-.8a15.171,15.171,0,0,1,1.313,1.091Z" transform="translate(-38.405 -76.828)" fill="#455a64"/>
      <path id="Path_8495" data-name="Path 8495" d="M63.828,91.933l-2.992-1.71a.644.644,0,0,0-.872.239l-3.069,5.311a.639.639,0,0,0,.229.874l2.955,1.714a.646.646,0,0,0,.878-.228l3.107-5.344a.622.622,0,0,0-.235-.863Z" transform="translate(-35.374 -75.229)" fill="#263238"/>
      <path id="Path_8496" data-name="Path 8496" d="M60.52,97.658,63.47,92.6a.313.313,0,0,0-.12-.434l-2.727-1.541a.323.323,0,0,0-.435.119l-2.916,5.04a.319.319,0,0,0,.12.434l2.683,1.556a.323.323,0,0,0,.452-.114Z" transform="translate(-35.277 -75.129)" fill="#455a64"/>
      <path id="Path_8497" data-name="Path 8497" d="M60.47,94.941h0a.591.591,0,0,0,.283-.445V92.071c0-.158-.125-.206-.283-.12h0a.591.591,0,0,0-.283.445v2.425C60.187,94.979,60.312,95.027,60.47,94.941Z" transform="translate(-34.595 -74.832)" fill="#37474f"/>
      <path id="Path_8498" data-name="Path 8498" d="M59.186,95.685h0a.607.607,0,0,0,.283-.451V92.816c0-.158-.137-.212-.283-.12h0a.58.58,0,0,0-.283.445v2.425C58.918,95.718,59.028,95.772,59.186,95.685Z" transform="translate(-34.89 -74.664)" fill="#37474f"/>
      <path id="Path_8499" data-name="Path 8499" d="M51.61,108.254s1.482,1.216,2.551,5.794,1.712,10.346.549,11.039-2.85-.76-3.271-1.258C50.574,122.8,50.787,111.922,51.61,108.254Z" transform="translate(-36.74 -71.159)" fill="#263238"/>
      <path id="Path_8500" data-name="Path 8500" d="M51.474,110.157s1.482,1.216,2.551,5.794,1.712,10.346.549,11.039l18-10.557c1.177-.694,1.466-6.755.4-11.333a8.716,8.716,0,0,0-2.791-5.072,1.161,1.161,0,0,0-1.291-.081l-17.406,10.21" transform="translate(-36.603 -73.061)" fill="#37474f"/>
      <path id="Path_8501" data-name="Path 8501" d="M69.8,100.578c.861.423,2.323,1.589,2.982,4.687a2.32,2.32,0,0,1-.736,2.355c-.6.423-13.476,7.709-15.182,8.723-1.471.874-2.235-.287-2.557-1.014h0c-.549-1.291-1.014-2.294-1.418-3.065a6.418,6.418,0,0,0-1.412-2.252l17.155-9.385a1.249,1.249,0,0,1,1.166-.049Z" transform="translate(-36.603 -72.91)" fill="#263238"/>
      <path id="Path_8502" data-name="Path 8502" d="M44.8,106.237a15.66,15.66,0,0,1,.485,2.848c0,.2-.267.3-.343.3a3.478,3.478,0,0,1-1.668-.846,16.329,16.329,0,0,1,.448-2.437Z" transform="translate(-38.495 -71.644)" fill="#263238"/>
      <path id="Path_8503" data-name="Path 8503" d="M45.357,105.776a1.041,1.041,0,1,0-1.041,1.036A1.041,1.041,0,0,0,45.357,105.776Z" transform="translate(-38.495 -71.953)" fill="#263238"/>
      <path id="Path_8504" data-name="Path 8504" d="M55.549,79.909c1.139-.109,2.213,0,2.486,1.133a3.672,3.672,0,0,1,0,2.311,2.731,2.731,0,0,1-1.537-.727c-.137-.245.485-2.252-.549-2.669a1.019,1.019,0,0,0-.393-.049Z" transform="translate(-35.664 -77.533)" fill="#263238"/>
      <path id="Path_8505" data-name="Path 8505" d="M68.989,99.9a1.249,1.249,0,0,1,1.172-.049c.861.423,2.323,1.589,2.982,4.687a2.326,2.326,0,0,1-.736,2.355c-.6.423-13.471,7.709-15.177,8.723-1.471.874-2.241-.287-2.562-1.014h0c-1.786-3.709-3.194-4.432-3.194-4.432Z" transform="translate(-36.603 -73.074)" fill="#37474f"/>
    </g>
    <g id="freepik--game-console--inject-1--inject-69" transform="translate(37.445 129.568)">
      <path id="Path_8506" data-name="Path 8506" d="M66.148,156.831l-14.435-8.289a2.862,2.862,0,0,1-1.3-2.235v.162a2.85,2.85,0,0,1,1.3-2.235l29.028-16.676a2.863,2.863,0,0,1,2.589,0l14.435,8.295a2.83,2.83,0,0,1,1.3,2.23v-.162a2.85,2.85,0,0,1-1.291,2.235L68.743,156.831a2.874,2.874,0,0,1-2.595,0Z" transform="translate(-44.726 -118.885)" fill="#407bff"/>
      <path id="Path_8507" data-name="Path 8507" d="M66.148,156.831l-14.435-8.289a2.862,2.862,0,0,1-1.3-2.235v.162a2.85,2.85,0,0,1,1.3-2.235l29.028-16.676a2.863,2.863,0,0,1,2.589,0l14.435,8.295a2.83,2.83,0,0,1,1.3,2.23v-.162a2.85,2.85,0,0,1-1.291,2.235L68.743,156.831a2.874,2.874,0,0,1-2.595,0Z" transform="translate(-44.726 -118.885)" opacity="0.7"/>
      <path id="Path_8508" data-name="Path 8508" d="M67.422,133.739l-15.728,9.038a2.85,2.85,0,0,0-1.3,2.235v-.162a2.861,2.861,0,0,0,1.3,2.235l14.435,8.289a2.665,2.665,0,0,0,1.3.309Z" transform="translate(-44.73 -117.427)" fill="#407bff"/>
      <path id="Path_8509" data-name="Path 8509" d="M67.422,133.739l-15.728,9.038a2.85,2.85,0,0,0-1.3,2.235v-.162a2.861,2.861,0,0,0,1.3,2.235l14.435,8.289a2.665,2.665,0,0,0,1.3.309Z" transform="translate(-44.73 -117.427)" opacity="0.7"/>
      <path id="Path_8510" data-name="Path 8510" d="M51.566,145.727l14.424,8.295a2.912,2.912,0,0,0,2.595,0L97.613,137.34c.72-.412.72-1.085,0-1.486l-14.435-8.295a2.863,2.863,0,0,0-2.589,0L51.566,144.235a.786.786,0,0,0,0,1.492Z" transform="translate(-44.586 -118.885)" fill="#407bff"/>
      <path id="Path_8511" data-name="Path 8511" d="M51.566,145.727l14.424,8.295a2.912,2.912,0,0,0,2.595,0L97.613,137.34c.72-.412.72-1.085,0-1.486l-14.435-8.295a2.863,2.863,0,0,0-2.589,0L51.566,144.235a.786.786,0,0,0,0,1.492Z" transform="translate(-44.586 -118.885)" opacity="0.5"/>
      <path id="Path_8512" data-name="Path 8512" d="M51.465,141.656v1.374l14.974,8.609a1.511,1.511,0,0,0,1.5,0l29.58-16.992v-1.422L67.193,147.872Z" transform="translate(-44.485 -117.542)" fill="#407bff"/>
      <path id="Path_8513" data-name="Path 8513" d="M66.143,152.827l-14.435-8.295a2.839,2.839,0,0,1-1.3-2.235v-2.653a2.839,2.839,0,0,1,1.3-2.235l29.028-16.681a2.863,2.863,0,0,1,2.589,0l14.435,8.295a2.839,2.839,0,0,1,1.3,2.235v2.658a2.758,2.758,0,0,1-1.3,2.17L68.732,152.813a2.863,2.863,0,0,1-2.589.016Z" transform="translate(-44.728 -120.419)" fill="#407bff"/>
      <path id="Path_8514" data-name="Path 8514" d="M66.143,152.827l-14.435-8.295a2.839,2.839,0,0,1-1.3-2.235v-2.653a2.839,2.839,0,0,1,1.3-2.235l29.028-16.681a2.863,2.863,0,0,1,2.589,0l14.435,8.295a2.839,2.839,0,0,1,1.3,2.235v2.658a2.758,2.758,0,0,1-1.3,2.17L68.732,152.813a2.863,2.863,0,0,1-2.589.016Z" transform="translate(-44.728 -120.419)" opacity="0.6"/>
      <path id="Path_8515" data-name="Path 8515" d="M67.422,126.912,51.694,135.95a2.84,2.84,0,0,0-1.3,2.235v2.653a2.84,2.84,0,0,0,1.3,2.235l14.435,8.295a2.627,2.627,0,0,0,1.291.309Z" transform="translate(-44.73 -118.96)" fill="#407bff"/>
      <path id="Path_8516" data-name="Path 8516" d="M67.422,126.912,51.694,135.95a2.84,2.84,0,0,0-1.3,2.235v2.653a2.84,2.84,0,0,0,1.3,2.235l14.435,8.295a2.627,2.627,0,0,0,1.291.309Z" transform="translate(-44.73 -118.96)" opacity="0.7"/>
      <path id="Path_8517" data-name="Path 8517" d="M51.564,138.9l14.424,8.295a2.874,2.874,0,0,0,2.595,0l29.028-16.676a.786.786,0,0,0,0-1.492l-14.435-8.295a2.863,2.863,0,0,0-2.589,0L51.564,137.409A.784.784,0,0,0,51.564,138.9Z" transform="translate(-44.585 -120.419)" fill="#407bff"/>
      <path id="Path_8518" data-name="Path 8518" d="M51.564,138.9l14.424,8.295a2.874,2.874,0,0,0,2.595,0l29.028-16.676a.786.786,0,0,0,0-1.492l-14.435-8.295a2.863,2.863,0,0,0-2.589,0L51.564,137.409A.784.784,0,0,0,51.564,138.9Z" transform="translate(-44.585 -120.419)" opacity="0.5"/>
      <path id="Path_8519" data-name="Path 8519" d="M68.049,130.25a1.746,1.746,0,0,0,0,3.315,6.472,6.472,0,0,0,5.789,0,1.746,1.746,0,0,0,0-3.315A6.439,6.439,0,0,0,68.049,130.25Z" transform="translate(-40.935 -118.365)" fill="#407bff"/>
      <path id="Path_8520" data-name="Path 8520" d="M87.073,130.928a1.117,1.117,0,0,0-.507.879c0,.326.229.462.507.3a1.117,1.117,0,0,0,.507-.879C87.574,130.913,87.352,130.775,87.073,130.928Z" transform="translate(-36.389 -118.072)" fill="#407bff"/>
      <path id="Path_8521" data-name="Path 8521" d="M87.073,132.517a1.117,1.117,0,0,0-.507.879c0,.326.229.462.507.3a1.084,1.084,0,0,0,.507-.879C87.574,132.5,87.352,132.362,87.073,132.517Z" transform="translate(-36.389 -117.715)" fill="#407bff"/>
      <path id="Path_8522" data-name="Path 8522" d="M61.162,163.693a.4.4,0,0,1-.191-.049l-13.987-8.088a2.37,2.37,0,0,1,0-4.112l10.253-5.892a.383.383,0,0,1,.5.148.379.379,0,0,1-.121.508l-10.248,5.875a1.624,1.624,0,0,0,0,2.8L61.36,162.96a.393.393,0,0,1-.2.732Z" transform="translate(-45.793 -114.782)" fill="#407bff"/>
      <path id="Path_8523" data-name="Path 8523" d="M76.725,156.567l-3.03-12.108a3.244,3.244,0,0,0-.169-.488l.883-.125-1.923-1.085h0a2.54,2.54,0,0,0-2.61.114l-12.62,7.27a6.553,6.553,0,0,0-2.971,5.143V169.85c0,1.161.283,1.959.867,2.235h0l1.809,1.041-.435-1.15.1-.038a6.963,6.963,0,0,0,3.451-4.573l2.4-6.917a9.711,9.711,0,0,1,3.456-4.573,3.129,3.129,0,0,1,4.035,1.628l1.21,2.1a3.937,3.937,0,0,0,1.6,1.573h0l1.842,1.085-.468-.727a2.155,2.155,0,0,0,1.091-.293,4.421,4.421,0,0,0,1.48-4.679Z" transform="translate(-43.835 -115.469)" fill="#407bff"/>
      <path id="Path_8524" data-name="Path 8524" d="M76.725,156.567l-3.03-12.108a3.244,3.244,0,0,0-.169-.488l.883-.125-1.923-1.085h0a2.54,2.54,0,0,0-2.61.114l-12.62,7.27a6.553,6.553,0,0,0-2.971,5.143V169.85c0,1.161.283,1.959.867,2.235h0l1.809,1.041-.435-1.15.1-.038a6.963,6.963,0,0,0,3.451-4.573l2.4-6.917a9.711,9.711,0,0,1,3.456-4.573,3.129,3.129,0,0,1,4.035,1.628l1.21,2.1a3.937,3.937,0,0,0,1.6,1.573h0l1.842,1.085-.468-.727a2.155,2.155,0,0,0,1.091-.293,4.421,4.421,0,0,0,1.48-4.679Z" transform="translate(-43.835 -115.469)" opacity="0.7"/>
      <path id="Path_8525" data-name="Path 8525" d="M73.3,143.971l.883-.125L72.26,142.76h0a2.54,2.54,0,0,0-2.61.114l-12.62,7.27a5.788,5.788,0,0,0-1.767,1.709l3,1.823,15.362-8.637-.147-.581a3.241,3.241,0,0,0-.183-.488Z" transform="translate(-43.61 -115.47)" fill="#407bff"/>
      <path id="Path_8526" data-name="Path 8526" d="M73.3,143.971l.883-.125L72.26,142.76h0a2.54,2.54,0,0,0-2.61.114l-12.62,7.27a5.788,5.788,0,0,0-1.767,1.709l3,1.823,15.362-8.637-.147-.581a3.241,3.241,0,0,0-.183-.488Z" transform="translate(-43.61 -115.47)" opacity="0.5"/>
      <path id="Path_8527" data-name="Path 8527" d="M76.806,162.172a3.144,3.144,0,0,1-4.05-1.628l-1.2-2.1a3.127,3.127,0,0,0-4.04-1.628,9.45,9.45,0,0,0-3.456,4.573l-2.4,6.911a6.972,6.972,0,0,1-3.456,4.573c-1.57.749-2.327-.2-2.327-2.083V156.215a6.558,6.558,0,0,1,2.977-5.138l12.638-7.3A2.445,2.445,0,0,1,75.3,145.41l3.03,12.113A4.367,4.367,0,0,1,76.806,162.172Z" transform="translate(-43.468 -115.27)" fill="#407bff"/>
      <path id="Path_8528" data-name="Path 8528" d="M76.806,162.172a3.144,3.144,0,0,1-4.05-1.628l-1.2-2.1a3.127,3.127,0,0,0-4.04-1.628,9.45,9.45,0,0,0-3.456,4.573l-2.4,6.911a6.972,6.972,0,0,1-3.456,4.573c-1.57.749-2.327-.2-2.327-2.083V156.215a6.558,6.558,0,0,1,2.977-5.138l12.638-7.3A2.445,2.445,0,0,1,75.3,145.41l3.03,12.113A4.367,4.367,0,0,1,76.806,162.172Z" transform="translate(-43.468 -115.27)" opacity="0.6"/>
      <path id="Path_8529" data-name="Path 8529" d="M69.364,147.125l.316,1.786,1.4-.89.31,1.786-1.4.9.316,1.786-1.4.89-.316-1.786-1.4.9-.316-1.786,1.4-.89-.316-1.786Z" transform="translate(-40.927 -114.42)" fill="#263238"/>
      <path id="Path_8530" data-name="Path 8530" d="M69.692,147.3l.316,1.786,1.4-.89.316,1.786-1.4.9.316,1.786-1.4.89-.316-1.786-1.4.89-.316-1.786,1.4-.89L68.3,148.2Z" transform="translate(-40.851 -114.38)" fill="#407bff"/>
      <path id="Path_8531" data-name="Path 8531" d="M60.574,152.388a1.423,1.423,0,0,1-.549,1.339c-.387.245-.769.044-.856-.451a1.407,1.407,0,0,1,.549-1.339C60.1,151.694,60.5,151.895,60.574,152.388Z" transform="translate(-42.712 -113.362)" fill="#263238"/>
      <path id="Path_8532" data-name="Path 8532" d="M61.087,155.3a1.407,1.407,0,0,1-.549,1.339c-.387.245-.769.044-.856-.445a1.4,1.4,0,0,1,.549-1.339C60.613,154.607,61,154.809,61.087,155.3Z" transform="translate(-42.594 -112.707)" fill="#263238"/>
      <path id="Path_8533" data-name="Path 8533" d="M61.965,153.114a1.4,1.4,0,0,1-.549,1.339c-.387.25-.769.049-.856-.445a1.4,1.4,0,0,1,.549-1.339C61.5,152.424,61.877,152.614,61.965,153.114Z" transform="translate(-42.391 -113.199)" fill="#263238"/>
      <path id="Path_8534" data-name="Path 8534" d="M59.7,154.57a1.4,1.4,0,0,1-.549,1.339c-.387.25-.769.049-.856-.445a1.407,1.407,0,0,1,.549-1.339C59.227,153.882,59.609,154.077,59.7,154.57Z" transform="translate(-42.914 -112.871)" fill="#263238"/>
      <path id="Path_8535" data-name="Path 8535" d="M60.6,152.4a1.407,1.407,0,0,1-.549,1.339c-.387.245-.769.049-.856-.445a1.4,1.4,0,0,1,.549-1.339C60.127,151.706,60.491,151.907,60.6,152.4Z" transform="translate(-42.707 -113.358)" fill="#263238"/>
      <path id="Path_8536" data-name="Path 8536" d="M61.11,155.316a1.4,1.4,0,0,1-.549,1.339c-.387.25-.769.049-.856-.445a1.4,1.4,0,0,1,.549-1.339C60.64,154.626,61.022,154.821,61.11,155.316Z" transform="translate(-42.588 -112.704)" fill="#263238"/>
      <path id="Path_8537" data-name="Path 8537" d="M61.986,153.132a1.4,1.4,0,0,1-.549,1.334c-.382.25-.769.049-.856-.445a1.418,1.418,0,0,1,.549-1.339C61.518,152.438,61.9,152.639,61.986,153.132Z" transform="translate(-42.386 -113.194)" fill="#263238"/>
      <path id="Path_8538" data-name="Path 8538" d="M59.718,154.59a1.407,1.407,0,0,1-.549,1.339c-.382.245-.769.044-.856-.451a1.423,1.423,0,0,1,.549-1.339C59.25,153.895,59.63,154.1,59.718,154.59Z" transform="translate(-42.909 -112.867)" fill="#263238"/>
      <path id="Path_8539" data-name="Path 8539" d="M60.617,152.414a1.4,1.4,0,0,1-.549,1.339c-.382.25-.769.049-.856-.445a1.418,1.418,0,0,1,.549-1.339C60.149,151.724,60.531,151.914,60.617,152.414Z" transform="translate(-42.701 -113.356)" fill="#263238"/>
      <path id="Path_8540" data-name="Path 8540" d="M61.131,155.334a1.4,1.4,0,0,1-.549,1.334c-.382.25-.769.049-.856-.445a1.418,1.418,0,0,1,.549-1.339C60.658,154.639,61.044,154.839,61.131,155.334Z" transform="translate(-42.583 -112.7)" fill="#263238"/>
      <path id="Path_8541" data-name="Path 8541" d="M62.013,153.145a1.418,1.418,0,0,1-.549,1.339c-.387.245-.769.044-.856-.445a1.4,1.4,0,0,1,.549-1.339C61.539,152.45,61.926,152.651,62.013,153.145Z" transform="translate(-42.381 -113.192)" fill="#263238"/>
      <path id="Path_8542" data-name="Path 8542" d="M59.745,154.6a1.418,1.418,0,0,1-.549,1.339c-.387.244-.769.049-.856-.445a1.4,1.4,0,0,1,.549-1.339C59.271,153.908,59.658,154.109,59.745,154.6Z" transform="translate(-42.903 -112.864)" fill="#263238"/>
      <path id="Path_8543" data-name="Path 8543" d="M60.645,152.432a1.418,1.418,0,0,1-.549,1.339c-.387.245-.769.044-.856-.451a1.4,1.4,0,0,1,.549-1.334C60.169,151.736,60.557,151.954,60.645,152.432Z" transform="translate(-42.695 -113.351)" fill="#263238"/>
      <path id="Path_8544" data-name="Path 8544" d="M61.158,155.351a1.418,1.418,0,0,1-.549,1.339c-.387.245-.769.049-.856-.445a1.4,1.4,0,0,1,.549-1.339C60.684,154.652,61.071,154.852,61.158,155.351Z" transform="translate(-42.578 -112.697)" fill="#263238"/>
      <path id="Path_8545" data-name="Path 8545" d="M62.036,153.157a1.4,1.4,0,0,1-.549,1.339c-.387.25-.769.049-.856-.445a1.407,1.407,0,0,1,.549-1.339C61.566,152.469,61.948,152.664,62.036,153.157Z" transform="translate(-42.375 -113.189)" fill="#263238"/>
      <path id="Path_8546" data-name="Path 8546" d="M59.767,154.616a1.4,1.4,0,0,1-.549,1.339c-.387.25-.769.049-.856-.445a1.407,1.407,0,0,1,.549-1.339C59.3,153.926,59.68,154.121,59.767,154.616Z" transform="translate(-42.899 -112.861)" fill="#263238"/>
      <path id="Path_8547" data-name="Path 8547" d="M60.667,152.445a1.407,1.407,0,0,1-.549,1.339c-.387.244-.769.049-.856-.445A1.4,1.4,0,0,1,59.811,152C60.2,151.75,60.579,151.951,60.667,152.445Z" transform="translate(-42.69 -113.349)" fill="#263238"/>
      <path id="Path_8548" data-name="Path 8548" d="M61.181,155.36a1.4,1.4,0,0,1-.549,1.339c-.387.25-.769.049-.856-.445a1.407,1.407,0,0,1,.549-1.339C60.711,154.67,61.093,154.865,61.181,155.36Z" transform="translate(-42.572 -112.694)" fill="#263238"/>
      <path id="Path_8549" data-name="Path 8549" d="M62.058,153.176a1.412,1.412,0,0,1-.549,1.339c-.387.245-.769.044-.856-.451a1.407,1.407,0,0,1,.549-1.339C61.588,152.482,61.97,152.683,62.058,153.176Z" transform="translate(-42.369 -113.185)" fill="#263238"/>
      <path id="Path_8550" data-name="Path 8550" d="M59.786,154.633a1.407,1.407,0,0,1-.549,1.339c-.382.245-.769.044-.856-.451a1.412,1.412,0,0,1,.549-1.334C59.321,153.939,59.7,154.14,59.786,154.633Z" transform="translate(-42.894 -112.856)" fill="#263238"/>
      <path id="Path_8551" data-name="Path 8551" d="M60.686,152.458a1.4,1.4,0,0,1-.549,1.339c-.382.25-.769.049-.856-.445a1.418,1.418,0,0,1,.549-1.339C60.221,151.77,60.6,151.949,60.686,152.458Z" transform="translate(-42.687 -113.345)" fill="#263238"/>
      <path id="Path_8552" data-name="Path 8552" d="M61.2,155.378a1.412,1.412,0,0,1-.549,1.339c-.382.244-.769.044-.856-.451a1.418,1.418,0,0,1,.549-1.339C60.734,154.684,61.115,154.885,61.2,155.378Z" transform="translate(-42.566 -112.69)" fill="#263238"/>
      <path id="Path_8553" data-name="Path 8553" d="M62.08,153.189a1.407,1.407,0,0,1-.549,1.339c-.382.245-.769.049-.856-.445a1.412,1.412,0,0,1,.549-1.339C61.611,152.5,61.992,152.7,62.08,153.189Z" transform="translate(-42.365 -113.182)" fill="#263238"/>
      <path id="Path_8554" data-name="Path 8554" d="M59.816,154.65a1.418,1.418,0,0,1-.549,1.339c-.387.244-.769.049-.856-.445a1.4,1.4,0,0,1,.549-1.339C59.342,153.951,59.729,154.168,59.816,154.65Z" transform="translate(-42.887 -112.853)" fill="#263238"/>
      <path id="Path_8555" data-name="Path 8555" d="M60.715,152.486a1.418,1.418,0,0,1-.55,1.339c-.387.245-.769.044-.856-.445a1.4,1.4,0,0,1,.549-1.339C60.241,151.781,60.628,151.982,60.715,152.486Z" transform="translate(-42.679 -113.341)" fill="#263238"/>
      <path id="Path_8556" data-name="Path 8556" d="M61.229,155.391a1.418,1.418,0,0,1-.549,1.339c-.387.245-.769.049-.856-.445a1.4,1.4,0,0,1,.549-1.339C60.759,154.7,61.142,154.9,61.229,155.391Z" transform="translate(-42.561 -112.687)" fill="#263238"/>
      <path id="Path_8557" data-name="Path 8557" d="M62.106,153.2a1.412,1.412,0,0,1-.549,1.339c-.387.25-.769.049-.856-.445a1.407,1.407,0,0,1,.549-1.339C61.632,152.513,62.019,152.708,62.106,153.2Z" transform="translate(-42.358 -113.178)" fill="#263238"/>
      <path id="Path_8558" data-name="Path 8558" d="M59.838,154.66A1.4,1.4,0,0,1,59.288,156c-.387.25-.769.049-.856-.445a1.407,1.407,0,0,1,.549-1.339C59.369,153.97,59.751,154.166,59.838,154.66Z" transform="translate(-42.882 -112.851)" fill="#263238"/>
      <path id="Path_8559" data-name="Path 8559" d="M60.738,152.484a1.4,1.4,0,0,1-.549,1.339c-.387.25-.769.049-.856-.445a1.4,1.4,0,0,1,.549-1.339C60.268,151.795,60.65,152,60.738,152.484Z" transform="translate(-42.675 -113.34)" fill="#263238"/>
      <path id="Path_8560" data-name="Path 8560" d="M61.251,155.4a1.4,1.4,0,0,1-.549,1.339c-.387.25-.769.049-.856-.445a1.407,1.407,0,0,1,.549-1.339C60.782,154.715,61.163,154.91,61.251,155.4Z" transform="translate(-42.556 -112.683)" fill="#263238"/>
      <path id="Path_8561" data-name="Path 8561" d="M62.129,153.22a1.407,1.407,0,0,1-.549,1.339c-.387.245-.769.044-.856-.451a1.4,1.4,0,0,1,.549-1.334C61.659,152.526,62.041,152.727,62.129,153.22Z" transform="translate(-42.354 -113.174)" fill="#263238"/>
      <path id="Path_8562" data-name="Path 8562" d="M59.86,154.7a1.407,1.407,0,0,1-.549,1.339c-.382.245-.769.044-.856-.445A1.4,1.4,0,0,1,59,154.259C59.391,153.982,59.773,154.162,59.86,154.7Z" transform="translate(-42.876 -112.846)" fill="#263238"/>
      <path id="Path_8563" data-name="Path 8563" d="M60.76,152.508a1.4,1.4,0,0,1-.549,1.334c-.387.25-.769.049-.856-.445a1.407,1.407,0,0,1,.549-1.339C60.29,151.813,60.672,152.017,60.76,152.508Z" transform="translate(-42.669 -113.336)" fill="#263238"/>
      <path id="Path_8564" data-name="Path 8564" d="M61.274,155.422a1.407,1.407,0,0,1-.549,1.339c-.382.245-.769.044-.856-.451a1.4,1.4,0,0,1,.549-1.334C60.8,154.727,61.186,154.928,61.274,155.422Z" transform="translate(-42.551 -112.68)" fill="#263238"/>
      <path id="Path_8565" data-name="Path 8565" d="M62.151,153.233a1.407,1.407,0,0,1-.549,1.339c-.382.245-.769.049-.856-.445a1.412,1.412,0,0,1,.549-1.339C61.681,152.539,62.063,152.74,62.151,153.233Z" transform="translate(-42.348 -113.172)" fill="#263238"/>
      <path id="Path_8566" data-name="Path 8566" d="M59.887,154.7a1.4,1.4,0,0,1-.549,1.339c-.382.25-.764.049-.856-.445a1.412,1.412,0,0,1,.549-1.339C59.411,154,59.793,154.2,59.887,154.7Z" transform="translate(-42.87 -112.843)" fill="#263238"/>
      <path id="Path_8567" data-name="Path 8567" d="M60.782,152.52a1.407,1.407,0,0,1-.549,1.339c-.382.245-.769.044-.856-.445a1.412,1.412,0,0,1,.549-1.339C60.313,151.826,60.694,152.027,60.782,152.52Z" transform="translate(-42.663 -113.331)" fill="#263238"/>
      <path id="Path_8568" data-name="Path 8568" d="M61.294,155.435a1.407,1.407,0,0,1-.549,1.339c-.382.245-.764.049-.85-.445a1.4,1.4,0,0,1,.549-1.339C60.826,154.74,61.208,154.942,61.294,155.435Z" transform="translate(-42.544 -112.678)" fill="#263238"/>
      <path id="Path_8569" data-name="Path 8569" d="M62.177,153.249a1.412,1.412,0,0,1-.549,1.339c-.387.25-.769.049-.856-.445a1.407,1.407,0,0,1,.549-1.339C61.7,152.562,62.09,152.756,62.177,153.249Z" transform="translate(-42.343 -113.166)" fill="#263238"/>
      <path id="Path_8570" data-name="Path 8570" d="M59.909,154.7a1.412,1.412,0,0,1-.549,1.334c-.387.25-.769.049-.856-.445a1.407,1.407,0,0,1,.549-1.339C59.435,154.015,59.822,154.218,59.909,154.7Z" transform="translate(-42.865 -112.841)" fill="#263238"/>
      <path id="Path_8571" data-name="Path 8571" d="M60.808,152.534a1.412,1.412,0,0,1-.549,1.339c-.387.25-.769.049-.856-.445a1.407,1.407,0,0,1,.549-1.339C60.334,151.844,60.721,152.039,60.808,152.534Z" transform="translate(-42.658 -113.329)" fill="#263238"/>
      <path id="Path_8572" data-name="Path 8572" d="M61.322,155.449a1.412,1.412,0,0,1-.549,1.339c-.387.25-.769.049-.856-.445A1.407,1.407,0,0,1,60.466,155C60.87,154.762,61.235,154.959,61.322,155.449Z" transform="translate(-42.54 -112.672)" fill="#263238"/>
      <path id="Path_8573" data-name="Path 8573" d="M62.2,153.264a1.407,1.407,0,0,1-.549,1.339c-.387.244-.769.044-.856-.445a1.4,1.4,0,0,1,.549-1.339C61.758,152.57,62.112,152.771,62.2,153.264Z" transform="translate(-42.337 -113.165)" fill="#263238"/>
      <path id="Path_8574" data-name="Path 8574" d="M59.931,154.722a1.407,1.407,0,0,1-.55,1.339c-.387.245-.769.044-.856-.445a1.4,1.4,0,0,1,.549-1.339C59.458,154.027,59.844,154.228,59.931,154.722Z" transform="translate(-42.861 -112.837)" fill="#263238"/>
      <path id="Path_8575" data-name="Path 8575" d="M60.831,152.55a1.412,1.412,0,0,1-.549,1.339c-.387.245-.769.044-.856-.451a1.407,1.407,0,0,1,.549-1.339C60.358,151.863,60.743,152.058,60.831,152.55Z" transform="translate(-42.652 -113.324)" fill="#263238"/>
      <path id="Path_8576" data-name="Path 8576" d="M61.344,155.466a1.407,1.407,0,0,1-.549,1.339c-.387.245-.769.044-.856-.445a1.4,1.4,0,0,1,.549-1.339C60.864,154.771,61.257,154.972,61.344,155.466Z" transform="translate(-42.535 -112.67)" fill="#263238"/>
      <path id="Path_8577" data-name="Path 8577" d="M62.222,153.278a1.4,1.4,0,0,1-.549,1.339c-.382.25-.769.049-.856-.445a1.412,1.412,0,0,1,.549-1.339C61.752,152.583,62.134,152.784,62.222,153.278Z" transform="translate(-42.331 -113.161)" fill="#263238"/>
      <path id="Path_8578" data-name="Path 8578" d="M59.953,154.734a1.4,1.4,0,0,1-.549,1.339c-.382.25-.769.049-.856-.445a1.418,1.418,0,0,1,.549-1.339C59.484,154.046,59.861,154.241,59.953,154.734Z" transform="translate(-42.855 -112.834)" fill="#263238"/>
      <path id="Path_8579" data-name="Path 8579" d="M69.162,147.125l.4.212-1.4.9-.4-.212Z" transform="translate(-40.726 -114.42)" fill="#263238"/>
      <path id="Path_8580" data-name="Path 8580" d="M68.285,149.314l.4.212-1.4.89-.4-.212Z" transform="translate(-40.927 -113.928)" fill="#263238"/>
      <path id="Path_8581" data-name="Path 8581" d="M69.5,148.957l-.077-.412,1.074-.687.4.212Z" transform="translate(-40.343 -114.255)" fill="#263238"/>
      <path id="Path_8582" data-name="Path 8582" d="M66.889,150.04l.4.212.316,1.786-.4-.206Z" transform="translate(-40.927 -113.765)" fill="#263238"/>
      <path id="Path_8583" data-name="Path 8583" d="M68.582,152.517l.4.212-.316-1.786-.327.212Z" transform="translate(-40.592 -113.562)" fill="#263238"/>
      <path id="Path_8584" data-name="Path 8584" d="M60.831,152.55a1.412,1.412,0,0,1-.549,1.339c-.387.245-.769.044-.856-.451a1.407,1.407,0,0,1,.549-1.339C60.358,151.863,60.743,152.058,60.831,152.55Z" transform="translate(-42.652 -113.324)" fill="#407bff"/>
      <path id="Path_8585" data-name="Path 8585" d="M61.344,155.466a1.407,1.407,0,0,1-.549,1.339c-.387.245-.769.044-.856-.445a1.4,1.4,0,0,1,.549-1.339C60.864,154.771,61.257,154.972,61.344,155.466Z" transform="translate(-42.535 -112.67)" fill="#407bff"/>
      <path id="Path_8586" data-name="Path 8586" d="M62.222,153.278a1.4,1.4,0,0,1-.549,1.339c-.382.25-.769.049-.856-.445a1.412,1.412,0,0,1,.549-1.339C61.752,152.583,62.134,152.784,62.222,153.278Z" transform="translate(-42.331 -113.161)" fill="#407bff"/>
      <path id="Path_8587" data-name="Path 8587" d="M59.953,154.734a1.4,1.4,0,0,1-.549,1.339c-.382.25-.769.049-.856-.445a1.418,1.418,0,0,1,.549-1.339C59.484,154.046,59.861,154.241,59.953,154.734Z" transform="translate(-42.855 -112.834)" fill="#407bff"/>
    </g>
    <g id="freepik--Cloud--inject-1--inject-69" transform="translate(34.657 14.025)">
      <path id="Path_8588" data-name="Path 8588" d="M77.9,29.236,72.043,32.6a6.153,6.153,0,0,0,.049-.771V30.143c0-3.006-2.121-4.226-4.732-2.713a9.052,9.052,0,0,0-2.824,2.713c-.43-3.8-3.407-5.186-7.027-3.109a15.579,15.579,0,0,0-7.087,12.211v2.526a6.656,6.656,0,0,0,.6,2.929l-4.867,2.8a5.783,5.783,0,0,0-2.628,4.533c0,1.665,1.177,2.344,2.628,1.511L77.9,35.3a5.783,5.783,0,0,0,2.628-4.533C80.531,29.08,79.365,28.4,77.9,29.236Z" transform="translate(-43.527 -26.07)" fill="#91b3cd"/>
    </g>
    <g id="freepik--Character--inject-1--inject-69" transform="translate(77.039 29.214)">
      <path id="Path_8589" data-name="Path 8589" d="M170.6,152.608,169.513,152l.775-.348s.6.162.621.19a3.075,3.075,0,0,1-.044.412Z" transform="translate(-56.852 -13.05)" fill="#e0e0e0"/>
      <path id="Path_8590" data-name="Path 8590" d="M170.6,152.608,169.513,152l.775-.348s.6.162.621.19a3.075,3.075,0,0,1-.044.412Z" transform="translate(-56.852 -13.05)" fill="#407bff"/>
      <path id="Path_8591" data-name="Path 8591" d="M170.6,152.608,169.513,152l.775-.348s.6.162.621.19a3.075,3.075,0,0,1-.044.412Z" transform="translate(-56.852 -13.05)" fill="#fff" opacity="0.1"/>
      <path id="Path_8592" data-name="Path 8592" d="M147,178.367a3.466,3.466,0,0,0,3.118,0L185.088,158.3,132.749,128.22l-1.221-.7-34.96,20.07a.945.945,0,0,0,0,1.786Z" transform="translate(-73.822 -18.47)" fill="#407bff"/>
      <path id="Path_8593" data-name="Path 8593" d="M147,178.367a3.466,3.466,0,0,0,3.118,0L185.088,158.3,132.749,128.22l-1.221-.7-34.96,20.07a.945.945,0,0,0,0,1.786Z" transform="translate(-73.822 -18.47)" fill="#fff" opacity="0.8"/>
      <path id="Path_8594" data-name="Path 8594" d="M148.909,138.049,161.1,145.03,169,140.5l9.164,5.283v6.569c0,.8-.9,1.931-1.227,1.747a9.081,9.081,0,0,0-1.756.618,13.171,13.171,0,0,0-2.535,1.866l-28.024-16.1Z" transform="translate(-62.594 -16.104)" fill="#e0e0e0"/>
      <path id="Path_8595" data-name="Path 8595" d="M148.909,138.049,161.1,145.03,169,140.5l9.164,5.283v6.569c0,.8-.9,1.931-1.227,1.747a9.081,9.081,0,0,0-1.756.618,13.171,13.171,0,0,0-2.535,1.866l-28.024-16.1Z" transform="translate(-62.594 -16.104)" fill="#407bff"/>
      <path id="Path_8596" data-name="Path 8596" d="M148.909,138.049,161.1,145.03,169,140.5l9.164,5.283v6.569c0,.8-.9,1.931-1.227,1.747a9.081,9.081,0,0,0-1.756.618,13.171,13.171,0,0,0-2.535,1.866l-28.024-16.1Z" transform="translate(-62.594 -16.104)" fill="#fff" opacity="0.1"/>
      <path id="Path_8597" data-name="Path 8597" d="M140.272,173.529l2.11-1.216,31.656-18.184a2,2,0,0,1,.431-1.128,4.573,4.573,0,0,1,1.385-1.216,3.189,3.189,0,0,1,1.493-.462,1.6,1.6,0,0,1,.981.32,5.333,5.333,0,0,0,.584-2.61h1.2c0,1.628-.549,3.3-1.216,3.677l-.6.353c-.343.2-.615.206-.615,0v-.32c0-.359-.549-.342-1.221.049s-1.216.988-1.216,1.345v.326c0,.184-.468.6-1.036.922l-30.616,17.6-3.315,1.9h0a3.284,3.284,0,0,1-1.554.364v-1.374a3.125,3.125,0,0,0,1.554-.342Z" transform="translate(-63.954 -13.638)" fill="#407bff"/>
      <path id="Path_8598" data-name="Path 8598" d="M140.272,173.529l2.11-1.216,31.656-18.184a2,2,0,0,1,.431-1.128,4.573,4.573,0,0,1,1.385-1.216,3.189,3.189,0,0,1,1.493-.462,1.6,1.6,0,0,1,.981.32,5.333,5.333,0,0,0,.584-2.61h1.2c0,1.628-.549,3.3-1.216,3.677l-.6.353c-.343.2-.615.206-.615,0v-.32c0-.359-.549-.342-1.221.049s-1.216.988-1.216,1.345v.326c0,.184-.468.6-1.036.922l-30.616,17.6-3.315,1.9h0a3.284,3.284,0,0,1-1.554.364v-1.374a3.125,3.125,0,0,0,1.554-.342Z" transform="translate(-63.954 -13.638)" fill="#fff" opacity="0.6"/>
      <path id="Path_8599" data-name="Path 8599" d="M95.917,144.618v1.405a1.085,1.085,0,0,0,.621.879h0l47.138,27.082,3.309,1.9h0a3.283,3.283,0,0,0,1.554.364v-1.374a3.124,3.124,0,0,1-1.559-.374l-2.1-1.21h0L96.539,145.5a1.085,1.085,0,0,1-.622-.885Z" transform="translate(-73.826 -14.629)" fill="#407bff"/>
      <path id="Path_8600" data-name="Path 8600" d="M95.917,144.618v1.405a1.085,1.085,0,0,0,.621.879h0l47.138,27.082,3.309,1.9h0a3.283,3.283,0,0,0,1.554.364v-1.374a3.124,3.124,0,0,1-1.559-.374l-2.1-1.21h0L96.539,145.5a1.085,1.085,0,0,1-.622-.885Z" transform="translate(-73.826 -14.629)" fill="#fff" opacity="0.1"/>
      <path id="Path_8601" data-name="Path 8601" d="M138.7,165.348v8.05a2.061,2.061,0,0,0,1.036-.245l3.816-2.2,29.216-16.788v-8.4Z" transform="translate(-63.958 -14.37)" fill="#fff"/>
      <path id="Path_8602" data-name="Path 8602" d="M97.153,138.589v6.2a2.282,2.282,0,0,0,1.036,1.786l45.246,25.985,3.816,2.2a2.074,2.074,0,0,0,1.036.245v-7.187Z" transform="translate(-73.541 -15.983)" fill="#f0f0f0"/>
      <path id="Path_8603" data-name="Path 8603" d="M166.4,154.611a2.033,2.033,0,0,1,.441-1.128,4.626,4.626,0,0,1,1.385-1.21,3.113,3.113,0,0,1,1.488-.467,1.64,1.64,0,0,1,.986.32v-8.38l-4.29,2.473Z" transform="translate(-57.569 -14.825)" fill="#455a64"/>
      <path id="Path_8604" data-name="Path 8604" d="M168.116,151.819a4.353,4.353,0,0,0-1.276,1.139,2.033,2.033,0,0,0-.441,1.128V146.08h1.712Z" transform="translate(-57.57 -14.301)" fill="#f5f5f5"/>
      <path id="Path_8605" data-name="Path 8605" d="M125.845,120.421,178.184,150.5v.7c0,.385.549.543,1.216.137s1.221-.868,1.221-1.536l.066-.662L127.356,118.5l-.213-.125a.713.713,0,0,0-.092.32v.326C127.055,119.424,126.515,120.048,125.845,120.421Z" transform="translate(-66.923 -20.524)" fill="#407bff"/>
      <path id="Path_8606" data-name="Path 8606" d="M125.845,120.421,178.184,150.5v.7c0,.385.549.543,1.216.137s1.221-.868,1.221-1.536l.066-.662L127.356,118.5l-.213-.125a.713.713,0,0,0-.092.32v.326C127.055,119.424,126.515,120.048,125.845,120.421Z" transform="translate(-66.923 -20.524)" fill="#fff" opacity="0.6"/>
      <path id="Path_8607" data-name="Path 8607" d="M150.132,170.306l34.191-19.644c.431-.223.824-.412,1-.32l-.224-.125-52.339-30.075-.61-.353a2.008,2.008,0,0,0-1.636.245L96.594,139.525a.945.945,0,0,0,0,1.786L147.041,170.3a3.466,3.466,0,0,0,3.091,0Z" transform="translate(-73.816 -20.223)" fill="#407bff"/>
      <path id="Path_8608" data-name="Path 8608" d="M150.132,170.306l34.191-19.644c.431-.223.824-.412,1-.32l-.224-.125-52.339-30.075-.61-.353a2.008,2.008,0,0,0-1.636.245L96.594,139.525a.945.945,0,0,0,0,1.786L147.041,170.3a3.466,3.466,0,0,0,3.091,0Z" transform="translate(-73.816 -20.223)" fill="#fff" opacity="0.8"/>
      <path id="Path_8609" data-name="Path 8609" d="M126.9,118.56l.213.125,53.331,30.656a.429.429,0,0,1,.114-.147l.18-.1.387-.217.474-.275a.486.486,0,0,1,.6.055.275.275,0,0,1,.06.055.858.858,0,0,1,.158.223,1.512,1.512,0,0,1,.137.3,2.807,2.807,0,0,1,.1.342c.033.137.055.265.082.412a1.766,1.766,0,0,1,.027.244V149.4a3.177,3.177,0,0,0-1.559-2.382l-50.453-28.986a3.143,3.143,0,0,0-2.775-.2l-.637.37h0l-.275.152h0a.55.55,0,0,0-.18.223Z" transform="translate(-66.682 -20.697)" fill="#407bff"/>
      <path id="Path_8610" data-name="Path 8610" d="M126.9,118.56l.213.125,53.331,30.656a.429.429,0,0,1,.114-.147l.18-.1.387-.217.474-.275a.486.486,0,0,1,.6.055.275.275,0,0,1,.06.055.858.858,0,0,1,.158.223,1.512,1.512,0,0,1,.137.3,2.807,2.807,0,0,1,.1.342c.033.137.055.265.082.412a1.766,1.766,0,0,1,.027.244V149.4a3.177,3.177,0,0,0-1.559-2.382l-50.453-28.986a3.143,3.143,0,0,0-2.775-.2l-.637.37h0l-.275.152h0a.55.55,0,0,0-.18.223Z" transform="translate(-66.682 -20.697)" fill="#fff" opacity="0.8"/>
      <path id="Path_8611" data-name="Path 8611" d="M140.267,165.122h0l2.116-1.221L166.7,149.935l7.763-4.459c.549-.326,1-.44,1.03-.275h0v.348c0,.39.549.39,1.216,0a1.629,1.629,0,0,0,.962-1.216v-.379a.541.541,0,0,1,.18-.456l.18-.1.387-.217.474-.275a.486.486,0,0,1,.6.054.275.275,0,0,1,.06.055.672.672,0,0,1,.1.137.265.265,0,0,1,.055.081,1.512,1.512,0,0,1,.137.3,2.807,2.807,0,0,1,.1.342c.033.137.055.265.082.412a1.755,1.755,0,0,1,.027.245v5.892h-1.2v-5.6l-.033-.3a.049.049,0,0,0,0-.027,3.423,3.423,0,0,1-1.811,2.241,3,3,0,0,1-1.462.456,1.64,1.64,0,0,1-1.091-.4l-.109.059-.207.125-30.615,17.593-3.276,1.923h0a3.246,3.246,0,0,1-1.526.353v-1.374a3.23,3.23,0,0,0,1.529-.354Z" transform="translate(-63.95 -15.033)" fill="#407bff"/>
      <path id="Path_8612" data-name="Path 8612" d="M140.267,165.122h0l2.116-1.221L166.7,149.935l7.763-4.459c.549-.326,1-.44,1.03-.275h0v.348c0,.39.549.39,1.216,0a1.629,1.629,0,0,0,.962-1.216v-.379a.541.541,0,0,1,.18-.456l.18-.1.387-.217.474-.275a.486.486,0,0,1,.6.054.275.275,0,0,1,.06.055.672.672,0,0,1,.1.137.265.265,0,0,1,.055.081,1.512,1.512,0,0,1,.137.3,2.807,2.807,0,0,1,.1.342c.033.137.055.265.082.412a1.755,1.755,0,0,1,.027.245v5.892h-1.2v-5.6l-.033-.3a.049.049,0,0,0,0-.027,3.423,3.423,0,0,1-1.811,2.241,3,3,0,0,1-1.462.456,1.64,1.64,0,0,1-1.091-.4l-.109.059-.207.125-30.615,17.593-3.276,1.923h0a3.246,3.246,0,0,1-1.526.353v-1.374a3.23,3.23,0,0,0,1.529-.354Z" transform="translate(-63.95 -15.033)" fill="#fff" opacity="0.6"/>
      <path id="Path_8613" data-name="Path 8613" d="M95.917,136.609v1.416a1.085,1.085,0,0,0,.621.885h0l47.139,27.084,3.309,1.9h0a3.284,3.284,0,0,0,1.554.364v-1.374a3.184,3.184,0,0,1-1.559-.37l-2.1-1.21h0L96.539,137.521a1.085,1.085,0,0,1-.622-.912Z" transform="translate(-73.826 -16.428)" fill="#407bff"/>
      <path id="Path_8614" data-name="Path 8614" d="M95.917,136.609v1.416a1.085,1.085,0,0,0,.621.885h0l47.139,27.084,3.309,1.9h0a3.284,3.284,0,0,0,1.554.364v-1.374a3.184,3.184,0,0,1-1.559-.37l-2.1-1.21h0L96.539,137.521a1.085,1.085,0,0,1-.622-.912Z" transform="translate(-73.826 -16.428)" fill="#fff" opacity="0.1"/>
      <path id="Path_8615" data-name="Path 8615" d="M129.728,120.505a2.008,2.008,0,0,1,1.636-.245l.61.353c.67-.39,1.21-1.014,1.21-1.4v-.326a.713.713,0,0,1,.092-.32.55.55,0,0,1,.191-.217h0l.275-.152h0l.637-.37a3.143,3.143,0,0,1,2.775.2l50.453,28.986.055.033-35.6,20.458a2.294,2.294,0,0,1-2.077,0L99.2,138.049Z" transform="translate(-73.069 -20.699)" fill="#263238"/>
      <path id="Path_8616" data-name="Path 8616" d="M144.72,156.09l-1.346-.771a2.2,2.2,0,0,1,1.128-.081C144.862,155.424,144.72,156.09,144.72,156.09Z" transform="translate(-62.881 -12.252)" fill="#407bff"/>
      <path id="Path_8617" data-name="Path 8617" d="M144.72,156.09l-1.346-.771a2.2,2.2,0,0,1,1.128-.081C144.862,155.424,144.72,156.09,144.72,156.09Z" transform="translate(-62.881 -12.252)" opacity="0.7"/>
      <path id="Path_8618" data-name="Path 8618" d="M146.135,156.571a1.64,1.64,0,0,0-2.4,0c-1.313,1.2-1.374,2.388-1.923,2.371s-.549-9.575-.549-9.575l5.184,4.779Z" transform="translate(-63.369 -13.563)" fill="#407bff"/>
      <path id="Path_8619" data-name="Path 8619" d="M146.135,156.571a1.64,1.64,0,0,0-2.4,0c-1.313,1.2-1.374,2.388-1.923,2.371s-.549-9.575-.549-9.575l5.184,4.779Z" transform="translate(-63.369 -13.563)" opacity="0.7"/>
      <path id="Path_8620" data-name="Path 8620" d="M101.2,130.736l-.087-.049.824-.478,35.7-20.508,52.012,33.493c.856.493,1.008,1.21.338,1.589l-1.216.7-33.362,19.2-.24-.173Z" transform="translate(-72.629 -22.473)" fill="#407bff"/>
      <path id="Path_8621" data-name="Path 8621" d="M101.2,130.736l-.087-.049.824-.478,35.7-20.508,52.012,33.493c.856.493,1.008,1.21.338,1.589l-1.216.7-33.362,19.2-.24-.173Z" transform="translate(-72.629 -22.473)" opacity="0.5"/>
      <path id="Path_8622" data-name="Path 8622" d="M141.639,145.772l2.584-.543v10.3c-1.559.662-2.551,1.28-2.725,2.577Z" transform="translate(-63.313 -14.492)" fill="#455a64"/>
      <path id="Path_8623" data-name="Path 8623" d="M144.911,159.431l33.052-18.988A2.282,2.282,0,0,0,179,138.657V128.5L145.63,147.839a3.046,3.046,0,0,1-1.581,1.887c-1.183.451-.275.911-.275.911v8.679C144.791,159.177,144.911,159.431,144.911,159.431Z" transform="translate(-62.865 -18.25)" fill="#f0f0f0"/>
      <path id="Path_8624" data-name="Path 8624" d="M152.237,151.435c.343-.2.615-.206.615,0v.32c0,.359.549.342,1.221-.049s1.221-.988,1.221-1.345v-.326c0-.184.463-.6,1.03-.922l-53.773-30.662-.834.478a.775.775,0,0,0-.207.445v.326c0,.359-.549.962-1.216,1.345s-1.221.412-1.221.049v-.326c0-.184-.275-.168-.61.027Z" transform="translate(-73.238 -20.508)" fill="#407bff"/>
      <path id="Path_8625" data-name="Path 8625" d="M152.237,151.435c.343-.2.615-.206.615,0v.32c0,.359.549.342,1.221-.049s1.221-.988,1.221-1.345v-.326c0-.184.463-.6,1.03-.922l-53.773-30.662-.834.478a.775.775,0,0,0-.207.445v.326c0,.359-.549.962-1.216,1.345s-1.221.412-1.221.049v-.326c0-.184-.275-.168-.61.027Z" transform="translate(-73.238 -20.508)" opacity="0.6"/>
      <path id="Path_8626" data-name="Path 8626" d="M101.2,122.722l-.087-.049.824-.478,35.7-20.506,52.012,29.891c.856.493,1.008,1.2.338,1.589l-1.216.694-33.373,20Z" transform="translate(-72.629 -24.273)" fill="#407bff"/>
      <path id="Path_8627" data-name="Path 8627" d="M101.2,122.722l-.087-.049.824-.478,35.7-20.506,52.012,29.891c.856.493,1.008,1.2.338,1.589l-1.216.694-33.373,20Z" transform="translate(-72.629 -24.273)" opacity="0.5"/>
      <path id="Path_8628" data-name="Path 8628" d="M99.267,120.073l53.762,30.89-1.881,1.464-53.56-30.771a2.04,2.04,0,0,1,.714-.993Z" transform="translate(-73.441 -20.144)" fill="#407bff"/>
      <path id="Path_8629" data-name="Path 8629" d="M99.267,120.073l53.762,30.89-1.881,1.464-53.56-30.771a2.04,2.04,0,0,1,.714-.993Z" transform="translate(-73.441 -20.144)" opacity="0.5"/>
      <path id="Path_8630" data-name="Path 8630" d="M97.86,135.181a.589.589,0,0,1-.092-.07.147.147,0,0,1-.06-.054.57.57,0,0,1-.109-.147.2.2,0,0,1-.055-.076,1.249,1.249,0,0,1-.137-.3,2.345,2.345,0,0,1-.109-.348c-.033-.13-.055-.261-.077-.4a1.254,1.254,0,0,1-.033-.244v-9.5a7.179,7.179,0,0,1,.5-2.713L151.25,152.1l.224,13.844L97.92,135.163Z" transform="translate(-73.533 -19.86)" fill="#407bff"/>
      <path id="Path_8631" data-name="Path 8631" d="M97.86,135.181a.589.589,0,0,1-.092-.07.147.147,0,0,1-.06-.054.57.57,0,0,1-.109-.147.2.2,0,0,1-.055-.076,1.249,1.249,0,0,1-.137-.3,2.345,2.345,0,0,1-.109-.348c-.033-.13-.055-.261-.077-.4a1.254,1.254,0,0,1-.033-.244v-9.5a7.179,7.179,0,0,1,.5-2.713L151.25,152.1l.224,13.844L97.92,135.163Z" transform="translate(-73.533 -19.86)" opacity="0.7"/>
      <path id="Path_8632" data-name="Path 8632" d="M151.209,152.123h0s-42.183-19.644-46.02-21.445c-2.535-1.188-3.778,1.308-3.179,3.889a12.517,12.517,0,0,0,2.764,4.584h0l-6.9-3.966h0a.591.591,0,0,1-.092-.07.147.147,0,0,1-.06-.054.571.571,0,0,1-.109-.147.2.2,0,0,1-.055-.076,1.251,1.251,0,0,1-.137-.3,2.351,2.351,0,0,1-.109-.348c-.033-.131-.055-.261-.077-.4a1.255,1.255,0,0,1-.033-.245v-9.5a7.179,7.179,0,0,1,.5-2.713Z" transform="translate(-73.529 -19.861)" fill="#263238" opacity="0.79"/>
      <path id="Path_8633" data-name="Path 8633" d="M140.69,153.574h1.2a5.4,5.4,0,0,1,.578-2.61,1.64,1.64,0,0,0,.986.32,3.113,3.113,0,0,0,1.488-.467,4.55,4.55,0,0,0,1.385-1.21.778.778,0,0,0,.077-.109,1.952,1.952,0,0,0,.354-1.019l31.656-18.184,1.091-.624,1.374-.787a.716.716,0,0,0,.42-.613v-1.394a.732.732,0,0,1-.42.629h0l-3.636,2.083-30.611,17.6c-.573.326-1.036.738-1.036.922v.326a.981.981,0,0,1-.283.543,3.408,3.408,0,0,1-.938.782c-.676.39-1.221.412-1.221.049v-.32c0-.19-.267-.173-.61,0l-.6.353A4.97,4.97,0,0,0,140.69,153.574Z" transform="translate(-63.506 -18.614)" fill="#407bff"/>
      <path id="Path_8634" data-name="Path 8634" d="M141.876,151.111v9.2l.027.3a.048.048,0,0,0,0,.027,3.423,3.423,0,0,1,1.809-2.241,3,3,0,0,1,1.466-.456,1.64,1.64,0,0,1,1.091.4l.1-.059.213-.125,30.609-17.593,1.761-1.01.5-.293,1.482-.852a.694.694,0,0,0,.327-.57v1.394a.687.687,0,0,1-.3.543h0c-.174.1-.36.2-.549.315l-.343.2-.589.337c-.137.081-.251.152-.365.212s-.18.109-.256.147l-.452.265-24.315,13.964-7.763,4.459c-.549.326-1,.44-1.03.275a.324.324,0,0,1,0-.059v-.309c0-.39-.549-.39-1.216,0a1.629,1.629,0,0,0-.962,1.216v.379a.541.541,0,0,1-.18.456l-.18.1-.382.217-.474.275a.486.486,0,0,1-.6-.054.147.147,0,0,1-.06-.055.55.55,0,0,1-.109-.137h0a.383.383,0,0,1-.055-.076,1.247,1.247,0,0,1-.137-.3,2.091,2.091,0,0,1-.109-.342c-.033-.137-.055-.265-.077-.412a1.2,1.2,0,0,1-.033-.244v-9.5Z" transform="translate(-63.493 -16.153)" fill="#407bff"/>
      <g id="Group_2537" data-name="Group 2537" transform="translate(77.167 108.263)" opacity="0.6">
        <path id="Path_8635" data-name="Path 8635" d="M140.69,153.574h1.2a5.4,5.4,0,0,1,.578-2.61,1.64,1.64,0,0,0,.986.32,3.113,3.113,0,0,0,1.488-.467,4.55,4.55,0,0,0,1.385-1.21.778.778,0,0,0,.077-.109,1.952,1.952,0,0,0,.354-1.019l31.656-18.184,1.091-.624,1.374-.787a.716.716,0,0,0,.42-.613v-1.394a.732.732,0,0,1-.42.629h0l-3.636,2.083-30.611,17.6c-.573.326-1.036.738-1.036.922v.326a.981.981,0,0,1-.283.543,3.408,3.408,0,0,1-.938.782c-.676.39-1.221.412-1.221.049v-.32c0-.19-.267-.173-.61,0l-.6.353A4.97,4.97,0,0,0,140.69,153.574Z" transform="translate(-140.672 -126.877)"/>
        <path id="Path_8636" data-name="Path 8636" d="M141.876,151.111v9.2l.027.3a.048.048,0,0,0,0,.027,3.423,3.423,0,0,1,1.809-2.241,3,3,0,0,1,1.466-.456,1.64,1.64,0,0,1,1.091.4l.1-.059.213-.125,30.609-17.593,1.761-1.01.5-.293,1.482-.852a.694.694,0,0,0,.327-.57v1.394a.687.687,0,0,1-.3.543h0c-.174.1-.36.2-.549.315l-.343.2-.589.337c-.137.081-.251.152-.365.212s-.18.109-.256.147l-.452.265-24.315,13.964-7.763,4.459c-.549.326-1,.44-1.03.275a.324.324,0,0,1,0-.059v-.309c0-.39-.549-.39-1.216,0a1.629,1.629,0,0,0-.962,1.216v.379a.541.541,0,0,1-.18.456l-.18.1-.382.217-.474.275a.486.486,0,0,1-.6-.054.147.147,0,0,1-.06-.055.55.55,0,0,1-.109-.137h0a.383.383,0,0,1-.055-.076,1.247,1.247,0,0,1-.137-.3,2.091,2.091,0,0,1-.109-.342c-.033-.137-.055-.265-.077-.412a1.2,1.2,0,0,1-.033-.244v-9.5Z" transform="translate(-140.66 -124.415)"/>
      </g>
      <path id="Path_8637" data-name="Path 8637" d="M97.565,125.562l50.906,29.252,38.477-22.106a.628.628,0,0,0,0-1.194l-50.37-28.947L102.784,122h0l-.834.482a.768.768,0,0,0-.2.44v.326c0,.359-.549.962-1.216,1.345a.506.506,0,0,1-.109.055L99.3,124l-.549.3-.077.038h0l-.393.228a2.051,2.051,0,0,0-.714.993Z" transform="translate(-73.445 -24.076)" fill="#263238"/>
      <path id="Path_8638" data-name="Path 8638" d="M168.175,127.565l-1.532-.813,1.4-.331a1.032,1.032,0,0,1,.137,1.144Z" transform="translate(-57.514 -18.716)" fill="#e0e0e0"/>
      <path id="Path_8639" data-name="Path 8639" d="M168.175,127.565l-1.532-.813,1.4-.331a1.032,1.032,0,0,1,.137,1.144Z" transform="translate(-57.514 -18.716)" fill="#e0e0e0" opacity="0.5"/>
      <path id="Path_8640" data-name="Path 8640" d="M144.472,153.817a3.455,3.455,0,0,0,3.113,0l34.964-20.067-52.331-32.928-1.227-.7L94.029,123.035a.945.945,0,0,0,0,1.786Z" transform="translate(-74.407 -24.626)" fill="#407bff"/>
      <path id="Path_8641" data-name="Path 8641" d="M146.365,110.642l26.418,17.816-14.222-10.852,7.893-4.533,9.181,5.289v9.433c0,.8-.9,1.937-1.227,1.753a9.08,9.08,0,0,0-1.756.618,13.174,13.174,0,0,0-2.535,1.865L142.1,113.083Z" transform="translate(-63.175 -22.261)" fill="#407bff"/>
      <path id="Path_8642" data-name="Path 8642" d="M146.365,110.642l26.418,17.816-14.222-10.852,7.893-4.533,9.181,5.289v9.433c0,.8-.9,1.937-1.227,1.753a9.08,9.08,0,0,0-1.756.618,13.174,13.174,0,0,0-2.535,1.865L142.1,113.083Z" transform="translate(-63.175 -22.261)" opacity="0.2"/>
      <path id="Path_8643" data-name="Path 8643" d="M136.162,137.942v10.894a2.142,2.142,0,0,0,1.041-.245l3.816-2.2,29.219-16.784V118.358Z" transform="translate(-64.544 -20.528)" fill="#fff"/>
      <path id="Path_8644" data-name="Path 8644" d="M94.615,111.187v9.043a2.293,2.293,0,0,0,1.036,1.786L140.9,148l3.816,2.2a2.135,2.135,0,0,0,1.036.245V140.4Z" transform="translate(-74.126 -22.139)" fill="#f0f0f0"/>
      <path id="Path_8645" data-name="Path 8645" d="M163.866,130.058a2.023,2.023,0,0,1,.435-1.128,4.479,4.479,0,0,1,1.385-1.21,3.135,3.135,0,0,1,1.493-.467,1.559,1.559,0,0,1,.981.228V116.339l-4.29,2.473Z" transform="translate(-58.154 -20.981)" fill="#455a64"/>
      <path id="Path_8646" data-name="Path 8646" d="M165.578,127.259A4.544,4.544,0,0,0,164.3,128.4a2.023,2.023,0,0,0-.435,1.128V118.679h1.706Z" transform="translate(-58.154 -20.457)" fill="#f5f5f5"/>
      <path id="Path_8647" data-name="Path 8647" d="M123.311,93.026l52.339,30.085v.694c0,.39.549.543,1.216.147s1.227-.874,1.227-1.541l.066-.662L124.828,91.114l-.218-.125a.707.707,0,0,0-.087.326v.32C124.521,92.011,123.983,92.635,123.311,93.026Z" transform="translate(-67.508 -26.676)" fill="#407bff"/>
      <path id="Path_8648" data-name="Path 8648" d="M123.311,93.026l52.339,30.085v.694c0,.39.549.543,1.216.147s1.227-.874,1.227-1.541l.066-.662L124.828,91.114l-.218-.125a.707.707,0,0,0-.087.326v.32C124.521,92.011,123.983,92.635,123.311,93.026Z" transform="translate(-67.508 -26.676)" opacity="0.2"/>
      <path id="Path_8649" data-name="Path 8649" d="M147.584,142.9,181.8,123.257c.435-.228.834-.412,1-.326l-.224-.12L130.231,92.727l-.615-.348a1.959,1.959,0,0,0-1.635.245l-33.952,19.5a.945.945,0,0,0,0,1.786l50.453,28.986a3.455,3.455,0,0,0,3.1.008Z" transform="translate(-74.407 -26.383)" fill="#407bff"/>
      <path id="Path_8650" data-name="Path 8650" d="M124.365,91.167l.218.125,53.342,30.634a.428.428,0,0,1,.114-.147l.18-.1.382-.223.474-.275a.493.493,0,0,1,.6.055.283.283,0,0,1,.06.054,1.174,1.174,0,0,1,.163.223,1.5,1.5,0,0,1,.137.3,3.246,3.246,0,0,1,.109.348c.027.13.055.261.077.4a1.836,1.836,0,0,1,.033.25v-.824A3.167,3.167,0,0,0,178.7,119.6L128.247,90.615a3.138,3.138,0,0,0-2.775-.2l-.637.37h0l-.267.158h0A.549.549,0,0,0,124.365,91.167Z" transform="translate(-67.265 -26.856)" fill="#407bff"/>
      <path id="Path_8651" data-name="Path 8651" d="M137.724,148.464l2.11-1.216,31.656-18.189a2.04,2.04,0,0,1,.435-1.128,4.562,4.562,0,0,1,1.385-1.21,3.167,3.167,0,0,1,1.488-.462,1.581,1.581,0,0,1,.986.32,5.44,5.44,0,0,0,.578-2.61h1.2a4.922,4.922,0,0,1-1.216,3.683l-.6.353c-.343.2-.61.206-.61,0v-.32c0-.359-.549-.342-1.227.044s-1.216.993-1.216,1.35v.32c0,.184-.463.6-1.036.927l-30.619,17.588-3.315,1.9h0a3.284,3.284,0,0,1-1.554.364v-1.374a3.169,3.169,0,0,0,1.558-.345Z" transform="translate(-64.543 -19.267)" fill="#407bff"/>
      <path id="Path_8652" data-name="Path 8652" d="M137.724,148.464l2.11-1.216,31.656-18.189a2.04,2.04,0,0,1,.435-1.128,4.562,4.562,0,0,1,1.385-1.21,3.167,3.167,0,0,1,1.488-.462,1.581,1.581,0,0,1,.986.32,5.44,5.44,0,0,0,.578-2.61h1.2a4.922,4.922,0,0,1-1.216,3.683l-.6.353c-.343.2-.61.206-.61,0v-.32c0-.359-.549-.342-1.227.044s-1.216.993-1.216,1.35v.32c0,.184-.463.6-1.036.927l-30.619,17.588-3.315,1.9h0a3.284,3.284,0,0,1-1.554.364v-1.374a3.169,3.169,0,0,0,1.558-.345Z" transform="translate(-64.543 -19.267)" opacity="0.4"/>
      <path id="Path_8653" data-name="Path 8653" d="M137.708,137.713h0l2.11-1.216,24.315-13.964,7.8-4.47c.549-.32,1-.434,1.036-.266v.353c0,.385.549.385,1.216,0a1.629,1.629,0,0,0,.962-1.221v-.379a.541.541,0,0,1,.18-.456l.18-.1.382-.223.474-.275a.493.493,0,0,1,.6.054.285.285,0,0,1,.06.054.733.733,0,0,1,.109.147.465.465,0,0,1,.055.076,1.512,1.512,0,0,1,.137.3,3.252,3.252,0,0,1,.109.348c.027.131.055.261.077.4a1.838,1.838,0,0,1,.033.25v8.734h-1.2v-8.406l-.027-.3A3.415,3.415,0,0,1,174.5,119.4a2.959,2.959,0,0,1-1.462.456,1.64,1.64,0,0,1-1.091-.4l-.1.059-.213.125-30.613,17.595-3.315,1.9h0a3.252,3.252,0,0,1-1.532.353v-1.374a3.23,3.23,0,0,0,1.537-.4Z" transform="translate(-64.542 -21.189)" fill="#407bff"/>
      <path id="Path_8654" data-name="Path 8654" d="M137.708,137.713h0l2.11-1.216,24.315-13.964,7.8-4.47c.549-.32,1-.434,1.036-.266v.353c0,.385.549.385,1.216,0a1.629,1.629,0,0,0,.962-1.221v-.379a.541.541,0,0,1,.18-.456l.18-.1.382-.223.474-.275a.493.493,0,0,1,.6.054.285.285,0,0,1,.06.054.733.733,0,0,1,.109.147.465.465,0,0,1,.055.076,1.512,1.512,0,0,1,.137.3,3.252,3.252,0,0,1,.109.348c.027.131.055.261.077.4a1.838,1.838,0,0,1,.033.25v8.734h-1.2v-8.406l-.027-.3A3.415,3.415,0,0,1,174.5,119.4a2.959,2.959,0,0,1-1.462.456,1.64,1.64,0,0,1-1.091-.4l-.1.059-.213.125-30.613,17.595-3.315,1.9h0a3.252,3.252,0,0,1-1.532.353v-1.374a3.23,3.23,0,0,0,1.537-.4Z" transform="translate(-64.542 -21.189)" opacity="0.4"/>
      <path id="Path_8655" data-name="Path 8655" d="M93.384,109.2v1.4a1.085,1.085,0,0,0,.615.885h0l47.143,27.082,3.309,1.9h0a3.284,3.284,0,0,0,1.548.364V139.46a3.159,3.159,0,0,1-1.554-.37l-2.1-1.21h0l-48.31-27.766A1.052,1.052,0,0,1,93.384,109.2Z" transform="translate(-74.41 -22.586)" fill="#407bff"/>
      <path id="Path_8656" data-name="Path 8656" d="M93.384,109.2v1.4a1.085,1.085,0,0,0,.615.885h0l47.143,27.082,3.309,1.9h0a3.284,3.284,0,0,0,1.548.364V139.46a3.159,3.159,0,0,1-1.554-.37l-2.1-1.21h0l-48.31-27.766A1.052,1.052,0,0,1,93.384,109.2Z" transform="translate(-74.41 -22.586)" opacity="0.2"/>
      <path id="Path_8657" data-name="Path 8657" d="M93.384,119.543v1.4a1.085,1.085,0,0,0,.615.885h0l47.165,27.087,3.309,1.9h0a3.283,3.283,0,0,0,1.548.364v-1.374a3.159,3.159,0,0,1-1.554-.37l-2.1-1.21h0L94.032,120.448a1.052,1.052,0,0,1-.648-.911Z" transform="translate(-74.41 -20.264)" fill="#407bff"/>
      <path id="Path_8658" data-name="Path 8658" d="M93.384,119.543v1.4a1.085,1.085,0,0,0,.615.885h0l47.165,27.087,3.309,1.9h0a3.283,3.283,0,0,0,1.548.364v-1.374a3.159,3.159,0,0,1-1.554-.37l-2.1-1.21h0L94.032,120.448a1.052,1.052,0,0,1-.648-.911Z" transform="translate(-74.41 -20.264)" opacity="0.2"/>
      <path id="Path_8659" data-name="Path 8659" d="M112.014,79.35l-5,8.876,7.294,3.863,5.309-7.866Z" transform="translate(-71.267 -29.291)" fill="#ffa8a7"/>
      <path id="Path_8660" data-name="Path 8660" d="M128.945,63.067c-2.78-.473-6.988-.6-9.726,4.074s-8.635,16.2-8.635,16.2a15.248,15.248,0,0,0,8.433,5.246l8.15-12.868Z" transform="translate(-70.444 -32.998)" fill="#407bff"/>
      <rect id="Rectangle_85" data-name="Rectangle 85" width="6.226" height="10.605" transform="translate(45.708 138.762)" fill="#ffa8a7"/>
      <path id="Path_8661" data-name="Path 8661" d="M106.746,151.732l-6.226.212-.31-11.225,6.22-.212Z" transform="translate(-72.836 -15.552)" fill="#ffa8a7"/>
      <path id="Path_8662" data-name="Path 8662" d="M116.952,158.108v-.885c-.595.256-1.978,5.511-4.448,7.752-1.963,1.786-4.639,3.846-5.32,5.826-.709,2.061,3.728,3.212,5.561,2.885,2.132-.374,5.827-1.866,6.755-3.254s1.363-3.423,2.116-4.437,2.492-2.17,2.9-3.326a7.528,7.528,0,0,0-.354-3.254c-.288-1.085-.6-2.3-.981-2.2v.673a4.934,4.934,0,0,1-3.113,1.047C119.154,158.982,116.947,158.8,116.952,158.108Z" transform="translate(-71.244 -11.8)" fill="#263238"/>
      <path id="Path_8663" data-name="Path 8663" d="M103.183,148.348c-.321,0-.584.467-1.3,1.236a13.54,13.54,0,0,1-3.664,2.62c-2.335,1.166-6.852,2.951-8.913,3.879-1.282.576-1.221,2.116.1,2.995s4.52,1.511,8.362.651c2.088-.467,4.808-2.388,6.542-2.284s4.945.081,6.22-.793.764-2.713.4-4.34c-.393-1.747-.953-4.421-1.537-4.3v.543c-.747,1.128-4.558,1.589-6.2.76Z" transform="translate(-75.563 -13.868)" fill="#263238"/>
      <path id="Path_8664" data-name="Path 8664" d="M150.959,100.379c1.363,9.575-.474,11.392-9.616,20.583-4.907,4.932-12.837,12.163-12.837,12.163s.114,3.059.174,9.917c.06,6.044-2.473,25.689-2.473,25.689s-4.132,1.731-6.968-.065c0,0-1.282-14.621-1.974-22.242-.938-10.3-1.429-15.5-.9-17.721.468-1.959,9.774-13.655,11.923-16.931l-19.782,11.436a66.849,66.849,0,0,1,.578,8.74c-.218,8.2-1.236,24.569-1.236,24.569s-4.525,2.013-6.771.275c0,0-5.7-35.8-5.7-38.739,0-4.465,19.484-17.794,23.173-20.9,2.1-1.768,4.448-3.683,4.448-3.683Z" transform="translate(-73.95 -26.118)" fill="#455a64"/>
      <path id="Path_8665" data-name="Path 8665" d="M125.826,109.6a14.229,14.229,0,0,1-4.52-6.418,32.147,32.147,0,0,0,.7,4.882c.549,2.127-15.961,12.965-15.961,12.965Z" transform="translate(-71.489 -23.938)" fill="#37474f"/>
      <path id="Path_8699" data-name="Path 8699" d="M8.792,0A8.834,8.834,0,1,1,0,8.825,8.834,8.834,0,0,1,8.792,0Z" transform="matrix(0.228, -0.974, 0.974, 0.228, 46.115, 17.492)" fill="#263238"/>
      <path id="Path_8666" data-name="Path 8666" d="M144.2,68.351s2.18,1.786,2.18,7.4V87.886l-.31,20.408c-4.362,4.726-23.987,2.934-28.848-7.373,0,0,.038-21.543.038-26.376s2.725-11.094,10.139-11.528l9.605,2.224Z" transform="translate(-68.912 -32.962)" fill="#263238"/>
      <path id="Path_8667" data-name="Path 8667" d="M137.178,52.51a76.26,76.26,0,0,1-2.006,7.8,3.022,3.022,0,0,1-1.761,1.411l.1-4.709Z" transform="translate(-65.178 -35.32)" fill="#263238"/>
      <path id="Path_8668" data-name="Path 8668" d="M135.182,44.683a3.319,3.319,0,0,1,2.725.962c1.177,1.2.518,4.952-.948,8.631l-2.7.309Z" transform="translate(-64.982 -37.084)" fill="#263238"/>
      <path id="Path_8669" data-name="Path 8669" d="M137.236,55.342c.549.32,1.313-.71,1.98-1.405a2.36,2.36,0,0,1,3.93.635c1.085,2.263-.962,5.386-2.671,5.924-2.955.922-3.4-.962-3.4-.962l-.224,10.605c-2.546,2.831-11.252,2.17-9.616-.282V66.6a18.651,18.651,0,0,1-3.984.206c-2.18-.337-3.543-2.04-4.2-4.384-1.058-3.76-1.462-6.792-.549-14.186.986-8.1,10.455-8.186,15.57-4.985S137.236,55.342,137.236,55.342Z" transform="translate(-68.735 -37.843)" fill="#ffa8a7"/>
      <path id="Path_8670" data-name="Path 8670" d="M128.153,55.378H127.7a3,3,0,0,1,0-6h.463a3,3,0,1,1,0,6Zm-.457-5.495a2.5,2.5,0,1,0,0,4.991h.463a2.5,2.5,0,1,0,0-4.991Z" transform="translate(-67.187 -36.025)" fill="#263238"/>
      <path id="Path_8671" data-name="Path 8671" d="M120.694,55.378h-.463a3,3,0,0,1,0-6h.463a3,3,0,0,1,0,6Zm-.463-5.495a2.5,2.5,0,1,0,0,4.991h.463a2.5,2.5,0,1,0,0-4.991Z" transform="translate(-68.909 -36.025)" fill="#263238"/>
      <path id="Path_8672" data-name="Path 8672" d="M125.345,51.584a2,2,0,0,0-1.592-.808,1.64,1.64,0,0,0-1.39.543l-.4-.3a2.088,2.088,0,0,1,1.82-.721,2.473,2.473,0,0,1,2,1.047Z" transform="translate(-67.819 -35.822)" fill="#263238"/>
      <rect id="Rectangle_86" data-name="Rectangle 86" width="6.411" height="0.504" transform="translate(63.702 15.741)" fill="#263238"/>
      <path id="Path_8673" data-name="Path 8673" d="M137.4,56.879c.275,0,1.3-1.7,1.98-2.311.933-.846-.275-8.5-.275-8.5a3.6,3.6,0,0,0-.9-3.868c-1.276-1.4-3.412-1.556-7.06-2.127-1.914-.3-4.808-.835-6.731-1.188-2.279-.423-4.171-.868-5.778.543a4.013,4.013,0,0,0-1.118,4.509,4.131,4.131,0,0,0,2.29,2.088s.992.879,4.454,1.3a51.339,51.339,0,0,0,9.589-.179c1-.137,1.216.824,1.761,3.477C136.093,52.934,136.5,56.863,137.4,56.879Z" transform="translate(-68.907 -38.474)" fill="#263238"/>
      <path id="Path_8674" data-name="Path 8674" d="M135.043,45.693l3.271-1.753a1.808,1.808,0,0,0-2.473-.813,1.948,1.948,0,0,0-.8,2.566Z" transform="translate(-64.848 -37.475)" fill="#263238"/>
      <path id="Path_8675" data-name="Path 8675" d="M125.5,62.743a37.268,37.268,0,0,0,6.542-1.866,5.58,5.58,0,0,0,2.344-2.311,7.579,7.579,0,0,1-1.33,2.71c-1.236,1.578-7.555,2.739-7.555,2.739Z" transform="translate(-67.003 -33.96)" fill="#f28f8f"/>
      <path id="Path_8676" data-name="Path 8676" d="M126.452,51.965a.975.975,0,1,0,.97-1.01.989.989,0,0,0-.97,1.01Z" transform="translate(-66.783 -35.67)" fill="#263238"/>
      <path id="Path_8677" data-name="Path 8677" d="M127.719,48.626l2.083,1.139a1.245,1.245,0,0,0-.485-1.628,1.164,1.164,0,0,0-1.6.488Z" transform="translate(-66.491 -36.335)" fill="#263238"/>
      <path id="Path_8678" data-name="Path 8678" d="M126.279,57.233l-2.219.824a1.162,1.162,0,0,0,1.511.732,1.236,1.236,0,0,0,.714-1.562Z" transform="translate(-67.335 -34.261)" fill="#f28f8f"/>
      <path id="Path_8679" data-name="Path 8679" d="M119.247,49.557l1.9-1.448a1.148,1.148,0,0,0-1.635-.256,1.243,1.243,0,0,0-.261,1.7Z" transform="translate(-68.496 -36.419)" fill="#263238"/>
      <path id="Path_8680" data-name="Path 8680" d="M119.882,51.739a.975.975,0,1,0,.97-1.01.989.989,0,0,0-.97,1.01Z" transform="translate(-68.299 -35.72)" fill="#263238"/>
      <path id="Path_8681" data-name="Path 8681" d="M124.458,50.92l-.109,5.864-3.484-.765Z" transform="translate(-68.071 -35.678)" fill="#f28f8f"/>
      <path id="Path_8682" data-name="Path 8682" d="M127.585,92.038v.543a1.577,1.577,0,0,1-.8,1.374l-15.138,8.679a1.594,1.594,0,0,1-1.587,0L82.29,86.672a1.577,1.577,0,0,1-.8-1.374v-.385l29.361,16.878Z" transform="translate(-77.151 -28.041)" fill="#407bff"/>
      <path id="Path_8683" data-name="Path 8683" d="M127.585,92.038v.543a1.577,1.577,0,0,1-.8,1.374l-15.138,8.679a1.594,1.594,0,0,1-1.587,0L82.29,86.672a1.577,1.577,0,0,1-.8-1.374v-.385l29.361,16.878Z" transform="translate(-77.151 -28.041)" opacity="0.6"/>
      <path id="Path_8684" data-name="Path 8684" d="M81.507,86.681,97.982,77.22a.952.952,0,0,1,.948,0L127.5,93.636a.212.212,0,0,1,0,.364l-16.622,9.547Z" transform="translate(-77.15 -29.797)" fill="#407bff"/>
      <path id="Path_8685" data-name="Path 8685" d="M81.507,86.681,97.982,77.22a.952.952,0,0,1,.948,0L127.5,93.636a.212.212,0,0,1,0,.364l-16.622,9.547Z" transform="translate(-77.15 -29.797)" opacity="0.5"/>
      <path id="Path_8686" data-name="Path 8686" d="M110.354,101.233l8.88-5.1L93.263,81.215l-8.929,5.072Z" transform="translate(-76.497 -28.873)" fill="#263238"/>
      <path id="Path_8687" data-name="Path 8687" d="M111.352,86.814l-.163.092-4.356,2.5L99.092,84.96l-.158-.092,4.514-2.594Z" transform="translate(-73.13 -28.634)" fill="#263238"/>
      <path id="Path_8688" data-name="Path 8688" d="M111.158,86.873l-4.352,2.5-7.741-4.448,4.356-2.5Z" transform="translate(-73.099 -28.6)" fill="#263238"/>
      <path id="Path_8689" data-name="Path 8689" d="M110.856,101.789v1.052a1.586,1.586,0,0,1-.79-.212L82.29,86.678a1.577,1.577,0,0,1-.8-1.374V84.92Z" transform="translate(-77.151 -28.04)" opacity="0.7"/>
      <path id="Path_8690" data-name="Path 8690" d="M111.217,105.659a1.872,1.872,0,0,1-1.635-.125L81.932,89.649a1.867,1.867,0,0,1-.916-1.308L77.993,70.374a1.905,1.905,0,0,1-.027-.3,1.878,1.878,0,0,1,.549-1.334l28.727,16.512a1.394,1.394,0,0,1,.7.971Z" transform="translate(-77.966 -31.675)" fill="#407bff"/>
      <path id="Path_8691" data-name="Path 8691" d="M111.217,105.659a1.872,1.872,0,0,1-1.635-.125L81.932,89.649a1.867,1.867,0,0,1-.916-1.308L77.993,70.374a1.905,1.905,0,0,1-.027-.3,1.878,1.878,0,0,1,.549-1.334l28.727,16.512a1.394,1.394,0,0,1,.7.971Z" transform="translate(-77.966 -31.675)" opacity="0.5"/>
      <path id="Path_8692" data-name="Path 8692" d="M111.562,105.477l-.185.109a1.907,1.907,0,0,1-.261.125l-3.272-19.437a1.394,1.394,0,0,0-.676-.971L78.433,68.789a1.846,1.846,0,0,1,.382-.287l28.795,16.54a1.394,1.394,0,0,1,.676.971Z" transform="translate(-77.859 -31.728)" fill="#e0e0e0"/>
      <path id="Path_8693" data-name="Path 8693" d="M93.245,86.071A6.076,6.076,0,0,0,90.46,82.51c-1.335-.765-2.257-.412-2.05.787A6.106,6.106,0,0,0,91.2,86.869C92.528,87.633,93.453,87.275,93.245,86.071Z" transform="translate(-75.564 -28.672)" fill="#407bff"/>
      <path id="Path_8694" data-name="Path 8694" d="M99.039,96.655a9.653,9.653,0,0,0-.452-2.29c-.426-1.33-1.69-6.456-4.579-7.22a2.061,2.061,0,0,0-1.058-.033A2.147,2.147,0,0,0,91.627,88.9a12.455,12.455,0,0,0,0,3.309,6.5,6.5,0,0,0-1.543-1.286,3.16,3.16,0,0,0-1.772-.629.55.55,0,0,0-.463.217.533.533,0,0,0,.163.6c.288.348.643.64.933.988a10.131,10.131,0,0,1,.626.944c.365.585.775,1.139,1.183,1.7a11.907,11.907,0,0,0,2.911,2.995,11,11,0,0,0,4.362,1.731,13.353,13.353,0,0,0,5.495-.234Z" transform="translate(-75.693 -27.56)" fill="#ffa8a7"/>
      <path id="Path_8695" data-name="Path 8695" d="M145.046,67.534c-1.947-1-4.792,2.956-3.886,7.09s5.358,18.668,5.358,18.668-20.143,1.786-21.855,2a9.157,9.157,0,0,1-3.636-.824c-1.511-.5-3.022-.846-4.509-1.389a1.923,1.923,0,0,0-.824-.173.648.648,0,0,0-.6.5.855.855,0,0,0,.125.482,6.34,6.34,0,0,0,2.077,2.408,9.265,9.265,0,0,1,1.221.857c.235.234.753.879.549,1.236l-8,4.584s1.842,1.595,8.517-.267a43.82,43.82,0,0,0,7.016-2.473s23.735.982,28.024-.309c1.511-.462,2.061-1.53,1.036-6.391-1.172-5.632-4.533-15.9-5.3-18.613C148.684,69.042,148.287,69.178,145.046,67.534Z" transform="translate(-70.334 -31.981)" fill="#ffa8a7"/>
      <path id="Path_8696" data-name="Path 8696" d="M138.565,66.818a10.3,10.3,0,0,1,4.6,2.713c1.385,1.812,6.731,19.339,6.731,19.339a12.582,12.582,0,0,1-10.166,2.713s-4.3-12.124-4.753-15.364C134.154,71.2,136.619,67.252,138.565,66.818Z" transform="translate(-64.854 -32.106)" fill="#407bff"/>
      <path id="Path_8697" data-name="Path 8697" d="M123.768,76.746c-.261-1.356.589-2.088,1.9-1.628a4.792,4.792,0,0,1,2.83,3.254C128.765,79.747,124.023,78.091,123.768,76.746Z" transform="translate(-67.414 -30.273)" fill="#407bff"/>
      <path id="Path_8698" data-name="Path 8698" d="M133.494,80.682l-3.864-2.449c.2,1.041-1.216.9-2.486.456s-2.824-1.33-3.022-2.371l-3.368-.044c-.31,0-.316.4,0,.732a16.151,16.151,0,0,0,6.852,3.984c4.077,1.416,5.642.977,6.231.543C134.023,81.376,133.849,80.9,133.494,80.682Z" transform="translate(-68.152 -29.983)" fill="#407bff"/>
    </g>
  </g>
</svg>
