<svg xmlns="http://www.w3.org/2000/svg" xmlns:xlink="http://www.w3.org/1999/xlink" width="252" height="212" viewBox="0 0 252 212">
  <defs>
    <filter id="Subtraction_1" x="0" y="0" width="252" height="197.517" filterUnits="userSpaceOnUse">
      <feOffset dy="3" input="SourceAlpha"/>
      <feGaussianBlur stdDeviation="3" result="blur"/>
      <feFlood flood-opacity="0.161"/>
      <feComposite operator="in" in2="blur"/>
      <feComposite in="SourceGraphic"/>
    </filter>
    <clipPath id="clip-path">
      <rect id="Rectangle_84" data-name="Rectangle 84" width="225" height="166" rx="22" fill="#fff" stroke="#000" stroke-width="5"/>
    </clipPath>
  </defs>
  <g id="Group_2561" data-name="Group 2561" transform="translate(-80 -62)">
    <g transform="matrix(1, 0, 0, 1, 80, 62)" filter="url(#Subtraction_1)">
      <path id="Subtraction_1-2" data-name="Subtraction 1" d="M204.4-617.484h0A21.868,21.868,0,0,1,198-633V-775a21.857,21.857,0,0,1,6.444-15.557A21.855,21.855,0,0,1,220-797H410a21.855,21.855,0,0,1,15.556,6.444A21.857,21.857,0,0,1,432-775v142a21.862,21.862,0,0,1-6.4,15.513A24.973,24.973,0,0,0,401-638H229a24.97,24.97,0,0,0-24.6,20.514Z" transform="translate(-189 803)" fill="#2d3459"/>
    </g>
    <g id="Group_2538" data-name="Group 2538" transform="translate(98 -242)">
      <g id="Mask_Group_30" data-name="Mask Group 30" transform="translate(-4 320)" clip-path="url(#clip-path)">
        <g id="Nerd-amico_1_" data-name="Nerd-amico (1)" transform="translate(27.494 0.028)">
          <g id="freepik--Floor--inject-1--inject-69" transform="translate(0 76.977)">
            <path id="Path_8475" data-name="Path 8475" d="M40.395,176.793c33.366,17.348,87.462,17.348,120.828,0s33.37-45.469,0-62.817-87.462-17.344-120.832,0S7.025,159.44,40.395,176.793Z" transform="translate(-15.366 -100.966)" fill="#4389b7"/>
          </g>
          <g id="freepik--Shadows--inject-1--inject-69" transform="translate(60.445 102.897)">
            <path id="Path_8476" data-name="Path 8476" d="M89.583,166.855c8.992,4.265,23.568,4.265,32.54,0s8.992-11.176,0-15.441-23.564-4.265-32.54,0S80.575,162.594,89.583,166.855Z" transform="translate(-82.839 -132.013)" fill="#ebebeb"/>
            <path id="Path_8477" data-name="Path 8477" d="M168.611,154.327l-32.144,18.462a1.909,1.909,0,0,1-1.718,0L94.569,149.694a.52.52,0,0,1,0-.987l32.144-18.462a1.909,1.909,0,0,1,1.718,0l40.191,23.094a.52.52,0,0,1-.012.987Z" transform="translate(-84.024 -130.041)" fill="#ebebeb"/>
          </g>
          <g id="freepik--Pencil--inject-1--inject-69" transform="translate(134.111 0)">
            <path id="Path_8478" data-name="Path 8478" d="M184.939,41.155v8.479s-3.5,1.631-9.921,1.631S165.1,49.63,165.1,49.63V41.337l6.7-18.864c-.091.592.258,1.185,1.044,1.651a4.129,4.129,0,0,0,3.865.241,3.655,3.655,0,0,0,.5-.241c.833-.478,1.19-1.133,1.028-1.757Z" transform="translate(-165.073 -15.459)" fill="#f5f5f5"/>
            <path id="Path_8479" data-name="Path 8479" d="M184.939,41.155v8.479s-3.5,1.631-9.921,1.631S165.1,49.63,165.1,49.63V41.337l6.7-18.864c-.091.592.258,1.185,1.044,1.651a4.129,4.129,0,0,0,3.865.241,3.655,3.655,0,0,0,.5-.241c.833-.478,1.19-1.133,1.028-1.757Z" transform="translate(-165.073 -15.459)" fill="#fff" opacity="0.5"/>
            <path id="Path_8480" data-name="Path 8480" d="M184.166,109.843a6.736,6.736,0,0,1-2.139,1.832,15.578,15.578,0,0,1-14.048,0,6.738,6.738,0,0,1-2.143-1.832,3.807,3.807,0,0,1-.762-2.042v4.4c.071,1.406,1.036,2.8,2.9,3.874a15.6,15.6,0,0,0,14.048,0c1.937-1.114,2.909-2.575,2.909-4.036v-4.4a3.728,3.728,0,0,1-.77,2.2Z" transform="translate(-165.071 -24.713)" fill="#5e3636"/>
            <path id="Path_8481" data-name="Path 8481" d="M184.166,104.9a6.737,6.737,0,0,1-2.139,1.832c-.23.13-.464.253-.706.367a15.965,15.965,0,0,1-12.635,0c-.242-.115-.48-.237-.706-.367a6.737,6.737,0,0,1-2.143-1.832,3.8,3.8,0,0,1-.762-2.038v4.4a3.807,3.807,0,0,0,.762,2.042,6.737,6.737,0,0,0,2.143,1.832,15.578,15.578,0,0,0,14.048,0,6.737,6.737,0,0,0,2.139-1.832,3.728,3.728,0,0,0,.77-2.2v-4.4a3.724,3.724,0,0,1-.77,2.2Z" transform="translate(-165.071 -24.177)" fill="#ff9200"/>
            <path id="Path_8482" data-name="Path 8482" d="M184.166,99.964a6.784,6.784,0,0,1-2.139,1.836c-.23.13-.464.249-.706.367a15.965,15.965,0,0,1-12.635,0c-.242-.118-.48-.237-.706-.367a6.8,6.8,0,0,1-2.143-1.836,3.8,3.8,0,0,1-.762-2.038v4.4a3.8,3.8,0,0,0,.762,2.038,6.737,6.737,0,0,0,2.143,1.832c.226.13.464.253.706.367a15.965,15.965,0,0,0,12.635,0c.242-.115.476-.237.706-.367a6.737,6.737,0,0,0,2.139-1.832,3.724,3.724,0,0,0,.77-2.2v-4.4a3.716,3.716,0,0,1-.77,2.2Z" transform="translate(-165.071 -23.641)" fill="#862e2e"/>
            <path id="Path_8483" data-name="Path 8483" d="M165.075,43.629V92.052a3.8,3.8,0,0,0,.762,2.038,6.8,6.8,0,0,0,2.143,1.836c.226.13.464.249.706.367a13.14,13.14,0,0,0,3.008.975l-1.8-51.033Z" transform="translate(-165.071 -17.766)" fill="#f5f5f5"/>
            <path id="Path_8484" data-name="Path 8484" d="M181.65,46.215l-1.8,51.033a13.14,13.14,0,0,0,3.008-.975c.242-.118.476-.237.706-.367a6.785,6.785,0,0,0,2.139-1.836,3.716,3.716,0,0,0,.77-2.2V43.443Z" transform="translate(-166.61 -17.746)" fill="#f5f5f5"/>
            <path id="Path_8485" data-name="Path 8485" d="M165.075,43.629V92.052a3.8,3.8,0,0,0,.762,2.038,6.8,6.8,0,0,0,2.143,1.836c.226.13.464.249.706.367a13.14,13.14,0,0,0,3.008.975l-1.8-51.033Z" transform="translate(-165.071 -17.766)" fill="#653232"/>
            <path id="Path_8486" data-name="Path 8486" d="M181.65,46.215l-1.8,51.033a13.14,13.14,0,0,0,3.008-.975c.242-.118.476-.237.706-.367a6.785,6.785,0,0,0,2.139-1.836,3.716,3.716,0,0,0,.77-2.2V43.443Z" transform="translate(-166.61 -17.746)" fill="#653232"/>
            <path id="Path_8487" data-name="Path 8487" d="M170.457,46.552V97.1a14.284,14.284,0,0,0,1.8.49,16.706,16.706,0,0,0,3.31.328h0a17.01,17.01,0,0,0,3.31-.328,14.284,14.284,0,0,0,1.8-.49V46.552Z" transform="translate(-165.632 -18.084)" fill="#ebebeb"/>
            <path id="Path_8488" data-name="Path 8488" d="M177.964,23.263a3.655,3.655,0,0,1-.5.241,4.129,4.129,0,0,1-3.865-.241,1.674,1.674,0,0,1-1.044-1.651l2.286-6.37a1,1,0,0,1,.94-.624h0a1,1,0,0,1,.944.624l2.262,6.255h0C179.142,22.121,178.8,22.785,177.964,23.263Z" transform="translate(-165.849 -14.618)"/>
            <path id="Path_8489" data-name="Path 8489" d="M182.027,116.614a15.77,15.77,0,0,1-12.278.79q-.321-.111-.631-.249l-.286-.118c-.3-.134-.583-.28-.853-.434-1.869-1.074-2.833-2.468-2.9-3.874v12c-.071,1.516.893,3.045,2.9,4.2.238.138.488.269.746.395.1.047.2.083.294.126.167.071.329.146.5.209s.266.095.4.138.282.1.429.146.325.091.488.134.25.071.377.1.377.083.567.118a2.306,2.306,0,0,1,.321.063c.214.039.433.067.651.1l.258.036c.242.028.484.047.726.063h.19c.266.02.532.028.794.032h1.048c.3,0,.6-.036.9-.063h0a13.693,13.693,0,0,0,5.068-1.445h0c.087-.047.179-.087.266-.138,1.937-1.114,2.909-2.575,2.909-4.036V112.578C184.936,114.039,183.964,115.5,182.027,116.614Z" transform="translate(-165.071 -25.249)"/>
          </g>
          <g id="freepik--Backpack--inject-1--inject-69" transform="translate(21.521 56.471)">
            <path id="Path_8490" data-name="Path 8490" d="M49.136,120.165a73.082,73.082,0,0,1-7.893-4.178,3.528,3.528,0,0,1-1.853-2.8c0-1.331.139-13.881,1.234-19.943A14.073,14.073,0,0,1,46.913,84c3.81-2.35,7.639-4.052,10.865-2.717a13.814,13.814,0,0,1,7.441,6.749c1.27,2.962,2.139,8.893,2.23,11.188s0,10.161,0,10.86-.127,1.607-3.909,3.949-9,5.134-10.619,5.856a6.2,6.2,0,0,1-3.786.276Z" transform="translate(-39.389 -78.273)" fill="#37474f"/>
            <path id="Path_8491" data-name="Path 8491" d="M49.029,85.325c-.349.2-1.357-.3-1.508-.545a5.751,5.751,0,0,1,.564-3.59c.754-1.189,5.456-3.38,6.619-3.218a3.244,3.244,0,0,1,2.163,1.374,5.615,5.615,0,0,1,0,2.717c-.3.411-1.377-.221-1.472-.395s.353-1.639-.4-1.943c-.69-.276-3.968,1.11-5.3,2.223-.579.486-.552,1.69-.524,2.286S49.2,85.222,49.029,85.325Z" transform="translate(-40.227 -77.963)" fill="#455a64"/>
            <path id="Path_8492" data-name="Path 8492" d="M48.109,100.31c.675-6.52,1.889-10.327,8.3-13.166s8.9-.423,9.806,1.753a44.131,44.131,0,0,1,2.1,10.872c.091,2.294,0,10.161,0,10.86s-.127,1.607-3.909,3.949-9,5.134-10.619,5.856a6.2,6.2,0,0,1-3.786.288,5.054,5.054,0,0,1-.738-.288C47.264,117.884,47.49,106.266,48.109,100.31Z" transform="translate(-40.252 -78.819)" fill="#455a64"/>
            <path id="Path_8493" data-name="Path 8493" d="M62.605,84.264c-1.675-.975-4.421-1.619-8.453.17-7.207,3.195-9.036,7.2-9.762,14.216-.131,1.287-.325,2.82-.4,4.466l-.6-.359c.083-1.777.258-3.3.4-4.672.794-7.073,2.925-10.982,9.81-14.035,3.814-1.69,6.318-1.469,7.976-.636a12.475,12.475,0,0,1,1.024.849Z" transform="translate(-39.807 -78.486)" fill="#263238"/>
            <path id="Path_8494" data-name="Path 8494" d="M62.884,84.471c-1.671-.975-4.421-1.619-8.449.17-7.21,3.195-9.04,7.2-9.766,14.217-.131,1.287-.325,2.82-.4,4.466l-.6-.359c.083-1.777.258-3.3.4-4.672.794-7.073,2.925-10.986,9.81-14.035,3.814-1.69,6.385-1.41,8.044-.581a11.044,11.044,0,0,1,.956.794Z" transform="translate(-39.836 -78.512)" fill="#455a64"/>
            <path id="Path_8495" data-name="Path 8495" d="M61.918,91.445,59.74,90.2a.469.469,0,0,0-.635.174l-2.234,3.866a.465.465,0,0,0,.167.636l2.151,1.248a.47.47,0,0,0,.639-.166l2.262-3.89a.453.453,0,0,0-.171-.628Z" transform="translate(-41.204 -79.285)" fill="#263238"/>
            <path id="Path_8496" data-name="Path 8496" d="M59.625,95.733l2.147-3.684a.228.228,0,0,0-.087-.316L59.7,90.611a.235.235,0,0,0-.317.087L57.26,94.367a.232.232,0,0,0,.087.316L59.3,95.816a.235.235,0,0,0,.329-.083Z" transform="translate(-41.248 -79.332)" fill="#455a64"/>
            <path id="Path_8497" data-name="Path 8497" d="M60.393,94.116h0a.43.43,0,0,0,.206-.324V92.027c0-.115-.091-.15-.206-.087h0a.43.43,0,0,0-.206.324v1.765C60.187,94.144,60.278,94.179,60.393,94.116Z" transform="translate(-41.556 -79.477)" fill="#37474f"/>
            <path id="Path_8498" data-name="Path 8498" d="M59.109,94.86h0a.442.442,0,0,0,.206-.328V92.771c0-.115-.1-.154-.206-.087h0a.422.422,0,0,0-.206.324v1.765C58.914,94.884,58.994,94.923,59.109,94.86Z" transform="translate(-41.422 -79.557)" fill="#37474f"/>
            <path id="Path_8499" data-name="Path 8499" d="M51.412,108.254s1.079.885,1.857,4.218,1.246,7.531.4,8.036-2.075-.553-2.381-.916C50.658,118.846,50.813,110.924,51.412,108.254Z" transform="translate(-40.587 -81.25)" fill="#263238"/>
            <path id="Path_8500" data-name="Path 8500" d="M51.474,107.336s1.079.885,1.857,4.218,1.246,7.531.4,8.036l13.1-7.685c.857-.505,1.067-4.917.294-8.25a6.345,6.345,0,0,0-2.032-3.692.845.845,0,0,0-.94-.059l-12.671,7.432" transform="translate(-40.648 -80.332)" fill="#37474f"/>
            <path id="Path_8501" data-name="Path 8501" d="M64.816,100.545c.627.308,1.691,1.157,2.171,3.412a1.689,1.689,0,0,1-.536,1.714c-.437.308-9.81,5.612-11.052,6.35-1.071.636-1.627-.209-1.861-.738h0c-.4-.94-.738-1.67-1.032-2.231a4.672,4.672,0,0,0-1.028-1.639l12.488-6.832a.909.909,0,0,1,.849-.036Z" transform="translate(-40.649 -80.404)" fill="#263238"/>
            <path id="Path_8502" data-name="Path 8502" d="M44.385,106.2a11.4,11.4,0,0,1,.353,2.073c0,.142-.194.217-.25.217a2.532,2.532,0,0,1-1.214-.616A11.886,11.886,0,0,1,43.6,106.1Z" transform="translate(-39.794 -81.017)" fill="#263238"/>
            <path id="Path_8503" data-name="Path 8503" d="M44.79,105.491a.758.758,0,1,0-.758.754A.756.756,0,0,0,44.79,105.491Z" transform="translate(-39.794 -80.869)" fill="#263238"/>
            <path id="Path_8504" data-name="Path 8504" d="M55.549,79.9c.829-.079,1.611,0,1.81.825a2.673,2.673,0,0,1,0,1.682,1.988,1.988,0,0,1-1.119-.529c-.1-.178.353-1.639-.4-1.943a.742.742,0,0,0-.286-.036Z" transform="translate(-41.073 -78.17)" fill="#263238"/>
            <path id="Path_8505" data-name="Path 8505" d="M64.224,99.854a.909.909,0,0,1,.853-.036c.627.308,1.691,1.157,2.171,3.412a1.693,1.693,0,0,1-.536,1.714c-.437.308-9.806,5.612-11.048,6.35-1.071.636-1.631-.209-1.865-.738h0c-1.3-2.7-2.325-3.226-2.325-3.226Z" transform="translate(-40.648 -80.325)" fill="#37474f"/>
          </g>
          <g id="freepik--game-console--inject-1--inject-69" transform="translate(27.258 94.318)">
            <path id="Path_8506" data-name="Path 8506" d="M61.868,148.783,51.36,142.749a2.083,2.083,0,0,1-.944-1.627v.118a2.075,2.075,0,0,1,.944-1.627l21.131-12.139a2.084,2.084,0,0,1,1.885,0l10.508,6.038a2.06,2.06,0,0,1,.944,1.623v-.118a2.075,2.075,0,0,1-.94,1.627L63.757,148.783A2.092,2.092,0,0,1,61.868,148.783Z" transform="translate(-46.274 -121.16)" fill="#407bff"/>
            <path id="Path_8507" data-name="Path 8507" d="M61.868,148.783,51.36,142.749a2.083,2.083,0,0,1-.944-1.627v.118a2.075,2.075,0,0,1,.944-1.627l21.131-12.139a2.084,2.084,0,0,1,1.885,0l10.508,6.038a2.06,2.06,0,0,1,.944,1.623v-.118a2.075,2.075,0,0,1-.94,1.627L63.757,148.783A2.092,2.092,0,0,1,61.868,148.783Z" transform="translate(-46.274 -121.16)" opacity="0.7"/>
            <path id="Path_8508" data-name="Path 8508" d="M62.79,133.739l-11.449,6.579a2.075,2.075,0,0,0-.944,1.627v-.118a2.083,2.083,0,0,0,.944,1.627l10.508,6.034a1.94,1.94,0,0,0,.944.225Z" transform="translate(-46.272 -121.864)" fill="#407bff"/>
            <path id="Path_8509" data-name="Path 8509" d="M62.79,133.739l-11.449,6.579a2.075,2.075,0,0,0-.944,1.627v-.118a2.083,2.083,0,0,0,.944,1.627l10.508,6.034a1.94,1.94,0,0,0,.944.225Z" transform="translate(-46.272 -121.864)" opacity="0.7"/>
            <path id="Path_8510" data-name="Path 8510" d="M51.419,140.7l10.5,6.038a2.12,2.12,0,0,0,1.889,0l21.131-12.143c.524-.3.524-.79,0-1.082l-10.508-6.038a2.084,2.084,0,0,0-1.885,0L51.419,139.614A.572.572,0,0,0,51.419,140.7Z" transform="translate(-46.338 -121.16)" fill="#407bff"/>
            <path id="Path_8511" data-name="Path 8511" d="M51.419,140.7l10.5,6.038a2.12,2.12,0,0,0,1.889,0l21.131-12.143c.524-.3.524-.79,0-1.082l-10.508-6.038a2.084,2.084,0,0,0-1.885,0L51.419,139.614A.572.572,0,0,0,51.419,140.7Z" transform="translate(-46.338 -121.16)" opacity="0.5"/>
            <path id="Path_8512" data-name="Path 8512" d="M51.465,139.362v1l10.9,6.267a1.1,1.1,0,0,0,1.091,0L84.989,134.26v-1.035L62.914,143.887Z" transform="translate(-46.384 -121.808)" fill="#407bff"/>
            <path id="Path_8513" data-name="Path 8513" d="M61.863,144.01l-10.508-6.038a2.067,2.067,0,0,1-.944-1.627v-1.931a2.067,2.067,0,0,1,.944-1.627l21.131-12.143a2.084,2.084,0,0,1,1.885,0l10.508,6.038a2.067,2.067,0,0,1,.944,1.627v1.935a2.008,2.008,0,0,1-.944,1.58L63.748,144a2.084,2.084,0,0,1-1.885.012Z" transform="translate(-46.274 -120.418)" fill="#407bff"/>
            <path id="Path_8514" data-name="Path 8514" d="M61.863,144.01l-10.508-6.038a2.067,2.067,0,0,1-.944-1.627v-1.931a2.067,2.067,0,0,1,.944-1.627l21.131-12.143a2.084,2.084,0,0,1,1.885,0l10.508,6.038a2.067,2.067,0,0,1,.944,1.627v1.935a2.008,2.008,0,0,1-.944,1.58L63.748,144a2.084,2.084,0,0,1-1.885.012Z" transform="translate(-46.274 -120.418)" opacity="0.6"/>
            <path id="Path_8515" data-name="Path 8515" d="M62.79,126.912l-11.449,6.579a2.067,2.067,0,0,0-.944,1.627v1.931a2.067,2.067,0,0,0,.944,1.627l10.508,6.038a1.912,1.912,0,0,0,.94.225Z" transform="translate(-46.272 -121.123)" fill="#407bff"/>
            <path id="Path_8516" data-name="Path 8516" d="M62.79,126.912l-11.449,6.579a2.067,2.067,0,0,0-.944,1.627v1.931a2.067,2.067,0,0,0,.944,1.627l10.508,6.038a1.912,1.912,0,0,0,.94.225Z" transform="translate(-46.272 -121.123)" opacity="0.7"/>
            <path id="Path_8517" data-name="Path 8517" d="M51.419,133.869l10.5,6.038a2.092,2.092,0,0,0,1.889,0l21.131-12.139a.572.572,0,0,0,0-1.086l-10.508-6.038a2.084,2.084,0,0,0-1.885,0L51.419,132.787C50.9,133.087,50.9,133.573,51.419,133.869Z" transform="translate(-46.338 -120.418)" fill="#407bff"/>
            <path id="Path_8518" data-name="Path 8518" d="M51.419,133.869l10.5,6.038a2.092,2.092,0,0,0,1.889,0l21.131-12.139a.572.572,0,0,0,0-1.086l-10.508-6.038a2.084,2.084,0,0,0-1.885,0L51.419,132.787C50.9,133.087,50.9,133.573,51.419,133.869Z" transform="translate(-46.338 -120.418)" opacity="0.5"/>
            <path id="Path_8519" data-name="Path 8519" d="M67.723,130.063a1.271,1.271,0,0,0,0,2.413,4.711,4.711,0,0,0,4.214,0,1.271,1.271,0,0,0,0-2.413A4.687,4.687,0,0,0,67.723,130.063Z" transform="translate(-47.986 -121.411)" fill="#407bff"/>
            <path id="Path_8520" data-name="Path 8520" d="M86.935,130.911a.813.813,0,0,0-.369.64c0,.237.167.336.369.221a.813.813,0,0,0,.369-.64C87.3,130.9,87.138,130.8,86.935,130.911Z" transform="translate(-50.04 -121.552)" fill="#407bff"/>
            <path id="Path_8521" data-name="Path 8521" d="M86.935,132.5a.813.813,0,0,0-.369.64c0,.237.167.336.369.221a.789.789,0,0,0,.369-.64C87.3,132.486,87.138,132.387,86.935,132.5Z" transform="translate(-50.04 -121.724)" fill="#407bff"/>
            <path id="Path_8522" data-name="Path 8522" d="M56.981,158.746a.291.291,0,0,1-.139-.036L46.66,152.822a1.725,1.725,0,0,1,0-2.993l7.464-4.289a.279.279,0,0,1,.366.108.276.276,0,0,1-.088.37l-7.46,4.277a1.182,1.182,0,0,0,0,2.038l10.183,5.88a.272.272,0,0,1,.1.395.27.27,0,0,1-.242.138Z" transform="translate(-45.793 -123.141)" fill="#407bff"/>
            <path id="Path_8523" data-name="Path 8523" d="M70.62,152.728l-2.206-8.814a2.363,2.363,0,0,0-.123-.355l.643-.091-1.4-.79h0a1.849,1.849,0,0,0-1.9.083l-9.187,5.292a4.77,4.77,0,0,0-2.163,3.744v10.6c0,.845.206,1.426.631,1.627h0l1.317.758-.317-.837.071-.028a5.069,5.069,0,0,0,2.512-3.329l1.75-5.035a7.069,7.069,0,0,1,2.516-3.329,2.278,2.278,0,0,1,2.937,1.185l.881,1.532a2.866,2.866,0,0,0,1.167,1.145h0l1.341.79-.341-.529a1.569,1.569,0,0,0,.794-.213A3.218,3.218,0,0,0,70.62,152.728Z" transform="translate(-46.678 -122.81)" fill="#407bff"/>
            <path id="Path_8524" data-name="Path 8524" d="M70.62,152.728l-2.206-8.814a2.363,2.363,0,0,0-.123-.355l.643-.091-1.4-.79h0a1.849,1.849,0,0,0-1.9.083l-9.187,5.292a4.77,4.77,0,0,0-2.163,3.744v10.6c0,.845.206,1.426.631,1.627h0l1.317.758-.317-.837.071-.028a5.069,5.069,0,0,0,2.512-3.329l1.75-5.035a7.069,7.069,0,0,1,2.516-3.329,2.278,2.278,0,0,1,2.937,1.185l.881,1.532a2.866,2.866,0,0,0,1.167,1.145h0l1.341.79-.341-.529a1.569,1.569,0,0,0,.794-.213A3.218,3.218,0,0,0,70.62,152.728Z" transform="translate(-46.678 -122.81)" opacity="0.7"/>
            <path id="Path_8525" data-name="Path 8525" d="M68.393,143.558l.643-.091-1.4-.79h0a1.849,1.849,0,0,0-1.9.083l-9.187,5.292a4.213,4.213,0,0,0-1.286,1.244l2.187,1.327,11.183-6.287-.107-.423A2.36,2.36,0,0,0,68.393,143.558Z" transform="translate(-46.78 -122.81)" fill="#407bff"/>
            <path id="Path_8526" data-name="Path 8526" d="M68.393,143.558l.643-.091-1.4-.79h0a1.849,1.849,0,0,0-1.9.083l-9.187,5.292a4.213,4.213,0,0,0-1.286,1.244l2.187,1.327,11.183-6.287-.107-.423A2.36,2.36,0,0,0,68.393,143.558Z" transform="translate(-46.78 -122.81)" opacity="0.5"/>
            <path id="Path_8527" data-name="Path 8527" d="M71.111,157.049a2.289,2.289,0,0,1-2.948-1.185l-.877-1.532a2.276,2.276,0,0,0-2.941-1.185,6.879,6.879,0,0,0-2.516,3.329l-1.746,5.031a5.075,5.075,0,0,1-2.516,3.329c-1.143.545-1.694-.142-1.694-1.516V152.713a4.774,4.774,0,0,1,2.167-3.74l9.2-5.311a1.78,1.78,0,0,1,2.778,1.185l2.206,8.818A3.179,3.179,0,0,1,71.111,157.049Z" transform="translate(-46.843 -122.906)" fill="#407bff"/>
            <path id="Path_8528" data-name="Path 8528" d="M71.111,157.049a2.289,2.289,0,0,1-2.948-1.185l-.877-1.532a2.276,2.276,0,0,0-2.941-1.185,6.879,6.879,0,0,0-2.516,3.329l-1.746,5.031a5.075,5.075,0,0,1-2.516,3.329c-1.143.545-1.694-.142-1.694-1.516V152.713a4.774,4.774,0,0,1,2.167-3.74l9.2-5.311a1.78,1.78,0,0,1,2.778,1.185l2.206,8.818A3.179,3.179,0,0,1,71.111,157.049Z" transform="translate(-46.843 -122.906)" opacity="0.6"/>
            <path id="Path_8529" data-name="Path 8529" d="M68.691,147.125l.23,1.3,1.02-.648.226,1.3-1.016.652.23,1.3-1.016.648-.23-1.3-1.016.652-.23-1.3,1.016-.648-.23-1.3Z" transform="translate(-47.99 -123.317)" fill="#263238"/>
            <path id="Path_8530" data-name="Path 8530" d="M69.019,147.3l.23,1.3,1.016-.648.23,1.3-1.016.652.23,1.3-1.016.648-.23-1.3-1.016.648-.23-1.3,1.016-.648-.23-1.3Z" transform="translate(-48.024 -123.335)" fill="#407bff"/>
            <path id="Path_8531" data-name="Path 8531" d="M60.187,152.237a1.036,1.036,0,0,1-.4.975c-.282.178-.56.032-.623-.328a1.024,1.024,0,0,1,.4-.975C59.841,151.732,60.131,151.878,60.187,152.237Z" transform="translate(-47.185 -123.828)" fill="#263238"/>
            <path id="Path_8532" data-name="Path 8532" d="M60.7,155.152a1.024,1.024,0,0,1-.4.975c-.282.178-.56.032-.623-.324a1.02,1.02,0,0,1,.4-.975C60.355,154.646,60.637,154.793,60.7,155.152Z" transform="translate(-47.238 -124.144)" fill="#263238"/>
            <path id="Path_8533" data-name="Path 8533" d="M61.578,152.964a1.02,1.02,0,0,1-.4.975c-.282.182-.56.036-.623-.324a1.02,1.02,0,0,1,.4-.975C61.236,152.462,61.514,152.6,61.578,152.964Z" transform="translate(-47.329 -123.907)" fill="#263238"/>
            <path id="Path_8534" data-name="Path 8534" d="M59.31,154.421a1.02,1.02,0,0,1-.4.975c-.282.182-.56.036-.623-.324a1.024,1.024,0,0,1,.4-.975C58.968,153.92,59.246,154.062,59.31,154.421Z" transform="translate(-47.093 -124.065)" fill="#263238"/>
            <path id="Path_8535" data-name="Path 8535" d="M60.209,152.25a1.024,1.024,0,0,1-.4.975c-.282.178-.56.036-.623-.324a1.02,1.02,0,0,1,.4-.975C59.868,151.745,60.133,151.891,60.209,152.25Z" transform="translate(-47.187 -123.829)" fill="#263238"/>
            <path id="Path_8536" data-name="Path 8536" d="M60.723,155.166a1.02,1.02,0,0,1-.4.975c-.282.182-.56.036-.623-.324a1.02,1.02,0,0,1,.4-.975C60.381,154.664,60.659,154.806,60.723,155.166Z" transform="translate(-47.24 -124.146)" fill="#263238"/>
            <path id="Path_8537" data-name="Path 8537" d="M61.6,152.981a1.02,1.02,0,0,1-.4.971c-.278.182-.56.036-.623-.324a1.032,1.032,0,0,1,.4-.975C61.259,152.476,61.536,152.622,61.6,152.981Z" transform="translate(-47.332 -123.908)" fill="#263238"/>
            <path id="Path_8538" data-name="Path 8538" d="M59.332,154.439a1.024,1.024,0,0,1-.4.975c-.278.178-.56.032-.623-.328a1.036,1.036,0,0,1,.4-.975C58.991,153.933,59.268,154.079,59.332,154.439Z" transform="translate(-47.096 -124.066)" fill="#263238"/>
            <path id="Path_8539" data-name="Path 8539" d="M60.231,152.264a1.02,1.02,0,0,1-.4.975c-.278.182-.56.036-.623-.324a1.032,1.032,0,0,1,.4-.975C59.89,151.762,60.168,151.9,60.231,152.264Z" transform="translate(-47.189 -123.831)" fill="#263238"/>
            <path id="Path_8540" data-name="Path 8540" d="M60.745,155.183a1.02,1.02,0,0,1-.4.971c-.278.182-.56.036-.623-.324a1.032,1.032,0,0,1,.4-.975C60.4,154.677,60.681,154.823,60.745,155.183Z" transform="translate(-47.243 -124.147)" fill="#263238"/>
            <path id="Path_8541" data-name="Path 8541" d="M61.626,152.995a1.032,1.032,0,0,1-.4.975c-.282.178-.56.032-.623-.324a1.02,1.02,0,0,1,.4-.975C61.281,152.489,61.563,152.635,61.626,152.995Z" transform="translate(-47.335 -123.91)" fill="#263238"/>
            <path id="Path_8542" data-name="Path 8542" d="M59.358,154.452a1.032,1.032,0,0,1-.4.975c-.282.178-.56.036-.623-.324a1.021,1.021,0,0,1,.4-.975C59.013,153.947,59.295,154.093,59.358,154.452Z" transform="translate(-47.098 -124.068)" fill="#263238"/>
            <path id="Path_8543" data-name="Path 8543" d="M60.258,152.282a1.032,1.032,0,0,1-.4.975c-.282.178-.56.032-.623-.328a1.021,1.021,0,0,1,.4-.971C59.912,151.776,60.194,151.934,60.258,152.282Z" transform="translate(-47.192 -123.833)" fill="#263238"/>
            <path id="Path_8544" data-name="Path 8544" d="M60.771,155.2a1.032,1.032,0,0,1-.4.975c-.282.178-.56.036-.623-.324a1.02,1.02,0,0,1,.4-.975C60.426,154.691,60.708,154.837,60.771,155.2Z" transform="translate(-47.246 -124.149)" fill="#263238"/>
            <path id="Path_8545" data-name="Path 8545" d="M61.649,153.008a1.02,1.02,0,0,1-.4.975c-.282.182-.56.036-.623-.324a1.024,1.024,0,0,1,.4-.975C61.307,152.507,61.585,152.649,61.649,153.008Z" transform="translate(-47.337 -123.912)" fill="#263238"/>
            <path id="Path_8546" data-name="Path 8546" d="M59.38,154.466a1.02,1.02,0,0,1-.4.975c-.282.182-.56.036-.623-.324a1.024,1.024,0,0,1,.4-.975C59.039,153.964,59.317,154.106,59.38,154.466Z" transform="translate(-47.101 -124.07)" fill="#263238"/>
            <path id="Path_8547" data-name="Path 8547" d="M60.28,152.295a1.024,1.024,0,0,1-.4.975c-.282.178-.56.036-.623-.324a1.02,1.02,0,0,1,.4-.975C59.938,151.789,60.216,151.935,60.28,152.295Z" transform="translate(-47.194 -123.834)" fill="#263238"/>
            <path id="Path_8548" data-name="Path 8548" d="M60.794,155.21a1.02,1.02,0,0,1-.4.975c-.282.182-.56.036-.623-.324a1.024,1.024,0,0,1,.4-.975C60.452,154.708,60.73,154.85,60.794,155.21Z" transform="translate(-47.248 -124.151)" fill="#263238"/>
            <path id="Path_8549" data-name="Path 8549" d="M61.671,153.025a1.028,1.028,0,0,1-.4.975c-.282.178-.56.032-.623-.328a1.024,1.024,0,0,1,.4-.975C61.329,152.52,61.607,152.666,61.671,153.025Z" transform="translate(-47.339 -123.913)" fill="#263238"/>
            <path id="Path_8550" data-name="Path 8550" d="M59.4,154.483a1.024,1.024,0,0,1-.4.975c-.278.178-.56.032-.623-.328a1.028,1.028,0,0,1,.4-.971C59.061,153.978,59.339,154.124,59.4,154.483Z" transform="translate(-47.103 -124.071)" fill="#263238"/>
            <path id="Path_8551" data-name="Path 8551" d="M60.3,152.308a1.02,1.02,0,0,1-.4.975c-.278.182-.56.036-.623-.324a1.032,1.032,0,0,1,.4-.975C59.961,151.807,60.238,151.937,60.3,152.308Z" transform="translate(-47.197 -123.835)" fill="#263238"/>
            <path id="Path_8552" data-name="Path 8552" d="M60.816,155.227a1.028,1.028,0,0,1-.4.975c-.278.178-.56.032-.623-.328a1.032,1.032,0,0,1,.4-.975C60.475,154.722,60.752,154.868,60.816,155.227Z" transform="translate(-47.25 -124.152)" fill="#263238"/>
            <path id="Path_8553" data-name="Path 8553" d="M61.693,153.039a1.024,1.024,0,0,1-.4.975c-.278.178-.56.036-.623-.324a1.028,1.028,0,0,1,.4-.975C61.352,152.534,61.629,152.68,61.693,153.039Z" transform="translate(-47.342 -123.915)" fill="#263238"/>
            <path id="Path_8554" data-name="Path 8554" d="M59.429,154.5a1.032,1.032,0,0,1-.4.975c-.282.178-.56.036-.623-.324a1.02,1.02,0,0,1,.4-.975C59.084,153.991,59.366,154.149,59.429,154.5Z" transform="translate(-47.106 -124.073)" fill="#263238"/>
            <path id="Path_8555" data-name="Path 8555" d="M60.328,152.334a1.032,1.032,0,0,1-.4.975c-.282.178-.56.032-.623-.324a1.02,1.02,0,0,1,.4-.975C59.983,151.821,60.265,151.967,60.328,152.334Z" transform="translate(-47.199 -123.838)" fill="#263238"/>
            <path id="Path_8556" data-name="Path 8556" d="M60.842,155.241a1.032,1.032,0,0,1-.4.975c-.282.178-.56.036-.623-.324a1.02,1.02,0,0,1,.4-.975C60.5,154.735,60.779,154.881,60.842,155.241Z" transform="translate(-47.253 -124.154)" fill="#263238"/>
            <path id="Path_8557" data-name="Path 8557" d="M61.719,153.052a1.028,1.028,0,0,1-.4.975c-.282.182-.56.036-.623-.324a1.024,1.024,0,0,1,.4-.975C61.374,152.551,61.656,152.693,61.719,153.052Z" transform="translate(-47.344 -123.916)" fill="#263238"/>
            <path id="Path_8558" data-name="Path 8558" d="M59.451,154.51a1.02,1.02,0,0,1-.4.975c-.282.182-.56.036-.623-.324a1.024,1.024,0,0,1,.4-.975C59.11,154.008,59.388,154.151,59.451,154.51Z" transform="translate(-47.108 -124.075)" fill="#263238"/>
            <path id="Path_8559" data-name="Path 8559" d="M60.351,152.335a1.02,1.02,0,0,1-.4.975c-.282.182-.56.036-.623-.324a1.02,1.02,0,0,1,.4-.975C60.009,151.833,60.287,151.98,60.351,152.335Z" transform="translate(-47.202 -123.839)" fill="#263238"/>
            <path id="Path_8560" data-name="Path 8560" d="M60.864,155.254a1.02,1.02,0,0,1-.4.975c-.282.182-.56.036-.623-.324a1.024,1.024,0,0,1,.4-.975C60.523,154.753,60.8,154.895,60.864,155.254Z" transform="translate(-47.255 -124.155)" fill="#263238"/>
            <path id="Path_8561" data-name="Path 8561" d="M61.742,153.07a1.024,1.024,0,0,1-.4.975c-.282.178-.56.032-.623-.328a1.02,1.02,0,0,1,.4-.971C61.4,152.565,61.678,152.711,61.742,153.07Z" transform="translate(-47.347 -123.918)" fill="#263238"/>
            <path id="Path_8562" data-name="Path 8562" d="M59.473,154.548a1.024,1.024,0,0,1-.4.975c-.278.178-.56.032-.623-.324a1.02,1.02,0,0,1,.4-.975C59.132,154.022,59.41,154.153,59.473,154.548Z" transform="translate(-47.11 -124.077)" fill="#263238"/>
            <path id="Path_8563" data-name="Path 8563" d="M60.373,152.357a1.02,1.02,0,0,1-.4.971c-.282.182-.56.036-.623-.324a1.024,1.024,0,0,1,.4-.975C60.031,151.851,60.309,152,60.373,152.357Z" transform="translate(-47.204 -123.841)" fill="#263238"/>
            <path id="Path_8564" data-name="Path 8564" d="M60.887,155.272a1.024,1.024,0,0,1-.4.975c-.278.178-.56.032-.623-.328a1.02,1.02,0,0,1,.4-.971C60.545,154.766,60.823,154.912,60.887,155.272Z" transform="translate(-47.258 -124.157)" fill="#263238"/>
            <path id="Path_8565" data-name="Path 8565" d="M61.764,153.083a1.024,1.024,0,0,1-.4.975c-.278.178-.56.036-.623-.324a1.028,1.028,0,0,1,.4-.975C61.422,152.578,61.7,152.724,61.764,153.083Z" transform="translate(-47.349 -123.92)" fill="#263238"/>
            <path id="Path_8566" data-name="Path 8566" d="M59.5,154.549a1.02,1.02,0,0,1-.4.975c-.278.182-.556.036-.623-.324a1.028,1.028,0,0,1,.4-.975C59.154,154.036,59.432,154.182,59.5,154.549Z" transform="translate(-47.113 -124.078)" fill="#263238"/>
            <path id="Path_8567" data-name="Path 8567" d="M60.395,152.37a1.024,1.024,0,0,1-.4.975c-.278.178-.56.032-.623-.324a1.028,1.028,0,0,1,.4-.975C60.054,151.865,60.331,152.011,60.395,152.37Z" transform="translate(-47.206 -123.842)" fill="#263238"/>
            <path id="Path_8568" data-name="Path 8568" d="M60.909,155.285a1.024,1.024,0,0,1-.4.975c-.278.178-.556.036-.619-.324a1.02,1.02,0,0,1,.4-.975C60.568,154.779,60.846,154.926,60.909,155.285Z" transform="translate(-47.26 -124.159)" fill="#263238"/>
            <path id="Path_8569" data-name="Path 8569" d="M61.79,153.1a1.028,1.028,0,0,1-.4.975c-.282.182-.56.036-.623-.324a1.024,1.024,0,0,1,.4-.975C61.445,152.6,61.727,152.741,61.79,153.1Z" transform="translate(-47.352 -123.921)" fill="#263238"/>
            <path id="Path_8570" data-name="Path 8570" d="M59.522,154.55a1.028,1.028,0,0,1-.4.971c-.282.182-.56.036-.623-.324a1.024,1.024,0,0,1,.4-.975C59.177,154.052,59.459,154.2,59.522,154.55Z" transform="translate(-47.115 -124.079)" fill="#263238"/>
            <path id="Path_8571" data-name="Path 8571" d="M60.421,152.384a1.028,1.028,0,0,1-.4.975c-.282.182-.56.036-.623-.324a1.024,1.024,0,0,1,.4-.975C60.076,151.882,60.358,152.024,60.421,152.384Z" transform="translate(-47.209 -123.844)" fill="#263238"/>
            <path id="Path_8572" data-name="Path 8572" d="M60.935,155.3a1.028,1.028,0,0,1-.4.975c-.282.182-.56.036-.623-.324a1.024,1.024,0,0,1,.4-.975C60.606,154.8,60.872,154.943,60.935,155.3Z" transform="translate(-47.263 -124.16)" fill="#263238"/>
            <path id="Path_8573" data-name="Path 8573" d="M61.812,153.114a1.024,1.024,0,0,1-.4.975c-.282.178-.56.032-.623-.324a1.02,1.02,0,0,1,.4-.975C61.491,152.609,61.749,152.755,61.812,153.114Z" transform="translate(-47.354 -123.923)" fill="#263238"/>
            <path id="Path_8574" data-name="Path 8574" d="M59.544,154.572a1.024,1.024,0,0,1-.4.975c-.282.178-.56.032-.623-.324a1.02,1.02,0,0,1,.4-.975C59.2,154.066,59.481,154.212,59.544,154.572Z" transform="translate(-47.118 -124.081)" fill="#263238"/>
            <path id="Path_8575" data-name="Path 8575" d="M60.444,152.4a1.028,1.028,0,0,1-.4.975c-.282.178-.56.032-.623-.328a1.024,1.024,0,0,1,.4-.975C60.1,151.9,60.38,152.042,60.444,152.4Z" transform="translate(-47.211 -123.845)" fill="#263238"/>
            <path id="Path_8576" data-name="Path 8576" d="M60.957,155.316a1.024,1.024,0,0,1-.4.975c-.282.178-.56.032-.623-.324a1.02,1.02,0,0,1,.4-.975C60.608,154.81,60.894,154.956,60.957,155.316Z" transform="translate(-47.265 -124.162)" fill="#263238"/>
            <path id="Path_8577" data-name="Path 8577" d="M61.835,153.128a1.02,1.02,0,0,1-.4.975c-.278.182-.56.036-.623-.324a1.028,1.028,0,0,1,.4-.975C61.493,152.622,61.771,152.768,61.835,153.128Z" transform="translate(-47.356 -123.924)" fill="#263238"/>
            <path id="Path_8578" data-name="Path 8578" d="M59.567,154.585a1.02,1.02,0,0,1-.4.975c-.278.182-.56.036-.623-.324a1.032,1.032,0,0,1,.4-.975C59.225,154.084,59.5,154.226,59.567,154.585Z" transform="translate(-47.12 -124.083)" fill="#263238"/>
            <path id="Path_8579" data-name="Path 8579" d="M68.782,147.125l.294.154-1.016.652-.294-.154Z" transform="translate(-48.082 -123.317)" fill="#263238"/>
            <path id="Path_8580" data-name="Path 8580" d="M67.905,149.314l.294.154-1.016.648-.294-.154Z" transform="translate(-47.99 -123.554)" fill="#263238"/>
            <path id="Path_8581" data-name="Path 8581" d="M69.479,148.658l-.056-.3.782-.5.29.154Z" transform="translate(-48.254 -123.396)" fill="#263238"/>
            <path id="Path_8582" data-name="Path 8582" d="M66.889,150.04l.294.154.23,1.3-.294-.15Z" transform="translate(-47.99 -123.633)" fill="#263238"/>
            <path id="Path_8583" data-name="Path 8583" d="M68.517,152.089l.294.154-.23-1.3-.238.154Z" transform="translate(-48.142 -123.731)" fill="#263238"/>
            <path id="Path_8584" data-name="Path 8584" d="M60.444,152.4a1.028,1.028,0,0,1-.4.975c-.282.178-.56.032-.623-.328a1.024,1.024,0,0,1,.4-.975C60.1,151.9,60.38,152.042,60.444,152.4Z" transform="translate(-47.211 -123.845)" fill="#407bff"/>
            <path id="Path_8585" data-name="Path 8585" d="M60.957,155.316a1.024,1.024,0,0,1-.4.975c-.282.178-.56.032-.623-.324a1.02,1.02,0,0,1,.4-.975C60.608,154.81,60.894,154.956,60.957,155.316Z" transform="translate(-47.265 -124.162)" fill="#407bff"/>
            <path id="Path_8586" data-name="Path 8586" d="M61.835,153.128a1.02,1.02,0,0,1-.4.975c-.278.182-.56.036-.623-.324a1.028,1.028,0,0,1,.4-.975C61.493,152.622,61.771,152.768,61.835,153.128Z" transform="translate(-47.356 -123.924)" fill="#407bff"/>
            <path id="Path_8587" data-name="Path 8587" d="M59.567,154.585a1.02,1.02,0,0,1-.4.975c-.278.182-.56.036-.623-.324a1.032,1.032,0,0,1,.4-.975C59.225,154.084,59.5,154.226,59.567,154.585Z" transform="translate(-47.12 -124.083)" fill="#407bff"/>
          </g>
          <g id="freepik--Cloud--inject-1--inject-69" transform="translate(25.228 10.209)">
            <path id="Path_8588" data-name="Path 8588" d="M68.551,28.375l-4.266,2.448a4.479,4.479,0,0,0,.036-.561V29.035c0-2.188-1.544-3.076-3.445-1.975a6.589,6.589,0,0,0-2.056,1.975c-.313-2.764-2.48-3.775-5.115-2.263a11.341,11.341,0,0,0-5.159,8.889V37.5a4.845,4.845,0,0,0,.437,2.132L45.44,41.668a4.21,4.21,0,0,0-1.913,3.3c0,1.212.857,1.706,1.913,1.1L68.551,32.786a4.21,4.21,0,0,0,1.913-3.3C70.464,28.261,69.615,27.767,68.551,28.375Z" transform="translate(-43.527 -26.07)" fill="#91b3cd"/>
          </g>
          <g id="freepik--Character--inject-1--inject-69" transform="translate(56.078 21.266)">
            <path id="Path_8589" data-name="Path 8589" d="M170.307,152.347l-.794-.446.564-.253s.44.118.452.138a2.242,2.242,0,0,1-.032.3Z" transform="translate(-87.5 -50.755)" fill="#e0e0e0"/>
            <path id="Path_8590" data-name="Path 8590" d="M170.307,152.347l-.794-.446.564-.253s.44.118.452.138a2.242,2.242,0,0,1-.032.3Z" transform="translate(-87.5 -50.755)" fill="#407bff"/>
            <path id="Path_8591" data-name="Path 8591" d="M170.307,152.347l-.794-.446.564-.253s.44.118.452.138a2.242,2.242,0,0,1-.032.3Z" transform="translate(-87.5 -50.755)" fill="#fff" opacity="0.1"/>
            <path id="Path_8592" data-name="Path 8592" d="M133.11,164.534a2.523,2.523,0,0,0,2.27,0l25.453-14.611-38.1-21.893-.889-.509L96.395,142.131a.688.688,0,0,0,0,1.3Z" transform="translate(-79.835 -48.137)" fill="#407bff"/>
            <path id="Path_8593" data-name="Path 8593" d="M133.11,164.534a2.523,2.523,0,0,0,2.27,0l25.453-14.611-38.1-21.893-.889-.509L96.395,142.131a.688.688,0,0,0,0,1.3Z" transform="translate(-79.835 -48.137)" fill="#fff" opacity="0.8"/>
            <path id="Path_8594" data-name="Path 8594" d="M147.742,138.049l8.877,5.082,5.746-3.3,6.671,3.846v4.782c0,.581-.655,1.406-.893,1.272a6.609,6.609,0,0,0-1.278.45,9.587,9.587,0,0,0-1.845,1.358l-20.4-11.717Z" transform="translate(-84.907 -49.279)" fill="#e0e0e0"/>
            <path id="Path_8595" data-name="Path 8595" d="M147.742,138.049l8.877,5.082,5.746-3.3,6.671,3.846v4.782c0,.581-.655,1.406-.893,1.272a6.609,6.609,0,0,0-1.278.45,9.587,9.587,0,0,0-1.845,1.358l-20.4-11.717Z" transform="translate(-84.907 -49.279)" fill="#407bff"/>
            <path id="Path_8596" data-name="Path 8596" d="M147.742,138.049l8.877,5.082,5.746-3.3,6.671,3.846v4.782c0,.581-.655,1.406-.893,1.272a6.609,6.609,0,0,0-1.278.45,9.587,9.587,0,0,0-1.845,1.358l-20.4-11.717Z" transform="translate(-84.907 -49.279)" fill="#fff" opacity="0.1"/>
            <path id="Path_8597" data-name="Path 8597" d="M139.849,166.865l1.536-.885,23.044-13.237a1.457,1.457,0,0,1,.314-.821,3.329,3.329,0,0,1,1.008-.885,2.321,2.321,0,0,1,1.087-.336,1.163,1.163,0,0,1,.714.233,3.882,3.882,0,0,0,.425-1.9h.873c0,1.185-.4,2.4-.885,2.677l-.44.257c-.25.142-.448.15-.448,0v-.233c0-.261-.4-.249-.889.036s-.885.719-.885.979v.237c0,.134-.341.434-.754.671L142.262,166.47l-2.413,1.382h0a2.39,2.39,0,0,1-1.131.265v-1a2.275,2.275,0,0,0,1.131-.249Z" transform="translate(-84.292 -50.472)" fill="#407bff"/>
            <path id="Path_8598" data-name="Path 8598" d="M139.849,166.865l1.536-.885,23.044-13.237a1.457,1.457,0,0,1,.314-.821,3.329,3.329,0,0,1,1.008-.885,2.321,2.321,0,0,1,1.087-.336,1.163,1.163,0,0,1,.714.233,3.882,3.882,0,0,0,.425-1.9h.873c0,1.185-.4,2.4-.885,2.677l-.44.257c-.25.142-.448.15-.448,0v-.233c0-.261-.4-.249-.889.036s-.885.719-.885.979v.237c0,.134-.341.434-.754.671L142.262,166.47l-2.413,1.382h0a2.39,2.39,0,0,1-1.131.265v-1a2.275,2.275,0,0,0,1.131-.249Z" transform="translate(-84.292 -50.472)" fill="#fff" opacity="0.6"/>
            <path id="Path_8599" data-name="Path 8599" d="M95.917,144.618v1.023a.79.79,0,0,0,.452.64h0l34.314,19.714,2.409,1.382h0a2.39,2.39,0,0,0,1.131.265v-1a2.274,2.274,0,0,1-1.135-.272l-1.532-.881h0L96.37,145.262A.79.79,0,0,1,95.917,144.618Z" transform="translate(-79.834 -49.992)" fill="#407bff"/>
            <path id="Path_8600" data-name="Path 8600" d="M95.917,144.618v1.023a.79.79,0,0,0,.452.64h0l34.314,19.714,2.409,1.382h0a2.39,2.39,0,0,0,1.131.265v-1a2.274,2.274,0,0,1-1.135-.272l-1.532-.881h0L96.37,145.262A.79.79,0,0,1,95.917,144.618Z" transform="translate(-79.834 -49.992)" fill="#fff" opacity="0.1"/>
            <path id="Path_8601" data-name="Path 8601" d="M138.7,160.022v5.86a1.5,1.5,0,0,0,.754-.178l2.778-1.6L163.5,151.883V145.77Z" transform="translate(-84.29 -50.117)" fill="#fff"/>
            <path id="Path_8602" data-name="Path 8602" d="M97.153,138.589V143.1a1.661,1.661,0,0,0,.754,1.3l32.937,18.916,2.778,1.6a1.51,1.51,0,0,0,.754.178v-5.232Z" transform="translate(-79.963 -49.338)" fill="#f0f0f0"/>
            <path id="Path_8603" data-name="Path 8603" d="M166.4,151.655a1.48,1.48,0,0,1,.321-.821,3.368,3.368,0,0,1,1.008-.881,2.266,2.266,0,0,1,1.083-.34,1.194,1.194,0,0,1,.718.233v-6.1l-3.123,1.8Z" transform="translate(-87.175 -49.898)" fill="#455a64"/>
            <path id="Path_8604" data-name="Path 8604" d="M167.649,150.258a3.169,3.169,0,0,0-.929.829,1.48,1.48,0,0,0-.321.821V146.08h1.246Z" transform="translate(-87.175 -50.151)" fill="#f5f5f5"/>
            <path id="Path_8605" data-name="Path 8605" d="M125.845,119.865l38.1,21.893v.509c0,.28.4.395.885.1s.889-.632.889-1.118l.048-.482-38.822-22.3-.155-.091a.519.519,0,0,0-.067.233v.237C126.726,119.139,126.333,119.593,125.845,119.865Z" transform="translate(-82.951 -47.144)" fill="#407bff"/>
            <path id="Path_8606" data-name="Path 8606" d="M125.845,119.865l38.1,21.893v.509c0,.28.4.395.885.1s.889-.632.889-1.118l.048-.482-38.822-22.3-.155-.091a.519.519,0,0,0-.067.233v.237C126.726,119.139,126.333,119.593,125.845,119.865Z" transform="translate(-82.951 -47.144)" fill="#fff" opacity="0.6"/>
            <path id="Path_8607" data-name="Path 8607" d="M135.394,156.542l24.889-14.3c.314-.162.6-.3.726-.233l-.163-.091-38.1-21.893-.444-.257a1.462,1.462,0,0,0-1.191.178L96.421,134.135a.688.688,0,0,0,0,1.3l36.723,21.1a2.523,2.523,0,0,0,2.25,0Z" transform="translate(-79.838 -47.289)" fill="#407bff"/>
            <path id="Path_8608" data-name="Path 8608" d="M135.394,156.542l24.889-14.3c.314-.162.6-.3.726-.233l-.163-.091-38.1-21.893-.444-.257a1.462,1.462,0,0,0-1.191.178L96.421,134.135a.688.688,0,0,0,0,1.3l36.723,21.1a2.523,2.523,0,0,0,2.25,0Z" transform="translate(-79.838 -47.289)" fill="#fff" opacity="0.8"/>
            <path id="Path_8609" data-name="Path 8609" d="M126.9,118.3l.155.091,38.822,22.316a.312.312,0,0,1,.083-.107l.131-.075.282-.158.345-.2a.354.354,0,0,1,.44.04.2.2,0,0,1,.044.04.624.624,0,0,1,.115.162,1.1,1.1,0,0,1,.1.217,2.046,2.046,0,0,1,.075.249c.024.1.04.193.06.3a1.28,1.28,0,0,1,.02.178v-.6a2.313,2.313,0,0,0-1.135-1.734l-36.727-21.1a2.288,2.288,0,0,0-2.02-.146l-.464.269h0l-.2.111h0a.4.4,0,0,0-.131.162Z" transform="translate(-83.061 -47.06)" fill="#407bff"/>
            <path id="Path_8610" data-name="Path 8610" d="M126.9,118.3l.155.091,38.822,22.316a.312.312,0,0,1,.083-.107l.131-.075.282-.158.345-.2a.354.354,0,0,1,.44.04.2.2,0,0,1,.044.04.624.624,0,0,1,.115.162,1.1,1.1,0,0,1,.1.217,2.046,2.046,0,0,1,.075.249c.024.1.04.193.06.3a1.28,1.28,0,0,1,.02.178v-.6a2.313,2.313,0,0,0-1.135-1.734l-36.727-21.1a2.288,2.288,0,0,0-2.02-.146l-.464.269h0l-.2.111h0a.4.4,0,0,0-.131.162Z" transform="translate(-83.061 -47.06)" fill="#fff" opacity="0.8"/>
            <path id="Path_8611" data-name="Path 8611" d="M139.851,159.055h0l1.54-.889L159.094,148l5.651-3.246c.4-.237.73-.32.75-.2h0v.253c0,.284.4.284.885,0a1.186,1.186,0,0,0,.7-.885v-.276a.394.394,0,0,1,.131-.332l.131-.075.282-.158.345-.2a.354.354,0,0,1,.44.039.2.2,0,0,1,.044.04.491.491,0,0,1,.075.1.193.193,0,0,1,.04.059,1.1,1.1,0,0,1,.1.217,2.04,2.04,0,0,1,.075.249c.024.1.04.193.06.3a1.281,1.281,0,0,1,.02.178v4.289h-.873v-4.075l-.024-.217a.036.036,0,0,0,0-.02,2.492,2.492,0,0,1-1.318,1.631,2.182,2.182,0,0,1-1.064.332,1.194,1.194,0,0,1-.794-.288l-.079.043-.151.091-22.286,12.807-2.385,1.4h0a2.363,2.363,0,0,1-1.111.257v-1A2.351,2.351,0,0,0,139.851,159.055Z" transform="translate(-84.294 -49.798)" fill="#407bff"/>
            <path id="Path_8612" data-name="Path 8612" d="M139.851,159.055h0l1.54-.889L159.094,148l5.651-3.246c.4-.237.73-.32.75-.2h0v.253c0,.284.4.284.885,0a1.186,1.186,0,0,0,.7-.885v-.276a.394.394,0,0,1,.131-.332l.131-.075.282-.158.345-.2a.354.354,0,0,1,.44.039.2.2,0,0,1,.044.04.491.491,0,0,1,.075.1.193.193,0,0,1,.04.059,1.1,1.1,0,0,1,.1.217,2.04,2.04,0,0,1,.075.249c.024.1.04.193.06.3a1.281,1.281,0,0,1,.02.178v4.289h-.873v-4.075l-.024-.217a.036.036,0,0,0,0-.02,2.492,2.492,0,0,1-1.318,1.631,2.182,2.182,0,0,1-1.064.332,1.194,1.194,0,0,1-.794-.288l-.079.043-.151.091-22.286,12.807-2.385,1.4h0a2.363,2.363,0,0,1-1.111.257v-1A2.351,2.351,0,0,0,139.851,159.055Z" transform="translate(-84.294 -49.798)" fill="#fff" opacity="0.6"/>
            <path id="Path_8613" data-name="Path 8613" d="M95.917,136.609v1.031a.79.79,0,0,0,.452.644h0L130.684,158l2.409,1.386h0a2.391,2.391,0,0,0,1.131.265v-1a2.318,2.318,0,0,1-1.135-.269l-1.532-.881h0L96.37,137.273A.79.79,0,0,1,95.917,136.609Z" transform="translate(-79.834 -49.123)" fill="#407bff"/>
            <path id="Path_8614" data-name="Path 8614" d="M95.917,136.609v1.031a.79.79,0,0,0,.452.644h0L130.684,158l2.409,1.386h0a2.391,2.391,0,0,0,1.131.265v-1a2.318,2.318,0,0,1-1.135-.269l-1.532-.881h0L96.37,137.273A.79.79,0,0,1,95.917,136.609Z" transform="translate(-79.834 -49.123)" fill="#fff" opacity="0.1"/>
            <path id="Path_8615" data-name="Path 8615" d="M121.423,119.714a1.462,1.462,0,0,1,1.191-.178l.444.257c.488-.284.881-.738.881-1.019v-.237a.519.519,0,0,1,.067-.233.4.4,0,0,1,.139-.158h0l.2-.111h0l.464-.269a2.288,2.288,0,0,1,2.02.146l36.727,21.1.04.024-25.917,14.892a1.67,1.67,0,0,1-1.512,0L99.2,132.485Z" transform="translate(-80.176 -47.06)" fill="#263238"/>
            <path id="Path_8616" data-name="Path 8616" d="M144.354,155.848l-.98-.561a1.6,1.6,0,0,1,.821-.059C144.457,155.363,144.354,155.848,144.354,155.848Z" transform="translate(-84.777 -51.141)" fill="#407bff"/>
            <path id="Path_8617" data-name="Path 8617" d="M144.354,155.848l-.98-.561a1.6,1.6,0,0,1,.821-.059C144.457,155.363,144.354,155.848,144.354,155.848Z" transform="translate(-84.777 -51.141)" opacity="0.7"/>
            <path id="Path_8618" data-name="Path 8618" d="M144.808,154.611a1.194,1.194,0,0,0-1.75,0c-.956.873-1,1.738-1.4,1.726s-.4-6.97-.4-6.97l3.774,3.479Z" transform="translate(-84.557 -50.508)" fill="#407bff"/>
            <path id="Path_8619" data-name="Path 8619" d="M144.808,154.611a1.194,1.194,0,0,0-1.75,0c-.956.873-1,1.738-1.4,1.726s-.4-6.97-.4-6.97l3.774,3.479Z" transform="translate(-84.557 -50.508)" opacity="0.7"/>
            <path id="Path_8620" data-name="Path 8620" d="M101.173,125.013l-.063-.036.6-.348L127.7,109.7l37.862,24.381c.623.359.734.881.246,1.157l-.885.509-24.286,13.976-.175-.126Z" transform="translate(-80.375 -46.203)" fill="#407bff"/>
            <path id="Path_8621" data-name="Path 8621" d="M101.173,125.013l-.063-.036.6-.348L127.7,109.7l37.862,24.381c.623.359.734.881.246,1.157l-.885.509-24.286,13.976-.175-.126Z" transform="translate(-80.375 -46.203)" opacity="0.5"/>
            <path id="Path_8622" data-name="Path 8622" d="M141.6,145.624l1.881-.395v7.5c-1.135.482-1.857.932-1.984,1.876Z" transform="translate(-84.581 -50.059)" fill="#455a64"/>
            <path id="Path_8623" data-name="Path 8623" d="M144.511,151.016l24.06-13.822a1.661,1.661,0,0,0,.758-1.3V128.5l-24.294,14.078a2.217,2.217,0,0,1-1.151,1.374c-.861.328-.2.663-.2.663v6.318C144.424,150.831,144.511,151.016,144.511,151.016Z" transform="translate(-84.784 -48.243)" fill="#f0f0f0"/>
            <path id="Path_8624" data-name="Path 8624" d="M137.608,142.462c.25-.142.448-.15.448,0v.233c0,.261.4.249.889-.036s.889-.719.889-.979v-.237c0-.134.337-.434.75-.671l-39.144-22.32-.607.348a.564.564,0,0,0-.151.324v.237c0,.261-.4.7-.885.979s-.889.3-.889.036v-.237c0-.134-.2-.122-.444.02Z" transform="translate(-80.099 -47.153)" fill="#407bff"/>
            <path id="Path_8625" data-name="Path 8625" d="M137.608,142.462c.25-.142.448-.15.448,0v.233c0,.261.4.249.889-.036s.889-.719.889-.979v-.237c0-.134.337-.434.75-.671l-39.144-22.32-.607.348a.564.564,0,0,0-.151.324v.237c0,.261-.4.7-.885.979s-.889.3-.889.036v-.237c0-.134-.2-.122-.444.02Z" transform="translate(-80.099 -47.153)" opacity="0.6"/>
            <path id="Path_8626" data-name="Path 8626" d="M101.173,117l-.063-.036.6-.348L127.7,101.689l37.862,21.759c.623.359.734.877.246,1.157l-.885.505-24.294,14.56Z" transform="translate(-80.375 -45.334)" fill="#407bff"/>
            <path id="Path_8627" data-name="Path 8627" d="M101.173,117l-.063-.036.6-.348L127.7,101.689l37.862,21.759c.623.359.734.877.246,1.157l-.885.505-24.294,14.56Z" transform="translate(-80.375 -45.334)" opacity="0.5"/>
            <path id="Path_8628" data-name="Path 8628" d="M98.81,120.073l39.136,22.486-1.369,1.066-38.989-22.4a1.485,1.485,0,0,1,.52-.723Z" transform="translate(-80.008 -47.329)" fill="#407bff"/>
            <path id="Path_8629" data-name="Path 8629" d="M98.81,120.073l39.136,22.486-1.369,1.066-38.989-22.4a1.485,1.485,0,0,1,.52-.723Z" transform="translate(-80.008 -47.329)" opacity="0.5"/>
            <path id="Path_8630" data-name="Path 8630" d="M97.677,131.413a.43.43,0,0,1-.067-.051.107.107,0,0,1-.044-.039.415.415,0,0,1-.079-.107.142.142,0,0,1-.04-.055.909.909,0,0,1-.1-.217,1.709,1.709,0,0,1-.079-.253c-.024-.095-.04-.19-.056-.292a.913.913,0,0,1-.024-.178v-6.915a5.226,5.226,0,0,1,.365-1.975l38.989,22.4.163,10.078L97.721,131.4Z" transform="translate(-79.966 -47.465)" fill="#407bff"/>
            <path id="Path_8631" data-name="Path 8631" d="M97.677,131.413a.43.43,0,0,1-.067-.051.107.107,0,0,1-.044-.039.415.415,0,0,1-.079-.107.142.142,0,0,1-.04-.055.909.909,0,0,1-.1-.217,1.709,1.709,0,0,1-.079-.253c-.024-.095-.04-.19-.056-.292a.913.913,0,0,1-.024-.178v-6.915a5.226,5.226,0,0,1,.365-1.975l38.989,22.4.163,10.078L97.721,131.4Z" transform="translate(-79.966 -47.465)" opacity="0.7"/>
            <path id="Path_8632" data-name="Path 8632" d="M136.517,143.746h0s-30.707-14.3-33.5-15.611c-1.845-.865-2.75.952-2.314,2.831a9.112,9.112,0,0,0,2.012,3.337h0l-5.02-2.887h0a.431.431,0,0,1-.067-.051.107.107,0,0,1-.044-.039.415.415,0,0,1-.079-.107.142.142,0,0,1-.04-.055.911.911,0,0,1-.1-.217,1.711,1.711,0,0,1-.079-.253c-.024-.095-.04-.19-.056-.292a.912.912,0,0,1-.024-.178v-6.919a5.226,5.226,0,0,1,.365-1.975Z" transform="translate(-79.968 -47.465)" fill="#263238" opacity="0.79"/>
            <path id="Path_8633" data-name="Path 8633" d="M140.685,146.311h.873a3.933,3.933,0,0,1,.421-1.9,1.194,1.194,0,0,0,.718.233,2.266,2.266,0,0,0,1.083-.34,3.312,3.312,0,0,0,1.008-.881.568.568,0,0,0,.056-.079,1.421,1.421,0,0,0,.258-.742l23.044-13.237.794-.454,1-.573a.521.521,0,0,0,.306-.446v-1.015a.533.533,0,0,1-.306.458h0l-2.647,1.516L145.01,141.663c-.417.237-.754.537-.754.671v.237a.714.714,0,0,1-.206.395,2.481,2.481,0,0,1-.683.569c-.492.284-.889.3-.889.036v-.233c0-.138-.194-.126-.444,0l-.44.257A3.618,3.618,0,0,0,140.685,146.311Z" transform="translate(-84.497 -48.067)" fill="#407bff"/>
            <path id="Path_8634" data-name="Path 8634" d="M141.562,147.5v6.7l.02.217a.035.035,0,0,0,0,.02,2.492,2.492,0,0,1,1.317-1.631,2.186,2.186,0,0,1,1.067-.332,1.194,1.194,0,0,1,.794.288l.075-.043.155-.091,22.282-12.807,1.282-.735.365-.213,1.079-.62a.505.505,0,0,0,.238-.415v1.015a.5.5,0,0,1-.222.395h0c-.127.075-.262.146-.4.229l-.25.146-.429.245c-.1.059-.183.111-.266.154s-.131.079-.186.107l-.329.193-17.7,10.165-5.651,3.246c-.4.237-.726.32-.75.2a.235.235,0,0,1,0-.043v-.225c0-.284-.4-.284-.885,0a1.186,1.186,0,0,0-.7.885v.276a.394.394,0,0,1-.131.332l-.131.075-.278.158-.345.2a.354.354,0,0,1-.44-.039.107.107,0,0,1-.044-.04.4.4,0,0,1-.079-.1h0a.28.28,0,0,1-.04-.055.908.908,0,0,1-.1-.217,1.524,1.524,0,0,1-.079-.249c-.024-.1-.04-.193-.056-.3a.873.873,0,0,1-.024-.178c0-.047,0-.091,0-.146V147.5Z" transform="translate(-84.501 -49.257)" fill="#407bff"/>
            <g id="Group_2537" data-name="Group 2537" transform="translate(56.188 78.814)" opacity="0.6">
              <path id="Path_8635" data-name="Path 8635" d="M140.685,146.311h.873a3.933,3.933,0,0,1,.421-1.9,1.194,1.194,0,0,0,.718.233,2.266,2.266,0,0,0,1.083-.34,3.312,3.312,0,0,0,1.008-.881.568.568,0,0,0,.056-.079,1.421,1.421,0,0,0,.258-.742l23.044-13.237.794-.454,1-.573a.521.521,0,0,0,.306-.446v-1.015a.533.533,0,0,1-.306.458h0l-2.647,1.516L145.01,141.663c-.417.237-.754.537-.754.671v.237a.714.714,0,0,1-.206.395,2.481,2.481,0,0,1-.683.569c-.492.284-.889.3-.889.036v-.233c0-.138-.194-.126-.444,0l-.44.257A3.618,3.618,0,0,0,140.685,146.311Z" transform="translate(-140.685 -126.881)"/>
              <path id="Path_8636" data-name="Path 8636" d="M141.562,147.5v6.7l.02.217a.035.035,0,0,0,0,.02,2.492,2.492,0,0,1,1.317-1.631,2.186,2.186,0,0,1,1.067-.332,1.194,1.194,0,0,1,.794.288l.075-.043.155-.091,22.282-12.807,1.282-.735.365-.213,1.079-.62a.505.505,0,0,0,.238-.415v1.015a.5.5,0,0,1-.222.395h0c-.127.075-.262.146-.4.229l-.25.146-.429.245c-.1.059-.183.111-.266.154s-.131.079-.186.107l-.329.193-17.7,10.165-5.651,3.246c-.4.237-.726.32-.75.2a.235.235,0,0,1,0-.043v-.225c0-.284-.4-.284-.885,0a1.186,1.186,0,0,0-.7.885v.276a.394.394,0,0,1-.131.332l-.131.075-.278.158-.345.2a.354.354,0,0,1-.44-.039.107.107,0,0,1-.044-.04.4.4,0,0,1-.079-.1h0a.28.28,0,0,1-.04-.055.908.908,0,0,1-.1-.217,1.524,1.524,0,0,1-.079-.249c-.024-.1-.04-.193-.056-.3a.873.873,0,0,1-.024-.178c0-.047,0-.091,0-.146V147.5Z" transform="translate(-140.689 -128.071)"/>
            </g>
            <path id="Path_8637" data-name="Path 8637" d="M97.565,119.306,134.622,140.6l28.009-16.092a.457.457,0,0,0,0-.869l-36.667-21.072-24.6,14.145h0l-.607.351a.559.559,0,0,0-.147.32v.237c0,.261-.4.7-.885.979a.369.369,0,0,1-.079.04l-.817-.47-.4.221-.056.028h0l-.286.166a1.493,1.493,0,0,0-.52.723Z" transform="translate(-80.005 -45.429)" fill="#263238"/>
            <path id="Path_8638" data-name="Path 8638" d="M167.758,127.254l-1.115-.592,1.016-.241a.751.751,0,0,1,.1.833Z" transform="translate(-87.201 -48.017)" fill="#e0e0e0"/>
            <path id="Path_8639" data-name="Path 8639" d="M167.758,127.254l-1.115-.592,1.016-.241a.751.751,0,0,1,.1.833Z" transform="translate(-87.201 -48.017)" fill="#e0e0e0" opacity="0.5"/>
            <path id="Path_8640" data-name="Path 8640" d="M130.576,139.208a2.515,2.515,0,0,0,2.266,0L158.294,124.6,120.2,100.63l-.893-.513L93.856,116.8a.688.688,0,0,0,0,1.3Z" transform="translate(-79.57 -45.163)" fill="#407bff"/>
            <path id="Path_8641" data-name="Path 8641" d="M145.205,110.642l19.231,12.969-10.353-7.9,5.746-3.3,6.683,3.85v6.867c0,.584-.655,1.41-.893,1.276a6.61,6.61,0,0,0-1.278.45,9.591,9.591,0,0,0-1.845,1.358L142.1,112.419Z" transform="translate(-84.645 -46.305)" fill="#407bff"/>
            <path id="Path_8642" data-name="Path 8642" d="M145.205,110.642l19.231,12.969-10.353-7.9,5.746-3.3,6.683,3.85v6.867c0,.584-.655,1.41-.893,1.276a6.61,6.61,0,0,0-1.278.45,9.591,9.591,0,0,0-1.845,1.358L142.1,112.419Z" transform="translate(-84.645 -46.305)" opacity="0.2"/>
            <path id="Path_8643" data-name="Path 8643" d="M136.162,132.614v7.93a1.559,1.559,0,0,0,.758-.178l2.778-1.6,21.27-12.218v-8.19Z" transform="translate(-84.026 -47.142)" fill="#fff"/>
            <path id="Path_8644" data-name="Path 8644" d="M94.615,111.187v6.583a1.669,1.669,0,0,0,.754,1.3l32.937,18.916,2.778,1.6a1.554,1.554,0,0,0,.754.178v-7.314Z" transform="translate(-79.698 -46.364)" fill="#f0f0f0"/>
            <path id="Path_8645" data-name="Path 8645" d="M163.866,126.326a1.473,1.473,0,0,1,.317-.821,3.261,3.261,0,0,1,1.008-.881,2.282,2.282,0,0,1,1.087-.34,1.135,1.135,0,0,1,.714.166v-8.111l-3.123,1.8Z" transform="translate(-86.911 -46.923)" fill="#455a64"/>
            <path id="Path_8646" data-name="Path 8646" d="M165.112,124.925a3.308,3.308,0,0,0-.929.833,1.473,1.473,0,0,0-.317.821v-7.9h1.242Z" transform="translate(-86.911 -47.178)" fill="#f5f5f5"/>
            <path id="Path_8647" data-name="Path 8647" d="M123.311,92.472l38.1,21.9v.505c0,.284.4.395.885.107s.893-.636.893-1.122l.048-.482-38.822-22.3-.159-.091a.515.515,0,0,0-.063.237v.233C124.192,91.733,123.8,92.187,123.311,92.472Z" transform="translate(-82.687 -44.172)" fill="#407bff"/>
            <path id="Path_8648" data-name="Path 8648" d="M123.311,92.472l38.1,21.9v.505c0,.284.4.395.885.107s.893-.636.893-1.122l.048-.482-38.822-22.3-.159-.091a.515.515,0,0,0-.063.237v.233C124.192,91.733,123.8,92.187,123.311,92.472Z" transform="translate(-82.687 -44.172)" opacity="0.2"/>
            <path id="Path_8649" data-name="Path 8649" d="M132.841,129.135l24.905-14.3c.317-.166.607-.3.726-.237l-.163-.087-38.1-21.9-.448-.253a1.426,1.426,0,0,0-1.19.178L93.856,106.729a.688.688,0,0,0,0,1.3l36.727,21.1A2.515,2.515,0,0,0,132.841,129.135Z" transform="translate(-79.57 -44.315)" fill="#407bff"/>
            <path id="Path_8650" data-name="Path 8650" d="M124.365,90.9l.159.091,38.83,22.3a.312.312,0,0,1,.083-.107l.131-.071.278-.162.345-.2a.359.359,0,0,1,.44.04.206.206,0,0,1,.044.039.856.856,0,0,1,.119.162,1.093,1.093,0,0,1,.1.217,2.359,2.359,0,0,1,.079.253c.02.095.04.19.056.292a1.335,1.335,0,0,1,.024.182v-.6a2.305,2.305,0,0,0-1.135-1.738l-36.727-21.1a2.284,2.284,0,0,0-2.02-.142l-.464.269h0l-.194.115h0A.4.4,0,0,0,124.365,90.9Z" transform="translate(-82.797 -44.084)" fill="#407bff"/>
            <path id="Path_8651" data-name="Path 8651" d="M137.3,141.8l1.536-.885,23.044-13.241a1.485,1.485,0,0,1,.317-.821,3.321,3.321,0,0,1,1.008-.881,2.305,2.305,0,0,1,1.083-.336,1.151,1.151,0,0,1,.718.233,3.96,3.96,0,0,0,.421-1.9h.873a3.583,3.583,0,0,1-.885,2.681l-.44.257c-.25.142-.444.15-.444,0v-.233c0-.261-.4-.249-.893.032s-.885.723-.885.983v.233c0,.134-.337.434-.754.675L139.71,141.4l-2.413,1.386h0a2.39,2.39,0,0,1-1.131.265v-1A2.307,2.307,0,0,0,137.3,141.8Z" transform="translate(-84.026 -47.751)" fill="#407bff"/>
            <path id="Path_8652" data-name="Path 8652" d="M137.3,141.8l1.536-.885,23.044-13.241a1.485,1.485,0,0,1,.317-.821,3.321,3.321,0,0,1,1.008-.881,2.305,2.305,0,0,1,1.083-.336,1.151,1.151,0,0,1,.718.233,3.96,3.96,0,0,0,.421-1.9h.873a3.583,3.583,0,0,1-.885,2.681l-.44.257c-.25.142-.444.15-.444,0v-.233c0-.261-.4-.249-.893.032s-.885.723-.885.983v.233c0,.134-.337.434-.754.675L139.71,141.4l-2.413,1.386h0a2.39,2.39,0,0,1-1.131.265v-1A2.307,2.307,0,0,0,137.3,141.8Z" transform="translate(-84.026 -47.751)" opacity="0.4"/>
            <path id="Path_8653" data-name="Path 8653" d="M137.29,131.648h0l1.536-.885,17.7-10.165,5.675-3.254c.4-.233.73-.316.754-.194v.257c0,.28.4.28.885,0a1.186,1.186,0,0,0,.7-.889v-.276a.394.394,0,0,1,.131-.332l.131-.071.278-.162.345-.2a.359.359,0,0,1,.44.039.207.207,0,0,1,.044.039.533.533,0,0,1,.079.107.339.339,0,0,1,.04.055,1.1,1.1,0,0,1,.1.217,2.36,2.36,0,0,1,.079.253c.02.095.04.19.056.292a1.34,1.34,0,0,1,.024.182v6.358h-.873V116.9l-.02-.217a2.486,2.486,0,0,1-1.321,1.631,2.154,2.154,0,0,1-1.064.332,1.194,1.194,0,0,1-.794-.288l-.075.043-.155.091L139.7,131.3l-2.413,1.386h0a2.367,2.367,0,0,1-1.115.257v-1a2.351,2.351,0,0,0,1.119-.292Z" transform="translate(-84.027 -46.824)" fill="#407bff"/>
            <path id="Path_8654" data-name="Path 8654" d="M137.29,131.648h0l1.536-.885,17.7-10.165,5.675-3.254c.4-.233.73-.316.754-.194v.257c0,.28.4.28.885,0a1.186,1.186,0,0,0,.7-.889v-.276a.394.394,0,0,1,.131-.332l.131-.071.278-.162.345-.2a.359.359,0,0,1,.44.039.207.207,0,0,1,.044.039.533.533,0,0,1,.079.107.339.339,0,0,1,.04.055,1.1,1.1,0,0,1,.1.217,2.36,2.36,0,0,1,.079.253c.02.095.04.19.056.292a1.34,1.34,0,0,1,.024.182v6.358h-.873V116.9l-.02-.217a2.486,2.486,0,0,1-1.321,1.631,2.154,2.154,0,0,1-1.064.332,1.194,1.194,0,0,1-.794-.288l-.075.043-.155.091L139.7,131.3l-2.413,1.386h0a2.367,2.367,0,0,1-1.115.257v-1a2.351,2.351,0,0,0,1.119-.292Z" transform="translate(-84.027 -46.824)" opacity="0.4"/>
            <path id="Path_8655" data-name="Path 8655" d="M93.384,109.2v1.019a.79.79,0,0,0,.448.644h0l34.318,19.714,2.409,1.386h0a2.391,2.391,0,0,0,1.127.265v-1a2.3,2.3,0,0,1-1.131-.269l-1.532-.881h0L93.856,109.866A.766.766,0,0,1,93.384,109.2Z" transform="translate(-79.57 -46.149)" fill="#407bff"/>
            <path id="Path_8656" data-name="Path 8656" d="M93.384,109.2v1.019a.79.79,0,0,0,.448.644h0l34.318,19.714,2.409,1.386h0a2.391,2.391,0,0,0,1.127.265v-1a2.3,2.3,0,0,1-1.131-.269l-1.532-.881h0L93.856,109.866A.766.766,0,0,1,93.384,109.2Z" transform="translate(-79.57 -46.149)" opacity="0.2"/>
            <path id="Path_8657" data-name="Path 8657" d="M93.384,119.541v1.019a.79.79,0,0,0,.448.644h0l34.334,19.718,2.409,1.386h0a2.39,2.39,0,0,0,1.127.265v-1a2.3,2.3,0,0,1-1.131-.269l-1.532-.881h0L93.856,120.2a.766.766,0,0,1-.472-.663Z" transform="translate(-79.57 -47.271)" fill="#407bff"/>
            <path id="Path_8658" data-name="Path 8658" d="M93.384,119.541v1.019a.79.79,0,0,0,.448.644h0l34.334,19.718,2.409,1.386h0a2.39,2.39,0,0,0,1.127.265v-1a2.3,2.3,0,0,1-1.131-.269l-1.532-.881h0L93.856,120.2a.766.766,0,0,1-.472-.663Z" transform="translate(-79.57 -47.271)" opacity="0.2"/>
            <path id="Path_8659" data-name="Path 8659" d="M110.653,79.35l-3.643,6.461,5.31,2.812,3.865-5.726Z" transform="translate(-80.989 -42.909)" fill="#ffa8a7"/>
            <path id="Path_8660" data-name="Path 8660" d="M123.95,63.007c-2.024-.344-5.087-.434-7.08,2.966s-6.286,11.792-6.286,11.792a11.1,11.1,0,0,0,6.139,3.819l5.933-9.367Z" transform="translate(-81.362 -41.118)" fill="#407bff"/>
            <rect id="Rectangle_85" data-name="Rectangle 85" width="4.532" height="7.72" transform="translate(33.275 101.012)" fill="#ffa8a7"/>
            <path id="Path_8661" data-name="Path 8661" d="M104.968,148.678l-4.532.154-.226-8.171,4.528-.154Z" transform="translate(-80.281 -49.546)" fill="#ffa8a7"/>
            <path id="Path_8662" data-name="Path 8662" d="M114.274,157.864v-.644c-.433.186-1.44,4.012-3.238,5.643-1.429,1.3-3.377,2.8-3.873,4.241-.516,1.5,2.714,2.338,4.048,2.1,1.552-.272,4.242-1.358,4.917-2.369s.992-2.492,1.54-3.23,1.814-1.58,2.111-2.421a5.48,5.48,0,0,0-.258-2.369c-.21-.79-.44-1.674-.714-1.6v.49a3.592,3.592,0,0,1-2.266.762C115.877,158.5,114.27,158.369,114.274,157.864Z" transform="translate(-80.999 -51.359)" fill="#263238"/>
            <path id="Path_8663" data-name="Path 8663" d="M99.157,148.255c-.234,0-.425.34-.944.9a9.856,9.856,0,0,1-2.667,1.907c-1.7.849-4.988,2.148-6.488,2.824-.933.419-.889,1.54.075,2.18s3.29,1.1,6.087.474c1.52-.34,3.5-1.738,4.762-1.663s3.6.059,4.528-.577.556-1.975.294-3.159c-.286-1.272-.694-3.218-1.119-3.132v.395c-.544.821-3.318,1.157-4.516.553Z" transform="translate(-79.049 -50.36)" fill="#263238"/>
            <path id="Path_8664" data-name="Path 8664" d="M135.839,98.5c.992,6.97-.345,8.293-7,14.983-3.572,3.59-9.345,8.854-9.345,8.854s.083,2.227.127,7.219c.044,4.4-1.8,18.7-1.8,18.7s-3.008,1.26-5.072-.047c0,0-.933-10.643-1.437-16.191-.683-7.5-1.04-11.286-.655-12.9.341-1.426,7.115-9.94,8.679-12.325l-14.4,8.325a48.663,48.663,0,0,1,.421,6.362c-.159,5.967-.9,17.885-.9,17.885s-3.294,1.465-4.929.2c0,0-4.147-26.064-4.147-28.2,0-3.25,14.183-12.953,16.869-15.212,1.532-1.287,3.238-2.681,3.238-2.681Z" transform="translate(-79.778 -44.441)" fill="#455a64"/>
            <path id="Path_8665" data-name="Path 8665" d="M120.445,107.85a10.358,10.358,0,0,1-3.29-4.672,23.4,23.4,0,0,0,.512,3.554c.4,1.548-11.619,9.438-11.619,9.438Z" transform="translate(-80.889 -45.495)" fill="#37474f"/>
            <path id="Path_8699" data-name="Path 8699" d="M6.325-.067a6.431,6.431,0,1,1-6.4,6.424A6.434,6.434,0,0,1,6.325-.067Z" transform="translate(33.654 12.676) rotate(-76.81)" fill="#263238"/>
            <path id="Path_8666" data-name="Path 8666" d="M136.864,66.9s1.587,1.3,1.587,5.386v8.834l-.226,14.856c-3.175,3.44-17.461,2.136-21-5.367,0,0,.028-15.682.028-19.2s1.984-8.076,7.381-8.392l6.992,1.619Z" transform="translate(-82.054 -41.138)" fill="#263238"/>
            <path id="Path_8667" data-name="Path 8667" d="M136.153,52.51a55.506,55.506,0,0,1-1.46,5.675,2.2,2.2,0,0,1-1.282,1.027l.071-3.428Z" transform="translate(-83.739 -39.996)" fill="#263238"/>
            <path id="Path_8668" data-name="Path 8668" d="M134.932,44.677a2.416,2.416,0,0,1,1.984.7c.857.873.377,3.605-.69,6.283l-1.964.225Z" transform="translate(-83.828 -39.145)" fill="#263238"/>
            <path id="Path_8669" data-name="Path 8669" d="M132,51.517c.4.233.956-.517,1.441-1.023a1.718,1.718,0,0,1,2.861.462c.79,1.647-.7,3.921-1.944,4.312-2.151.671-2.476-.7-2.476-.7l-.163,7.72c-1.853,2.061-8.191,1.58-7-.205V59.711a13.577,13.577,0,0,1-2.9.15c-1.587-.245-2.579-1.485-3.06-3.191-.77-2.737-1.064-4.944-.4-10.327.718-5.9,7.611-5.959,11.334-3.629S132,51.517,132,51.517Z" transform="translate(-82.133 -38.778)" fill="#ffa8a7"/>
            <path id="Path_8670" data-name="Path 8670" d="M127.212,53.746h-.333a2.184,2.184,0,1,1,0-4.368h.337a2.184,2.184,0,1,1,0,4.368Zm-.333-4a1.817,1.817,0,1,0,0,3.633h.337a1.817,1.817,0,1,0,0-3.633Z" transform="translate(-82.83 -39.657)" fill="#263238"/>
            <path id="Path_8671" data-name="Path 8671" d="M119.752,53.746h-.337a2.184,2.184,0,1,1,0-4.368h.337a2.184,2.184,0,1,1,0,4.368Zm-.337-4a1.817,1.817,0,1,0,0,3.633h.337a1.817,1.817,0,1,0,0-3.633Z" transform="translate(-82.053 -39.657)" fill="#263238"/>
            <path id="Path_8672" data-name="Path 8672" d="M124.424,51.23a1.455,1.455,0,0,0-1.159-.588,1.194,1.194,0,0,0-1.012.395l-.294-.221a1.52,1.52,0,0,1,1.325-.525,1.8,1.8,0,0,1,1.456.762Z" transform="translate(-82.546 -39.755)" fill="#263238"/>
            <rect id="Rectangle_86" data-name="Rectangle 86" width="4.667" height="0.367" transform="translate(46.374 11.459)" fill="#263238"/>
            <path id="Path_8673" data-name="Path 8673" d="M131.918,51.872c.2,0,.948-1.24,1.441-1.682.679-.616-.2-6.184-.2-6.184a2.621,2.621,0,0,0-.655-2.816c-.929-1.019-2.484-1.133-5.139-1.548-1.393-.217-3.5-.608-4.9-.865-1.659-.308-3.036-.632-4.206.395a2.921,2.921,0,0,0-.814,3.282,3.007,3.007,0,0,0,1.667,1.52s.722.64,3.242.944a37.373,37.373,0,0,0,6.98-.13c.73-.1.885.6,1.282,2.531C130.965,49,131.263,51.86,131.918,51.872Z" transform="translate(-82.055 -38.473)" fill="#263238"/>
            <path id="Path_8674" data-name="Path 8674" d="M134.988,44.938l2.381-1.276a1.316,1.316,0,0,0-1.8-.592,1.418,1.418,0,0,0-.579,1.868Z" transform="translate(-83.888 -38.955)" fill="#263238"/>
            <path id="Path_8675" data-name="Path 8675" d="M125.5,61.607a27.129,27.129,0,0,0,4.762-1.358,4.062,4.062,0,0,0,1.706-1.682A5.517,5.517,0,0,1,131,60.54c-.9,1.149-5.5,1.994-5.5,1.994Z" transform="translate(-82.915 -40.654)" fill="#f28f8f"/>
            <path id="Path_8676" data-name="Path 8676" d="M126.452,51.69a.71.71,0,1,0,.706-.735A.72.72,0,0,0,126.452,51.69Z" transform="translate(-83.014 -39.828)" fill="#263238"/>
            <path id="Path_8677" data-name="Path 8677" d="M127.719,48.454l1.516.829a.906.906,0,0,0-.353-1.185.847.847,0,0,0-1.163.355Z" transform="translate(-83.146 -39.506)" fill="#263238"/>
            <path id="Path_8678" data-name="Path 8678" d="M125.675,57.232l-1.615.6a.846.846,0,0,0,1.1.533.9.9,0,0,0,.52-1.137Z" transform="translate(-82.765 -40.509)" fill="#f28f8f"/>
            <path id="Path_8679" data-name="Path 8679" d="M119.186,49.03l1.381-1.054a.836.836,0,0,0-1.19-.186.905.905,0,0,0-.19,1.24Z" transform="translate(-82.24 -39.466)" fill="#263238"/>
            <path id="Path_8680" data-name="Path 8680" d="M119.882,51.464a.71.71,0,1,0,.706-.735.72.72,0,0,0-.706.735Z" transform="translate(-82.33 -39.803)" fill="#263238"/>
            <path id="Path_8681" data-name="Path 8681" d="M123.481,50.92l-.079,4.269-2.536-.557Z" transform="translate(-82.432 -39.824)" fill="#f28f8f"/>
            <path id="Path_8682" data-name="Path 8682" d="M115.046,90.1v.395a1.148,1.148,0,0,1-.579,1l-11.02,6.318a1.16,1.16,0,0,1-1.155,0L82.074,86.194a1.148,1.148,0,0,1-.579-1v-.28L102.868,97.2Z" transform="translate(-78.331 -43.513)" fill="#407bff"/>
            <path id="Path_8683" data-name="Path 8683" d="M115.046,90.1v.395a1.148,1.148,0,0,1-.579,1l-11.02,6.318a1.16,1.16,0,0,1-1.155,0L82.074,86.194a1.148,1.148,0,0,1-.579-1v-.28L102.868,97.2Z" transform="translate(-78.331 -43.513)" opacity="0.6"/>
            <path id="Path_8684" data-name="Path 8684" d="M81.507,84.073,93.5,77.186a.693.693,0,0,1,.69,0l20.794,11.95a.154.154,0,0,1,0,.265l-12.1,6.95Z" transform="translate(-78.333 -42.664)" fill="#407bff"/>
            <path id="Path_8685" data-name="Path 8685" d="M81.507,84.073,93.5,77.186a.693.693,0,0,1,.69,0l20.794,11.95a.154.154,0,0,1,0,.265l-12.1,6.95Z" transform="translate(-78.333 -42.664)" opacity="0.5"/>
            <path id="Path_8686" data-name="Path 8686" d="M103.275,95.787l6.464-3.712L90.834,81.215l-6.5,3.692Z" transform="translate(-78.627 -43.112)" fill="#263238"/>
            <path id="Path_8687" data-name="Path 8687" d="M107.974,85.579l-.119.067-3.171,1.821-5.635-3.238-.115-.067,3.286-1.888Z" transform="translate(-80.148 -43.226)" fill="#263238"/>
            <path id="Path_8688" data-name="Path 8688" d="M107.868,85.663,104.7,87.483l-5.635-3.238,3.171-1.82Z" transform="translate(-80.161 -43.243)" fill="#263238"/>
            <path id="Path_8689" data-name="Path 8689" d="M102.868,97.2v.766a1.155,1.155,0,0,1-.575-.154L82.074,86.2a1.148,1.148,0,0,1-.579-1v-.28Z" transform="translate(-78.331 -43.514)" opacity="0.7"/>
            <path id="Path_8690" data-name="Path 8690" d="M102.171,95.614a1.363,1.363,0,0,1-1.19-.091L80.853,83.96a1.359,1.359,0,0,1-.667-.952l-2.2-13.079a1.386,1.386,0,0,1-.02-.221,1.367,1.367,0,0,1,.4-.971L99.278,80.757a1.015,1.015,0,0,1,.512.707Z" transform="translate(-77.964 -41.757)" fill="#407bff"/>
            <path id="Path_8691" data-name="Path 8691" d="M102.171,95.614a1.363,1.363,0,0,1-1.19-.091L80.853,83.96a1.359,1.359,0,0,1-.667-.952l-2.2-13.079a1.386,1.386,0,0,1-.02-.221,1.367,1.367,0,0,1,.4-.971L99.278,80.757a1.015,1.015,0,0,1,.512.707Z" transform="translate(-77.964 -41.757)" opacity="0.5"/>
            <path id="Path_8692" data-name="Path 8692" d="M102.549,95.418l-.135.079a1.387,1.387,0,0,1-.19.091L99.842,81.439a1.015,1.015,0,0,0-.492-.707L78.433,68.711a1.344,1.344,0,0,1,.278-.209L99.672,80.542a1.015,1.015,0,0,1,.492.707Z" transform="translate(-78.013 -41.732)" fill="#e0e0e0"/>
            <path id="Path_8693" data-name="Path 8693" d="M91.922,84.992A4.423,4.423,0,0,0,89.894,82.4c-.972-.557-1.643-.3-1.492.573a4.445,4.445,0,0,0,2.028,2.6C91.4,86.129,92.073,85.869,91.922,84.992Z" transform="translate(-79.049 -43.208)" fill="#407bff"/>
            <path id="Path_8694" data-name="Path 8694" d="M95.986,94.044a7.027,7.027,0,0,0-.329-1.667c-.31-.968-1.23-4.7-3.333-5.256a1.5,1.5,0,0,0-.77-.024,1.563,1.563,0,0,0-.964,1.3,9.067,9.067,0,0,0,0,2.409,4.733,4.733,0,0,0-1.123-.936,2.3,2.3,0,0,0-1.29-.458.4.4,0,0,0-.337.158.388.388,0,0,0,.119.434c.21.253.468.466.679.719a7.376,7.376,0,0,1,.456.687c.266.426.564.829.861,1.236a8.668,8.668,0,0,0,2.119,2.18,8.011,8.011,0,0,0,3.175,1.26,9.72,9.72,0,0,0,4-.17Z" transform="translate(-78.989 -43.746)" fill="#ffa8a7"/>
            <path id="Path_8695" data-name="Path 8695" d="M135.8,67.491c-1.417-.727-3.488,2.152-2.829,5.161s3.9,13.589,3.9,13.589-14.663,1.3-15.909,1.457a6.666,6.666,0,0,1-2.647-.6c-1.1-.363-2.2-.616-3.282-1.011a1.4,1.4,0,0,0-.6-.126.472.472,0,0,0-.44.367.622.622,0,0,0,.091.351,4.615,4.615,0,0,0,1.512,1.753,6.745,6.745,0,0,1,.889.624c.171.17.548.64.4.9l-5.826,3.337s1.341,1.161,6.2-.194a31.9,31.9,0,0,0,5.107-1.8s17.278.715,20.4-.225c1.1-.336,1.5-1.114.754-4.652-.853-4.1-3.3-11.575-3.857-13.549C138.448,68.589,138.159,68.688,135.8,67.491Z" transform="translate(-81.411 -41.61)" fill="#ffa8a7"/>
            <path id="Path_8696" data-name="Path 8696" d="M137.545,66.818a7.5,7.5,0,0,1,3.349,1.975c1.008,1.319,4.9,14.078,4.9,14.078a9.159,9.159,0,0,1-7.4,1.975s-3.127-8.826-3.46-11.184C134.334,70.009,136.128,67.134,137.545,66.818Z" transform="translate(-83.885 -41.549)" fill="#407bff"/>
            <path id="Path_8697" data-name="Path 8697" d="M123.755,76.266c-.19-.987.429-1.52,1.385-1.185A3.488,3.488,0,0,1,127.2,77.45C127.393,78.45,123.941,77.245,123.755,76.266Z" transform="translate(-82.73 -42.435)" fill="#407bff"/>
            <path id="Path_8698" data-name="Path 8698" d="M129.964,79.483,127.151,77.7c.143.758-.885.652-1.81.332s-2.056-.968-2.2-1.726l-2.452-.032c-.226,0-.23.292,0,.533a11.757,11.757,0,0,0,4.988,2.9c2.968,1.031,4.107.711,4.536.395C130.349,79.988,130.222,79.644,129.964,79.483Z" transform="translate(-82.396 -42.576)" fill="#407bff"/>
          </g>
        </g>
      </g>
    </g>
    <g id="Group_2540" data-name="Group 2540" transform="translate(156 -29.519)">
      <g id="Group_2541" data-name="Group 2541" transform="translate(-61 256.806)">
        <text id="Student" transform="translate(49 38.712)" fill="#fff" font-size="33" font-family="Roboto-Regular, Roboto" letter-spacing="0.05em"><tspan x="0" y="0">Student</tspan></text>
      </g>
    </g>
  </g>
</svg>
